<?xml version="1.0" encoding="utf-8"?>
<!-- Generator: Adobe Illustrator 16.0.0, SVG Export Plug-In . SVG Version: 6.00 Build 0)  -->
<!DOCTYPE svg PUBLIC "-//W3C//DTD SVG 1.1//EN" "http://www.w3.org/Graphics/SVG/1.1/DTD/svg11.dtd">
<svg version="1.1" id="Layer_1" xmlns="http://www.w3.org/2000/svg" xmlns:xlink="http://www.w3.org/1999/xlink" x="0px" y="0px"
	 width="220px" height="120px" viewBox="-477 -166.5 220 120" enable-background="new -477 -166.5 220 120" xml:space="preserve">
<g id="XMLID_975_">
	<g id="XMLID_1003_">
		<g id="XMLID_1004_">
			<path id="XMLID_1012_" fill="#FAAF41" d="M-448.7-105.6c-5.2-0.2-8,2.5-8.4,7.6c-0.1,1.3-0.1,2.7-0.3,4c-0.3,1.8-1.6,2.7-3.2,2.3
				c-1.6-0.4-2.5-1.5-2.6-3.2c-0.4-7.6,4.1-13.8,12.1-16c3.9-1.1,7.8-1.5,11.7-2.2c3.6-0.7,7.3-1.4,10.9-2.2
				c1.8-0.4,2.1-0.2,2.1,1.6c-0.1,3.3-3,6.5-6.6,6.9c-2.5,0.3-5,0.4-7.8,0.6c-0.5,2.2-1,4.5-1.5,6.7c-1.5,7.1-2.9,14.3-4.4,21.4
				c-0.1,0.7-0.4,1.4-0.6,2.2c-1,2.9-2.3,3.8-4.8,3.6c-2.3-0.2-3.2-1.7-2.6-4.4c1.9-9,3.8-18,5.7-27
				C-448.9-104.4-448.8-105-448.7-105.6z"/>
			<g id="XMLID_1005_">
				<path id="XMLID_1007_" fill="#FAAF41" d="M-302.3-115c-1-0.1-2.1,0.2-3.1,3.4c-1,2.2-2.5,4.2-4.7,5.4c-3.1,1.8-6.4,1.4-7.7-1.1
					c0.1-0.1,0.2-0.2,0.3-0.3c5.6-2.4,8.7-7,10.4-12.4c1.5-4.7-0.9-7-5.5-5.8c-2.6,0.7-4.9,2-7,4c-4.2,4.3-6.5,9.2-6.7,14.6
					c-0.1,1.6-0.5,2.9-1.7,4c-1.4,1.4-3,1.1-3.3-0.6c-0.1-0.6-0.2-1.3-0.1-2c0.7-3.9,1.5-7.9,2.4-11.8c0.9-3.7,0.6-4.2-3-4.1
					c-0.1,0-0.2,0-0.4,0c-2.6,0.2-3.5,0.8-4.1,3.4c-0.9,3.9-1.7,7.7-2.4,11.6c-0.5,2.7-3.3,6.5-5.6,7.1c0.7-2.1,1.5-4.1,2.1-6.2
					c0.9-3.7,1.1-7.3-0.6-10.4c-1.8-3.4-5.5-3.7-9-0.7c-0.6,0.5-1.2,1.2-1.9,1.7c-1.3-2-4.2-2.4-6.5-0.8c-0.5,0.4-1,1.2-1.2,1.8
					c-0.6,2.5-1,5-1.5,7.4c-0.7,2.9-1.3,5.8-2.3,8.7c-1.1,1.5-2.8,2.9-4,3.2c0.7-2.1,1.5-4.1,2.1-6.2c0.9-3.7,1.1-7.3-0.6-10.4
					c-1.8-3.4-5.5-3.7-9-0.7c-0.6,0.5-1.2,1.2-1.9,1.7c-1.3-2-4.2-2.4-6.5-0.8c-0.5,0.4-1,1.2-1.2,1.8c-0.6,2.5-1,5-1.5,7.4
					c-0.7,2.9-1.3,5.8-2.3,8.7c-0.5,1.5-1.6,3.3-3.6,3.3c-1.3,0-2-1.9-1.5-4.3c0.9-4.2,1.9-8.5,2.8-12.7c0.1-0.5,0.1-1.5-0.1-1.6
					c-1.8-0.2-3.7-0.6-5.6-0.3c-1.6,0.2-2,1.9-2.3,3.3c-0.7,2.8-1.1,5.7-1.8,8.5c-0.6,2.3-1.2,4.6-2.1,6.8c-0.3,0.7-1.6,1.7-2.2,1.7
					c-0.6,0-1.1-1.1-1.5-1.8c-0.2-0.3-0.1-0.8,0-1.2c0.7-3.7,1.4-7.4,2.3-11.1c0.9-3.8,0.8-4.1-3-4.1c-0.2,0-0.5,0-0.7,0
					c-2.2,0.2-3,0.8-3.6,3c-0.7,2.5-1.2,5-1.8,7.4c-0.7,3.1-0.4,6.2-2.3,9.2c-0.7,1.1-1.4,2.7-2.7,2.2c-0.6-0.2-0.7-1.9-0.5-2.9
					c0.5-2.6,1.4-5.2,2-7.8c0.6-2.9-0.1-4.3-2.6-5c-1.7-0.5-3.6-0.7-5.4-0.9c-1.5-0.1-1.8-0.6-1.6-2.2c0.2-1-0.4-2.6-1.2-2.9
					c-0.9-0.3-2.6,0.1-3.6,0.8c-2.2,1.5-2.7,5-1.2,6.6c0.8,0.8,0.9,1.6,0.6,2.8c-0.8,3.1-3.5,14.7-4.3,17.7
					c-0.3,1.1-0.3,2.2,0.8,2.2c0.8,0,1.8-0.8,2.5-1.5c0.4-0.4,0.5-1.3,0.7-1.9c0.7-2.8,3.4-14,4-16.8c3.5,0.6,3.7,1.1,2.9,4.7
					c-0.6,2.6-1.1,5.2-1.5,7.8c-0.4,2.5-0.2,4.9,2.1,6.1c2.2,1.2,4.7,0.5,7-1.1c1.4-0.9,2.5-2.2,3.9-3.5c2.2,3.7,7.9,3.5,13-2.1
					c3,3.4,6.9,2.2,11.2-0.6c-0.5,2.7-1,5-1.5,7.4c-0.7,3.1,0.7,5.6,3.6,6.1c1.7,0.3,2.7-0.4,3.1-2.1c0.4-1.8,0.7-3.6,1.1-5.4
					c0.4-2.4,0.9-4.9,1.3-7.4c3.2,0.7,6.3,0.5,9.3-0.4l0,0c1.7-0.4,6.2-2.3,8-3.5c-0.5,2.7-1,5.6-1.5,8c-0.7,3.1,0.7,5.6,3.6,6.1
					c1.7,0.3,2.7-0.4,3.1-2.1c0.4-1.8,0.7-3.6,1.1-5.4c0.4-2.4,0.9-4.9,1.3-7.4c7.3,1.6,13.7-1.3,19.8-6.7c1.2,2.9,3.6,3.8,6.9,3
					c3.2-0.8,5.5-3.1,7.4-5.9c0.2,0.1,0.3,0.2,0.4,0.2c3.5,3.4,8,3.4,12.9,1c5.3-2.6,8.5-7.1,9.9-12.6
					C-301.4-113.4-301.2-115-302.3-115z M-376.7-95.6c-0.7,0.9-2.1,1.9-2.8,1.8c-0.7-0.1-1.5-1.4-1.5-2.4c-0.2-3.2,0.9-6.3,3.1-9.1
					c0.6-0.8,1.9-1.6,2.5-1.5c1.9,0,1.5,2.8,1.5,3.1C-374-100.8-374.8-98.1-376.7-95.6z M-349-108.5c-0.2,2.8-0.9,5.6-2.8,8.1
					c-0.7,0.9-2.1,1.9-2.8,1.8c-0.7-0.1-1.5-1.4-1.5-2.4c-0.2-3.2,0.9-6.3,3.1-9.1c0.6-0.8,1.9-1.6,2.5-1.5
					C-348.6-111.6-349-108.8-349-108.5z M-314.7-118.5c0.6-0.5,1.6-1.2,2.2-0.8c0.6,0.3,0.2,1.7-0.1,2.3c-1.2,2.5-3.1,4.3-5.9,5.9
					C-317.9-114.2-316.9-116.6-314.7-118.5z"/>
				<path id="XMLID_1006_" fill="#FAAF41" d="M-325.2-131.6c0.1,2.7-1.1,4.8-3.1,6.5c-2.6,2.2-5.6,1.3-5.9-1.8
					c-0.2-2.4,0.8-4.6,2.7-6.4c1.3-1.3,2.8-1.9,4.4-1.4C-325.6-134.3-325.1-133-325.2-131.6z"/>
			</g>
		</g>
	</g>
	<g id="XMLID_1000_">
		
			<linearGradient id="XMLID_2_" gradientUnits="userSpaceOnUse" x1="-124.5864" y1="25.8413" x2="43.3103" y2="25.8413" gradientTransform="matrix(1 0 0 -1 -325.1348 -115.8652)">
			<stop  offset="0" style="stop-color:#F05A2A"/>
			<stop  offset="1" style="stop-color:#FAAF41"/>
		</linearGradient>
		<path id="XMLID_1002_" opacity="0.75" fill="url(#XMLID_2_)" enable-background="new    " d="M-277.1-155.1
			c-0.3-0.1-0.7,0-0.9,0.2l-23.6,25.2c-0.3,0.3-0.3,0.7-0.1,1c0.2,0.3,0.6,0.5,0.9,0.4l14.8-3C-286.1-131.2-276.8-155-277.1-155.1z"
			/>
		
			<linearGradient id="XMLID_3_" gradientUnits="userSpaceOnUse" x1="-124.5864" y1="21.2666" x2="43.3103" y2="21.2666" gradientTransform="matrix(1 0 0 -1 -325.1348 -115.8652)">
			<stop  offset="0" style="stop-color:#F05A2A"/>
			<stop  offset="1" style="stop-color:#FAAF41"/>
		</linearGradient>
		<path id="XMLID_1001_" opacity="0.25" fill="url(#XMLID_3_)" enable-background="new    " d="M-277.1-155.2
			c0.3,0.1,0.5,0.4,0.5,0.8l1.1,34.5c0,0.4-0.2,0.7-0.6,0.8s-0.8,0-1-0.3l-9.1-12C-286.1-131.3-277.4-155.3-277.1-155.2z"/>
	</g>
	<g id="XMLID_977_">
		
			<linearGradient id="XMLID_4_" gradientUnits="userSpaceOnUse" x1="0.4272" y1="-70.3301" x2="55.7455" y2="48.3045" gradientTransform="matrix(1 0 0 -1 -325.1348 -115.8652)">
			<stop  offset="0" style="stop-color:#FAAF41"/>
			<stop  offset="1" style="stop-color:#FFFFFF"/>
		</linearGradient>
		<circle id="XMLID_999_" fill="url(#XMLID_4_)" cx="-287.7" cy="-124.9" r="1.8"/>
		
			<linearGradient id="XMLID_5_" gradientUnits="userSpaceOnUse" x1="0.3188" y1="-70.3276" x2="55.6671" y2="48.3712" gradientTransform="matrix(1 0 0 -1 -325.1348 -115.8652)">
			<stop  offset="0" style="stop-color:#FAAF41"/>
			<stop  offset="1" style="stop-color:#FFFFFF"/>
		</linearGradient>
		<circle id="XMLID_998_" fill="url(#XMLID_5_)" cx="-291.4" cy="-117.2" r="1.8"/>
		
			<linearGradient id="XMLID_6_" gradientUnits="userSpaceOnUse" x1="-0.0771" y1="-70.0981" x2="55.2412" y2="48.5363" gradientTransform="matrix(1 0 0 -1 -325.1348 -115.8652)">
			<stop  offset="0" style="stop-color:#FAAF41"/>
			<stop  offset="1" style="stop-color:#FFFFFF"/>
		</linearGradient>
		<circle id="XMLID_997_" fill="url(#XMLID_6_)" cx="-295.4" cy="-109.7" r="1.8"/>
		
			<linearGradient id="XMLID_7_" gradientUnits="userSpaceOnUse" x1="-0.9414" y1="-69.7158" x2="54.392" y2="48.9509" gradientTransform="matrix(1 0 0 -1 -325.1348 -115.8652)">
			<stop  offset="0" style="stop-color:#FAAF41"/>
			<stop  offset="1" style="stop-color:#FFFFFF"/>
		</linearGradient>
		<circle id="XMLID_996_" fill="url(#XMLID_7_)" cx="-299.8" cy="-102.5" r="1.8"/>
		
			<linearGradient id="XMLID_9_" gradientUnits="userSpaceOnUse" x1="-2.3115" y1="-69.061" x2="53.0068" y2="49.5735" gradientTransform="matrix(1 0 0 -1 -325.1348 -115.8652)">
			<stop  offset="0" style="stop-color:#FAAF41"/>
			<stop  offset="1" style="stop-color:#FFFFFF"/>
		</linearGradient>
		<circle id="XMLID_995_" fill="url(#XMLID_9_)" cx="-304.6" cy="-95.8" r="1.8"/>
		
			<linearGradient id="XMLID_17_" gradientUnits="userSpaceOnUse" x1="-4.3735" y1="-68.1162" x2="50.9598" y2="50.5505" gradientTransform="matrix(1 0 0 -1 -325.1348 -115.8652)">
			<stop  offset="0" style="stop-color:#FAAF41"/>
			<stop  offset="1" style="stop-color:#FFFFFF"/>
		</linearGradient>
		<circle id="XMLID_994_" fill="url(#XMLID_17_)" cx="-309.9" cy="-89.8" r="1.8"/>
		
			<linearGradient id="XMLID_18_" gradientUnits="userSpaceOnUse" x1="-7.2661" y1="-66.7676" x2="48.0673" y2="51.8991" gradientTransform="matrix(1 0 0 -1 -325.1348 -115.8652)">
			<stop  offset="0" style="stop-color:#FAAF41"/>
			<stop  offset="1" style="stop-color:#FFFFFF"/>
		</linearGradient>
		<circle id="XMLID_993_" fill="url(#XMLID_18_)" cx="-315.8" cy="-84.7" r="1.8"/>
		
			<linearGradient id="XMLID_19_" gradientUnits="userSpaceOnUse" x1="-11.2705" y1="-64.9004" x2="44.0629" y2="53.7662" gradientTransform="matrix(1 0 0 -1 -325.1348 -115.8652)">
			<stop  offset="0" style="stop-color:#FAAF41"/>
			<stop  offset="1" style="stop-color:#FFFFFF"/>
		</linearGradient>
		<circle id="XMLID_992_" fill="url(#XMLID_19_)" cx="-322.4" cy="-81" r="1.8"/>
		
			<linearGradient id="XMLID_26_" gradientUnits="userSpaceOnUse" x1="-16.416" y1="-62.5078" x2="38.9323" y2="56.1911" gradientTransform="matrix(1 0 0 -1 -325.1348 -115.8652)">
			<stop  offset="0" style="stop-color:#FAAF41"/>
			<stop  offset="1" style="stop-color:#FFFFFF"/>
		</linearGradient>
		<circle id="XMLID_991_" fill="url(#XMLID_26_)" cx="-329.5" cy="-79.2" r="1.8"/>
		
			<linearGradient id="XMLID_28_" gradientUnits="userSpaceOnUse" x1="-22.7656" y1="-59.54" x2="32.5677" y2="59.1266" gradientTransform="matrix(1 0 0 -1 -325.1348 -115.8652)">
			<stop  offset="0" style="stop-color:#FAAF41"/>
			<stop  offset="1" style="stop-color:#FFFFFF"/>
		</linearGradient>
		<circle id="XMLID_990_" fill="url(#XMLID_28_)" cx="-337" cy="-79.7" r="1.8"/>
		
			<linearGradient id="XMLID_31_" gradientUnits="userSpaceOnUse" x1="-29.7207" y1="-56.2886" x2="25.5977" y2="62.3458" gradientTransform="matrix(1 0 0 -1 -325.1348 -115.8652)">
			<stop  offset="0" style="stop-color:#FAAF41"/>
			<stop  offset="1" style="stop-color:#FFFFFF"/>
		</linearGradient>
		<circle id="XMLID_989_" fill="url(#XMLID_31_)" cx="-344.4" cy="-82" r="1.8"/>
		
			<linearGradient id="XMLID_32_" gradientUnits="userSpaceOnUse" x1="-37.1733" y1="-52.8149" x2="18.1451" y2="65.8196" gradientTransform="matrix(1 0 0 -1 -325.1348 -115.8652)">
			<stop  offset="0" style="stop-color:#FAAF41"/>
			<stop  offset="1" style="stop-color:#FFFFFF"/>
		</linearGradient>
		<circle id="XMLID_988_" fill="url(#XMLID_32_)" cx="-351.7" cy="-85.8" r="1.8"/>
		
			<linearGradient id="XMLID_33_" gradientUnits="userSpaceOnUse" x1="-65.4756" y1="-39.6255" x2="-10.1423" y2="79.0411" gradientTransform="matrix(1 0 0 -1 -325.1348 -115.8652)">
			<stop  offset="0" style="stop-color:#FAAF41"/>
			<stop  offset="1" style="stop-color:#FFFFFF"/>
		</linearGradient>
		<circle id="XMLID_987_" fill="url(#XMLID_33_)" cx="-377.2" cy="-105" r="1.8"/>
		
			<linearGradient id="XMLID_34_" gradientUnits="userSpaceOnUse" x1="-71.3555" y1="-36.8828" x2="-16.0222" y2="81.7839" gradientTransform="matrix(1 0 0 -1 -325.1348 -115.8652)">
			<stop  offset="0" style="stop-color:#FAAF41"/>
			<stop  offset="1" style="stop-color:#FFFFFF"/>
		</linearGradient>
		<circle id="XMLID_986_" fill="url(#XMLID_34_)" cx="-381.7" cy="-110.7" r="1.8"/>
		
			<linearGradient id="XMLID_36_" gradientUnits="userSpaceOnUse" x1="-77.4438" y1="-34.0337" x2="-22.1254" y2="84.6008" gradientTransform="matrix(1 0 0 -1 -325.1348 -115.8652)">
			<stop  offset="0" style="stop-color:#FAAF41"/>
			<stop  offset="1" style="stop-color:#FFFFFF"/>
		</linearGradient>
		<circle id="XMLID_985_" fill="url(#XMLID_36_)" cx="-386.6" cy="-116.1" r="1.8"/>
		
			<linearGradient id="XMLID_38_" gradientUnits="userSpaceOnUse" x1="-83.6348" y1="-31.1562" x2="-28.3015" y2="87.5104" gradientTransform="matrix(1 0 0 -1 -325.1348 -115.8652)">
			<stop  offset="0" style="stop-color:#FAAF41"/>
			<stop  offset="1" style="stop-color:#FFFFFF"/>
		</linearGradient>
		<circle id="XMLID_984_" fill="url(#XMLID_38_)" cx="-391.8" cy="-121.1" r="1.8"/>
		
			<linearGradient id="XMLID_41_" gradientUnits="userSpaceOnUse" x1="-90.457" y1="-27.9766" x2="-35.1238" y2="90.6901" gradientTransform="matrix(1 0 0 -1 -325.1348 -115.8652)">
			<stop  offset="0" style="stop-color:#FAAF41"/>
			<stop  offset="1" style="stop-color:#FFFFFF"/>
		</linearGradient>
		<circle id="XMLID_983_" fill="url(#XMLID_41_)" cx="-398.1" cy="-125.4" r="1.8"/>
		
			<linearGradient id="XMLID_42_" gradientUnits="userSpaceOnUse" x1="-97.082" y1="-24.8867" x2="-41.7488" y2="93.7799" gradientTransform="matrix(1 0 0 -1 -325.1348 -115.8652)">
			<stop  offset="0" style="stop-color:#FAAF41"/>
			<stop  offset="1" style="stop-color:#FFFFFF"/>
		</linearGradient>
		<circle id="XMLID_982_" fill="url(#XMLID_42_)" cx="-405" cy="-127.9" r="1.8"/>
		
			<linearGradient id="XMLID_43_" gradientUnits="userSpaceOnUse" x1="-102.4922" y1="-22.3652" x2="-47.1589" y2="96.3014" gradientTransform="matrix(1 0 0 -1 -325.1348 -115.8652)">
			<stop  offset="0" style="stop-color:#FAAF41"/>
			<stop  offset="1" style="stop-color:#FFFFFF"/>
		</linearGradient>
		<circle id="XMLID_981_" fill="url(#XMLID_43_)" cx="-412.1" cy="-126.8" r="1.8"/>
		
			<linearGradient id="XMLID_50_" gradientUnits="userSpaceOnUse" x1="-105.0166" y1="-21.1963" x2="-49.6683" y2="97.5026" gradientTransform="matrix(1 0 0 -1 -325.1348 -115.8652)">
			<stop  offset="0" style="stop-color:#FAAF41"/>
			<stop  offset="1" style="stop-color:#FFFFFF"/>
		</linearGradient>
		<circle id="XMLID_980_" fill="url(#XMLID_50_)" cx="-417.5" cy="-121.8" r="1.8"/>
		
			<linearGradient id="XMLID_51_" gradientUnits="userSpaceOnUse" x1="-105.6787" y1="-20.8799" x2="-50.3454" y2="97.7868" gradientTransform="matrix(1 0 0 -1 -325.1348 -115.8652)">
			<stop  offset="0" style="stop-color:#FAAF41"/>
			<stop  offset="1" style="stop-color:#FFFFFF"/>
		</linearGradient>
		<circle id="XMLID_979_" fill="url(#XMLID_51_)" cx="-421.2" cy="-115.6" r="1.8"/>
		
			<linearGradient id="XMLID_52_" gradientUnits="userSpaceOnUse" x1="-104.9307" y1="-21.2314" x2="-49.5823" y2="97.4675" gradientTransform="matrix(1 0 0 -1 -325.1348 -115.8652)">
			<stop  offset="0" style="stop-color:#FAAF41"/>
			<stop  offset="1" style="stop-color:#FFFFFF"/>
		</linearGradient>
		<circle id="XMLID_978_" fill="url(#XMLID_52_)" cx="-423.6" cy="-108.5" r="1.8"/>
	</g>
</g>
</svg>
