<?xml version="1.0" encoding="utf-8"?>
<!-- Generator: Adobe Illustrator 16.0.0, SVG Export Plug-In . SVG Version: 6.00 Build 0)  -->
<!DOCTYPE svg PUBLIC "-//W3C//DTD SVG 1.1//EN" "http://www.w3.org/Graphics/SVG/1.1/DTD/svg11.dtd">
<svg version="1.1" id="Layer_1" xmlns="http://www.w3.org/2000/svg" xmlns:xlink="http://www.w3.org/1999/xlink" x="0px" y="0px"
	 width="220px" height="120px" viewBox="-240.7 -166.5 220 120" enable-background="new -240.7 -166.5 220 120"
	 xml:space="preserve">
<g id="XMLID_111_">
	<g id="XMLID_1095_">
		<g id="XMLID_1096_">
			<path id="XMLID_1104_" fill="#F0545D" d="M-212.9-105.6c-5.2-0.2-8,2.5-8.4,7.6c-0.1,1.3-0.1,2.7-0.3,4c-0.3,1.8-1.6,2.7-3.2,2.3
				c-1.6-0.4-2.5-1.5-2.6-3.2c-0.4-7.6,4.1-13.8,12.1-16c3.9-1.1,7.8-1.5,11.7-2.2c3.6-0.7,7.3-1.4,10.9-2.2
				c1.8-0.4,2.1-0.2,2.1,1.6c-0.1,3.3-3,6.5-6.6,6.9c-2.5,0.3-5,0.4-7.8,0.6c-0.5,2.2-1,4.5-1.5,6.7c-1.5,7.1-2.9,14.3-4.4,21.4
				c-0.1,0.7-0.4,1.4-0.6,2.2c-1,2.9-2.3,3.8-4.8,3.6c-2.3-0.2-3.2-1.7-2.6-4.4c1.9-9,3.8-18,5.7-27
				C-213.1-104.4-213-105-212.9-105.6z"/>
			<g id="XMLID_1097_">
				<path id="XMLID_1099_" fill="#F0545D" d="M-66.5-115c-1-0.1-2.1,0.2-3.1,3.4c-1,2.2-2.5,4.2-4.7,5.4c-3.1,1.8-6.4,1.4-7.7-1.1
					c0.1-0.1,0.2-0.2,0.3-0.3c5.6-2.4,8.7-7,10.4-12.4c1.5-4.7-0.9-7-5.5-5.8c-2.6,0.7-4.9,2-7,4c-4.2,4.3-6.5,9.2-6.7,14.6
					c-0.1,1.6-0.5,2.9-1.7,4c-1.4,1.4-3,1.1-3.3-0.6c-0.1-0.6-0.2-1.3-0.1-2c0.7-3.9,1.5-7.9,2.4-11.8c0.9-3.7,0.6-4.2-3-4.1
					c-0.1,0-0.2,0-0.4,0c-2.6,0.2-3.5,0.8-4.1,3.4c-0.9,3.9-1.7,7.7-2.4,11.6c-0.5,2.7-3.3,6.5-5.6,7.1c0.7-2.1,1.5-4.1,2.1-6.2
					c0.9-3.7,1.1-7.3-0.6-10.4c-1.8-3.4-5.5-3.7-9-0.7c-0.6,0.5-1.2,1.2-1.9,1.7c-1.3-2-4.2-2.4-6.5-0.8c-0.5,0.4-1,1.2-1.2,1.8
					c-0.6,2.5-1,5-1.5,7.4c-0.7,2.9-1.3,5.8-2.3,8.7c-1.1,1.5-2.8,2.9-4,3.2c0.7-2.1,1.5-4.1,2.1-6.2c0.9-3.7,1.1-7.3-0.6-10.4
					c-1.8-3.4-5.5-3.7-9-0.7c-0.6,0.5-1.2,1.2-1.9,1.7c-1.3-2-4.2-2.4-6.5-0.8c-0.5,0.4-1,1.2-1.2,1.8c-0.6,2.5-1,5-1.5,7.4
					c-0.7,2.9-1.3,5.8-2.3,8.7c-0.5,1.5-1.6,3.3-3.6,3.3c-1.3,0-2-1.9-1.5-4.3c0.9-4.2,1.9-8.5,2.8-12.7c0.1-0.5,0.1-1.5-0.1-1.6
					c-1.8-0.2-3.7-0.6-5.6-0.3c-1.6,0.2-2,1.9-2.3,3.3c-0.7,2.8-1.1,5.7-1.8,8.5c-0.6,2.3-1.2,4.6-2.1,6.8c-0.3,0.7-1.6,1.7-2.2,1.7
					s-1.1-1.1-1.5-1.8c-0.2-0.3-0.1-0.8,0-1.2c0.7-3.7,1.4-7.4,2.3-11.1c0.9-3.8,0.8-4.1-3-4.1c-0.2,0-0.5,0-0.7,0
					c-2.2,0.2-3,0.8-3.6,3c-0.7,2.5-1.2,5-1.8,7.4c-0.7,3.1-0.4,6.2-2.3,9.2c-0.7,1.1-1.4,2.7-2.7,2.2c-0.6-0.2-0.7-1.9-0.5-2.9
					c0.5-2.6,1.4-5.2,2-7.8c0.6-2.9-0.1-4.3-2.6-5c-1.7-0.5-3.6-0.7-5.4-0.9c-1.5-0.1-1.8-0.6-1.6-2.2c0.2-1-0.4-2.6-1.2-2.9
					c-0.9-0.3-2.6,0.1-3.6,0.8c-2.2,1.5-2.7,5-1.2,6.6c0.8,0.8,0.9,1.6,0.6,2.8c-0.8,3.1-3.5,14.7-4.3,17.7
					c-0.3,1.1-0.3,2.2,0.8,2.2c0.8,0,1.8-0.8,2.5-1.5c0.4-0.4,0.5-1.3,0.7-1.9c0.7-2.8,3.4-14,4-16.8c3.5,0.6,3.7,1.1,2.9,4.7
					c-0.6,2.6-1.1,5.2-1.5,7.8c-0.4,2.5-0.2,4.9,2.1,6.1c2.2,1.2,4.7,0.5,7-1.1c1.4-0.9,2.5-2.2,3.9-3.5c2.2,3.7,7.9,3.5,13-2.1
					c3,3.4,6.9,2.2,11.2-0.6c-0.5,2.7-1,5-1.5,7.4c-0.7,3.1,0.7,5.6,3.6,6.1c1.7,0.3,2.7-0.4,3.1-2.1c0.4-1.8,0.7-3.6,1.1-5.4
					c0.4-2.4,0.9-4.9,1.3-7.4c3.2,0.7,6.3,0.5,9.3-0.4l0,0c1.7-0.4,6.2-2.3,8-3.5c-0.5,2.7-1,5.6-1.5,8c-0.7,3.1,0.7,5.6,3.6,6.1
					c1.7,0.3,2.7-0.4,3.1-2.1c0.4-1.8,0.7-3.6,1.1-5.4c0.4-2.4,0.9-4.9,1.3-7.4c7.3,1.6,13.7-1.3,19.8-6.7c1.2,2.9,3.6,3.8,6.9,3
					c3.2-0.8,5.5-3.1,7.4-5.9c0.2,0.1,0.3,0.2,0.4,0.2c3.5,3.4,8,3.4,12.9,1c5.3-2.6,8.5-7.1,9.9-12.6
					C-65.6-113.4-65.4-115-66.5-115z M-140.9-95.6c-0.7,0.9-2.1,1.9-2.8,1.8c-0.7-0.1-1.5-1.4-1.5-2.4c-0.2-3.2,0.9-6.3,3.1-9.1
					c0.6-0.8,1.9-1.6,2.5-1.5c1.9,0,1.5,2.8,1.5,3.1C-138.2-100.8-139-98.1-140.9-95.6z M-113.2-108.5c-0.2,2.8-0.9,5.6-2.8,8.1
					c-0.7,0.9-2.1,1.9-2.8,1.8c-0.7-0.1-1.5-1.4-1.5-2.4c-0.2-3.2,0.9-6.3,3.1-9.1c0.6-0.8,1.9-1.6,2.5-1.5
					C-112.8-111.6-113.2-108.8-113.2-108.5z M-78.9-118.5c0.6-0.5,1.6-1.2,2.2-0.8c0.6,0.3,0.2,1.7-0.1,2.3
					c-1.2,2.5-3.1,4.3-5.9,5.9C-82.1-114.2-81.1-116.6-78.9-118.5z"/>
				<path id="XMLID_1098_" fill="#F0545D" d="M-89.4-131.6c0.1,2.7-1.1,4.8-3.1,6.5c-2.6,2.2-5.6,1.3-5.9-1.8
					c-0.2-2.4,0.8-4.6,2.7-6.4c1.3-1.3,2.8-1.9,4.4-1.4C-89.8-134.3-89.3-133-89.4-131.6z"/>
			</g>
		</g>
	</g>
	<g id="XMLID_1092_">
		<path id="XMLID_1094_" opacity="0.75" fill="#F0545D" enable-background="new    " d="M-41.3-155.1c-0.3-0.1-0.7,0-0.9,0.2
			l-23.6,25.2c-0.3,0.3-0.3,0.7-0.1,1c0.2,0.3,0.6,0.5,0.9,0.4l14.8-3C-50.4-131.2-41-155-41.3-155.1z"/>
		<path id="XMLID_1093_" opacity="0.25" fill="#F0545D" enable-background="new    " d="M-41.3-155.2c0.3,0.1,0.5,0.4,0.5,0.8
			l1.1,34.5c0,0.4-0.2,0.7-0.6,0.8c-0.4,0.1-0.8,0-1-0.3l-9.1-12C-50.3-131.3-41.6-155.3-41.3-155.2z"/>
	</g>
	<g id="XMLID_189_">
		
			<linearGradient id="XMLID_2_" gradientUnits="userSpaceOnUse" x1="232.2852" y1="-70.8174" x2="292.2852" y2="46.1826" gradientTransform="matrix(1 0 0 -1 -325.1348 -115.8652)">
			<stop  offset="0" style="stop-color:#F0545D"/>
			<stop  offset="1" style="stop-color:#FFFFFF"/>
		</linearGradient>
		<circle id="XMLID_1091_" fill="url(#XMLID_2_)" cx="-51.9" cy="-124.9" r="1.8"/>
		
			<linearGradient id="XMLID_3_" gradientUnits="userSpaceOnUse" x1="232.4824" y1="-70.9175" x2="292.4824" y2="46.0825" gradientTransform="matrix(1 0 0 -1 -325.1348 -115.8652)">
			<stop  offset="0" style="stop-color:#F0545D"/>
			<stop  offset="1" style="stop-color:#FFFFFF"/>
		</linearGradient>
		<circle id="XMLID_1090_" fill="url(#XMLID_3_)" cx="-55.6" cy="-117.2" r="1.8"/>
		
			<linearGradient id="XMLID_4_" gradientUnits="userSpaceOnUse" x1="232.3516" y1="-70.8726" x2="292.3678" y2="46.1592" gradientTransform="matrix(1 0 0 -1 -325.1348 -115.8652)">
			<stop  offset="0" style="stop-color:#F0545D"/>
			<stop  offset="1" style="stop-color:#FFFFFF"/>
		</linearGradient>
		<circle id="XMLID_1089_" fill="url(#XMLID_4_)" cx="-59.6" cy="-109.7" r="1.8"/>
		
			<linearGradient id="XMLID_5_" gradientUnits="userSpaceOnUse" x1="231.7998" y1="-70.5684" x2="291.7998" y2="46.4316" gradientTransform="matrix(1 0 0 -1 -325.1348 -115.8652)">
			<stop  offset="0" style="stop-color:#F0545D"/>
			<stop  offset="1" style="stop-color:#FFFFFF"/>
		</linearGradient>
		<circle id="XMLID_1088_" fill="url(#XMLID_5_)" cx="-64" cy="-102.5" r="1.8"/>
		
			<linearGradient id="XMLID_6_" gradientUnits="userSpaceOnUse" x1="230.7197" y1="-70.0146" x2="290.7197" y2="46.9853" gradientTransform="matrix(1 0 0 -1 -325.1348 -115.8652)">
			<stop  offset="0" style="stop-color:#F0545D"/>
			<stop  offset="1" style="stop-color:#FFFFFF"/>
		</linearGradient>
		<circle id="XMLID_1087_" fill="url(#XMLID_6_)" cx="-68.8" cy="-95.8" r="1.8"/>
		
			<linearGradient id="XMLID_7_" gradientUnits="userSpaceOnUse" x1="228.9531" y1="-69.1245" x2="288.9694" y2="47.9072" gradientTransform="matrix(1 0 0 -1 -325.1348 -115.8652)">
			<stop  offset="0" style="stop-color:#F0545D"/>
			<stop  offset="1" style="stop-color:#FFFFFF"/>
		</linearGradient>
		<circle id="XMLID_1086_" fill="url(#XMLID_7_)" cx="-74.1" cy="-89.8" r="1.8"/>
		
			<linearGradient id="XMLID_9_" gradientUnits="userSpaceOnUse" x1="226.3594" y1="-67.7783" x2="286.3594" y2="49.2217" gradientTransform="matrix(1 0 0 -1 -325.1348 -115.8652)">
			<stop  offset="0" style="stop-color:#F0545D"/>
			<stop  offset="1" style="stop-color:#FFFFFF"/>
		</linearGradient>
		<circle id="XMLID_1085_" fill="url(#XMLID_9_)" cx="-80" cy="-84.7" r="1.8"/>
		
			<linearGradient id="XMLID_17_" gradientUnits="userSpaceOnUse" x1="222.6348" y1="-65.8696" x2="282.6348" y2="51.1304" gradientTransform="matrix(1 0 0 -1 -325.1348 -115.8652)">
			<stop  offset="0" style="stop-color:#F0545D"/>
			<stop  offset="1" style="stop-color:#FFFFFF"/>
		</linearGradient>
		<circle id="XMLID_1084_" fill="url(#XMLID_17_)" cx="-86.6" cy="-81" r="1.8"/>
		
			<linearGradient id="XMLID_18_" gradientUnits="userSpaceOnUse" x1="217.7441" y1="-63.3608" x2="277.7441" y2="53.6392" gradientTransform="matrix(1 0 0 -1 -325.1348 -115.8652)">
			<stop  offset="0" style="stop-color:#F0545D"/>
			<stop  offset="1" style="stop-color:#FFFFFF"/>
		</linearGradient>
		<circle id="XMLID_1083_" fill="url(#XMLID_18_)" cx="-93.7" cy="-79.2" r="1.8"/>
		
			<linearGradient id="XMLID_19_" gradientUnits="userSpaceOnUse" x1="211.6055" y1="-60.2051" x2="271.5892" y2="56.7632" gradientTransform="matrix(1 0 0 -1 -325.1348 -115.8652)">
			<stop  offset="0" style="stop-color:#F0545D"/>
			<stop  offset="1" style="stop-color:#FFFFFF"/>
		</linearGradient>
		<circle id="XMLID_1082_" fill="url(#XMLID_19_)" cx="-101.2" cy="-79.7" r="1.8"/>
		
			<linearGradient id="XMLID_26_" gradientUnits="userSpaceOnUse" x1="204.8105" y1="-56.7275" x2="264.8105" y2="60.2725" gradientTransform="matrix(1 0 0 -1 -325.1348 -115.8652)">
			<stop  offset="0" style="stop-color:#F0545D"/>
			<stop  offset="1" style="stop-color:#FFFFFF"/>
		</linearGradient>
		<circle id="XMLID_1081_" fill="url(#XMLID_26_)" cx="-108.6" cy="-82" r="1.8"/>
		
			<linearGradient id="XMLID_28_" gradientUnits="userSpaceOnUse" x1="197.4844" y1="-52.9795" x2="257.5006" y2="64.0522" gradientTransform="matrix(1 0 0 -1 -325.1348 -115.8652)">
			<stop  offset="0" style="stop-color:#F0545D"/>
			<stop  offset="1" style="stop-color:#FFFFFF"/>
		</linearGradient>
		<circle id="XMLID_1080_" fill="url(#XMLID_28_)" cx="-115.9" cy="-85.8" r="1.8"/>
		
			<linearGradient id="XMLID_31_" gradientUnits="userSpaceOnUse" x1="169.501" y1="-38.6201" x2="229.501" y2="78.3799" gradientTransform="matrix(1 0 0 -1 -325.1348 -115.8652)">
			<stop  offset="0" style="stop-color:#F0545D"/>
			<stop  offset="1" style="stop-color:#FFFFFF"/>
		</linearGradient>
		<circle id="XMLID_1079_" fill="url(#XMLID_31_)" cx="-141.4" cy="-105" r="1.8"/>
		
			<linearGradient id="XMLID_32_" gradientUnits="userSpaceOnUse" x1="163.627" y1="-35.5986" x2="223.6107" y2="81.3696" gradientTransform="matrix(1 0 0 -1 -325.1348 -115.8652)">
			<stop  offset="0" style="stop-color:#F0545D"/>
			<stop  offset="1" style="stop-color:#FFFFFF"/>
		</linearGradient>
		<circle id="XMLID_1078_" fill="url(#XMLID_32_)" cx="-145.9" cy="-110.7" r="1.8"/>
		
			<linearGradient id="XMLID_33_" gradientUnits="userSpaceOnUse" x1="157.5518" y1="-32.4912" x2="217.5518" y2="84.5088" gradientTransform="matrix(1 0 0 -1 -325.1348 -115.8652)">
			<stop  offset="0" style="stop-color:#F0545D"/>
			<stop  offset="1" style="stop-color:#FFFFFF"/>
		</linearGradient>
		<circle id="XMLID_1077_" fill="url(#XMLID_33_)" cx="-150.8" cy="-116.1" r="1.8"/>
		
			<linearGradient id="XMLID_34_" gradientUnits="userSpaceOnUse" x1="151.4033" y1="-29.3408" x2="211.4033" y2="87.6592" gradientTransform="matrix(1 0 0 -1 -325.1348 -115.8652)">
			<stop  offset="0" style="stop-color:#F0545D"/>
			<stop  offset="1" style="stop-color:#FFFFFF"/>
		</linearGradient>
		<circle id="XMLID_910_" fill="url(#XMLID_34_)" cx="-156" cy="-121.1" r="1.8"/>
		
			<linearGradient id="XMLID_36_" gradientUnits="userSpaceOnUse" x1="144.666" y1="-25.8965" x2="204.6824" y2="91.1352" gradientTransform="matrix(1 0 0 -1 -325.1348 -115.8652)">
			<stop  offset="0" style="stop-color:#F0545D"/>
			<stop  offset="1" style="stop-color:#FFFFFF"/>
		</linearGradient>
		<circle id="XMLID_909_" fill="url(#XMLID_36_)" cx="-162.3" cy="-125.4" r="1.8"/>
		
			<linearGradient id="XMLID_38_" gradientUnits="userSpaceOnUse" x1="138.1914" y1="-22.5654" x2="198.1914" y2="94.4346" gradientTransform="matrix(1 0 0 -1 -325.1348 -115.8652)">
			<stop  offset="0" style="stop-color:#F0545D"/>
			<stop  offset="1" style="stop-color:#FFFFFF"/>
		</linearGradient>
		<circle id="XMLID_908_" fill="url(#XMLID_38_)" cx="-169.2" cy="-127.9" r="1.8"/>
		
			<linearGradient id="XMLID_41_" gradientUnits="userSpaceOnUse" x1="133.0166" y1="-19.9106" x2="193.0166" y2="97.0894" gradientTransform="matrix(1 0 0 -1 -325.1348 -115.8652)">
			<stop  offset="0" style="stop-color:#F0545D"/>
			<stop  offset="1" style="stop-color:#FFFFFF"/>
		</linearGradient>
		<circle id="XMLID_907_" fill="url(#XMLID_41_)" cx="-176.3" cy="-126.8" r="1.8"/>
		
			<linearGradient id="XMLID_42_" gradientUnits="userSpaceOnUse" x1="130.7744" y1="-18.7524" x2="190.7581" y2="98.2157" gradientTransform="matrix(1 0 0 -1 -325.1348 -115.8652)">
			<stop  offset="0" style="stop-color:#F0545D"/>
			<stop  offset="1" style="stop-color:#FFFFFF"/>
		</linearGradient>
		<circle id="XMLID_906_" fill="url(#XMLID_42_)" cx="-181.7" cy="-121.8" r="1.8"/>
		
			<linearGradient id="XMLID_43_" gradientUnits="userSpaceOnUse" x1="130.3613" y1="-18.542" x2="190.3451" y2="98.4263" gradientTransform="matrix(1 0 0 -1 -325.1348 -115.8652)">
			<stop  offset="0" style="stop-color:#F0545D"/>
			<stop  offset="1" style="stop-color:#FFFFFF"/>
		</linearGradient>
		<circle id="XMLID_905_" fill="url(#XMLID_43_)" cx="-185.4" cy="-115.6" r="1.8"/>
		
			<linearGradient id="XMLID_50_" gradientUnits="userSpaceOnUse" x1="131.3418" y1="-19.0508" x2="191.3418" y2="97.9491" gradientTransform="matrix(1 0 0 -1 -325.1348 -115.8652)">
			<stop  offset="0" style="stop-color:#F0545D"/>
			<stop  offset="1" style="stop-color:#FFFFFF"/>
		</linearGradient>
		<circle id="XMLID_270_" fill="url(#XMLID_50_)" cx="-187.8" cy="-108.5" r="1.8"/>
	</g>
</g>
</svg>
