<?xml version="1.0" encoding="utf-8"?>
<!-- Generator: Adobe Illustrator 16.0.0, SVG Export Plug-In . SVG Version: 6.00 Build 0)  -->
<!DOCTYPE svg PUBLIC "-//W3C//DTD SVG 1.1//EN" "http://www.w3.org/Graphics/SVG/1.1/DTD/svg11.dtd">
<svg version="1.1" id="Layer_1" xmlns="http://www.w3.org/2000/svg" xmlns:xlink="http://www.w3.org/1999/xlink" x="0px" y="0px"
	 width="220px" height="120.001px" viewBox="-477 326.5 220 120.001" enable-background="new -477 326.5 220 120.001"
	 xml:space="preserve">
<g id="XMLID_1317_">
	<g id="XMLID_1344_">
		<g id="XMLID_1345_">
			<path id="XMLID_1353_" fill="#FFFFFF" d="M-446.8,392.3c-5.2-0.2-8,2.5-8.4,7.601c-0.1,1.3-0.1,2.6-0.3,4
				c-0.3,1.8-1.6,2.699-3.2,2.3c-1.6-0.4-2.5-1.5-2.6-3.2c-0.4-7.6,4.1-13.7,12-15.9c3.9-1.1,7.8-1.5,11.6-2.199
				c3.6-0.7,7.3-1.4,10.9-2.2c1.7-0.4,2.1-0.2,2.1,1.6c-0.1,3.3-3,6.4-6.6,6.9c-2.5,0.3-5,0.399-7.7,0.6c-0.5,2.2-1,4.5-1.5,6.7
				c-1.5,7.1-2.9,14.3-4.4,21.4c-0.1,0.699-0.4,1.399-0.6,2.199c-1,2.9-2.3,3.801-4.8,3.601c-2.3-0.2-3.2-1.7-2.6-4.4
				c1.9-9,3.8-18,5.7-27C-446.9,393.6-446.9,393-446.8,392.3z"/>
			<g id="XMLID_1346_">
				<path id="XMLID_1348_" fill="#FFFFFF" d="M-300.6,382.9c-1-0.101-2.1,0.199-3.1,3.3c-1,2.2-2.5,4.1-4.7,5.399
					c-3.1,1.801-6.4,1.4-7.7-1.1c0.1-0.1,0.2-0.2,0.3-0.3c5.6-2.4,8.7-7,10.4-12.4c1.5-4.7-0.8-7-5.5-5.7c-2.6,0.7-4.9,2-7,4
					c-4.2,4.2-6.5,9.2-6.7,14.601c-0.1,1.6-0.5,2.899-1.7,4c-1.4,1.399-3,1.1-3.3-0.601c-0.1-0.6-0.2-1.3-0.1-1.899
					c0.7-3.9,1.5-7.8,2.4-11.8c0.9-3.7,0.6-4.2-3-4.101c-0.1,0-0.2,0-0.4,0c-2.6,0.2-3.5,0.8-4.1,3.4c-0.9,3.899-1.7,7.7-2.3,11.6
					c-0.5,2.7-3.3,6.5-5.6,7c0.7-2,1.5-4.1,2.1-6.2c0.9-3.699,1.1-7.3-0.6-10.3c-1.8-3.399-5.5-3.6-9-0.7c-0.6,0.5-1.2,1.2-1.9,1.7
					c-1.3-2-4.2-2.399-6.5-0.8c-0.5,0.4-1,1.2-1.2,1.8c-0.6,2.5-1,5-1.5,7.4c-0.7,2.899-1.3,5.8-2.3,8.6c-1.1,1.5-2.8,2.9-4,3.2
					c0.7-2,1.5-4.1,2.1-6.2c0.9-3.7,1.1-7.3-0.6-10.3c-1.8-3.4-5.5-3.6-9-0.7c-0.6,0.5-1.2,1.2-1.9,1.7c-1.3-2-4.2-2.4-6.5-0.8
					c-0.5,0.399-1,1.2-1.2,1.8c-0.6,2.5-1,5-1.5,7.4c-0.7,2.899-1.3,5.8-2.3,8.6c-0.5,1.5-1.6,3.3-3.6,3.3c-1.3,0-2-1.899-1.5-4.2
					c0.9-4.199,1.9-8.5,2.8-12.699c0.1-0.5,0.1-1.5-0.1-1.601c-1.8-0.2-3.7-0.6-5.6-0.3c-1.6,0.2-2,1.9-2.3,3.3
					c-0.7,2.8-1.1,5.7-1.8,8.5c-0.6,2.3-1.2,4.601-2.1,6.8c-0.3,0.7-1.6,1.7-2.2,1.7s-1.1-1.1-1.5-1.8c-0.2-0.3-0.1-0.8,0-1.2
					c0.7-3.7,1.4-7.399,2.3-11c0.9-3.8,0.8-4.1-3-4.1c-0.2,0-0.5,0-0.7,0c-2.2,0.2-3,0.8-3.6,3c-0.7,2.5-1.2,4.899-1.8,7.399
					c-0.7,3.101-0.4,6.2-2.3,9.101c-0.7,1.1-1.4,2.7-2.7,2.2c-0.6-0.2-0.7-1.9-0.5-2.9c0.5-2.6,1.4-5.2,1.9-7.8
					c0.6-2.8-0.1-4.3-2.6-5c-1.7-0.5-3.6-0.7-5.4-0.9c-1.5-0.1-1.8-0.6-1.6-2.2c0.1-1-0.4-2.6-1.2-2.899c-0.9-0.3-2.6,0.1-3.6,0.8
					c-2.2,1.5-2.7,5-1.2,6.6c0.8,0.801,0.9,1.601,0.6,2.801c-0.8,3.1-3.5,14.6-4.3,17.699c-0.3,1.101-0.3,2.2,0.8,2.2
					c0.8,0,1.8-0.8,2.5-1.5c0.4-0.399,0.5-1.3,0.7-1.899c0.7-2.801,3.4-14,4-16.801c3.5,0.601,3.7,1.101,2.9,4.7
					c-0.6,2.601-1.1,5.2-1.5,7.8c-0.4,2.5-0.2,4.9,2.1,6c2.2,1.2,4.7,0.5,7-1c1.4-0.899,2.5-2.199,3.9-3.5c2.2,3.7,7.9,3.5,13-2.1
					c3,3.4,6.9,2.2,11.2-0.6c-0.5,2.699-1,5-1.5,7.3c-0.7,3.1,0.7,5.6,3.6,6.1c1.6,0.3,2.7-0.399,3.1-2.1c0.4-1.8,0.7-3.601,1.1-5.4
					c0.4-2.399,0.9-4.899,1.3-7.399c3.2,0.699,6.3,0.5,9.2-0.4l0,0c1.6-0.4,6.2-2.3,8-3.5c-0.5,2.7-1,5.6-1.5,8
					c-0.7,3.1,0.7,5.6,3.6,6.1c1.6,0.301,2.7-0.399,3.1-2.1c0.4-1.8,0.7-3.6,1.1-5.4c0.4-2.399,0.9-4.899,1.3-7.399
					c7.3,1.6,13.6-1.3,19.7-6.7c1.2,2.9,3.6,3.8,6.9,3c3.2-0.8,5.5-3.1,7.4-5.9c0.2,0.101,0.3,0.2,0.4,0.2c3.5,3.4,8,3.4,12.9,1
					c5.3-2.6,8.5-7.1,9.9-12.6C-299.7,384.6-299.5,383-300.6,382.9z M-374.9,402.3c-0.7,0.9-2.1,1.9-2.8,1.8
					c-0.7-0.1-1.4-1.399-1.5-2.399c-0.2-3.2,0.9-6.3,3.1-9.101c0.6-0.8,1.9-1.5,2.5-1.5c1.9,0,1.5,2.801,1.5,3.101
					C-372.2,397.1-373,399.9-374.9,402.3z M-347.2,389.4c-0.2,2.8-0.9,5.6-2.8,8.1c-0.7,0.9-2.1,1.9-2.8,1.8
					c-0.7-0.1-1.4-1.399-1.5-2.399c-0.2-3.2,0.9-6.301,3.1-9.101c0.6-0.8,1.9-1.5,2.5-1.5C-346.8,386.4-347.2,389.1-347.2,389.4z
					 M-313,379.4c0.6-0.5,1.6-1.2,2.2-0.801c0.6,0.301,0.2,1.601-0.1,2.301c-1.2,2.5-3.1,4.3-5.9,5.899
					C-316.2,383.7-315.2,381.3-313,379.4z"/>
				<path id="XMLID_1347_" fill="#FFFFFF" d="M-323.4,366.4c0.1,2.699-1.1,4.8-3.1,6.5c-2.6,2.199-5.6,1.3-5.8-1.801
					c-0.2-2.399,0.8-4.6,2.7-6.399c1.3-1.3,2.8-1.9,4.4-1.4C-323.9,363.7-323.3,365-323.4,366.4z"/>
			</g>
		</g>
	</g>
	<g id="XMLID_1318_">
		<g id="XMLID_1341_">
			<path id="XMLID_1343_" opacity="0.75" fill="#FFFFFF" enable-background="new    " d="M-275.5,343c-0.3-0.1-0.7,0-0.9,0.2
				l-23.6,25.1c-0.3,0.3-0.3,0.7-0.1,1c0.2,0.3,0.6,0.5,0.9,0.4l14.7-3C-284.5,366.7-275.2,343-275.5,343z"/>
			<path id="XMLID_1342_" opacity="0.25" fill="#FFFFFF" enable-background="new    " d="M-275.5,342.9c0.3,0.1,0.5,0.399,0.5,0.8
				l1.1,34.399c0,0.4-0.2,0.7-0.6,0.801c-0.4,0.1-0.8,0-1-0.301l-9.1-12C-284.4,366.7-275.8,342.7-275.5,342.9z"/>
		</g>
		<g id="XMLID_1319_">
			
				<linearGradient id="XMLID_2_" gradientUnits="userSpaceOnUse" x1="54.7061" y1="-460.4434" x2="3.206" y2="-554.4434" gradientTransform="matrix(1 0 0 -1 -325.1348 -115.8652)">
				<stop  offset="0" style="stop-color:#FFFFFF;stop-opacity:0"/>
				<stop  offset="1" style="stop-color:#FFFFFF"/>
			</linearGradient>
			<circle id="XMLID_1340_" fill="url(#XMLID_2_)" cx="-286" cy="373" r="1.8"/>
			
				<linearGradient id="XMLID_3_" gradientUnits="userSpaceOnUse" x1="55.147" y1="-460.6851" x2="3.6469" y2="-554.6851" gradientTransform="matrix(1 0 0 -1 -325.1348 -115.8652)">
				<stop  offset="0" style="stop-color:#FFFFFF;stop-opacity:0"/>
				<stop  offset="1" style="stop-color:#FFFFFF"/>
			</linearGradient>
			<circle id="XMLID_1339_" fill="url(#XMLID_3_)" cx="-289.7" cy="380.8" r="1.8"/>
			
				<linearGradient id="XMLID_4_" gradientUnits="userSpaceOnUse" x1="55.2314" y1="-460.7314" x2="3.7314" y2="-554.7314" gradientTransform="matrix(1 0 0 -1 -325.1348 -115.8652)">
				<stop  offset="0" style="stop-color:#FFFFFF;stop-opacity:0"/>
				<stop  offset="1" style="stop-color:#FFFFFF"/>
			</linearGradient>
			<circle id="XMLID_1338_" fill="url(#XMLID_4_)" cx="-293.7" cy="388.3" r="1.8"/>
			
				<linearGradient id="XMLID_5_" gradientUnits="userSpaceOnUse" x1="54.873" y1="-460.5547" x2="3.387" y2="-554.5292" gradientTransform="matrix(1 0 0 -1 -325.1348 -115.8652)">
				<stop  offset="0" style="stop-color:#FFFFFF;stop-opacity:0"/>
				<stop  offset="1" style="stop-color:#FFFFFF"/>
			</linearGradient>
			<circle id="XMLID_1337_" fill="url(#XMLID_5_)" cx="-298.1" cy="395.5" r="1.8"/>
			
				<linearGradient id="XMLID_6_" gradientUnits="userSpaceOnUse" x1="53.9614" y1="-460.0566" x2="2.4754" y2="-554.0311" gradientTransform="matrix(1 0 0 -1 -325.1348 -115.8652)">
				<stop  offset="0" style="stop-color:#FFFFFF;stop-opacity:0"/>
				<stop  offset="1" style="stop-color:#FFFFFF"/>
			</linearGradient>
			<circle id="XMLID_1336_" fill="url(#XMLID_6_)" cx="-302.9" cy="402.1" r="1.8"/>
			
				<linearGradient id="XMLID_7_" gradientUnits="userSpaceOnUse" x1="52.4219" y1="-459.1919" x2="0.9218" y2="-553.1919" gradientTransform="matrix(1 0 0 -1 -325.1348 -115.8652)">
				<stop  offset="0" style="stop-color:#FFFFFF;stop-opacity:0"/>
				<stop  offset="1" style="stop-color:#FFFFFF"/>
			</linearGradient>
			<circle id="XMLID_1335_" fill="url(#XMLID_7_)" cx="-308.2" cy="408.1" r="1.8"/>
			
				<linearGradient id="XMLID_9_" gradientUnits="userSpaceOnUse" x1="50.0444" y1="-457.8652" x2="-1.4696" y2="-551.8907" gradientTransform="matrix(1 0 0 -1 -325.1348 -115.8652)">
				<stop  offset="0" style="stop-color:#FFFFFF;stop-opacity:0"/>
				<stop  offset="1" style="stop-color:#FFFFFF"/>
			</linearGradient>
			<circle id="XMLID_1334_" fill="url(#XMLID_9_)" cx="-314.1" cy="413.2" r="1.8"/>
			
				<linearGradient id="XMLID_17_" gradientUnits="userSpaceOnUse" x1="46.4854" y1="-455.9126" x2="-5.0286" y2="-549.9381" gradientTransform="matrix(1 0 0 -1 -325.1348 -115.8652)">
				<stop  offset="0" style="stop-color:#FFFFFF;stop-opacity:0"/>
				<stop  offset="1" style="stop-color:#FFFFFF"/>
			</linearGradient>
			<circle id="XMLID_1333_" fill="url(#XMLID_17_)" cx="-320.7" cy="416.8" r="1.8"/>
			
				<linearGradient id="XMLID_18_" gradientUnits="userSpaceOnUse" x1="41.8018" y1="-453.4023" x2="-9.6843" y2="-547.3768" gradientTransform="matrix(1 0 0 -1 -325.1348 -115.8652)">
				<stop  offset="0" style="stop-color:#FFFFFF;stop-opacity:0"/>
				<stop  offset="1" style="stop-color:#FFFFFF"/>
			</linearGradient>
			<circle id="XMLID_1332_" fill="url(#XMLID_18_)" cx="-327.8" cy="418.7" r="1.8"/>
			
				<linearGradient id="XMLID_19_" gradientUnits="userSpaceOnUse" x1="35.8984" y1="-450.1709" x2="-15.5876" y2="-544.1454" gradientTransform="matrix(1 0 0 -1 -325.1348 -115.8652)">
				<stop  offset="0" style="stop-color:#FFFFFF;stop-opacity:0"/>
				<stop  offset="1" style="stop-color:#FFFFFF"/>
			</linearGradient>
			<circle id="XMLID_1331_" fill="url(#XMLID_19_)" cx="-335.2" cy="418.2" r="1.8"/>
			
				<linearGradient id="XMLID_26_" gradientUnits="userSpaceOnUse" x1="29.1738" y1="-446.4551" x2="-22.3262" y2="-540.4551" gradientTransform="matrix(1 0 0 -1 -325.1348 -115.8652)">
				<stop  offset="0" style="stop-color:#FFFFFF;stop-opacity:0"/>
				<stop  offset="1" style="stop-color:#FFFFFF"/>
			</linearGradient>
			<circle id="XMLID_1330_" fill="url(#XMLID_26_)" cx="-342.7" cy="415.9" r="1.8"/>
			
				<linearGradient id="XMLID_28_" gradientUnits="userSpaceOnUse" x1="22.0352" y1="-442.5439" x2="-29.4649" y2="-536.5439" gradientTransform="matrix(1 0 0 -1 -325.1348 -115.8652)">
				<stop  offset="0" style="stop-color:#FFFFFF;stop-opacity:0"/>
				<stop  offset="1" style="stop-color:#FFFFFF"/>
			</linearGradient>
			<circle id="XMLID_1329_" fill="url(#XMLID_28_)" cx="-349.9" cy="412.1" r="1.8"/>
			
				<linearGradient id="XMLID_31_" gradientUnits="userSpaceOnUse" x1="-10.4106" y1="-424.7676" x2="-61.9107" y2="-518.7676" gradientTransform="matrix(1 0 0 -1 -325.1348 -115.8652)">
				<stop  offset="0" style="stop-color:#FFFFFF;stop-opacity:0"/>
				<stop  offset="1" style="stop-color:#FFFFFF"/>
			</linearGradient>
			<circle id="XMLID_1328_" fill="url(#XMLID_31_)" cx="-379.1" cy="388.4" r="1.8"/>
			
				<linearGradient id="XMLID_32_" gradientUnits="userSpaceOnUse" x1="-17.499" y1="-420.8843" x2="-68.9991" y2="-514.8843" gradientTransform="matrix(1 0 0 -1 -325.1348 -115.8652)">
				<stop  offset="0" style="stop-color:#FFFFFF;stop-opacity:0"/>
				<stop  offset="1" style="stop-color:#FFFFFF"/>
			</linearGradient>
			<circle id="XMLID_1327_" fill="url(#XMLID_32_)" cx="-384.7" cy="381.8" r="1.8"/>
			
				<linearGradient id="XMLID_33_" gradientUnits="userSpaceOnUse" x1="-23.6396" y1="-417.52" x2="-75.1397" y2="-511.52" gradientTransform="matrix(1 0 0 -1 -325.1348 -115.8652)">
				<stop  offset="0" style="stop-color:#FFFFFF;stop-opacity:0"/>
				<stop  offset="1" style="stop-color:#FFFFFF"/>
			</linearGradient>
			<circle id="XMLID_1326_" fill="url(#XMLID_33_)" cx="-390" cy="376.9" r="1.8"/>
			
				<linearGradient id="XMLID_34_" gradientUnits="userSpaceOnUse" x1="-30.21" y1="-413.8955" x2="-81.724" y2="-507.921" gradientTransform="matrix(1 0 0 -1 -325.1348 -115.8652)">
				<stop  offset="0" style="stop-color:#FFFFFF;stop-opacity:0"/>
				<stop  offset="1" style="stop-color:#FFFFFF"/>
			</linearGradient>
			<circle id="XMLID_1325_" fill="url(#XMLID_34_)" cx="-396.2" cy="372.6" r="1.8"/>
			
				<linearGradient id="XMLID_36_" gradientUnits="userSpaceOnUse" x1="-36.5703" y1="-410.4102" x2="-88.0843" y2="-504.4356" gradientTransform="matrix(1 0 0 -1 -325.1348 -115.8652)">
				<stop  offset="0" style="stop-color:#FFFFFF;stop-opacity:0"/>
				<stop  offset="1" style="stop-color:#FFFFFF"/>
			</linearGradient>
			<circle id="XMLID_1324_" fill="url(#XMLID_36_)" cx="-403.1" cy="370.1" r="1.8"/>
			
				<linearGradient id="XMLID_38_" gradientUnits="userSpaceOnUse" x1="-41.5781" y1="-407.6914" x2="-93.0782" y2="-501.6914" gradientTransform="matrix(1 0 0 -1 -325.1348 -115.8652)">
				<stop  offset="0" style="stop-color:#FFFFFF;stop-opacity:0"/>
				<stop  offset="1" style="stop-color:#FFFFFF"/>
			</linearGradient>
			<circle id="XMLID_1323_" fill="url(#XMLID_38_)" cx="-410.2" cy="371.2" r="1.8"/>
			
				<linearGradient id="XMLID_41_" gradientUnits="userSpaceOnUse" x1="-43.6675" y1="-406.5474" x2="-95.1675" y2="-500.5474" gradientTransform="matrix(1 0 0 -1 -325.1348 -115.8652)">
				<stop  offset="0" style="stop-color:#FFFFFF;stop-opacity:0"/>
				<stop  offset="1" style="stop-color:#FFFFFF"/>
			</linearGradient>
			<circle id="XMLID_1322_" fill="url(#XMLID_41_)" cx="-415.6" cy="376.1" r="1.8"/>
			
				<linearGradient id="XMLID_42_" gradientUnits="userSpaceOnUse" x1="-43.9004" y1="-406.4199" x2="-95.4004" y2="-500.4199" gradientTransform="matrix(1 0 0 -1 -325.1348 -115.8652)">
				<stop  offset="0" style="stop-color:#FFFFFF;stop-opacity:0"/>
				<stop  offset="1" style="stop-color:#FFFFFF"/>
			</linearGradient>
			<circle id="XMLID_1321_" fill="url(#XMLID_42_)" cx="-419.3" cy="382.3" r="1.8"/>
			
				<linearGradient id="XMLID_43_" gradientUnits="userSpaceOnUse" x1="-42.7539" y1="-407.0479" x2="-94.2539" y2="-501.0479" gradientTransform="matrix(1 0 0 -1 -325.1348 -115.8652)">
				<stop  offset="0" style="stop-color:#FFFFFF;stop-opacity:0"/>
				<stop  offset="1" style="stop-color:#FFFFFF"/>
			</linearGradient>
			<circle id="XMLID_1320_" fill="url(#XMLID_43_)" cx="-421.7" cy="389.4" r="1.8"/>
		</g>
	</g>
</g>
</svg>
