<?xml version="1.0" ?><!DOCTYPE svg  PUBLIC '-//W3C//DTD SVG 1.1//EN'  'http://www.w3.org/Graphics/SVG/1.1/DTD/svg11.dtd'><svg enable-background="new 0 0 512 512" height="512px" id="Layer_1" version="1.1" viewBox="0 0 512 512" width="512px" xml:space="preserve" xmlns="http://www.w3.org/2000/svg" xmlns:xlink="http://www.w3.org/1999/xlink"><g><path d="M512,255.978c0,3.041-0.05,6.061-0.16,9.071c-0.1,3.04-0.26,6.05-0.47,9.05   c-0.14,1.959-0.3,3.92-0.479,5.87c-6.601,71.08-42.271,133.738-95.021,175.949c-8.34,6.699-17.14,12.889-26.3,18.5   c-0.811,0.489-1.62,0.979-2.43,1.459c-0.69,0.41-1.381,0.82-2.07,1.221c-0.82,0.49-1.641,0.959-2.461,1.43   c-0.779,0.44-1.559,0.88-2.34,1.32v0.02c-0.689,0.381-1.39,0.77-2.09,1.15c-1.26,0.68-2.529,1.359-3.81,2.02   c0,0-0.011,0-0.011,0.011c-0.51,0.259-1.01,0.53-1.52,0.78c-0.3,0.16-0.6,0.309-0.9,0.459c-0.439,0.23-0.879,0.45-1.319,0.67   c-2.55,1.28-5.12,2.52-7.72,3.711c-0.17,0.069-0.35,0.15-0.53,0.239c-0.181,0.091-0.36,0.171-0.53,0.239   c-0.35,0.16-0.699,0.321-1.06,0.471c-3.06,1.381-6.15,2.689-9.271,3.951c-22.6,9.1-46.81,15.068-72.09,17.359   c-5.21,0.479-10.48,0.799-15.779,0.949c-0.621,0.021-1.25,0.041-1.871,0.051c-1.93,0.061-3.85,0.07-5.789,0.07   c-2.521,0-5.03-0.041-7.53-0.111c-10.399-0.299-20.64-1.219-30.7-2.729c-3.74-0.56-7.449-1.2-11.141-1.92   c-7.289-1.419-14.479-3.159-21.539-5.189c-2.82-0.821-5.62-1.671-8.4-2.58c-1.39-0.45-2.779-0.911-4.16-1.39   c-2.05-0.711-4.08-1.441-6.109-2.211c-3.43-1.27-6.83-2.63-10.2-4.049c-4.3-1.82-8.53-3.762-12.7-5.801   c-1.02-0.5-2.04-1.01-3.05-1.52c-2.71-1.371-5.39-2.791-8.05-4.261C53.45,436.637,0,352.538,0,255.978C0,114.609,114.6,0,255.98,0   C378.92,0,481.62,86.639,506.34,202.169C510.04,219.519,512,237.519,512,255.978z" fill="#49623E"/><polygon fill="#541A21" points="365.43,448.686 156.553,448.686 159.225,424.541 159.563,421.471 161.858,400.826 161.858,400.807    165.895,364.337 165.908,364.261 169.424,332.495 193.947,330.824 217.891,329.212 221.795,328.937 235.453,328.024    235.55,328.024 252.591,326.88 256.556,326.606 256.579,326.606 260.979,326.314 261.039,326.296 261.909,326.237 267.264,325.888    286.469,324.604 292.972,324.155 309.359,323.049 343.021,320.774 347.3,345.132 348.062,349.485 356.496,397.693 360.086,418.185     "/><path d="M410.873,340.33c-3.782,1.849-19.748-0.013-42.23-2.333c-6.599-0.676-13.766-1.402-21.343-2.08   c-14.274-1.269-30.011-2.381-46.267-2.803c-3.033-0.084-6.092-0.133-9.15-0.146c-0.084-0.023-0.156-0.023-0.241-0.011   c-6.442-0.061-12.944,0.011-19.435,0.24c-0.508,0.025-1.016,0.038-1.523,0.062h-0.06c-1.754,0.074-3.506,0.145-5.257,0.241   c-1.148,0.062-2.31,0.122-3.458,0.194c-7.53,0.459-15.022,1.125-22.407,1.945c-0.605,0.072-1.209,0.133-1.813,0.205   c0,0-0.012,0.012-0.012,0c-1.511,0.17-3.021,0.35-4.521,0.545c-0.242,0.024-0.496,0.049-0.738,0.084   c-7.699,0.943-15.229,2.031-22.528,3.203c-16.147,2.6-31.122,5.559-43.995,8.182c-0.772,0.158-1.546,0.315-2.307,0.473   c-21.056,4.302-36.103,7.541-40.828,6.369c-0.375-0.098-0.678-0.217-0.918-0.363c-1.283-0.785-2.563-2.283-3.832-4.398   c-2.297-3.796-4.533-9.561-6.564-16.546c-9.486-32.827-14.078-92.884,4.256-105.623c1.366-0.942,3.505-1.474,6.332-1.68   c6.553-0.447,16.789,0.857,29.504,2.864c4.061,0.652,8.376,1.365,12.908,2.127c2.199,0.363,4.459,0.737,6.757,1.125   c1.365,0.229,2.743,0.458,4.133,0.688c8.207,1.341,16.933,2.72,25.985,3.964c18.396,2.538,38.145,4.508,57.592,4.508   c1.003,0,1.994,0,2.997-0.024c1.981-0.012,3.952-0.061,5.935-0.12c0.943-0.024,1.896-0.061,2.84-0.098   c16.775-0.725,33.129-2.911,48.309-5.764c7.52-1.402,14.734-2.975,21.587-4.619c1.692-0.398,3.36-0.808,4.991-1.219   c4.4-1.088,8.605-2.2,12.631-3.301c5.379-1.474,10.406-2.924,15.012-4.29c10.877-3.239,19.459-5.995,24.945-7.397   c1.861-0.482,3.372-0.797,4.497-0.93c1.038-0.121,1.739-0.073,2.078,0.156c0.835,0.582,1.728,2.164,2.647,4.582   C415.828,240.581,426.44,332.739,410.873,340.33z" fill="#D27C47"/><polygon fill="#CF9E76" points="319.873,409.405 300.108,415.476 300.108,424.117 272.02,424.117 260.07,427.793 240.484,424.117    223.982,424.117 223.982,420.992 202.104,416.897 215.342,376.309 223.982,374.287 223.982,325.698 300.108,325.698    300.108,374.194 308.75,376.309  "/><g><path d="M364.908,223.884c0,0.938,0,1.865-0.037,2.792c-0.17,13.169-1.638,25.892-4.229,37.932    c-0.17,0.84-0.346,1.661-0.552,2.478c-0.929,4.14-2.015,8.188-3.237,12.157c0,0.049-0.018,0.099-0.035,0.126    c-11.563,37.977-34.655,67.614-63.242,80.614c-9.961,4.525-20.582,7.033-31.611,7.173h-0.293c-0.219,0.02-0.452,0.02-0.677,0.02    c-10.19,0-20.044-2.021-29.358-5.793c-31.631-12.819-56.998-45.841-68.251-88.236c-0.032-0.107-0.063-0.225-0.101-0.349    c-0.188-0.702-0.367-1.429-0.547-2.156c-0.27-1.061-0.534-2.132-0.772-3.187c-0.345-1.505-0.683-3.018-0.978-4.535    c-2.29-11.088-3.618-22.697-3.865-34.708c-0.037-1.438-0.049-2.875-0.049-4.327c0-1.479,0.012-2.978,0.049-4.445    c0.277-12.874,1.8-25.291,4.385-37.082c4.328-19.765,11.681-37.709,21.297-52.849c19.053-29.967,47.018-48.895,78.19-48.895    c0.319,0,0.647,0,0.952,0.014c0.422,0,0.834,0.015,1.257,0.035c30.562,0.867,57.872,19.916,76.479,49.64    c15.33,24.444,24.734,56.127,25.206,90.838C364.908,222.056,364.908,222.968,364.908,223.884z" fill="#DFB28B"/><path d="M261.951,80.623v286.541c-0.309,0.019-0.643,0.019-0.956,0.019    c-57.406,0-103.921-64.167-103.921-143.291c0-79.146,46.515-143.292,103.921-143.292C261.309,80.6,261.643,80.6,261.951,80.623z" fill="#ECC19C" opacity="0.23"/></g><path d="M389.574,470.189v4.23c-0.811,0.49-1.62,0.98-2.43,1.46c-0.69,0.41-1.381,0.821-2.07,1.221   c-0.82,0.489-1.641,0.96-2.461,1.43c-0.779,0.45-1.559,0.89-2.34,1.329v0.011c-0.689,0.38-1.39,0.771-2.09,1.149   c-1.26,0.682-2.529,1.36-3.81,2.021c-0.511,0.271-1.021,0.54-1.53,0.79c-0.3,0.17-0.6,0.32-0.91,0.48   c-0.43,0.22-0.869,0.439-1.31,0.649c-2.54,1.29-5.12,2.53-7.72,3.721c-0.17,0.079-0.35,0.159-0.53,0.229   c-0.181,0.09-0.36,0.17-0.53,0.24c-0.35,0.16-0.699,0.32-1.06,0.471c-25.2,11.33-52.591,18.699-81.36,21.309   c-5.21,0.48-10.48,0.801-15.779,0.95c-0.621,0.021-1.25,0.04-1.871,0.05c-1.93,0.061-3.85,0.07-5.789,0.07   c-2.521,0-5.03-0.04-7.53-0.109c-10.399-0.301-20.64-1.221-30.7-2.73c-3.74-0.56-7.449-1.2-11.141-1.92   c-7.289-1.42-14.479-3.16-21.539-5.189c-2.82-0.811-5.62-1.671-8.4-2.58c-1.39-0.451-2.779-0.91-4.16-1.391   c-5.52-1.899-10.959-3.99-16.31-6.26c-5.351-2.26-10.601-4.699-15.75-7.311c-2.71-1.369-5.39-2.789-8.05-4.27v-10.051   c0-44.969,33.959-83.35,81.9-98.698c0.109,1.89,0.379,3.74,0.799,5.54v0.01c4.17,17.719,23.141,31.1,45.91,31.1   c7.41,0,14.43-1.42,20.66-3.96c4.6-1.87,8.77-4.351,12.36-7.311c2.409-1.979,4.56-4.181,6.409-6.56   c3.33-4.301,5.641-9.17,6.67-14.399c0.291-1.45,0.48-2.92,0.561-4.42c16.73,5.35,31.78,13.519,44.24,23.789   c5.859,4.82,11.15,10.1,15.79,15.78c7.67,9.359,13.56,19.779,17.28,30.949C387.975,450.98,389.574,460.43,389.574,470.189z" fill="#212121"/><path d="M235.816,149.423c-0.66,0.58-1.311,1.18-1.97,1.79c0.55-0.699,1.101-1.399,1.649-2.08   C235.597,149.233,235.707,149.333,235.816,149.423z" fill="#541A21"/><g><path d="M175.236,265.806c2.783,10.077-0.086,19.668-6.416,21.418c-6.332,1.749-13.72-5-16.506-15.085    c-2.787-10.069,0.082-19.665,6.412-21.409C165.049,248.974,172.443,255.724,175.236,265.806z" fill="#DFB28B"/><path d="M374.666,273.573c-2.582,9.312-9.08,15.791-15.043,15.333c-0.068,0-0.132-0.011-0.187-0.011    c-0.437-0.039-0.845-0.119-1.271-0.237c-6.33-1.763-9.203-11.347-6.424-21.429c0.305-1.125,0.672-2.207,1.102-3.239    c1.998-4.946,5.122-8.784,8.514-10.717c0.609-0.343,1.219-0.626,1.824-0.835c0.888-0.332,1.791-0.518,2.676-0.541    c0.811-0.041,1.617,0.05,2.398,0.265C374.586,253.907,377.449,263.491,374.666,273.573z" fill="#DFB28B"/></g><g><path d="M262.443,372.335c-0.12,0.01-0.279,0.029-0.49,0.039c-0.21-0.01-0.369-0.029-0.49-0.039l0.49-5.391    L262.443,372.335z" fill="#8F9968"/></g><g><path d="M350.313,269.483c8.72-37.969-4.36-91.699-27.04-103.739s-40.12,19.45-59.75,16.67    c-0.45-0.06-0.9-0.18-1.34-0.34c-0.45,0.16-0.9,0.28-1.36,0.34c-19.87,2.78-37.54-28.71-60.51-16.67    c-22.96,12.04-36.21,65.771-27.38,103.739c-36.211-39.83-30.91-110.219-6.18-145.418c24.729-35.19,51.229-62.06,94.069-56.5    c0.46,0.22,0.92,0.46,1.36,0.7c0.439-0.24,0.88-0.48,1.34-0.7c42.311-5.56,68.47,21.31,92.9,56.5    C380.844,159.265,386.084,229.653,350.313,269.483z" fill="#212121"/></g><polyline fill="#212121" points="322.022,140.708 312.311,240.969 253.732,140.708 215.059,216.501 206.781,152.358    190.943,233.975 160.197,208.896 215.059,111.47 234.498,111.47  "/><path d="M374.359,483.048c-0.51,0.259-1.01,0.53-1.52,0.78c-0.3,0.16-0.6,0.309-0.9,0.459   c-0.439,0.23-0.879,0.45-1.319,0.67c-2.55,1.28-5.12,2.52-7.72,3.711c-0.17,0.069-0.35,0.15-0.53,0.239   c-0.181,0.091-0.36,0.171-0.53,0.239c-0.35,0.16-0.699,0.321-1.06,0.471c-3.06,1.381-6.15,2.689-9.271,3.951   c-0.42-14.221-1.16-28.592-2.34-42.121c-2.82-32.34-8.16-60.029-17.83-70.049c0.08-0.111,0.16-0.23,0.24-0.35   c3.73-5.271,12.471-11.65,25.42,20.828c0.33,0.83,0.66,1.68,0.99,2.551c3.77,9.891,7.59,27.15,11.17,47.02   C370.971,461.518,372.71,472.258,374.359,483.048z" fill="#CE7013"/><path d="M186.57,383.977c-9.67,10.012-15.01,37.711-17.83,70.041c-1.17,13.45-1.91,27.72-2.34,41.85   c-3.43-1.27-6.83-2.63-10.2-4.049c-4.3-1.82-8.53-3.762-12.7-5.801c1.66-10.92,3.42-21.801,5.25-32   c3.58-19.86,7.4-37.12,11.17-47.02c0.33-0.861,0.66-1.711,0.99-2.541c12.949-32.488,21.689-26.099,25.42-20.83   C186.41,383.748,186.49,383.867,186.57,383.977z" fill="#CE7013"/><polyline fill="#212121" points="356.586,145.704 345.643,232.469 324.977,147.802 331.643,226.469 285.586,153.539    285.586,228.539 263.086,157.539 245.623,204.769 233.086,155.539 213.879,220.464 195.261,166.468  "/><path d="M389.399,208.197c0,0-11.509-3.772-31.077-7.906c-22.664-4.79-56.145-10.067-95.047-10.536   c-29.932-0.369-63.062,2.126-96.92,9.896c-10.248,2.342-20.558,5.17-30.869,8.546c5.105-5.556,10.167-10.743,15.183-15.533   c3.917-3.755,7.825-7.259,11.688-10.554c1.766-1.504,3.53-2.955,5.277-4.367c0.055-0.055,0.107-0.082,0.152-0.107   c34.562-27.745,66.854-37.975,95.488-38.182c42.738-0.316,77.398,21.584,99.488,40.773c5.303,4.603,9.887,9.051,13.678,12.994   C384.879,201.948,389.399,208.197,389.399,208.197z" fill="#CE7013"/><path d="M379.645,180.473c0,4.618-0.271,9.185-0.793,13.657C353.219,171.863,313,146.45,263.41,146.817   c-33.229,0.239-70.699,12.109-110.803,44.303c-0.053,0.031-0.115,0.063-0.178,0.126c-2.027,1.64-4.074,3.323-6.123,5.068   c-0.7-5.184-1.066-10.472-1.066-15.842c0-64.73,52.465-117.206,117.197-117.206S379.645,115.742,379.645,180.473z" fill="#541A21"/></g></svg>