<?xml version="1.0" ?><svg id="Layer_1" style="enable-background:new 0 0 110.651 230.016;" version="1.1" viewBox="0 0 110.651 230.016" xml:space="preserve" xmlns="http://www.w3.org/2000/svg" xmlns:xlink="http://www.w3.org/1999/xlink"><g><path d="M32.479,41.136c1.148-0.4,2.334-0.604,3.528-0.604h2.752c-4.121-3.789-6.939-8.969-7.714-14.788H16.324   c-2.761,0-5,2.239-5,5v16.5c0,1.638,0.799,3.08,2.018,3.991c5.682-4.582,11.857-8.002,17.627-9.716   C31.494,41.373,31.987,41.248,32.479,41.136z"/><path d="M71.889,40.532h2.753c1.172,0,2.334,0.196,3.463,0.582c1.611,0.367,3.063,0.868,4.276,1.313   c2.75,1.048,5.555,2.444,8.373,4.163c2.347,1.44,4.532,2.991,6.567,4.635c1.21-0.913,2.003-2.348,2.003-3.98v-16.5   c0-2.761-2.238-5-5-5H79.602C78.828,31.563,76.01,36.743,71.889,40.532z"/><circle cx="55.324" cy="22.5" r="22.5"/><path d="M94.475,110.39c-1.705,1.214-3.709,1.855-5.795,1.855c-1.916,0-3.761-0.563-5.342-1.561l-7.432,0.95V94.809h-1.998v16.825   l-17.584-2.249V94.809h-2.001v14.577l-17.583,2.249V94.809h-2v16.826l-7.429-0.95c-1.581,0.997-3.426,1.56-5.341,1.56   c-2.086,0-4.09-0.642-5.795-1.855c-0.466-0.332-0.904-0.668-1.352-1.003v32.191c0,2.761,2.239,5,5,5h5.453V112.44l3,0.384v104.829   c0,6.83,5.537,12.363,12.363,12.363c6.828,0,12.365-5.533,12.365-12.363v-90.271h4.635v90.271c0,6.83,5.537,12.363,12.363,12.363   c6.828,0,12.365-5.533,12.365-12.363V112.824l3-0.384v34.138h5.455c2.762,0,5-2.239,5-5v-32.189   C95.378,109.723,94.94,110.058,94.475,110.39z"/><path d="M4.36,95.564c2.926,4.732,7.228,9.098,12.977,13.196c1.408,1.002,3.029,1.484,4.636,1.484c2.499,0,4.962-1.167,6.523-3.359   c2.562-3.598,1.723-8.595-1.875-11.156c-4.446-3.164-7.133-6.111-8.647-8.57c-0.32-0.527-0.584-1.026-0.815-1.51V63.126   l17.583,2.249v4.306h2v-4.305l17.583-2.25v6.555h2.001v-6.555l17.584,2.249v4.306h1.998v-4.306l17.587-2.248v22.521   c-0.231,0.484-0.494,0.983-0.815,1.511c-1.514,2.46-4.201,5.406-8.646,8.57c-3.598,2.562-4.438,7.558-1.875,11.156   c1.561,2.192,4.023,3.36,6.521,3.359c1.607,0,3.229-0.482,4.637-1.484c5.748-4.098,10.051-8.463,12.977-13.196   c2.93-4.71,4.377-9.837,4.359-14.722c0-1.388-0.109-2.75-0.314-4.075h-0.002c-0.005-0.032-0.015-0.063-0.02-0.095   c-0.842-5.27-3.12-9.881-5.939-13.799c-4.291-5.918-9.838-10.443-15.182-13.724c-2.681-1.634-5.315-2.943-7.847-3.908   c-1.382-0.507-2.694-0.937-4.063-1.238c-0.826-0.301-1.713-0.473-2.643-0.473h-1.187c0.062,4.659,0.933,12.042,2.413,19.833   l-0.961,0.122l-5.245-0.671c-1.328-7.345-2.107-14.202-2.198-19.048C63.881,45.82,59.738,47,55.324,47   c-4.416,0-8.558-1.18-12.139-3.232c-0.102,4.834-0.869,11.708-2.192,19.047l-5.252,0.671l-0.956-0.122   c1.478-7.793,2.336-15.189,2.405-19.833h-1.185c-0.945,0-1.846,0.178-2.684,0.488c-0.501,0.113-1,0.236-1.499,0.376   c-5.751,1.709-12.245,5.319-18.353,10.629C7.501,60.333,1.844,67.433,0.32,76.754c-0.001,0.004-0.002,0.009-0.003,0.014H0.315   C0.11,78.093,0,79.455,0,80.843C-0.017,85.727,1.429,90.854,4.36,95.564z"/><polygon points="42.923,78.01 42.923,90.308 47.004,90.308 47.004,74.182 40.455,74.182 37.945,83.994 35.418,74.182    28.865,74.182 28.865,90.308 32.946,90.308 32.946,78.01 36.085,90.308 39.778,90.308  "/><path d="M60.903,90.308h5.219l-6.059-16.126h-5.435l-6.061,16.126h5.087l0.786-2.662h5.656L60.903,90.308z M55.522,84.159   l1.762-5.796l1.779,5.796H55.522z"/><path d="M75.416,84.324c2.01,0,3.504-0.458,4.482-1.375c0.979-0.917,1.469-2.188,1.469-3.816c0-1.584-0.449-2.805-1.348-3.663   c-0.898-0.858-2.25-1.287-4.055-1.287h-8.281v16.126h5.004v-5.984H75.416z M73.908,81.057h-1.221V77.46h1.42   c0.93,0,1.564,0.176,1.902,0.528c0.338,0.352,0.506,0.781,0.506,1.287c0,0.521-0.193,0.948-0.582,1.282   C75.545,80.89,74.869,81.057,73.908,81.057z"/></g></svg>