<?xml version="1.0" ?><!DOCTYPE svg  PUBLIC '-//W3C//DTD SVG 1.1//EN'  'http://www.w3.org/Graphics/SVG/1.1/DTD/svg11.dtd'><svg enable-background="new 0 0 256 256" height="256px" id="Layer_1" version="1.1" viewBox="0 0 256 256" width="256px" xml:space="preserve" xmlns="http://www.w3.org/2000/svg" xmlns:xlink="http://www.w3.org/1999/xlink"><g><g><path d="M163.743,199.299l44.567,4.692l-1.217,11.908l-43.35-4.564V199.299L163.743,199.299z M212.348,81.294     c14.128,14.152,14.128,37.379,0,51.532c-13.218,13.24-34.364,14.093-48.605,2.558v-19.909c1.174,3.243,3.052,6.28,5.632,8.865     c9.473,9.491,25.029,9.491,34.502,0c9.475-9.49,9.475-25.072,0-34.561c-9.473-9.491-25.029-9.491-34.502,0     c-2.58,2.584-4.456,5.622-5.632,8.864V78.735C177.984,67.201,199.128,68.053,212.348,81.294L212.348,81.294z M163.743,176.396     l47.137,4.963l-1.217,11.908l-45.92-4.835V176.396L163.743,176.396z" fill="#2B79C2"/><path clip-rule="evenodd" d="M0,31.987c0-9.597,9.77-12.684,17.566-13.718L154.985,0.051     c3.535-0.469,6.763,2.356,6.763,5.93v26.351L256,43.483L233.161,251.45l-69.418-8.181v-8.046l62.377,7.352l21.094-192.082     L128.398,36.436l-1.658,18.305l20.015,3.342c3.054,0.51,5.179,3.254,4.984,6.283l-0.002,185.646c0,3.667-3.35,6.508-6.95,5.907     L17.547,234.666c-4.236-0.466-8.344-1.654-11.396-3.552c-3.767-2.345-6.149-5.689-6.149-10.107L0,31.987L0,31.987z      M149.767,30.914V12.808L19.144,30.125c-4.175,0.554-7.35,0.568-7.35,3.36c0,2.792,4.678,2.838,7.904,3.377l99.17,16.564     l2.346-25.889L149.767,30.914L149.767,30.914z M95.196,105.467c-0.959-3.034-2.051-5.885-3.262-8.515     c-3.311-7.188-7.402-12.582-11.821-15.191v22.864C85.344,105.303,90.422,105.58,95.196,105.467L95.196,105.467z M99.599,131.822     c-0.238-6.225-0.991-12.226-2.17-17.814c-5.517,0.175-11.353-0.122-17.317-0.903v15.439L99.599,131.822L99.599,131.822z      M97.429,157.382c1.18-5.191,1.932-10.939,2.17-17.084l-19.487-3.278v15.44C86.076,153.684,91.912,155.35,97.429,157.382     L97.429,157.382z M80.112,183.804c4.419-1.124,8.51-5.14,11.821-11.216c1.211-2.222,2.303-4.706,3.262-7.416     c-4.774-1.719-9.852-3.15-15.084-4.233V183.804L80.112,183.804z M54.333,106.767c-1.178,5.189-1.929,10.935-2.167,17.076     l19.485,3.278v-15.439C65.682,110.458,59.845,108.794,54.333,106.767L54.333,106.767z M59.832,91.553     c-1.209,2.221-2.303,4.702-3.26,7.41c4.785,1.724,9.861,3.157,15.08,4.238V80.337C67.234,81.461,63.143,85.478,59.832,91.553     L59.832,91.553z M52.166,132.319c0.238,6.222,0.989,12.22,2.167,17.806c5.513-0.173,11.349,0.127,17.318,0.911v-15.439     L52.166,132.319L52.166,132.319z M59.832,167.188c3.311,7.19,7.402,12.583,11.819,15.193v-22.864     c-5.218-0.674-10.294-0.949-15.08-0.836C57.529,161.712,58.623,164.56,59.832,167.188L59.832,167.188z M113.46,102.642     c-0.306-0.375-0.616-0.748-0.932-1.116c-4.772-5.584-10.472-10.395-16.806-14.091c1.342,2.162,2.594,4.507,3.746,7.011     c1.478,3.21,2.802,6.698,3.941,10.406C107.054,104.375,110.432,103.636,113.46,102.642L113.46,102.642z M127.536,136.521     c-0.737-9.263-3.836-18.253-8.686-26.257c-3.927,1.446-8.389,2.486-13.229,3.105c1.345,6.267,2.194,12.967,2.443,19.878     L127.536,136.521L127.536,136.521z M118.85,168.331c4.85-6.372,7.948-14.32,8.686-23.335l-19.471-3.275     c-0.25,6.825-1.098,13.24-2.443,19.055C110.461,163.024,114.923,165.564,118.85,168.331L118.85,168.331z M95.721,183.38     c6.334-1.566,12.036-4.46,16.808-8.438c0.316-0.263,0.626-0.53,0.932-0.802c-3.028-2.013-6.406-3.889-10.051-5.591     c-1.139,3.323-2.463,6.366-3.941,9.079C98.316,179.746,97.062,181.668,95.721,183.38L95.721,183.38z M38.313,161.511     c0.304,0.371,0.612,0.739,0.924,1.104c4.772,5.585,10.472,10.395,16.806,14.091c-1.342-2.163-2.594-4.507-3.748-7.011     c-1.476-3.208-2.798-6.693-3.937-10.396C44.723,159.774,41.345,160.514,38.313,161.511L38.313,161.511z M24.228,127.62     c0.737,9.257,3.834,18.244,8.678,26.245c3.927-1.445,8.391-2.484,13.235-3.103c-1.344-6.264-2.19-12.961-2.439-19.866     L24.228,127.62L24.228,127.62z M32.905,95.819c-4.844,6.371-7.941,14.315-8.678,23.325l19.473,3.276     c0.25-6.823,1.096-13.234,2.439-19.046C41.296,101.124,36.833,98.586,32.905,95.819L32.905,95.819z M56.043,80.761     c-6.334,1.567-12.034,4.46-16.806,8.438c-0.312,0.26-0.62,0.524-0.924,0.794c3.032,2.017,6.41,3.891,10.045,5.591     c1.139-3.32,2.461-6.36,3.937-9.071C53.449,84.396,54.701,82.474,56.043,80.761L56.043,80.761z M27.199,208.236     c-7.757-1.295-5.792-13.109,1.966-11.814l95.625,15.974c7.757,1.295,5.79,13.109-1.966,11.814L27.199,208.236L27.199,208.236z" fill="#3B4652" fill-rule="evenodd"/></g></g></svg>