<?xml version="1.0" ?><svg enable-background="new 0 0 64 64" height="64px" id="Layer_1_1_" version="1.1" viewBox="0 0 64 64" width="64px" xml:space="preserve" xmlns="http://www.w3.org/2000/svg" xmlns:xlink="http://www.w3.org/1999/xlink"><g><path d="M39,13h-1c-2.209,0-4-1.791-4-4v0v0   c0,2.209-1.791,4-4,4h-5v5c0,3.866,3.134,7,7,7h0c3.866,0,7-3.134,7-7V13z" fill="none" stroke="#333333" stroke-miterlimit="10" stroke-width="2"/><path d="M43,30l0.541-0.471C44.442,28.625,45,27.378,45,26   c0-1.132-0.39-2.164-1.025-3.002C45.198,22.086,46,20.642,46,19c0-2.419-1.718-4.436-4-4.899V12c0-5.523-4.477-10-10-10   S22,6.477,22,12v2.101c-2.282,0.463-4,2.48-4,4.899c0,1.642,0.802,3.086,2.025,3.998C19.39,23.836,19,24.868,19,26   c0,1.378,0.558,2.625,1.459,3.529L21,30" fill="none" stroke="#333333" stroke-miterlimit="10" stroke-width="2"/><path d="M49.074,21.561   c-0.737,0.513-1.247,1.336-1.334,2.292L47,32l-11-5v-3.26" fill="none" stroke="#333333" stroke-miterlimit="10" stroke-width="2"/><path d="M41,62V38l7.281,2.731   C48.757,40.909,49.26,41,49.767,41h0C52.105,41,54,39.105,54,36.768V24.136c0-0.88-0.362-1.675-0.945-2.244" fill="none" stroke="#333333" stroke-miterlimit="10" stroke-width="2"/><polygon fill="none" points="55,17 60,19 62,19 62,7 60,7 55,9  " stroke="#333333" stroke-miterlimit="10" stroke-width="2"/><path d="M55,17h-6c-1.105,0-2-0.895-2-2v-4   c0-1.105,0.895-2,2-2h6V17z" fill="none" stroke="#333333" stroke-miterlimit="10" stroke-width="2"/><path d="M51,25L51,25c-1.105,0-2-0.895-2-2v-6h4v6   C53,24.105,52.105,25,51,25z" fill="none" stroke="#333333" stroke-miterlimit="10" stroke-width="2"/><path d="M28,23.74V27l-11,5l-0.741-8.148   C16.112,22.237,14.758,21,13.136,21h0C11.404,21,10,22.404,10,24.136v12.631C10,39.105,11.895,41,14.232,41h0   c0.508,0,1.011-0.091,1.486-0.269L23,38v24" fill="none" stroke="#333333" stroke-miterlimit="10" stroke-width="2"/><line fill="none" stroke="#333333" stroke-miterlimit="10" stroke-width="2" x1="13" x2="13" y1="24" y2="3"/><polygon fill="none" points="4,6 13,3 13,11  " stroke="#333333" stroke-miterlimit="10" stroke-width="2"/><line fill="none" stroke="#333333" stroke-miterlimit="10" stroke-width="2" x1="23" x2="41" y1="53" y2="53"/><line fill="none" stroke="#333333" stroke-miterlimit="10" stroke-width="2" x1="32" x2="32" y1="62" y2="59"/><polyline fill="none" points="25,29 31,42 33,42 39,29  " stroke="#333333" stroke-miterlimit="10" stroke-width="2"/><path d="M36,49h-8c-0.552,0-1-0.448-1-1v-5   c0-0.552,0.448-1,1-1h8c0.552,0,1,0.448,1,1v5C37,48.552,36.552,49,36,49z" fill="none" stroke="#333333" stroke-miterlimit="10" stroke-width="2"/><path d="M28,27v1c0,2.209,1.791,4,4,4h0   c2.209,0,4-1.791,4-4v-1" fill="none" stroke="#333333" stroke-miterlimit="10" stroke-width="2"/></g></svg>