<?xml version="1.0" encoding="utf-8"?>
<!-- Generator: Adobe Illustrator 16.0.0, SVG Export Plug-In . SVG Version: 6.00 Build 0)  -->
<!DOCTYPE svg PUBLIC "-//W3C//DTD SVG 1.1//EN" "http://www.w3.org/Graphics/SVG/1.1/DTD/svg11.dtd" [
	<!ENTITY ns_flows "http://ns.adobe.com/Flows/1.0/">
	<!ENTITY ns_extend "http://ns.adobe.com/Extensibility/1.0/">
	<!ENTITY ns_ai "http://ns.adobe.com/AdobeIllustrator/10.0/">
	<!ENTITY ns_graphs "http://ns.adobe.com/Graphs/1.0/">
]>
<svg version="1.1" id="Layer_1" xmlns:x="&ns_extend;" xmlns:i="&ns_ai;" xmlns:graph="&ns_graphs;"
	 xmlns="http://www.w3.org/2000/svg" xmlns:xlink="http://www.w3.org/1999/xlink" xmlns:a="http://ns.adobe.com/AdobeSVGViewerExtensions/3.0/"
	 x="0px" y="0px" width="167.4px" height="92.3px" viewBox="0 0 167.4 92.3" style="enable-background:new 0 0 167.4 92.3;"
	 xml:space="preserve">
<style type="text/css">
<![CDATA[
	.st0{fill:#7A1953;}
	.st1{fill:url(#XMLID_7_);}
	.st2{fill:url(#XMLID_8_);}
	.st3{fill:url(#XMLID_9_);}
	.st4{opacity:0.25;fill:#F0545D;}
	.st5{opacity:0.25;}
	.st6{opacity:0.75;}
	.st7{clip-path:url(#XMLID_26_);fill:#349DA0;}
	.st8{clip-path:url(#XMLID_26_);fill:#349EA0;}
	.st9{clip-path:url(#XMLID_26_);fill:#349FA1;}
	.st10{clip-path:url(#XMLID_26_);fill:#35959C;}
	.st11{clip-path:url(#XMLID_26_);fill:#35969C;}
	.st12{clip-path:url(#XMLID_26_);fill:#35979D;}
	.st13{clip-path:url(#XMLID_26_);fill:#35989D;}
	.st14{clip-path:url(#XMLID_26_);fill:#35999E;}
	.st15{clip-path:url(#XMLID_26_);fill:#359A9E;}
	.st16{clip-path:url(#XMLID_26_);fill:#359B9F;}
	.st17{clip-path:url(#XMLID_26_);fill:#359C9F;}
	.st18{clip-path:url(#XMLID_24_);fill:#3F376B;}
	.st19{clip-path:url(#XMLID_24_);fill:#3F386C;}
	.st20{clip-path:url(#XMLID_24_);fill:#3F396C;}
	.st21{clip-path:url(#XMLID_24_);fill:#3F3A6D;}
	.st22{clip-path:url(#XMLID_35_);fill:#F2602B;}
	.st23{clip-path:url(#XMLID_35_);fill:#F2612B;}
	.st24{clip-path:url(#XMLID_35_);fill:#F2622B;}
	.st25{clip-path:url(#XMLID_35_);fill:#F2632B;}
	.st26{clip-path:url(#XMLID_35_);fill:#F2642C;}
	.st27{clip-path:url(#XMLID_35_);fill:#F2652C;}
	.st28{clip-path:url(#XMLID_35_);fill:#F2662C;}
	.st29{clip-path:url(#XMLID_35_);fill:#F3672D;}
	.st30{clip-path:url(#XMLID_35_);fill:#F3682D;}
	.st31{clip-path:url(#XMLID_35_);fill:#F3692D;}
	.st32{clip-path:url(#XMLID_35_);fill:#F36A2D;}
	.st33{clip-path:url(#XMLID_35_);fill:#F36B2E;}
	.st34{clip-path:url(#XMLID_35_);fill:#F36C2E;}
	.st35{clip-path:url(#XMLID_35_);fill:#F36D2E;}
	.st36{clip-path:url(#XMLID_35_);fill:#F36E2E;}
	.st37{clip-path:url(#XMLID_35_);fill:#F36F2F;}
	.st38{opacity:0.25;fill:url(#XMLID_11_);}
	.st39{opacity:0.25;fill:url(#XMLID_18_);}
	.st40{opacity:0.25;fill:#FBB040;}
	.st41{clip-path:url(#XMLID_35_);fill:#F4702F;}
	.st42{clip-path:url(#XMLID_35_);fill:#F4712F;}
	.st43{clip-path:url(#XMLID_35_);fill:#F4722F;}
	.st44{clip-path:url(#XMLID_35_);fill:#F47330;}
	.st45{clip-path:url(#XMLID_35_);fill:#F47430;}
	.st46{clip-path:url(#XMLID_35_);fill:#F47530;}
	.st47{clip-path:url(#XMLID_35_);fill:#F47631;}
	.st48{clip-path:url(#XMLID_35_);fill:#F47731;}
	.st49{clip-path:url(#XMLID_35_);fill:#F57831;}
	.st50{clip-path:url(#XMLID_35_);fill:#F57931;}
	.st51{clip-path:url(#XMLID_35_);fill:#F57A32;}
	.st52{clip-path:url(#XMLID_35_);fill:#F57B32;}
	.st53{clip-path:url(#XMLID_35_);fill:#F57C32;}
	.st54{opacity:0.25;fill:#FFFFFF;}
	.st55{opacity:0.75;fill:url(#XMLID_10_);}
	.st56{opacity:0.75;fill:url(#XMLID_17_);}
	.st57{clip-path:url(#XMLID_24_);fill:#402E66;}
	.st58{clip-path:url(#XMLID_24_);fill:#402F67;}
	.st59{clip-path:url(#XMLID_24_);fill:#403067;}
	.st60{clip-path:url(#XMLID_24_);fill:#403168;}
	.st61{clip-path:url(#XMLID_24_);fill:#403268;}
	.st62{clip-path:url(#XMLID_24_);fill:#403369;}
	.st63{clip-path:url(#XMLID_24_);fill:#403469;}
	.st64{clip-path:url(#XMLID_24_);fill:#40356A;}
	.st65{clip-path:url(#XMLID_24_);fill:#40366A;}
	.st66{clip-path:url(#XMLID_24_);fill:#412562;}
	.st67{clip-path:url(#XMLID_24_);fill:#412662;}
	.st68{clip-path:url(#XMLID_24_);fill:#412763;}
	.st69{clip-path:url(#XMLID_24_);fill:#412863;}
	.st70{clip-path:url(#XMLID_24_);fill:#412964;}
	.st71{clip-path:url(#XMLID_24_);fill:#412A64;}
	.st72{clip-path:url(#XMLID_24_);fill:#412B65;}
	.st73{clip-path:url(#XMLID_24_);fill:#412C65;}
	.st74{clip-path:url(#XMLID_24_);fill:#412D66;}
	.st75{opacity:0.75;fill:#F0545D;}
	.st76{clip-path:url(#XMLID_24_);fill:#42205F;}
	.st77{clip-path:url(#XMLID_24_);fill:#422160;}
	.st78{clip-path:url(#XMLID_24_);fill:#422260;}
	.st79{clip-path:url(#XMLID_24_);fill:#422361;}
	.st80{clip-path:url(#XMLID_24_);fill:#422461;}
	.st81{fill:#F0545D;}
	.st82{fill:#F15A29;}
	.st83{opacity:0.25;fill:#31BCB0;}
	.st84{clip-path:url(#SVGID_2_);}
	.st85{clip-path:url(#SVGID_4_);}
	.st86{clip-path:url(#SVGID_6_);}
	.st87{clip-path:url(#SVGID_8_);}
	.st88{clip-path:url(#XMLID_27_);fill:#F4712F;}
	.st89{clip-path:url(#XMLID_27_);fill:#F4722F;}
	.st90{clip-path:url(#XMLID_27_);fill:#F47330;}
	.st91{clip-path:url(#XMLID_27_);fill:#F47430;}
	.st92{clip-path:url(#XMLID_27_);fill:#F47530;}
	.st93{clip-path:url(#XMLID_27_);fill:#F47631;}
	.st94{clip-path:url(#XMLID_27_);fill:#F47731;}
	.st95{clip-path:url(#XMLID_27_);fill:#F57831;}
	.st96{clip-path:url(#XMLID_27_);fill:#F57931;}
	.st97{clip-path:url(#XMLID_27_);fill:#F57A32;}
	.st98{clip-path:url(#XMLID_27_);fill:#F57B32;}
	.st99{clip-path:url(#XMLID_27_);fill:#F57C32;}
	.st100{clip-path:url(#XMLID_27_);fill:#F57D32;}
	.st101{clip-path:url(#XMLID_27_);fill:#F57E33;}
	.st102{clip-path:url(#XMLID_27_);fill:#F57F33;}
	.st103{clip-path:url(#XMLID_27_);fill:#F58033;}
	.st104{opacity:0.75;fill:#FBB040;}
	.st105{clip-path:url(#XMLID_27_);fill:#F68134;}
	.st106{clip-path:url(#XMLID_27_);fill:#F68234;}
	.st107{clip-path:url(#XMLID_27_);fill:#F68334;}
	.st108{clip-path:url(#XMLID_27_);fill:#F68434;}
	.st109{clip-path:url(#XMLID_27_);fill:#F68635;}
	.st110{clip-path:url(#XMLID_27_);fill:#F68735;}
	.st111{clip-path:url(#XMLID_27_);fill:#F68835;}
	.st112{clip-path:url(#XMLID_27_);fill:#F68935;}
	.st113{fill:#FBB040;}
	.st114{clip-path:url(#XMLID_27_);fill:#F78A36;}
	.st115{clip-path:url(#XMLID_27_);fill:#F78B36;}
	.st116{clip-path:url(#XMLID_27_);fill:#F78C36;}
	.st117{clip-path:url(#XMLID_27_);fill:#F78D37;}
	.st118{clip-path:url(#XMLID_27_);fill:#F78E37;}
	.st119{clip-path:url(#XMLID_27_);fill:#F78F37;}
	.st120{clip-path:url(#XMLID_27_);fill:#F79037;}
	.st121{clip-path:url(#XMLID_27_);fill:#F79138;}
	.st122{clip-path:url(#XMLID_27_);fill:#F79238;}
	.st123{clip-path:url(#XMLID_27_);fill:#F89338;}
	.st124{clip-path:url(#XMLID_27_);fill:#F89438;}
	.st125{clip-path:url(#XMLID_27_);fill:#F89539;}
	.st126{clip-path:url(#XMLID_27_);fill:#F89639;}
	.st127{clip-path:url(#XMLID_27_);fill:#F89739;}
	.st128{clip-path:url(#XMLID_27_);fill:#F8983A;}
	.st129{opacity:0.75;fill:#FFFFFF;}
	.st130{fill:#FFFFFF;}
	.st131{fill:url(#XMLID_12_);}
	.st132{fill:url(#XMLID_13_);}
	.st133{fill:url(#XMLID_14_);}
	.st134{fill:url(#XMLID_15_);}
	.st135{fill:url(#XMLID_16_);}
	.st136{fill:url(#XMLID_19_);}
	.st137{fill:url(#XMLID_20_);}
	.st138{fill:url(#XMLID_21_);}
	.st139{fill:url(#XMLID_22_);}
	.st140{fill:url(#XMLID_23_);}
	.st141{fill:url(#XMLID_28_);}
	.st142{fill:url(#XMLID_29_);}
	.st143{fill:url(#XMLID_30_);}
	.st144{fill:url(#XMLID_31_);}
	.st145{fill:url(#XMLID_32_);}
	.st146{fill:url(#XMLID_33_);}
	.st147{fill:none;}
	.st148{clip-path:url(#XMLID_25_);fill:#32AFA9;}
	.st149{clip-path:url(#XMLID_25_);fill:#32B0AA;}
	.st150{clip-path:url(#XMLID_25_);fill:#32B1AA;}
	.st151{clip-path:url(#XMLID_25_);fill:#32B2AB;}
	.st152{clip-path:url(#XMLID_25_);fill:#32B3AB;}
	.st153{clip-path:url(#XMLID_25_);fill:#32B4AC;}
	.st154{clip-path:url(#XMLID_25_);fill:#32B5AC;}
	.st155{clip-path:url(#XMLID_25_);fill:#32B6AD;}
	.st156{clip-path:url(#XMLID_25_);fill:#33A6A5;}
	.st157{clip-path:url(#XMLID_25_);fill:#33A7A5;}
	.st158{clip-path:url(#XMLID_25_);fill:#33A8A6;}
	.st159{clip-path:url(#XMLID_25_);fill:#33A9A6;}
	.st160{clip-path:url(#XMLID_25_);fill:#33AAA7;}
	.st161{clip-path:url(#XMLID_25_);fill:#33ABA7;}
	.st162{clip-path:url(#XMLID_25_);fill:#33ACA8;}
	.st163{clip-path:url(#XMLID_25_);fill:#33ADA8;}
	.st164{clip-path:url(#XMLID_25_);fill:#33AEA9;}
	.st165{clip-path:url(#XMLID_25_);fill:#349DA0;}
	.st166{clip-path:url(#XMLID_25_);fill:#349EA0;}
	.st167{clip-path:url(#XMLID_25_);fill:#349FA1;}
	.st168{clip-path:url(#XMLID_25_);fill:#34A0A1;}
	.st169{clip-path:url(#XMLID_25_);fill:#34A1A2;}
	.st170{clip-path:url(#XMLID_25_);fill:#34A2A2;}
	.st171{clip-path:url(#XMLID_25_);fill:#34A3A3;}
	.st172{clip-path:url(#XMLID_25_);fill:#34A4A3;}
	.st173{clip-path:url(#XMLID_25_);fill:#34A5A4;}
	.st174{opacity:0.75;fill:#31BCB0;}
	.st175{clip-path:url(#XMLID_25_);fill:#35939B;}
	.st176{clip-path:url(#XMLID_25_);fill:#35949B;}
	.st177{clip-path:url(#XMLID_25_);fill:#35959C;}
	.st178{clip-path:url(#XMLID_25_);fill:#35969C;}
	.st179{clip-path:url(#XMLID_25_);fill:#35979D;}
	.st180{clip-path:url(#XMLID_25_);fill:#35989D;}
	.st181{clip-path:url(#XMLID_25_);fill:#35999E;}
	.st182{clip-path:url(#XMLID_25_);fill:#359A9E;}
	.st183{clip-path:url(#XMLID_25_);fill:#359B9F;}
	.st184{clip-path:url(#XMLID_25_);fill:#359C9F;}
	.st185{fill:#31B8AE;}
	.st186{fill:#31B9AE;}
	.st187{fill:#31BAAF;}
	.st188{fill:#31BBAF;}
	.st189{fill:#31BCB0;}
	.st190{clip-path:url(#XMLID_25_);fill:#368A96;}
	.st191{clip-path:url(#XMLID_25_);fill:#368B96;}
	.st192{clip-path:url(#XMLID_25_);fill:#368C97;}
	.st193{clip-path:url(#XMLID_25_);fill:#368D97;}
	.st194{clip-path:url(#XMLID_25_);fill:#368E98;}
	.st195{clip-path:url(#XMLID_25_);fill:#368F98;}
	.st196{clip-path:url(#XMLID_25_);fill:#369099;}
	.st197{clip-path:url(#XMLID_25_);fill:#36919A;}
	.st198{clip-path:url(#XMLID_25_);fill:#36929A;}
	.st199{fill:#32AFA9;}
	.st200{fill:#32B0AA;}
	.st201{fill:#32B1AA;}
	.st202{fill:#32B2AB;}
	.st203{fill:#32B3AB;}
	.st204{fill:#32B4AC;}
	.st205{fill:#32B5AC;}
	.st206{fill:#32B6AD;}
	.st207{clip-path:url(#XMLID_25_);fill:#378191;}
	.st208{fill:#32B7AD;}
	.st209{clip-path:url(#XMLID_25_);fill:#378292;}
	.st210{clip-path:url(#XMLID_25_);fill:#378392;}
	.st211{clip-path:url(#XMLID_25_);fill:#378493;}
	.st212{clip-path:url(#XMLID_25_);fill:#378593;}
	.st213{clip-path:url(#XMLID_25_);fill:#378694;}
	.st214{clip-path:url(#XMLID_25_);fill:#378794;}
	.st215{clip-path:url(#XMLID_25_);fill:#378895;}
	.st216{clip-path:url(#XMLID_25_);fill:#378995;}
	.st217{fill:#33A6A5;}
	.st218{fill:#33A7A5;}
	.st219{fill:#33A8A6;}
	.st220{clip-path:url(#XMLID_25_);fill:#38788C;}
	.st221{clip-path:url(#XMLID_25_);fill:#38798D;}
	.st222{fill:#33AAA7;}
	.st223{fill:#33ABA7;}
	.st224{fill:#33ACA8;}
	.st225{fill:#33ADA8;}
	.st226{clip-path:url(#XMLID_25_);fill:#387A8E;}
	.st227{clip-path:url(#XMLID_25_);fill:#387B8E;}
	.st228{clip-path:url(#XMLID_25_);fill:#387C8F;}
	.st229{clip-path:url(#XMLID_25_);fill:#387D8F;}
	.st230{clip-path:url(#XMLID_25_);fill:#387E90;}
	.st231{clip-path:url(#XMLID_25_);fill:#387F90;}
	.st232{clip-path:url(#XMLID_25_);fill:#388091;}
	.st233{fill:#349EA0;}
	.st234{fill:#349FA1;}
	.st235{clip-path:url(#XMLID_25_);fill:#396F88;}
	.st236{fill:#34A0A1;}
	.st237{fill:#34A1A2;}
	.st238{fill:#34A4A3;}
	.st239{fill:#34A5A4;}
	.st240{clip-path:url(#XMLID_25_);fill:#397088;}
	.st241{clip-path:url(#XMLID_25_);fill:#397189;}
	.st242{clip-path:url(#XMLID_25_);fill:#397289;}
	.st243{clip-path:url(#XMLID_25_);fill:#39738A;}
	.st244{clip-path:url(#XMLID_25_);fill:#39748A;}
	.st245{clip-path:url(#XMLID_25_);fill:#39758B;}
	.st246{clip-path:url(#XMLID_25_);fill:#39768B;}
	.st247{clip-path:url(#XMLID_25_);fill:#39778C;}
	.st248{fill:#35939B;}
	.st249{fill:#35979D;}
	.st250{fill:#35989D;}
	.st251{fill:#35999E;}
	.st252{fill:#359A9E;}
	.st253{fill:#359B9F;}
	.st254{fill:#368A96;}
	.st255{fill:#368B96;}
	.st256{fill:#368C97;}
	.st257{fill:#369099;}
	.st258{fill:#36919A;}
	.st259{fill:#36929A;}
	.st260{fill:#378292;}
	.st261{fill:#378392;}
	.st262{fill:#378493;}
	.st263{fill:#378593;}
	.st264{fill:#378995;}
	.st265{clip-path:url(#XMLID_34_);fill:#F58033;}
	.st266{clip-path:url(#XMLID_34_);fill:#F68134;}
	.st267{clip-path:url(#XMLID_34_);fill:#F68234;}
	.st268{clip-path:url(#XMLID_34_);fill:#F68334;}
	.st269{clip-path:url(#XMLID_34_);fill:#F68434;}
	.st270{clip-path:url(#XMLID_34_);fill:#F68635;}
	.st271{clip-path:url(#XMLID_34_);fill:#F68735;}
	.st272{clip-path:url(#XMLID_34_);fill:#F68835;}
	.st273{clip-path:url(#XMLID_34_);fill:#F68935;}
	.st274{clip-path:url(#XMLID_34_);fill:#F78A36;}
	.st275{clip-path:url(#XMLID_34_);fill:#F78B36;}
	.st276{clip-path:url(#XMLID_34_);fill:#F78C36;}
	.st277{clip-path:url(#XMLID_34_);fill:#F78D37;}
	.st278{clip-path:url(#XMLID_34_);fill:#F78E37;}
	.st279{clip-path:url(#XMLID_34_);fill:#F78F37;}
	.st280{clip-path:url(#XMLID_34_);fill:#F79037;}
	.st281{clip-path:url(#XMLID_34_);fill:#F79138;}
	.st282{clip-path:url(#XMLID_34_);fill:#F79238;}
	.st283{clip-path:url(#XMLID_34_);fill:#F89338;}
	.st284{clip-path:url(#XMLID_34_);fill:#F89438;}
	.st285{clip-path:url(#XMLID_34_);fill:#F89539;}
	.st286{clip-path:url(#XMLID_34_);fill:#F89639;}
	.st287{clip-path:url(#XMLID_34_);fill:#F89739;}
	.st288{clip-path:url(#XMLID_34_);fill:#F8983A;}
	.st289{clip-path:url(#XMLID_34_);fill:#F8993A;}
	.st290{clip-path:url(#XMLID_34_);fill:#F89A3A;}
	.st291{clip-path:url(#XMLID_34_);fill:#F99B3A;}
	.st292{clip-path:url(#XMLID_34_);fill:#F99C3B;}
	.st293{clip-path:url(#XMLID_34_);fill:#F99D3B;}
	.st294{clip-path:url(#XMLID_34_);fill:#F99E3B;}
	.st295{clip-path:url(#XMLID_25_);fill:#3A6583;}
	.st296{clip-path:url(#XMLID_25_);fill:#3A6684;}
	.st297{clip-path:url(#XMLID_25_);fill:#3A6784;}
	.st298{clip-path:url(#XMLID_25_);fill:#3A6885;}
	.st299{clip-path:url(#XMLID_25_);fill:#3A6985;}
	.st300{clip-path:url(#XMLID_25_);fill:#3A6A86;}
	.st301{clip-path:url(#XMLID_25_);fill:#3A6B86;}
	.st302{clip-path:url(#XMLID_25_);fill:#3A6C87;}
	.st303{clip-path:url(#XMLID_25_);fill:#3A6D87;}
	.st304{clip-path:url(#XMLID_25_);fill:#3B5C7E;}
	.st305{clip-path:url(#XMLID_25_);fill:#3B5D7F;}
	.st306{clip-path:url(#XMLID_25_);fill:#3B5E7F;}
	.st307{clip-path:url(#XMLID_25_);fill:#3B5F80;}
	.st308{clip-path:url(#XMLID_25_);fill:#3B6080;}
	.st309{clip-path:url(#XMLID_25_);fill:#3B6181;}
	.st310{clip-path:url(#XMLID_25_);fill:#3B6281;}
	.st311{clip-path:url(#XMLID_25_);fill:#3B6382;}
	.st312{clip-path:url(#XMLID_25_);fill:#3B6483;}
	.st313{clip-path:url(#XMLID_25_);fill:#3C537A;}
	.st314{clip-path:url(#XMLID_25_);fill:#3C547A;}
	.st315{clip-path:url(#XMLID_25_);fill:#3C557B;}
	.st316{clip-path:url(#XMLID_25_);fill:#3C567B;}
	.st317{clip-path:url(#XMLID_25_);fill:#3C577C;}
	.st318{clip-path:url(#XMLID_25_);fill:#3C587C;}
	.st319{clip-path:url(#XMLID_25_);fill:#3C597D;}
	.st320{clip-path:url(#XMLID_25_);fill:#3C5A7D;}
	.st321{clip-path:url(#XMLID_25_);fill:#3C5B7E;}
	.st322{clip-path:url(#XMLID_25_);fill:#3D4A75;}
	.st323{clip-path:url(#XMLID_25_);fill:#3D4B75;}
	.st324{clip-path:url(#XMLID_25_);fill:#3D4C76;}
	.st325{clip-path:url(#XMLID_25_);fill:#3D4D77;}
	.st326{clip-path:url(#XMLID_25_);fill:#3D4E77;}
	.st327{clip-path:url(#XMLID_25_);fill:#3D4F78;}
	.st328{clip-path:url(#XMLID_25_);fill:#3D5078;}
	.st329{clip-path:url(#XMLID_25_);fill:#3D5179;}
	.st330{clip-path:url(#XMLID_25_);fill:#3D5279;}
	.st331{clip-path:url(#XMLID_25_);fill:#3E4070;}
	.st332{clip-path:url(#XMLID_25_);fill:#3E4170;}
	.st333{clip-path:url(#XMLID_25_);fill:#3E4271;}
	.st334{clip-path:url(#XMLID_25_);fill:#3E4371;}
	.st335{clip-path:url(#XMLID_25_);fill:#3E4472;}
	.st336{clip-path:url(#XMLID_25_);fill:#3E4572;}
	.st337{clip-path:url(#XMLID_25_);fill:#3E4673;}
	.st338{clip-path:url(#XMLID_25_);fill:#3E4773;}
	.st339{clip-path:url(#XMLID_25_);fill:#3E4874;}
	.st340{clip-path:url(#XMLID_25_);fill:#3E4974;}
	.st341{fill:#3A6583;}
	.st342{fill:#3A6684;}
	.st343{fill:#3A6784;}
	.st344{fill:#3A6985;}
	.st345{fill:#3A6A86;}
	.st346{fill:#3A6B86;}
	.st347{fill:#3A6C87;}
	.st348{clip-path:url(#XMLID_25_);fill:#3F376B;}
	.st349{clip-path:url(#XMLID_25_);fill:#3F386C;}
	.st350{clip-path:url(#XMLID_25_);fill:#3F396C;}
	.st351{clip-path:url(#XMLID_25_);fill:#3F3A6D;}
	.st352{clip-path:url(#XMLID_25_);fill:#3F3B6D;}
	.st353{clip-path:url(#XMLID_25_);fill:#3F3C6E;}
	.st354{clip-path:url(#XMLID_25_);fill:#3F3D6E;}
	.st355{clip-path:url(#XMLID_25_);fill:#3F3E6F;}
	.st356{clip-path:url(#XMLID_25_);fill:#3F3F6F;}
	.st357{fill:#3B5C7E;}
	.st358{fill:#3B5D7F;}
	.st359{fill:#3B5E7F;}
	.st360{fill:#3B6080;}
	.st361{fill:#3B6181;}
	.st362{fill:#3B6281;}
	.st363{fill:#3B6382;}
	.st364{fill:#3B6483;}
	.st365{fill:#3C557B;}
	.st366{fill:#3C567B;}
	.st367{fill:#3C577C;}
	.st368{fill:#3C587C;}
	.st369{fill:#3C5A7D;}
	.st370{fill:#3C5B7E;}
	.st371{fill:#3D4A75;}
	.st372{fill:#3D4E77;}
	.st373{fill:#3D4F78;}
	.st374{fill:#3D5078;}
	.st375{fill:#3D5179;}
	.st376{fill:#3E4070;}
	.st377{fill:#3E4170;}
	.st378{fill:#3E4271;}
	.st379{fill:#3E4371;}
	.st380{fill:#3E4472;}
	.st381{fill:#3E4572;}
	.st382{fill:#3E4773;}
	.st383{fill:#3E4874;}
	.st384{fill:#3E4974;}
	.st385{fill:#3F3C6E;}
	.st386{fill:#3F3D6E;}
	.st387{fill:#3F3E6F;}
	.st388{fill:#3F3F6F;}
	.st389{clip-path:url(#XMLID_25_);fill:#402E66;}
	.st390{clip-path:url(#XMLID_25_);fill:#402F67;}
	.st391{clip-path:url(#XMLID_25_);fill:#403067;}
	.st392{clip-path:url(#XMLID_25_);fill:#403168;}
	.st393{clip-path:url(#XMLID_25_);fill:#403268;}
	.st394{clip-path:url(#XMLID_25_);fill:#403369;}
	.st395{clip-path:url(#XMLID_25_);fill:#403469;}
	.st396{clip-path:url(#XMLID_25_);fill:#40356A;}
	.st397{clip-path:url(#XMLID_25_);fill:#40366A;}
	.st398{fill:#42205F;}
]]>
</style>
<linearGradient id="XMLID_7_" gradientUnits="userSpaceOnUse" x1="10870.4043" y1="4106.3916" x2="10962.668" y2="4106.3916" gradientTransform="matrix(0 -1 1 0 -4022.6729 10962.668)">
	<stop  offset="0" style="stop-color:#F0545D"/>
	<stop  offset="1" style="stop-color:#7A1953"/>
	<a:midPointStop  offset="0" style="stop-color:#F0545D"/>
	<a:midPointStop  offset="0.5" style="stop-color:#F0545D"/>
	<a:midPointStop  offset="1" style="stop-color:#7A1953"/>
</linearGradient>
<rect id="XMLID_1382_" x="0.1" class="st1" width="167.3" height="92.3"/>
<g id="XMLID_1383_">
	<g id="XMLID_1386_">
		<g id="XMLID_2197_">
			<g id="XMLID_1118_">
				<path id="XMLID_1127_" class="st130" d="M24.1,46.1C20.2,46,18,48,17.7,51.9c-0.1,1-0.1,2-0.3,3c-0.2,1.4-1.2,2.1-2.4,1.8
					c-1.2-0.3-1.9-1.1-2-2.5c-0.3-5.8,3.1-10.5,9.2-12.2c2.9-0.8,5.9-1.1,8.9-1.7c2.8-0.5,5.5-1.1,8.3-1.7c1.3-0.3,1.6-0.2,1.6,1.2
					c-0.1,2.5-2.3,4.9-5,5.3c-1.9,0.3-3.8,0.3-5.9,0.5c-0.4,1.7-0.8,3.4-1.1,5.1c-1.1,5.4-2.2,10.9-3.3,16.3
					c-0.1,0.6-0.3,1.1-0.5,1.6c-0.8,2.2-1.7,2.9-3.7,2.7c-1.7-0.1-2.4-1.3-2-3.3c1.4-6.9,2.9-13.7,4.4-20.6
					C24,47.1,24,46.6,24.1,46.1z"/>
				<g id="XMLID_1119_">
					<path id="XMLID_1121_" class="st130" d="M135.6,38.9c-0.8-0.1-1.6,0.2-2.3,2.6c-0.8,1.7-1.9,3.2-3.5,4.1
						c-2.4,1.4-4.9,1-5.8-0.8c0.1-0.1,0.1-0.2,0.2-0.2c4.3-1.9,6.6-5.3,7.9-9.5c1.1-3.6-0.6-5.3-4.2-4.4c-2,0.5-3.8,1.5-5.3,3
						c-3.2,3.2-4.9,7-5.1,11.1c0,1.2-0.4,2.2-1.3,3.1c-1.1,1.1-2.3,0.8-2.5-0.5c-0.1-0.5-0.1-1,0-1.5c0.6-3,1.1-6,1.8-9
						c0.7-2.8,0.5-3.2-2.3-3.1c-0.1,0-0.2,0-0.3,0c-2,0.1-2.6,0.6-3.1,2.6c-0.7,2.9-1.3,5.9-1.8,8.8c-0.4,2.1-2.5,4.9-4.3,5.4
						c0.5-1.6,1.2-3.1,1.6-4.7c0.7-2.8,0.8-5.6-0.4-7.9c-1.4-2.6-4.2-2.8-6.9-0.5c-0.5,0.4-1,0.9-1.4,1.3c-1-1.5-3.2-1.8-4.9-0.6
						c-0.4,0.3-0.8,0.9-0.9,1.4c-0.4,1.9-0.7,3.8-1.2,5.7c-0.5,2.2-1,4.4-1.7,6.6c-0.8,1.1-2.1,2.2-3,2.4c0.5-1.6,1.2-3.1,1.6-4.7
						c0.7-2.8,0.8-5.6-0.4-7.9c-1.4-2.6-4.2-2.8-6.9-0.5c-0.5,0.4-1,0.9-1.4,1.3c-1-1.5-3.2-1.8-4.9-0.6c-0.4,0.3-0.8,0.9-0.9,1.4
						c-0.4,1.9-0.7,3.8-1.2,5.7c-0.5,2.2-1,4.4-1.7,6.6c-0.4,1.2-1.2,2.5-2.7,2.5c-1,0-1.5-1.5-1.1-3.2c0.7-3.2,1.4-6.4,2.1-9.7
						C67,44.8,67,44,66.8,44c-1.4-0.2-2.8-0.4-4.3-0.3c-1.2,0.2-1.5,1.5-1.7,2.5c-0.5,2.2-0.9,4.3-1.4,6.5c-0.4,1.7-0.9,3.5-1.6,5.2
						c-0.2,0.5-1.2,1.3-1.7,1.3c-0.5,0-0.8-0.8-1.1-1.4c-0.1-0.2-0.1-0.6,0-0.9c0.6-2.8,1.1-5.6,1.7-8.4c0.7-2.9,0.6-3.1-2.3-3.1
						c-0.2,0-0.4,0-0.5,0c-1.7,0.1-2.3,0.6-2.8,2.3c-0.5,1.9-0.9,3.8-1.4,5.7c-0.5,2.3-0.3,4.7-1.8,7c-0.5,0.8-1.1,2-2.1,1.7
						c-0.4-0.2-0.5-1.4-0.4-2.2c0.4-2,1-4,1.5-5.9c0.5-2.2-0.1-3.3-2-3.8c-1.3-0.4-2.7-0.6-4.1-0.7c-1.1-0.1-1.4-0.4-1.2-1.7
						c0.1-0.8-0.3-2-0.9-2.2c-0.7-0.3-2,0.1-2.8,0.6c-1.7,1.2-2.1,3.8-0.9,5c0.6,0.6,0.7,1.2,0.5,2.1C35,55.5,33,64.4,32.4,66.7
						c-0.2,0.8-0.2,1.7,0.6,1.7c0.6,0,1.4-0.6,1.9-1.1c0.3-0.3,0.4-1,0.5-1.5c0.5-2.1,2.6-10.7,3-12.8c2.7,0.5,2.8,0.8,2.2,3.5
						c-0.4,2-0.9,4-1.2,5.9c-0.3,1.9-0.1,3.7,1.6,4.6c1.7,0.9,3.6,0.4,5.3-0.8c1-0.7,1.9-1.7,3-2.6c1.6,2.9,6,2.7,9.9-1.6
						c2.3,2.6,5.2,1.7,8.5-0.5c-0.4,2-0.8,3.8-1.1,5.6c-0.5,2.4,0.6,4.3,2.7,4.6c1.3,0.2,2.1-0.3,2.4-1.6c0.3-1.4,0.6-2.8,0.8-4.1
						c0.3-1.9,0.7-3.7,1-5.6c2.5,0.5,4.8,0.4,7-0.3c0,0,0,0,0,0c1.3-0.3,4.7-1.8,6.1-2.7c-0.4,2-0.8,4.3-1.1,6.1
						c-0.5,2.4,0.6,4.3,2.7,4.6c1.3,0.2,2.1-0.3,2.4-1.6c0.3-1.4,0.6-2.8,0.8-4.1c0.3-1.9,0.7-3.7,1-5.6c5.5,1.2,10.4-1,15.1-5.1
						c0.9,2.2,2.8,2.9,5.3,2.3c2.4-0.6,4.2-2.4,5.6-4.5c0.2,0.1,0.3,0.1,0.3,0.2c2.7,2.6,6.1,2.6,9.8,0.8c4-2,6.4-5.4,7.5-9.6
						C136.3,40.2,136.4,39,135.6,38.9z M78.9,53.7c-0.5,0.7-1.6,1.5-2.1,1.4c-0.6-0.1-1.1-1.1-1.1-1.8c-0.1-2.4,0.7-4.8,2.3-6.9
						c0.5-0.6,1.5-1.2,1.9-1.2c1.5,0,1.2,2.1,1.2,2.4C81,49.7,80.4,51.9,78.9,53.7z M100,43.9c-0.1,2.2-0.7,4.3-2.2,6.1
						c-0.5,0.7-1.6,1.5-2.1,1.4c-0.6-0.1-1.1-1.1-1.1-1.8c-0.1-2.4,0.7-4.8,2.3-6.9c0.5-0.6,1.5-1.2,1.9-1.2
						C100.4,41.6,100,43.7,100,43.9z M126.2,36.3c0.4-0.4,1.2-0.9,1.7-0.6s0.1,1.3-0.1,1.8c-0.9,1.9-2.4,3.3-4.5,4.5
						C123.7,39.6,124.5,37.7,126.2,36.3z"/>
					<path id="XMLID_1120_" class="st130" d="M118.2,26.3c0.1,2-0.8,3.6-2.4,4.9c-2,1.7-4.3,1-4.5-1.3c-0.1-1.8,0.6-3.5,2.1-4.9
						c1-1,2.1-1.5,3.3-1.1C117.8,24.3,118.2,25.2,118.2,26.3z"/>
				</g>
			</g>
		</g>
		<path id="XMLID_2193_" class="st129" d="M154.7,8.5c-0.3-0.1-0.5,0-0.7,0.2l-18,19.2c-0.2,0.2-0.2,0.5-0.1,0.8
			c0.2,0.3,0.4,0.4,0.7,0.3l11.2-2.3C147.9,26.6,155,8.5,154.7,8.5z"/>
		<path id="XMLID_2178_" class="st54" d="M154.8,8.4c0.3,0.1,0.4,0.3,0.4,0.6l0.9,26.3c0,0.3-0.2,0.5-0.4,0.6
			c-0.3,0.1-0.6,0-0.7-0.2l-6.9-9.1C147.9,26.5,154.5,8.3,154.8,8.4z"/>
		<g id="XMLID_1979_">
			<path id="XMLID_1983_" class="st130" d="M115.4,67.3C115.4,67.3,115.4,67.3,115.4,67.3c-0.3,0-0.5,0.1-0.7,0.1
				c-0.5,0-1-0.5-1.1-1.2c-0.1-0.7,0.2-1.3,0.8-1.3c0.2,0,0.4,0,0.6-0.1c0.5-0.1,1,0.5,1.1,1.1C116.2,66.6,115.9,67.2,115.4,67.3z
				 M120.3,66.1c-0.5,0.1-1-0.3-1.1-0.9c-0.2-0.7,0-1.4,0.5-1.5c0.2-0.1,0.4-0.1,0.6-0.2c0.5-0.2,1,0.2,1.3,0.8
				c0.2,0.7,0,1.4-0.5,1.6c-0.2,0.1-0.4,0.2-0.6,0.2C120.3,66.1,120.3,66.1,120.3,66.1z M109.8,67.1c-0.1,0-0.2,0-0.3,0
				c-0.2,0-0.4-0.1-0.7-0.1c-0.5-0.1-0.9-0.7-0.9-1.4c0-0.7,0.5-1.1,1-1c0.2,0,0.4,0.1,0.6,0.1c0.5,0.1,0.9,0.7,0.9,1.4
				C110.4,66.6,110.1,67,109.8,67.1z M125.3,63.4c-0.4,0.1-0.8-0.2-1.1-0.7c-0.3-0.6-0.2-1.4,0.3-1.7c0.2-0.1,0.3-0.2,0.5-0.4
				c0.4-0.3,1-0.1,1.3,0.5c0.3,0.6,0.2,1.4-0.3,1.7c-0.2,0.1-0.4,0.3-0.5,0.4C125.5,63.4,125.4,63.4,125.3,63.4z M104.1,65.4
				c-0.1,0-0.3,0-0.4,0c-0.2-0.1-0.4-0.2-0.6-0.3c-0.5-0.2-0.8-0.9-0.7-1.6c0.1-0.7,0.6-1,1.1-0.8c0.2,0.1,0.4,0.2,0.6,0.3
				c0.5,0.2,0.9,0.9,0.8,1.6C104.7,65.1,104.4,65.4,104.1,65.4z M129.8,59.6c-0.3,0.1-0.7-0.1-1-0.5c-0.3-0.6-0.3-1.3,0.1-1.7
				c0.2-0.2,0.3-0.3,0.5-0.5c0.4-0.4,1-0.3,1.3,0.3c0.4,0.6,0.3,1.3-0.1,1.7c-0.2,0.2-0.3,0.3-0.5,0.5
				C130.1,59.5,129.9,59.6,129.8,59.6z M133.9,55.1c-0.3,0.1-0.7-0.1-0.9-0.4c-0.4-0.5-0.4-1.3-0.1-1.8c0.1-0.2,0.3-0.4,0.4-0.5
				c0.4-0.5,1-0.4,1.3,0.1c0.4,0.5,0.4,1.3,0.1,1.8c-0.1,0.2-0.3,0.4-0.4,0.6C134.2,55,134,55.1,133.9,55.1z M98.6,62.6
				c-0.2,0-0.4,0-0.6-0.1c-0.2-0.1-0.4-0.2-0.6-0.4c-0.5-0.3-0.8-1.1-0.6-1.7c0.2-0.6,0.7-0.9,1.2-0.6c0.2,0.1,0.4,0.2,0.6,0.4
				c0.5,0.3,0.8,1,0.6,1.7C99.1,62.3,98.9,62.6,98.6,62.6z M137.5,50c-0.3,0.1-0.6-0.1-0.9-0.3c-0.4-0.5-0.5-1.3-0.2-1.8l0.4-0.6
				c0.3-0.5,0.9-0.5,1.3,0c0.4,0.5,0.5,1.3,0.2,1.8l-0.4,0.6C137.9,49.9,137.7,50,137.5,50z M140.9,44.6c-0.3,0.1-0.6,0-0.8-0.3
				c-0.4-0.5-0.5-1.2-0.3-1.8l0.4-0.6c0.3-0.5,0.9-0.6,1.3-0.1c0.4,0.5,0.6,1.2,0.3,1.8l-0.4,0.6C141.3,44.4,141.1,44.5,140.9,44.6z
				 M144,38.8c-0.2,0.1-0.5,0-0.8-0.3c-0.4-0.4-0.6-1.2-0.3-1.8l0.3-0.6c0.3-0.5,0.9-0.6,1.3-0.2c0.4,0.4,0.6,1.2,0.3,1.8l-0.3,0.7
				C144.4,38.6,144.2,38.8,144,38.8z M146.9,32.9c-0.2,0.1-0.5,0-0.7-0.2c-0.5-0.4-0.6-1.2-0.4-1.7l0.3-0.5c0.3-0.6,0.8-0.7,1.3-0.3
				c0.5,0.4,0.6,1.2,0.4,1.7l-0.3,0.6C147.3,32.7,147.1,32.9,146.9,32.9z"/>
		</g>
		<g id="XMLID_1429_">
			<path id="XMLID_1564_" class="st130" d="M78.9,47.9c-0.3,0.1-0.7-0.1-1-0.4L77.6,47c-0.3-0.4-0.2-1,0.2-1.3
				c0.4-0.3,1-0.2,1.3,0.2l0.4,0.5c0.3,0.4,0.2,1-0.2,1.3C79.1,47.8,79,47.9,78.9,47.9z M75.5,43.5c-0.3,0.1-0.7,0-0.9-0.3l-0.4-0.5
				c-0.3-0.4-0.3-1,0.1-1.3c0.4-0.3,1-0.3,1.3,0.1L76,42c0.3,0.4,0.3,1-0.1,1.3C75.7,43.4,75.6,43.4,75.5,43.5z M71.7,39.3
				c-0.3,0.1-0.6,0-0.9-0.3l-0.4-0.4c-0.4-0.4-0.4-1,0-1.3s1-0.4,1.3,0l0.4,0.5c0.4,0.4,0.3,1,0,1.3C72.1,39.1,71.9,39.2,71.7,39.3z
				 M43.4,45c-0.1,0-0.3,0-0.4,0c-0.5-0.1-0.8-0.6-0.7-1.1l0.2-0.6c0.1-0.5,0.7-0.8,1.2-0.6c0.5,0.1,0.8,0.7,0.6,1.2l-0.2,0.6
				C44,44.7,43.7,44.9,43.4,45z M67.7,35.4c-0.3,0.1-0.6,0-0.8-0.2c-0.2-0.1-0.3-0.3-0.5-0.4c-0.4-0.3-0.5-0.9-0.1-1.3
				c0.3-0.4,0.9-0.5,1.3-0.1c0.2,0.1,0.3,0.3,0.5,0.4c0.4,0.3,0.4,0.9,0.1,1.3C68.1,35.3,67.9,35.4,67.7,35.4z M45.1,39.7
				c-0.2,0-0.4,0-0.6-0.1c-0.5-0.2-0.7-0.7-0.5-1.2c0.1-0.2,0.2-0.4,0.2-0.6c0.2-0.5,0.8-0.7,1.2-0.5c0.5,0.2,0.7,0.8,0.5,1.2
				c-0.1,0.2-0.2,0.4-0.2,0.6C45.7,39.4,45.4,39.6,45.1,39.7z M63.1,32.1c-0.2,0-0.5,0-0.7-0.1c-0.2-0.1-0.4-0.2-0.5-0.3
				c-0.5-0.2-0.6-0.8-0.4-1.3c0.2-0.5,0.8-0.6,1.3-0.4c0.2,0.1,0.4,0.2,0.6,0.3c0.4,0.3,0.6,0.8,0.3,1.3
				C63.6,31.9,63.4,32.1,63.1,32.1z M47.8,34.7c-0.2,0.1-0.5,0-0.7-0.2c-0.4-0.3-0.5-0.9-0.2-1.3c0.1-0.2,0.3-0.4,0.4-0.5
				c0.3-0.4,0.9-0.5,1.3-0.2c0.4,0.3,0.5,0.9,0.2,1.3c-0.1,0.2-0.2,0.3-0.4,0.5C48.2,34.6,48,34.7,47.8,34.7z M57.9,30.1
				c-0.1,0-0.2,0-0.4,0c-0.2,0-0.4-0.1-0.6-0.1c-0.5-0.1-0.9-0.5-0.8-1c0.1-0.5,0.5-0.9,1-0.8c0.2,0,0.4,0.1,0.7,0.1
				c0.5,0.1,0.8,0.6,0.8,1.1C58.6,29.8,58.3,30,57.9,30.1z M51.9,31c-0.4,0.1-0.8-0.1-1-0.5c-0.2-0.5-0.1-1,0.4-1.3
				c0.2-0.1,0.4-0.2,0.6-0.3c0.5-0.2,1,0,1.2,0.5c0.2,0.5,0,1-0.5,1.2c-0.2,0.1-0.3,0.2-0.5,0.2C52,30.9,52,31,51.9,31z"/>
		</g>
	</g>
	<g id="XMLID_1385_">
		<path id="XMLID_3_" class="st130" d="M15.7,78h1l1.7,3.9l1.6-3.9h0.9l-2.5,5.9h-0.1L15.7,78z"/>
		<path id="XMLID_312_" class="st130" d="M23.4,78h0.9v5.8h-0.9V78z"/>
		<path id="XMLID_314_" class="st130" d="M26.8,78h1l1.7,3.9l1.6-3.9H32l-2.5,5.9h-0.1L26.8,78z"/>
		<path id="XMLID_316_" class="st130" d="M34,83.8H33l2.6-5.9h0.1l2.6,5.9h-1L36.9,83c0,0-2.6,0-2.6,0L34,83.8z M35.6,79.9l-1,2.3
			h1.9C36.6,82.2,35.6,79.9,35.6,79.9z"/>
		<path id="XMLID_319_" class="st130" d="M44.3,77.9L44.3,77.9l2.9,3.3l2.8-3.3h0v5.9h-0.9V80l-2,2.4h0l-2-2.4v3.8h-0.9V77.9z"/>
		<path id="XMLID_321_" class="st130" d="M53.5,83.8h-0.9l2.6-5.9h0.1l2.6,5.9h-1L56.4,83c0,0-2.6,0-2.6,0L53.5,83.8z M55.2,79.9
			l-1,2.3h1.9C56.1,82.2,55.2,79.9,55.2,79.9z"/>
		<path id="XMLID_324_" class="st130" d="M60.3,78h0.9v5.8h-0.9V78z"/>
		<path id="XMLID_327_" class="st130" d="M64.5,82.3c0.3,0.5,0.7,0.8,1.3,0.8c0.6,0,1-0.3,1-0.8c0-0.5-0.4-0.7-0.9-1l-0.4-0.2
			c-0.9-0.4-1.4-0.8-1.4-1.7c0-0.9,0.7-1.5,1.6-1.5c0.7,0,1.3,0.3,1.7,0.9l-0.7,0.5c-0.2-0.4-0.5-0.6-1-0.6c-0.5,0-0.7,0.3-0.7,0.7
			c0,0.5,0.3,0.6,0.9,0.9l0.4,0.2c0.9,0.4,1.5,0.8,1.5,1.8c0,1.1-0.8,1.6-1.9,1.6c-1,0-1.7-0.5-2.1-1.2L64.5,82.3z"/>
		<path id="XMLID_329_" class="st130" d="M73.8,80.9c0-1.7,1.3-3,3-3c1.1,0,1.8,0.4,2.3,1.1l-0.7,0.5c-0.4-0.5-0.9-0.8-1.7-0.8
			c-1.2,0-2,0.9-2,2.2c0,1.3,0.9,2.2,2,2.2c0.8,0,1.3-0.3,1.7-0.8l0.7,0.5c-0.6,0.8-1.4,1.2-2.5,1.2C75.1,83.9,73.8,82.6,73.8,80.9z
			"/>
		<path id="XMLID_331_" class="st130" d="M81.4,80.9c0-1.7,1.3-3,3-3c1.7,0,3,1.3,3,3s-1.3,3-3,3C82.7,83.9,81.4,82.6,81.4,80.9z
			 M86.5,80.9c0-1.2-0.8-2.2-2.1-2.2c-1.2,0-2.1,0.9-2.1,2.2c0,1.2,0.8,2.2,2.1,2.2C85.6,83,86.5,82.1,86.5,80.9z"/>
		<path id="XMLID_334_" class="st130" d="M90.1,78H91v5.8h-0.9V78z"/>
		<path id="XMLID_336_" class="st130" d="M94.4,82.3c0.3,0.5,0.7,0.8,1.3,0.8c0.6,0,1-0.3,1-0.8c0-0.5-0.4-0.7-0.9-1l-0.4-0.2
			c-0.9-0.4-1.4-0.8-1.4-1.7c0-0.9,0.7-1.5,1.6-1.5c0.7,0,1.3,0.3,1.7,0.9l-0.7,0.5c-0.2-0.4-0.5-0.6-1-0.6c-0.5,0-0.7,0.3-0.7,0.7
			c0,0.5,0.3,0.6,0.9,0.9l0.4,0.2c0.9,0.4,1.5,0.8,1.5,1.8c0,1.1-0.8,1.6-1.9,1.6c-1,0-1.7-0.5-2.1-1.2L94.4,82.3z"/>
		<path id="XMLID_338_" class="st130" d="M100.7,83.8h-0.9l2.6-5.9h0.1l2.6,5.9h-1l-0.3-0.8c0,0-2.6,0-2.6,0L100.7,83.8z
			 M102.3,79.9l-1,2.3h1.9C103.3,82.2,102.3,79.9,102.3,79.9z"/>
		<path id="XMLID_341_" class="st130" d="M107.8,82.3c0.3,0.5,0.7,0.8,1.3,0.8c0.6,0,1-0.3,1-0.8c0-0.5-0.4-0.7-0.9-1l-0.4-0.2
			c-0.9-0.4-1.4-0.8-1.4-1.7c0-0.9,0.7-1.5,1.6-1.5c0.7,0,1.3,0.3,1.7,0.9l-0.7,0.5c-0.2-0.4-0.5-0.6-1-0.6c-0.5,0-0.7,0.3-0.7,0.7
			c0,0.5,0.3,0.6,0.9,0.9l0.4,0.2c0.9,0.4,1.5,0.8,1.5,1.8c0,1.1-0.8,1.6-1.9,1.6c-1,0-1.7-0.5-2.1-1.2L107.8,82.3z"/>
		<path id="XMLID_343_" class="st130" d="M117.3,78h2.1c1.2,0,1.7,0.7,1.7,1.5c0,0.5-0.3,0.9-0.7,1.1c0.7,0.2,1.1,0.7,1.1,1.5
			c0,1-0.6,1.8-2,1.8h-2.2V78z M119.3,80.3c0.6,0,0.8-0.3,0.8-0.8c0-0.4-0.2-0.7-0.8-0.7h-1.1v1.5H119.3z M119.5,83
			c0.8,0,1.1-0.4,1.1-1s-0.3-1-1.1-1h-1.2v2H119.5z"/>
		<path id="XMLID_347_" class="st130" d="M123.8,80.9c0-1.7,1.3-3,3-3s3,1.3,3,3s-1.3,3-3,3S123.8,82.6,123.8,80.9z M128.9,80.9
			c0-1.2-0.8-2.2-2.1-2.2c-1.2,0-2.1,0.9-2.1,2.2c0,1.2,0.8,2.2,2.1,2.2C128,83,128.9,82.1,128.9,80.9z"/>
		<path id="XMLID_350_" class="st130" d="M132.5,83.8h-0.9l2.6-5.9h0.1l2.6,5.9h-1l-0.3-0.8c0,0-2.6,0-2.6,0L132.5,83.8z
			 M134.2,79.9l-1,2.3h1.9C135.2,82.2,134.2,79.9,134.2,79.9z"/>
		<path id="XMLID_353_" class="st130" d="M139.6,82.3c0.3,0.5,0.7,0.8,1.3,0.8c0.6,0,1-0.3,1-0.8c0-0.5-0.4-0.7-0.9-1l-0.4-0.2
			c-0.9-0.4-1.4-0.8-1.4-1.7c0-0.9,0.7-1.5,1.6-1.5c0.7,0,1.3,0.3,1.7,0.9l-0.7,0.5c-0.2-0.4-0.5-0.6-1-0.6c-0.5,0-0.7,0.3-0.7,0.7
			c0,0.5,0.3,0.6,0.9,0.9l0.4,0.2c0.9,0.4,1.5,0.8,1.5,1.8c0,1.1-0.8,1.6-1.9,1.6c-1,0-1.7-0.5-2.1-1.2L139.6,82.3z"/>
	</g>
</g>
<rect id="_x3C_Slice_x3E_" class="st147" width="168" height="91"/>
</svg>
