<?xml version="1.0" encoding="utf-8"?>
<!-- Generator: Adobe Illustrator 16.0.0, SVG Export Plug-In . SVG Version: 6.00 Build 0)  -->
<!DOCTYPE svg PUBLIC "-//W3C//DTD SVG 1.1//EN" "http://www.w3.org/Graphics/SVG/1.1/DTD/svg11.dtd">
<svg version="1.1" id="Layer_1" xmlns="http://www.w3.org/2000/svg" xmlns:xlink="http://www.w3.org/1999/xlink" x="0px" y="0px"
	 width="167.4px" height="92.3px" viewBox="0 0 167.4 92.3" enable-background="new 0 0 167.4 92.3" xml:space="preserve">
<g id="XMLID_1386_">
	<g id="XMLID_2197_">
		<g id="XMLID_1118_">
			<path id="XMLID_1127_" fill="#f05829" d="M33.199,44.498c-3.9-0.1-6.101,1.899-6.4,5.8c-0.1,1-0.1,2-0.3,3
				c-0.2,1.4-1.2,2.1-2.4,1.801c-1.2-0.301-1.899-1.102-2-2.5c-0.3-5.801,3.101-10.501,9.2-12.201c2.9-0.8,5.9-1.1,8.9-1.7
				c2.8-0.5,5.5-1.1,8.3-1.7c1.3-0.3,1.6-0.2,1.6,1.2c-0.1,2.5-2.3,4.9-5,5.3c-1.899,0.3-3.8,0.3-5.899,0.5
				c-0.4,1.7-0.801,3.4-1.101,5.101c-1.1,5.398-2.2,10.898-3.3,16.299c-0.1,0.6-0.3,1.1-0.5,1.6c-0.8,2.201-1.7,2.9-3.7,2.701
				c-1.7-0.1-2.399-1.301-2-3.301c1.4-6.9,2.9-13.699,4.4-20.6C33.098,45.498,33.098,44.998,33.199,44.498z"/>
			<g id="XMLID_1119_">
				<path id="XMLID_1121_" fill="#f05829" d="M144.699,37.298c-0.801-0.1-1.601,0.2-2.301,2.6c-0.8,1.7-1.899,3.2-3.5,4.1
					c-2.399,1.399-4.899,1-5.8-0.8c0.101-0.1,0.101-0.2,0.2-0.2c4.3-1.9,6.6-5.3,7.9-9.5c1.1-3.6-0.601-5.3-4.2-4.4
					c-2,0.5-3.8,1.5-5.3,3c-3.2,3.2-4.9,7-5.101,11.1c0,1.2-0.399,2.2-1.3,3.1c-1.1,1.1-2.3,0.801-2.5-0.5c-0.1-0.5-0.1-1,0-1.5
					c0.6-3,1.1-6,1.8-9c0.7-2.8,0.5-3.2-2.3-3.1c-0.1,0-0.2,0-0.3,0c-2,0.1-2.601,0.6-3.101,2.6c-0.699,2.9-1.3,5.9-1.8,8.8
					c-0.399,2.1-2.5,4.899-4.3,5.399c0.5-1.6,1.2-3.1,1.6-4.7c0.7-2.8,0.801-5.6-0.399-7.9c-1.4-2.6-4.2-2.8-6.9-0.5
					c-0.5,0.4-1,0.9-1.399,1.3c-1-1.5-3.2-1.8-4.9-0.6c-0.4,0.3-0.8,0.9-0.9,1.4c-0.399,1.9-0.699,3.8-1.199,5.7
					c-0.5,2.2-1,4.401-1.7,6.601c-0.8,1.1-2.101,2.199-3,2.4c0.5-1.6,1.2-3.1,1.6-4.701c0.7-2.799,0.8-5.6-0.399-7.899
					c-1.4-2.6-4.2-2.8-6.9-0.5c-0.5,0.4-1,0.9-1.4,1.3c-1-1.5-3.199-1.8-4.899-0.6c-0.4,0.3-0.8,0.9-0.9,1.4
					c-0.399,1.9-0.7,3.8-1.2,5.7c-0.5,2.201-1,4.4-1.699,6.6c-0.4,1.201-1.2,2.5-2.7,2.5c-1,0-1.5-1.5-1.101-3.199
					c0.7-3.199,1.4-6.4,2.101-9.7c-0.4-0.4-0.4-1.2-0.601-1.2c-1.399-0.2-2.8-0.4-4.3-0.3c-1.2,0.2-1.5,1.5-1.7,2.5
					c-0.5,2.2-0.899,4.3-1.399,6.501c-0.4,1.699-0.9,3.5-1.601,5.199c-0.199,0.5-1.199,1.301-1.699,1.301s-0.801-0.801-1.101-1.4
					c-0.1-0.201-0.1-0.6,0-0.9c0.601-2.801,1.101-5.6,1.7-8.4c0.7-2.9,0.6-3.1-2.3-3.1c-0.2,0-0.4,0-0.5,0
					c-1.7,0.1-2.3,0.6-2.8,2.301c-0.5,1.899-0.9,3.799-1.4,5.7c-0.5,2.301-0.3,4.699-1.8,7c-0.5,0.801-1.101,2-2.101,1.699
					c-0.399-0.199-0.5-1.398-0.399-2.199c0.399-2,1-4,1.5-5.9c0.5-2.199-0.101-3.299-2-3.799c-1.3-0.4-2.7-0.602-4.101-0.701
					c-1.1-0.1-1.399-0.4-1.199-1.7c0.1-0.801-0.301-2-0.9-2.2c-0.7-0.3-2,0.1-2.8,0.6c-1.7,1.2-2.101,3.8-0.9,5.001
					c0.601,0.6,0.7,1.199,0.5,2.1c-0.5,2.199-2.5,11.1-3.1,13.4c-0.2,0.799-0.2,1.699,0.6,1.699c0.601,0,1.4-0.6,1.9-1.1
					c0.3-0.301,0.399-1,0.5-1.5c0.5-2.1,2.6-10.701,3-12.801c2.7,0.5,2.8,0.801,2.2,3.5c-0.4,2-0.9,4-1.2,5.9s-0.101,3.699,1.6,4.6
					s3.601,0.4,5.3-0.799c1-0.701,1.9-1.701,3-2.602c1.601,2.9,6,2.701,9.9-1.6c2.3,2.6,5.2,1.701,8.5-0.5c-0.4,2-0.8,3.801-1.1,5.6
					c-0.5,2.4,0.6,4.301,2.699,4.602c1.301,0.199,2.101-0.301,2.4-1.602c0.3-1.398,0.6-2.799,0.8-4.1c0.3-1.9,0.7-3.699,1-5.6
					c2.5,0.5,4.8,0.4,7-0.301l0,0c1.3-0.299,4.7-1.799,6.101-2.699c-0.4,2-0.801,4.301-1.101,6.1c-0.5,2.4,0.601,4.301,2.7,4.6
					c1.3,0.201,2.1-0.299,2.4-1.6c0.3-1.4,0.6-2.799,0.8-4.1c0.3-1.9,0.7-3.699,1-5.6c5.5,1.199,10.399-1,15.1-5.1
					c0.9,2.199,2.8,2.898,5.3,2.299c2.4-0.6,4.2-2.4,5.601-4.5c0.2,0.1,0.3,0.1,0.3,0.201c2.7,2.6,6.1,2.6,9.8,0.799
					c4-2,6.4-5.4,7.5-9.6C145.398,38.598,145.499,37.398,144.699,37.298z M87.999,52.099c-0.5,0.699-1.601,1.5-2.101,1.398
					c-0.6-0.1-1.1-1.1-1.1-1.799c-0.1-2.4,0.7-4.801,2.3-6.901c0.5-0.6,1.5-1.2,1.9-1.2c1.5,0,1.2,2.1,1.2,2.4
					C90.098,48.099,89.499,50.298,87.999,52.099z M109.098,42.298c-0.1,2.2-0.7,4.301-2.2,6.1c-0.5,0.701-1.6,1.5-2.1,1.4
					c-0.6-0.1-1.1-1.1-1.1-1.801c-0.101-2.399,0.699-4.8,2.3-6.899c0.5-0.6,1.5-1.2,1.899-1.2
					C109.499,39.998,109.098,42.098,109.098,42.298z M135.299,34.698c0.4-0.4,1.2-0.9,1.7-0.6c0.5,0.3,0.1,1.3-0.101,1.8
					c-0.899,1.9-2.399,3.3-4.5,4.5C132.799,37.998,133.598,36.098,135.299,34.698z"/>
				<path id="XMLID_1120_" fill="#f05829" d="M127.299,24.698c0.1,2-0.8,3.6-2.4,4.9c-2,1.7-4.3,1-4.5-1.3
					c-0.1-1.8,0.601-3.5,2.101-4.9c1-1,2.1-1.5,3.3-1.1C126.898,22.698,127.299,23.598,127.299,24.698z"/>
			</g>
		</g>
	</g>
</g>
<rect id="_x3C_Slice_x3E_" x="0" fill="none" width="168" height="91"/>
</svg>
