<?xml version="1.0" encoding="utf-8"?>
<!-- Generator: Adobe Illustrator 16.0.0, SVG Export Plug-In . SVG Version: 6.00 Build 0)  -->
<!DOCTYPE svg PUBLIC "-//W3C//DTD SVG 1.1//EN" "http://www.w3.org/Graphics/SVG/1.1/DTD/svg11.dtd" [
	<!ENTITY ns_flows "http://ns.adobe.com/Flows/1.0/">
	<!ENTITY ns_extend "http://ns.adobe.com/Extensibility/1.0/">
	<!ENTITY ns_ai "http://ns.adobe.com/AdobeIllustrator/10.0/">
	<!ENTITY ns_graphs "http://ns.adobe.com/Graphs/1.0/">
]>
<svg version="1.1" id="Layer_1" xmlns:x="&ns_extend;" xmlns:i="&ns_ai;" xmlns:graph="&ns_graphs;"
	 xmlns="http://www.w3.org/2000/svg" xmlns:xlink="http://www.w3.org/1999/xlink" xmlns:a="http://ns.adobe.com/AdobeSVGViewerExtensions/3.0/"
	 x="0px" y="0px" width="100px" height="100px" viewBox="0 0 100 100" style="enable-background:new 0 0 100 100;"
	 xml:space="preserve">
<style type="text/css">
<![CDATA[
	.st0{fill:#7A1953;}
	.st1{fill:url(#XMLID_7_);}
	.st2{fill:url(#XMLID_8_);}
	.st3{fill:url(#XMLID_9_);}
	.st4{opacity:0.25;fill:#F0545D;}
	.st5{opacity:0.25;}
	.st6{opacity:0.75;}
	.st7{clip-path:url(#XMLID_26_);fill:#349DA0;}
	.st8{clip-path:url(#XMLID_26_);fill:#349EA0;}
	.st9{clip-path:url(#XMLID_26_);fill:#349FA1;}
	.st10{clip-path:url(#XMLID_26_);fill:#35959C;}
	.st11{clip-path:url(#XMLID_26_);fill:#35969C;}
	.st12{clip-path:url(#XMLID_26_);fill:#35979D;}
	.st13{clip-path:url(#XMLID_26_);fill:#35989D;}
	.st14{clip-path:url(#XMLID_26_);fill:#35999E;}
	.st15{clip-path:url(#XMLID_26_);fill:#359A9E;}
	.st16{clip-path:url(#XMLID_26_);fill:#359B9F;}
	.st17{clip-path:url(#XMLID_26_);fill:#359C9F;}
	.st18{clip-path:url(#XMLID_24_);fill:#3F376B;}
	.st19{clip-path:url(#XMLID_24_);fill:#3F386C;}
	.st20{clip-path:url(#XMLID_24_);fill:#3F396C;}
	.st21{clip-path:url(#XMLID_24_);fill:#3F3A6D;}
	.st22{clip-path:url(#XMLID_35_);fill:#F2602B;}
	.st23{clip-path:url(#XMLID_35_);fill:#F2612B;}
	.st24{clip-path:url(#XMLID_35_);fill:#F2622B;}
	.st25{clip-path:url(#XMLID_35_);fill:#F2632B;}
	.st26{clip-path:url(#XMLID_35_);fill:#F2642C;}
	.st27{clip-path:url(#XMLID_35_);fill:#F2652C;}
	.st28{clip-path:url(#XMLID_35_);fill:#F2662C;}
	.st29{clip-path:url(#XMLID_35_);fill:#F3672D;}
	.st30{clip-path:url(#XMLID_35_);fill:#F3682D;}
	.st31{clip-path:url(#XMLID_35_);fill:#F3692D;}
	.st32{clip-path:url(#XMLID_35_);fill:#F36A2D;}
	.st33{clip-path:url(#XMLID_35_);fill:#F36B2E;}
	.st34{clip-path:url(#XMLID_35_);fill:#F36C2E;}
	.st35{clip-path:url(#XMLID_35_);fill:#F36D2E;}
	.st36{clip-path:url(#XMLID_35_);fill:#F36E2E;}
	.st37{clip-path:url(#XMLID_35_);fill:#F36F2F;}
	.st38{opacity:0.25;fill:url(#XMLID_11_);}
	.st39{opacity:0.25;fill:url(#XMLID_18_);}
	.st40{opacity:0.25;fill:#FBB040;}
	.st41{clip-path:url(#XMLID_35_);fill:#F4702F;}
	.st42{clip-path:url(#XMLID_35_);fill:#F4712F;}
	.st43{clip-path:url(#XMLID_35_);fill:#F4722F;}
	.st44{clip-path:url(#XMLID_35_);fill:#F47330;}
	.st45{clip-path:url(#XMLID_35_);fill:#F47430;}
	.st46{clip-path:url(#XMLID_35_);fill:#F47530;}
	.st47{clip-path:url(#XMLID_35_);fill:#F47631;}
	.st48{clip-path:url(#XMLID_35_);fill:#F47731;}
	.st49{clip-path:url(#XMLID_35_);fill:#F57831;}
	.st50{clip-path:url(#XMLID_35_);fill:#F57931;}
	.st51{clip-path:url(#XMLID_35_);fill:#F57A32;}
	.st52{clip-path:url(#XMLID_35_);fill:#F57B32;}
	.st53{clip-path:url(#XMLID_35_);fill:#F57C32;}
	.st54{opacity:0.25;fill:#FFFFFF;}
	.st55{opacity:0.75;fill:url(#XMLID_10_);}
	.st56{opacity:0.75;fill:url(#XMLID_17_);}
	.st57{clip-path:url(#XMLID_24_);fill:#402E66;}
	.st58{clip-path:url(#XMLID_24_);fill:#402F67;}
	.st59{clip-path:url(#XMLID_24_);fill:#403067;}
	.st60{clip-path:url(#XMLID_24_);fill:#403168;}
	.st61{clip-path:url(#XMLID_24_);fill:#403268;}
	.st62{clip-path:url(#XMLID_24_);fill:#403369;}
	.st63{clip-path:url(#XMLID_24_);fill:#403469;}
	.st64{clip-path:url(#XMLID_24_);fill:#40356A;}
	.st65{clip-path:url(#XMLID_24_);fill:#40366A;}
	.st66{clip-path:url(#XMLID_24_);fill:#412562;}
	.st67{clip-path:url(#XMLID_24_);fill:#412662;}
	.st68{clip-path:url(#XMLID_24_);fill:#412763;}
	.st69{clip-path:url(#XMLID_24_);fill:#412863;}
	.st70{clip-path:url(#XMLID_24_);fill:#412964;}
	.st71{clip-path:url(#XMLID_24_);fill:#412A64;}
	.st72{clip-path:url(#XMLID_24_);fill:#412B65;}
	.st73{clip-path:url(#XMLID_24_);fill:#412C65;}
	.st74{clip-path:url(#XMLID_24_);fill:#412D66;}
	.st75{opacity:0.75;fill:#F0545D;}
	.st76{clip-path:url(#XMLID_24_);fill:#42205F;}
	.st77{clip-path:url(#XMLID_24_);fill:#422160;}
	.st78{clip-path:url(#XMLID_24_);fill:#422260;}
	.st79{clip-path:url(#XMLID_24_);fill:#422361;}
	.st80{clip-path:url(#XMLID_24_);fill:#422461;}
	.st81{fill:#F0545D;}
	.st82{fill:#F15A29;}
	.st83{font-family:'nevis-Bold';}
	.st84{opacity:0.25;fill:#31BCB0;}
	.st85{font-size:9;}
	.st86{clip-path:url(#SVGID_2_);}
	.st87{clip-path:url(#SVGID_4_);}
	.st88{clip-path:url(#SVGID_6_);}
	.st89{clip-path:url(#SVGID_8_);}
	.st90{clip-path:url(#XMLID_27_);fill:#F4712F;}
	.st91{clip-path:url(#XMLID_27_);fill:#F4722F;}
	.st92{clip-path:url(#XMLID_27_);fill:#F47330;}
	.st93{clip-path:url(#XMLID_27_);fill:#F47430;}
	.st94{clip-path:url(#XMLID_27_);fill:#F47530;}
	.st95{clip-path:url(#XMLID_27_);fill:#F47631;}
	.st96{clip-path:url(#XMLID_27_);fill:#F47731;}
	.st97{clip-path:url(#XMLID_27_);fill:#F57831;}
	.st98{clip-path:url(#XMLID_27_);fill:#F57931;}
	.st99{clip-path:url(#XMLID_27_);fill:#F57A32;}
	.st100{clip-path:url(#XMLID_27_);fill:#F57B32;}
	.st101{clip-path:url(#XMLID_27_);fill:#F57C32;}
	.st102{clip-path:url(#XMLID_27_);fill:#F57D32;}
	.st103{clip-path:url(#XMLID_27_);fill:#F57E33;}
	.st104{clip-path:url(#XMLID_27_);fill:#F57F33;}
	.st105{clip-path:url(#XMLID_27_);fill:#F58033;}
	.st106{opacity:0.75;fill:#FBB040;}
	.st107{clip-path:url(#XMLID_27_);fill:#F68134;}
	.st108{clip-path:url(#XMLID_27_);fill:#F68234;}
	.st109{clip-path:url(#XMLID_27_);fill:#F68334;}
	.st110{clip-path:url(#XMLID_27_);fill:#F68434;}
	.st111{clip-path:url(#XMLID_27_);fill:#F68635;}
	.st112{clip-path:url(#XMLID_27_);fill:#F68735;}
	.st113{clip-path:url(#XMLID_27_);fill:#F68835;}
	.st114{clip-path:url(#XMLID_27_);fill:#F68935;}
	.st115{fill:#FBB040;}
	.st116{clip-path:url(#XMLID_27_);fill:#F78A36;}
	.st117{clip-path:url(#XMLID_27_);fill:#F78B36;}
	.st118{clip-path:url(#XMLID_27_);fill:#F78C36;}
	.st119{clip-path:url(#XMLID_27_);fill:#F78D37;}
	.st120{clip-path:url(#XMLID_27_);fill:#F78E37;}
	.st121{clip-path:url(#XMLID_27_);fill:#F78F37;}
	.st122{clip-path:url(#XMLID_27_);fill:#F79037;}
	.st123{clip-path:url(#XMLID_27_);fill:#F79138;}
	.st124{clip-path:url(#XMLID_27_);fill:#F79238;}
	.st125{clip-path:url(#XMLID_27_);fill:#F89338;}
	.st126{clip-path:url(#XMLID_27_);fill:#F89438;}
	.st127{clip-path:url(#XMLID_27_);fill:#F89539;}
	.st128{clip-path:url(#XMLID_27_);fill:#F89639;}
	.st129{clip-path:url(#XMLID_27_);fill:#F89739;}
	.st130{clip-path:url(#XMLID_27_);fill:#F8983A;}
	.st131{opacity:0.75;fill:#FFFFFF;}
	.st132{fill:#FFFFFF;}
	.st133{fill:url(#XMLID_12_);}
	.st134{fill:url(#XMLID_13_);}
	.st135{fill:url(#XMLID_14_);}
	.st136{fill:url(#XMLID_15_);}
	.st137{fill:url(#XMLID_16_);}
	.st138{fill:url(#XMLID_19_);}
	.st139{fill:url(#XMLID_20_);}
	.st140{fill:url(#XMLID_21_);}
	.st141{fill:url(#XMLID_22_);}
	.st142{fill:url(#XMLID_23_);}
	.st143{fill:url(#XMLID_28_);}
	.st144{fill:url(#XMLID_29_);}
	.st145{fill:url(#XMLID_30_);}
	.st146{fill:url(#XMLID_31_);}
	.st147{fill:url(#XMLID_32_);}
	.st148{fill:url(#XMLID_33_);}
	.st149{fill:none;}
	.st150{clip-path:url(#XMLID_25_);fill:#32AFA9;}
	.st151{clip-path:url(#XMLID_25_);fill:#32B0AA;}
	.st152{clip-path:url(#XMLID_25_);fill:#32B1AA;}
	.st153{clip-path:url(#XMLID_25_);fill:#32B2AB;}
	.st154{clip-path:url(#XMLID_25_);fill:#32B3AB;}
	.st155{clip-path:url(#XMLID_25_);fill:#32B4AC;}
	.st156{clip-path:url(#XMLID_25_);fill:#32B5AC;}
	.st157{clip-path:url(#XMLID_25_);fill:#32B6AD;}
	.st158{clip-path:url(#XMLID_25_);fill:#33A6A5;}
	.st159{clip-path:url(#XMLID_25_);fill:#33A7A5;}
	.st160{clip-path:url(#XMLID_25_);fill:#33A8A6;}
	.st161{clip-path:url(#XMLID_25_);fill:#33A9A6;}
	.st162{clip-path:url(#XMLID_25_);fill:#33AAA7;}
	.st163{clip-path:url(#XMLID_25_);fill:#33ABA7;}
	.st164{clip-path:url(#XMLID_25_);fill:#33ACA8;}
	.st165{clip-path:url(#XMLID_25_);fill:#33ADA8;}
	.st166{clip-path:url(#XMLID_25_);fill:#33AEA9;}
	.st167{clip-path:url(#XMLID_25_);fill:#349DA0;}
	.st168{clip-path:url(#XMLID_25_);fill:#349EA0;}
	.st169{clip-path:url(#XMLID_25_);fill:#349FA1;}
	.st170{clip-path:url(#XMLID_25_);fill:#34A0A1;}
	.st171{clip-path:url(#XMLID_25_);fill:#34A1A2;}
	.st172{clip-path:url(#XMLID_25_);fill:#34A2A2;}
	.st173{clip-path:url(#XMLID_25_);fill:#34A3A3;}
	.st174{clip-path:url(#XMLID_25_);fill:#34A4A3;}
	.st175{clip-path:url(#XMLID_25_);fill:#34A5A4;}
	.st176{opacity:0.75;fill:#31BCB0;}
	.st177{clip-path:url(#XMLID_25_);fill:#35939B;}
	.st178{clip-path:url(#XMLID_25_);fill:#35949B;}
	.st179{clip-path:url(#XMLID_25_);fill:#35959C;}
	.st180{clip-path:url(#XMLID_25_);fill:#35969C;}
	.st181{clip-path:url(#XMLID_25_);fill:#35979D;}
	.st182{clip-path:url(#XMLID_25_);fill:#35989D;}
	.st183{clip-path:url(#XMLID_25_);fill:#35999E;}
	.st184{clip-path:url(#XMLID_25_);fill:#359A9E;}
	.st185{clip-path:url(#XMLID_25_);fill:#359B9F;}
	.st186{clip-path:url(#XMLID_25_);fill:#359C9F;}
	.st187{fill:#31B8AE;}
	.st188{fill:#31B9AE;}
	.st189{fill:#31BAAF;}
	.st190{fill:#31BBAF;}
	.st191{fill:#31BCB0;}
	.st192{clip-path:url(#XMLID_25_);fill:#368A96;}
	.st193{clip-path:url(#XMLID_25_);fill:#368B96;}
	.st194{clip-path:url(#XMLID_25_);fill:#368C97;}
	.st195{clip-path:url(#XMLID_25_);fill:#368D97;}
	.st196{clip-path:url(#XMLID_25_);fill:#368E98;}
	.st197{clip-path:url(#XMLID_25_);fill:#368F98;}
	.st198{clip-path:url(#XMLID_25_);fill:#369099;}
	.st199{clip-path:url(#XMLID_25_);fill:#36919A;}
	.st200{clip-path:url(#XMLID_25_);fill:#36929A;}
	.st201{fill:#32AFA9;}
	.st202{fill:#32B0AA;}
	.st203{fill:#32B1AA;}
	.st204{fill:#32B2AB;}
	.st205{fill:#32B3AB;}
	.st206{fill:#32B4AC;}
	.st207{fill:#32B5AC;}
	.st208{fill:#32B6AD;}
	.st209{clip-path:url(#XMLID_25_);fill:#378191;}
	.st210{fill:#32B7AD;}
	.st211{clip-path:url(#XMLID_25_);fill:#378292;}
	.st212{clip-path:url(#XMLID_25_);fill:#378392;}
	.st213{clip-path:url(#XMLID_25_);fill:#378493;}
	.st214{clip-path:url(#XMLID_25_);fill:#378593;}
	.st215{clip-path:url(#XMLID_25_);fill:#378694;}
	.st216{clip-path:url(#XMLID_25_);fill:#378794;}
	.st217{clip-path:url(#XMLID_25_);fill:#378895;}
	.st218{clip-path:url(#XMLID_25_);fill:#378995;}
	.st219{fill:#33A6A5;}
	.st220{fill:#33A7A5;}
	.st221{fill:#33A8A6;}
	.st222{clip-path:url(#XMLID_25_);fill:#38788C;}
	.st223{clip-path:url(#XMLID_25_);fill:#38798D;}
	.st224{fill:#33AAA7;}
	.st225{fill:#33ABA7;}
	.st226{fill:#33ACA8;}
	.st227{fill:#33ADA8;}
	.st228{clip-path:url(#XMLID_25_);fill:#387A8E;}
	.st229{clip-path:url(#XMLID_25_);fill:#387B8E;}
	.st230{clip-path:url(#XMLID_25_);fill:#387C8F;}
	.st231{clip-path:url(#XMLID_25_);fill:#387D8F;}
	.st232{clip-path:url(#XMLID_25_);fill:#387E90;}
	.st233{clip-path:url(#XMLID_25_);fill:#387F90;}
	.st234{clip-path:url(#XMLID_25_);fill:#388091;}
	.st235{fill:#349EA0;}
	.st236{fill:#349FA1;}
	.st237{clip-path:url(#XMLID_25_);fill:#396F88;}
	.st238{fill:#34A0A1;}
	.st239{fill:#34A1A2;}
	.st240{fill:#34A4A3;}
	.st241{fill:#34A5A4;}
	.st242{clip-path:url(#XMLID_25_);fill:#397088;}
	.st243{clip-path:url(#XMLID_25_);fill:#397189;}
	.st244{clip-path:url(#XMLID_25_);fill:#397289;}
	.st245{clip-path:url(#XMLID_25_);fill:#39738A;}
	.st246{clip-path:url(#XMLID_25_);fill:#39748A;}
	.st247{clip-path:url(#XMLID_25_);fill:#39758B;}
	.st248{clip-path:url(#XMLID_25_);fill:#39768B;}
	.st249{clip-path:url(#XMLID_25_);fill:#39778C;}
	.st250{fill:#35939B;}
	.st251{fill:#35979D;}
	.st252{fill:#35989D;}
	.st253{fill:#35999E;}
	.st254{fill:#359A9E;}
	.st255{fill:#359B9F;}
	.st256{fill:#368A96;}
	.st257{fill:#368B96;}
	.st258{fill:#368C97;}
	.st259{fill:#369099;}
	.st260{fill:#36919A;}
	.st261{fill:#36929A;}
	.st262{letter-spacing:1;}
	.st263{fill:#378292;}
	.st264{fill:#378392;}
	.st265{fill:#378493;}
	.st266{fill:#378593;}
	.st267{fill:#378995;}
	.st268{clip-path:url(#XMLID_34_);fill:#F58033;}
	.st269{clip-path:url(#XMLID_34_);fill:#F68134;}
	.st270{clip-path:url(#XMLID_34_);fill:#F68234;}
	.st271{clip-path:url(#XMLID_34_);fill:#F68334;}
	.st272{clip-path:url(#XMLID_34_);fill:#F68434;}
	.st273{clip-path:url(#XMLID_34_);fill:#F68635;}
	.st274{clip-path:url(#XMLID_34_);fill:#F68735;}
	.st275{clip-path:url(#XMLID_34_);fill:#F68835;}
	.st276{clip-path:url(#XMLID_34_);fill:#F68935;}
	.st277{clip-path:url(#XMLID_34_);fill:#F78A36;}
	.st278{clip-path:url(#XMLID_34_);fill:#F78B36;}
	.st279{clip-path:url(#XMLID_34_);fill:#F78C36;}
	.st280{clip-path:url(#XMLID_34_);fill:#F78D37;}
	.st281{clip-path:url(#XMLID_34_);fill:#F78E37;}
	.st282{clip-path:url(#XMLID_34_);fill:#F78F37;}
	.st283{clip-path:url(#XMLID_34_);fill:#F79037;}
	.st284{clip-path:url(#XMLID_34_);fill:#F79138;}
	.st285{clip-path:url(#XMLID_34_);fill:#F79238;}
	.st286{clip-path:url(#XMLID_34_);fill:#F89338;}
	.st287{clip-path:url(#XMLID_34_);fill:#F89438;}
	.st288{clip-path:url(#XMLID_34_);fill:#F89539;}
	.st289{clip-path:url(#XMLID_34_);fill:#F89639;}
	.st290{clip-path:url(#XMLID_34_);fill:#F89739;}
	.st291{clip-path:url(#XMLID_34_);fill:#F8983A;}
	.st292{clip-path:url(#XMLID_34_);fill:#F8993A;}
	.st293{clip-path:url(#XMLID_34_);fill:#F89A3A;}
	.st294{clip-path:url(#XMLID_34_);fill:#F99B3A;}
	.st295{clip-path:url(#XMLID_34_);fill:#F99C3B;}
	.st296{clip-path:url(#XMLID_34_);fill:#F99D3B;}
	.st297{clip-path:url(#XMLID_34_);fill:#F99E3B;}
	.st298{clip-path:url(#XMLID_25_);fill:#3A6583;}
	.st299{clip-path:url(#XMLID_25_);fill:#3A6684;}
	.st300{clip-path:url(#XMLID_25_);fill:#3A6784;}
	.st301{clip-path:url(#XMLID_25_);fill:#3A6885;}
	.st302{clip-path:url(#XMLID_25_);fill:#3A6985;}
	.st303{clip-path:url(#XMLID_25_);fill:#3A6A86;}
	.st304{clip-path:url(#XMLID_25_);fill:#3A6B86;}
	.st305{clip-path:url(#XMLID_25_);fill:#3A6C87;}
	.st306{clip-path:url(#XMLID_25_);fill:#3A6D87;}
	.st307{clip-path:url(#XMLID_25_);fill:#3B5C7E;}
	.st308{clip-path:url(#XMLID_25_);fill:#3B5D7F;}
	.st309{clip-path:url(#XMLID_25_);fill:#3B5E7F;}
	.st310{clip-path:url(#XMLID_25_);fill:#3B5F80;}
	.st311{clip-path:url(#XMLID_25_);fill:#3B6080;}
	.st312{clip-path:url(#XMLID_25_);fill:#3B6181;}
	.st313{clip-path:url(#XMLID_25_);fill:#3B6281;}
	.st314{clip-path:url(#XMLID_25_);fill:#3B6382;}
	.st315{clip-path:url(#XMLID_25_);fill:#3B6483;}
	.st316{clip-path:url(#XMLID_25_);fill:#3C537A;}
	.st317{clip-path:url(#XMLID_25_);fill:#3C547A;}
	.st318{clip-path:url(#XMLID_25_);fill:#3C557B;}
	.st319{clip-path:url(#XMLID_25_);fill:#3C567B;}
	.st320{clip-path:url(#XMLID_25_);fill:#3C577C;}
	.st321{clip-path:url(#XMLID_25_);fill:#3C587C;}
	.st322{clip-path:url(#XMLID_25_);fill:#3C597D;}
	.st323{clip-path:url(#XMLID_25_);fill:#3C5A7D;}
	.st324{clip-path:url(#XMLID_25_);fill:#3C5B7E;}
	.st325{clip-path:url(#XMLID_25_);fill:#3D4A75;}
	.st326{clip-path:url(#XMLID_25_);fill:#3D4B75;}
	.st327{clip-path:url(#XMLID_25_);fill:#3D4C76;}
	.st328{clip-path:url(#XMLID_25_);fill:#3D4D77;}
	.st329{clip-path:url(#XMLID_25_);fill:#3D4E77;}
	.st330{clip-path:url(#XMLID_25_);fill:#3D4F78;}
	.st331{clip-path:url(#XMLID_25_);fill:#3D5078;}
	.st332{clip-path:url(#XMLID_25_);fill:#3D5179;}
	.st333{clip-path:url(#XMLID_25_);fill:#3D5279;}
	.st334{clip-path:url(#XMLID_25_);fill:#3E4070;}
	.st335{clip-path:url(#XMLID_25_);fill:#3E4170;}
	.st336{clip-path:url(#XMLID_25_);fill:#3E4271;}
	.st337{clip-path:url(#XMLID_25_);fill:#3E4371;}
	.st338{clip-path:url(#XMLID_25_);fill:#3E4472;}
	.st339{clip-path:url(#XMLID_25_);fill:#3E4572;}
	.st340{clip-path:url(#XMLID_25_);fill:#3E4673;}
	.st341{clip-path:url(#XMLID_25_);fill:#3E4773;}
	.st342{clip-path:url(#XMLID_25_);fill:#3E4874;}
	.st343{clip-path:url(#XMLID_25_);fill:#3E4974;}
	.st344{fill:#3A6583;}
	.st345{fill:#3A6684;}
	.st346{fill:#3A6784;}
	.st347{fill:#3A6985;}
	.st348{fill:#3A6A86;}
	.st349{fill:#3A6B86;}
	.st350{fill:#3A6C87;}
	.st351{clip-path:url(#XMLID_25_);fill:#3F376B;}
	.st352{clip-path:url(#XMLID_25_);fill:#3F386C;}
	.st353{clip-path:url(#XMLID_25_);fill:#3F396C;}
	.st354{clip-path:url(#XMLID_25_);fill:#3F3A6D;}
	.st355{clip-path:url(#XMLID_25_);fill:#3F3B6D;}
	.st356{clip-path:url(#XMLID_25_);fill:#3F3C6E;}
	.st357{clip-path:url(#XMLID_25_);fill:#3F3D6E;}
	.st358{clip-path:url(#XMLID_25_);fill:#3F3E6F;}
	.st359{clip-path:url(#XMLID_25_);fill:#3F3F6F;}
	.st360{fill:#3B5C7E;}
	.st361{fill:#3B5D7F;}
	.st362{fill:#3B5E7F;}
	.st363{fill:#3B6080;}
	.st364{fill:#3B6181;}
	.st365{fill:#3B6281;}
	.st366{fill:#3B6382;}
	.st367{fill:#3B6483;}
	.st368{fill:#3C557B;}
	.st369{fill:#3C567B;}
	.st370{fill:#3C577C;}
	.st371{fill:#3C587C;}
	.st372{fill:#3C5A7D;}
	.st373{fill:#3C5B7E;}
	.st374{fill:#3D4A75;}
	.st375{fill:#3D4E77;}
	.st376{fill:#3D4F78;}
	.st377{fill:#3D5078;}
	.st378{fill:#3D5179;}
	.st379{fill:#3E4070;}
	.st380{fill:#3E4170;}
	.st381{fill:#3E4271;}
	.st382{fill:#3E4371;}
	.st383{fill:#3E4472;}
	.st384{fill:#3E4572;}
	.st385{fill:#3E4773;}
	.st386{fill:#3E4874;}
	.st387{fill:#3E4974;}
	.st388{fill:#3F3C6E;}
	.st389{fill:#3F3D6E;}
	.st390{fill:#3F3E6F;}
	.st391{fill:#3F3F6F;}
	.st392{clip-path:url(#XMLID_25_);fill:#402E66;}
	.st393{clip-path:url(#XMLID_25_);fill:#402F67;}
	.st394{clip-path:url(#XMLID_25_);fill:#403067;}
	.st395{clip-path:url(#XMLID_25_);fill:#403168;}
	.st396{clip-path:url(#XMLID_25_);fill:#403268;}
	.st397{clip-path:url(#XMLID_25_);fill:#403369;}
	.st398{clip-path:url(#XMLID_25_);fill:#403469;}
	.st399{clip-path:url(#XMLID_25_);fill:#40356A;}
	.st400{clip-path:url(#XMLID_25_);fill:#40366A;}
	.st401{fill:#42205F;}
]]>
</style>
<g id="XMLID_1470_">
	<linearGradient id="XMLID_7_" gradientUnits="userSpaceOnUse" x1="11.4395" y1="29.9878" x2="85.213" y2="29.9878">
		<stop  offset="0" style="stop-color:#F15A29"/>
		<stop  offset="1" style="stop-color:#FBB040"/>
		<a:midPointStop  offset="0" style="stop-color:#F15A29"/>
		<a:midPointStop  offset="0.5" style="stop-color:#F15A29"/>
		<a:midPointStop  offset="1" style="stop-color:#FBB040"/>
	</linearGradient>
	<path id="XMLID_3239_" class="st1" d="M57.7,36.6c-1-2.8-2-5.5-2.9-8.1c-0.1-0.3-0.2-0.6-0.1-1c0.3-0.8,0.6-1.7,0.9-2.5
		c0.6-1.5,2.2-2.1,3.7-1.6c1.3,0.5,2.3,2.1,1.8,3.5C60.1,30.2,58.9,33.3,57.7,36.6z"/>
	<linearGradient id="XMLID_8_" gradientUnits="userSpaceOnUse" x1="11.4336" y1="11.6787" x2="85.2186" y2="11.6787">
		<stop  offset="0" style="stop-color:#F15A29"/>
		<stop  offset="1" style="stop-color:#FBB040"/>
		<a:midPointStop  offset="0" style="stop-color:#F15A29"/>
		<a:midPointStop  offset="0.5" style="stop-color:#F15A29"/>
		<a:midPointStop  offset="1" style="stop-color:#FBB040"/>
	</linearGradient>
	<path id="XMLID_3238_" class="st2" d="M48.2,11.7c0-1.2,0-2.4,0-3.7c0-0.9,0.5-1.5,1.3-1.6c0.8,0,1.3,0.6,1.3,1.5
		c0,2.5,0,4.9,0,7.4c0,0.9-0.6,1.5-1.3,1.5c-0.8,0-1.3-0.6-1.3-1.6C48.2,14.1,48.2,12.9,48.2,11.7z"/>
	<linearGradient id="XMLID_9_" gradientUnits="userSpaceOnUse" x1="11.4404" y1="13.957" x2="85.2124" y2="13.957">
		<stop  offset="0" style="stop-color:#F15A29"/>
		<stop  offset="1" style="stop-color:#FBB040"/>
		<a:midPointStop  offset="0" style="stop-color:#F15A29"/>
		<a:midPointStop  offset="0.5" style="stop-color:#F15A29"/>
		<a:midPointStop  offset="1" style="stop-color:#FBB040"/>
	</linearGradient>
	<path id="XMLID_3237_" class="st3" d="M62.3,10.8c-0.1,0.2-0.1,0.4-0.3,0.7c-1.2,2.1-2.3,4.2-3.5,6.3c-0.5,0.8-1.2,1.1-1.9,0.6
		c-0.6-0.4-0.9-1.1-0.5-1.7c1.2-2.2,2.5-4.4,3.7-6.6c0.4-0.6,0.9-0.8,1.6-0.6C62,9.6,62.3,10.1,62.3,10.8z"/>
	<linearGradient id="XMLID_10_" gradientUnits="userSpaceOnUse" x1="11.4355" y1="13.9131" x2="85.2175" y2="13.9131">
		<stop  offset="0" style="stop-color:#F15A29"/>
		<stop  offset="1" style="stop-color:#FBB040"/>
		<a:midPointStop  offset="0" style="stop-color:#F15A29"/>
		<a:midPointStop  offset="0.5" style="stop-color:#F15A29"/>
		<a:midPointStop  offset="1" style="stop-color:#FBB040"/>
	</linearGradient>
	<path id="XMLID_3236_" style="fill:url(#XMLID_10_);" d="M43.3,17.2c0,0.7-0.4,1.1-0.9,1.3c-0.6,0.2-1.1,0-1.4-0.5
		c-1.3-2.2-2.6-4.5-3.8-6.8c-0.3-0.6-0.1-1.3,0.5-1.6c0.6-0.4,1.3-0.3,1.7,0.3c1.3,2.2,2.6,4.5,3.9,6.8C43.3,16.8,43.3,17,43.3,17.2
		z"/>
	<linearGradient id="XMLID_11_" gradientUnits="userSpaceOnUse" x1="11.4365" y1="45.2188" x2="85.2144" y2="45.2188">
		<stop  offset="0" style="stop-color:#F15A29"/>
		<stop  offset="1" style="stop-color:#FBB040"/>
		<a:midPointStop  offset="0" style="stop-color:#F15A29"/>
		<a:midPointStop  offset="0.5" style="stop-color:#F15A29"/>
		<a:midPointStop  offset="1" style="stop-color:#FBB040"/>
	</linearGradient>
	<path id="XMLID_1472_" style="fill:url(#XMLID_11_);" d="M60.9,53.1c-0.2-1.4-0.2-3-0.8-4.6c-1.7-4.5-3.3-9-5-13.6
		c-0.9-2.5-1.8-5-2.7-7.5c-0.5-1.3-1.6-2-2.8-1.9c-1.2,0-2.3,0.8-2.7,2c-0.3,0.9-0.1,1.7,0.2,2.6c1.2,3.3,2.4,6.7,3.7,10
		c0.1,0.3,0.4,0.7-0.1,0.9c-0.5,0.2-0.5-0.4-0.6-0.6c-0.6-1.7-1.2-3.3-1.8-5c-1.2-3.3-2.4-6.7-3.7-10c-0.4-1.2-1.3-1.9-2.6-2
		c-1.2-0.1-2.1,0.4-2.7,1.5c-0.6,1-0.4,2,0,3.1c1.5,4.1,3,8.1,4.4,12.2c0.1,0.3,0.4,0.7-0.1,0.8c-0.4,0.1-0.5-0.3-0.5-0.6
		c-0.9-2.4-1.7-4.8-2.6-7.2c-1-2.6-1.9-5.3-2.9-7.9c-0.6-1.6-2-2.2-3.7-1.8c-1.3,0.4-2.3,1.8-2,3.3c0.1,0.4,0.3,0.9,0.4,1.3
		c1.9,5.2,3.7,10.3,5.6,15.5c0.1,0.3,0.4,0.7,0,0.9c-0.5,0.2-0.5-0.3-0.6-0.6c-1-2.6-1.9-5.2-2.9-7.8c-0.7-1.9-1.4-3.8-2.1-5.8
		c-0.6-1.7-2.2-2.5-3.9-1.9c-1.6,0.6-2.3,2.2-1.7,3.9c0.1,0.3,0.2,0.6,0.3,0.9c2.5,6.7,4.9,13.5,7.3,20.2c0.1,0.3,0.4,0.6,0.2,0.8
		c-0.2,0.2-0.6,0-0.9-0.1c-2.9-0.7-5.9-1.4-8.8-2.2c-1.7-0.4-3.1,0.3-3.7,1.8c-0.5,1.5,0.2,3,1.7,3.7C28.9,60.1,35,63,41,65.8
		C50,69.9,60.5,63.7,60.9,53.1z"/>
	<linearGradient id="XMLID_12_" gradientUnits="userSpaceOnUse" x1="11.4365" y1="45.2246" x2="85.2148" y2="45.2246">
		<stop  offset="0" style="stop-color:#F15A29"/>
		<stop  offset="1" style="stop-color:#FBB040"/>
		<a:midPointStop  offset="0" style="stop-color:#F15A29"/>
		<a:midPointStop  offset="0.5" style="stop-color:#F15A29"/>
		<a:midPointStop  offset="1" style="stop-color:#FBB040"/>
	</linearGradient>
	<path id="XMLID_1471_" class="st133" d="M78.9,53.6c-0.5-1.5-2-2.2-3.5-1.9c-0.9,0.2-1.8,0.4-2.7,0.7c-2.4,0.6-4.8,1.2-7.3,1.8
		c0.1-0.4,0.2-0.6,0.3-0.8c2.6-7.1,5.2-14.2,7.7-21.3c0.6-1.7-0.2-3.4-1.8-3.9c-1.6-0.5-3.2,0.3-3.8,1.9c-0.5,1.3-1,2.7-1.5,4
		c-1.1,3.1-2.3,6.3-3.4,9.4c-0.1,0.2-0.1,0.6-0.5,0.5c-0.4-0.2-0.3-0.4-0.2-0.7c2-5.3,3.9-10.7,5.9-16c0.2-0.5,0.3-1.1,0.1-1.6
		c-0.3-1.4-1.4-2.3-2.8-2.4c-1.4-0.1-2.6,0.8-3.1,2.3c-1.3,3.8-2.7,7.5-4.1,11.3c-0.2,0.5-0.2,0.9,0,1.4c1.2,3.2,2.4,6.4,3.5,9.7
		c0.1,0.4,0.5,1.7,0.6,1.8c0.3,1.1,0.4,2.3,0.3,3.5c-0.2,5.9-3,10.3-8.2,13.2c-0.2,0.1-0.5,0-0.4,0.4c0.6,0.2,1.2-0.1,1.8-0.2
		c2.4-0.4,4.5-1.7,6.8-2.7c4.9-2.3,9.8-4.5,14.7-6.8C78.8,56.6,79.4,55,78.9,53.6z"/>
</g>
<text id="XMLID_1463_" transform="matrix(1 0 0 1 28.4404 87.9531)" class="st82 st83 st85 st262">amigos</text>
</svg>
