<?xml version="1.0" ?><!DOCTYPE svg  PUBLIC '-//W3C//DTD SVG 1.1//EN'  'http://www.w3.org/Graphics/SVG/1.1/DTD/svg11.dtd'><svg enable-background="new 0 0 512 511.989" height="511.989px" id="Layer_1" version="1.1" viewBox="0 0 512 511.989" width="512px" xml:space="preserve" xmlns="http://www.w3.org/2000/svg" xmlns:xlink="http://www.w3.org/1999/xlink"><g><g><path d="M512,256c0,9.53-0.531,18.934-1.557,28.193C496.422,412.312,387.841,511.989,256,511.989     c-2.211,0-4.414-0.027-6.603-0.077h-0.008C111.055,508.402,0,395.17,0,256C0,114.614,114.606,0,256,0     C397.37,0,512,114.614,512,256z" fill="#1ABC9C"/><path d="M510.443,284.193C496.422,412.312,387.841,511.989,256,511.989c-2.211,0-4.414-0.027-6.603-0.077h-0.008     c-60.523-60.436-135.5-135.62-135.6-136.213c-5.54-0.925-9.77-5.731-9.77-11.521v-180.7c0-6.456,5.239-11.699,11.703-11.699     h11.68l113.581-52.646c-0.223-1.071-0.369-2.18-0.369-3.309c0-8.482,6.902-15.366,15.369-15.366     c6.749,0,12.473,4.368,14.538,10.412l18.305,17.138l94.422,43.771h13.02c5.794,0,10.601,4.222,11.525,9.757L510.443,284.193z" opacity="0.17"/><g><g><polygon fill="#6D7480" points="126.887,176.956 124.999,172.888 250.36,114.787 252.248,118.851      "/><polygon fill="#6D7480" points="383.772,176.956 258.403,118.851 260.299,114.787 385.66,172.888      "/><g><path d="M268.873,115.816c0,7.119-5.77,12.893-12.889,12.893c-7.118,0-12.881-5.774-12.881-12.893        c0-7.111,5.763-12.885,12.881-12.885C263.104,102.931,268.873,108.705,268.873,115.816z" fill="#FFFFFF"/><path d="M255.984,131.186c-8.467,0-15.361-6.895-15.361-15.37c0-8.467,6.895-15.362,15.361-15.362        c8.475,0,15.37,6.896,15.37,15.362C271.354,124.291,264.459,131.186,255.984,131.186z M255.984,105.408        c-5.739,0-10.408,4.672-10.408,10.408c0,5.743,4.669,10.412,10.408,10.412c5.74,0,10.416-4.669,10.416-10.412        C266.4,110.08,261.725,105.408,255.984,105.408z" fill="#0D2038"/></g></g><g><g><path d="M407.964,364.173c0,6.461-5.238,11.699-11.699,11.699H115.724c-6.461,0-11.699-5.238-11.699-11.699        V183.478c0-6.461,5.238-11.7,11.699-11.7h280.541c6.461,0,11.699,5.238,11.699,11.7V364.173z" fill="#FFFFFF"/><rect fill="#C5D3E3" height="174.71" width="273.52" x="119.236" y="186.466"/><rect fill="#9FCA7C" height="36.001" width="273.52" x="119.221" y="326.901"/></g><g><polygon fill="#FFFFFF" points="178.559,236.601 162.85,263.943 215.269,300.421       "/><polygon fill="#0D2038" points="225.754,318.642 215.269,300.421 162.85,263.943 131.409,318.642 119.221,339.859         119.221,361.951 250.638,361.951       "/><polygon fill="#FFFFFF" opacity="0.3" points="225.754,318.642 215.269,300.421 162.85,263.943 131.409,318.642         119.221,339.859 119.221,361.951 250.638,361.951       "/></g><g><polygon fill="#FFFFFF" points="225.222,228.123 204.706,261.054 289.821,331.824       "/><polygon fill="#0D2038" points="308.588,361.951 289.821,331.824 204.706,261.054 141.848,361.951       "/><polygon fill="#FFFFFF" opacity="0.2" points="308.588,361.951 250.638,361.951 242.102,320.699 204.706,261.054         141.848,361.951       "/><polygon fill="#FFFFFF" opacity="0.3" points="308.588,361.951 289.821,331.824 204.706,261.054 242.102,320.699         250.638,361.951       "/></g><path d="M314.081,216.417c-0.924,0-1.818,0.119-2.673,0.339c-2.565-3.552-6.726-5.871-11.434-5.871       c-5.686,0-10.585,3.379-12.812,8.229c-1.934-1.676-4.461-2.696-7.227-2.696c-6.109,0-11.063,4.949-11.063,11.059       c0,0.416,0.031,0.828,0.077,1.236h17.419h4.554h12.173h10.478h11.494c0.046-0.408,0.077-0.82,0.077-1.236       C325.145,221.366,320.183,216.417,314.081,216.417z" fill="#FFFFFF"/><circle cx="354.312" cy="228.715" fill="#FFFEA9" r="13.212"/></g></g></g></g></svg>