<?xml version="1.0" ?><svg height="60px" version="1.1" viewBox="0 0 60 60" width="60px" xmlns="http://www.w3.org/2000/svg" xmlns:xlink="http://www.w3.org/1999/xlink"><title/><desc/><defs/><g fill="none" fill-rule="evenodd" id="Expedition" stroke="none" stroke-width="1"><g fill="#FFFFFF" fill-opacity="0" id="canvas" transform="translate(-181.000000, -420.000000)"><rect height="660" width="660" x="0" y="0"/></g><g id="tent-mountain"><g id="fill" transform="translate(1.000000, 1.000000)"><path d="M29,34 C20,34 14,48 14,58 L44,58 C44,48 38,34 29,34" fill="#AE938D" id="Page-1"/><path d="M14.2541333,52 L1.2198,52 L1.1698,51.99 C0.3398,55.62 -0.0002,58 -0.0002,58 L13.9998,58 C13.9998,56.04 14.0998,54.03 14.3198,52 L14.2998,52 L14.2541333,52 C14.0942961,54.1504284 14.0002,56.0987382 14.0002,58 C14.0002,48 20.0002,34 29.0002,34 C38.0002,34 44.0002,48 44.0002,58 C44.0002,56.04 43.9002,54.03 43.6802,52 C42.5002,41.03 38.0102,29.71 29.0002,23.36 C19.9902,29.71 15.5002,41.03 14.3202,52 C14.3136069,52.060836 14.3071216,52.1216541 14.3007436,52.1824534 Z M43.7202,52 L56.8002,52 L56.8302,51.99 C57.6602,55.62 58.0002,58 58.0002,58 L44.0002,58 C44.0002,56.04 43.9002,54.03 43.6802,52 L43.7202,52 Z M29,16 C32.75,16 36.06,17.12 38.95,19 C35.16,19.84 31.85,21.35 29,23.36 C26.15,21.35 22.84,19.84 19.05,19 C21.94,17.12 25.25,16 29,16 Z" fill="#50DD8E" id="Combined-Shape"/><path d="M56.8301,51.9902 L56.8001,52.0002 L43.7201,52.0002 L43.6801,52.0002 C42.5001,41.0302 38.0101,29.7102 29.0001,23.3602 C31.8501,21.3502 35.1601,19.8402 38.9501,19.0002 C49.5701,25.8602 54.7501,42.8702 56.8301,51.9902 Z M14.3198,52 L14.2998,52 L1.2198,52 L1.1698,51.99 C3.2498,42.87 8.4298,25.86 19.0498,19 C22.8398,19.84 26.1498,21.35 28.9998,23.36 C19.9898,29.71 15.4998,41.03 14.3198,52 Z" fill="#E4F2DE" id="Combined-Shape"/><polygon fill="#50DD8E" id="Fill-10" points="38 0 35 3 38 6 28 6 28 0"/></g><path d="M15.297,53 L2.219,53 M57.797,53 L44.719,53 M45,59 C45,43 38.047,24 20.047,20 M39.953,20 C21.953,24 15,43 15,59 M33,7 L39,7 L36,4 L39,1 L29,1 L29,13 M45,59 C45,49 39,35 30,35 C21,35 15,49 15,59 M11,59 L1,59 C1,59 7,17 30,17 C53,17 59,59 59,59 L49,59" id="stroke" stroke="#51565F" stroke-linecap="round" stroke-linejoin="round"/></g></g></svg>