<?xml version="1.0" encoding="utf-8"?>
<!-- Generator: Adobe Illustrator 16.0.0, SVG Export Plug-In . SVG Version: 6.00 Build 0)  -->
<!DOCTYPE svg PUBLIC "-//W3C//DTD SVG 1.1//EN" "http://www.w3.org/Graphics/SVG/1.1/DTD/svg11.dtd">
<svg version="1.1" id="Layer_1" xmlns="http://www.w3.org/2000/svg" xmlns:xlink="http://www.w3.org/1999/xlink" x="0px" y="0px"
	 width="220px" height="120px" viewBox="0.5 -166.5 220 120" enable-background="new 0.5 -166.5 220 120" xml:space="preserve">
<g id="XMLID_1170_">
	<g id="XMLID_1197_">
		<g id="XMLID_1198_">
			<path id="XMLID_1206_" fill="#31BBAF" d="M28.3-105.6c-5.2-0.2-8,2.5-8.4,7.6c-0.1,1.3-0.1,2.7-0.3,4c-0.3,1.8-1.6,2.7-3.2,2.3
				c-1.6-0.4-2.5-1.5-2.6-3.2c-0.4-7.6,4.1-13.8,12.1-16c3.9-1.1,7.8-1.5,11.7-2.2c3.6-0.7,7.3-1.4,10.9-2.2
				c1.8-0.4,2.1-0.2,2.1,1.6c-0.1,3.3-3,6.5-6.6,6.9c-2.5,0.3-5,0.4-7.8,0.6c-0.5,2.2-1,4.5-1.5,6.7c-1.5,7.1-2.9,14.3-4.4,21.4
				c-0.1,0.7-0.4,1.4-0.6,2.2c-1,2.9-2.3,3.8-4.8,3.6c-2.3-0.2-3.2-1.7-2.6-4.4c1.9-9,3.8-18,5.7-27C28.1-104.4,28.2-105,28.3-105.6
				z"/>
			<g id="XMLID_1199_">
				<path id="XMLID_1201_" fill="#31BBAF" d="M174.7-115c-1-0.1-2.101,0.2-3.101,3.4c-1,2.2-2.5,4.2-4.699,5.4
					c-3.101,1.8-6.4,1.4-7.7-1.1c0.1-0.1,0.2-0.2,0.3-0.3c5.6-2.4,8.7-7,10.4-12.4c1.5-4.7-0.9-7-5.5-5.8c-2.601,0.7-4.9,2-7,4
					c-4.2,4.3-6.5,9.2-6.7,14.6c-0.101,1.6-0.5,2.9-1.7,4c-1.4,1.4-3,1.1-3.3-0.6c-0.101-0.6-0.2-1.3-0.101-2
					c0.7-3.9,1.5-7.9,2.4-11.8c0.9-3.7,0.6-4.2-3-4.1c-0.1,0-0.2,0-0.4,0c-2.6,0.2-3.5,0.8-4.1,3.4c-0.9,3.9-1.7,7.7-2.4,11.6
					c-0.5,2.7-3.3,6.5-5.6,7.1c0.7-2.1,1.5-4.1,2.1-6.2c0.9-3.7,1.101-7.3-0.6-10.4c-1.8-3.4-5.5-3.7-9-0.7
					c-0.6,0.5-1.2,1.2-1.9,1.7c-1.3-2-4.199-2.4-6.5-0.8c-0.5,0.4-1,1.2-1.199,1.8c-0.601,2.5-1,5-1.5,7.4
					c-0.7,2.9-1.301,5.8-2.301,8.7c-1.1,1.5-2.8,2.9-4,3.2c0.7-2.1,1.5-4.1,2.1-6.2c0.899-3.7,1.1-7.3-0.6-10.4
					c-1.8-3.4-5.5-3.7-9-0.7c-0.6,0.5-1.2,1.2-1.9,1.7c-1.3-2-4.2-2.4-6.5-0.8c-0.5,0.4-1,1.2-1.2,1.8c-0.6,2.5-1,5-1.5,7.4
					c-0.7,2.9-1.3,5.8-2.3,8.7c-0.5,1.5-1.6,3.3-3.6,3.3c-1.3,0-2-1.9-1.5-4.3c0.9-4.2,1.9-8.5,2.8-12.7c0.1-0.5,0.1-1.5-0.1-1.6
					c-1.8-0.2-3.7-0.6-5.6-0.3c-1.6,0.2-2,1.9-2.3,3.3c-0.7,2.8-1.1,5.7-1.8,8.5c-0.6,2.3-1.2,4.6-2.1,6.8c-0.3,0.7-1.6,1.7-2.2,1.7
					c-0.6,0-1.1-1.1-1.5-1.8c-0.2-0.3-0.1-0.8,0-1.2c0.7-3.7,1.4-7.4,2.3-11.1c0.9-3.8,0.8-4.1-3-4.1c-0.2,0-0.5,0-0.7,0
					c-2.2,0.2-3,0.8-3.6,3c-0.7,2.5-1.2,5-1.8,7.4c-0.7,3.1-0.4,6.2-2.3,9.2c-0.7,1.1-1.4,2.7-2.7,2.2c-0.6-0.2-0.7-1.9-0.5-2.9
					c0.5-2.6,1.4-5.2,2-7.8c0.6-2.9-0.1-4.3-2.6-5c-1.7-0.5-3.6-0.7-5.4-0.9c-1.5-0.1-1.8-0.6-1.6-2.2c0.2-1-0.4-2.6-1.2-2.9
					c-0.9-0.3-2.6,0.1-3.6,0.8c-2.2,1.5-2.7,5-1.2,6.6c0.8,0.8,0.9,1.6,0.6,2.8c-0.8,3.1-3.5,14.7-4.3,17.7
					c-0.3,1.1-0.3,2.2,0.8,2.2c0.8,0,1.8-0.8,2.5-1.5c0.4-0.4,0.5-1.3,0.7-1.9c0.7-2.8,3.4-14,4-16.8c3.5,0.6,3.7,1.1,2.9,4.7
					c-0.6,2.6-1.1,5.2-1.5,7.8c-0.4,2.5-0.2,4.9,2.1,6.1c2.2,1.2,4.7,0.5,7-1.1c1.4-0.9,2.5-2.2,3.9-3.5c2.2,3.7,7.9,3.5,13-2.1
					c3,3.4,6.9,2.2,11.2-0.6c-0.5,2.7-1,5-1.5,7.4c-0.7,3.1,0.7,5.6,3.6,6.1c1.7,0.3,2.7-0.4,3.1-2.1c0.4-1.8,0.7-3.6,1.1-5.4
					c0.4-2.4,0.9-4.9,1.3-7.4c3.2,0.7,6.3,0.5,9.3-0.4l0,0c1.7-0.4,6.2-2.3,8-3.5c-0.5,2.7-1,5.6-1.5,8c-0.7,3.1,0.7,5.6,3.6,6.1
					c1.7,0.3,2.7-0.4,3.101-2.1c0.399-1.8,0.699-3.6,1.1-5.4c0.4-2.4,0.9-4.9,1.3-7.4c7.3,1.6,13.7-1.3,19.8-6.7
					c1.2,2.9,3.601,3.8,6.9,3c3.2-0.8,5.5-3.1,7.4-5.9c0.199,0.1,0.3,0.2,0.399,0.2c3.5,3.4,8,3.4,12.9,1
					c5.3-2.6,8.5-7.1,9.899-12.6C175.6-113.4,175.8-115,174.7-115z M100.3-95.6c-0.7,0.9-2.1,1.9-2.8,1.8c-0.7-0.1-1.5-1.4-1.5-2.4
					c-0.2-3.2,0.9-6.3,3.1-9.1c0.6-0.8,1.9-1.6,2.5-1.5c1.9,0,1.5,2.8,1.5,3.1C103-100.8,102.2-98.1,100.3-95.6z M128-108.5
					c-0.2,2.8-0.9,5.6-2.8,8.1c-0.7,0.9-2.101,1.9-2.8,1.8c-0.7-0.1-1.5-1.4-1.5-2.4c-0.2-3.2,0.899-6.3,3.1-9.1
					c0.6-0.8,1.9-1.6,2.5-1.5C128.4-111.6,128-108.8,128-108.5z M162.3-118.5c0.601-0.5,1.601-1.2,2.2-0.8c0.6,0.3,0.2,1.7-0.1,2.3
					c-1.2,2.5-3.101,4.3-5.9,5.9C159.1-114.2,160.1-116.6,162.3-118.5z"/>
				<path id="XMLID_1200_" fill="#31BBAF" d="M151.8-131.6c0.101,2.7-1.1,4.8-3.1,6.5c-2.601,2.2-5.601,1.3-5.9-1.8
					c-0.2-2.4,0.8-4.6,2.7-6.4c1.3-1.3,2.8-1.9,4.4-1.4C151.4-134.3,151.9-133,151.8-131.6z"/>
			</g>
		</g>
	</g>
	<g id="XMLID_1194_">
		<path id="XMLID_1196_" opacity="0.75" fill="#31BBAF" enable-background="new    " d="M199.9-155.1c-0.301-0.1-0.7,0-0.9,0.2
			l-23.6,25.2c-0.301,0.3-0.301,0.7-0.101,1c0.2,0.3,0.601,0.5,0.9,0.4l14.8-3C190.9-131.2,200.2-155,199.9-155.1z"/>
		<path id="XMLID_1195_" opacity="0.25" fill="#31BBAF" enable-background="new    " d="M199.9-155.2c0.3,0.1,0.5,0.4,0.5,0.8
			l1.1,34.5c0,0.4-0.2,0.7-0.6,0.8c-0.4,0.1-0.801,0-1-0.3l-9.101-12C190.9-131.3,199.6-155.3,199.9-155.2z"/>
	</g>
	<g id="XMLID_1171_">
		
			<linearGradient id="XMLID_2_" gradientUnits="userSpaceOnUse" x1="478.0059" y1="-67.7134" x2="529.5059" y2="40.7866" gradientTransform="matrix(1 0 0 -1 -325.1348 -115.8652)">
			<stop  offset="0" style="stop-color:#31BBAF"/>
			<stop  offset="1" style="stop-color:#FFFFFF"/>
		</linearGradient>
		<circle id="XMLID_1193_" fill="url(#XMLID_2_)" cx="189.3" cy="-124.9" r="1.8"/>
		
			<linearGradient id="XMLID_3_" gradientUnits="userSpaceOnUse" x1="477.9688" y1="-67.6968" x2="529.4688" y2="40.8032" gradientTransform="matrix(1 0 0 -1 -325.1348 -115.8652)">
			<stop  offset="0" style="stop-color:#31BBAF"/>
			<stop  offset="1" style="stop-color:#FFFFFF"/>
		</linearGradient>
		<circle id="XMLID_1192_" fill="url(#XMLID_3_)" cx="185.6" cy="-117.2" r="1.8"/>
		
			<linearGradient id="XMLID_4_" gradientUnits="userSpaceOnUse" x1="477.6172" y1="-67.5098" x2="529.1032" y2="40.9608" gradientTransform="matrix(1 0 0 -1 -325.1348 -115.8652)">
			<stop  offset="0" style="stop-color:#31BBAF"/>
			<stop  offset="1" style="stop-color:#FFFFFF"/>
		</linearGradient>
		<circle id="XMLID_1191_" fill="url(#XMLID_4_)" cx="181.6" cy="-109.7" r="1.8"/>
		
			<linearGradient id="XMLID_5_" gradientUnits="userSpaceOnUse" x1="476.8086" y1="-67.145" x2="528.3086" y2="41.355" gradientTransform="matrix(1 0 0 -1 -325.1348 -115.8652)">
			<stop  offset="0" style="stop-color:#31BBAF"/>
			<stop  offset="1" style="stop-color:#FFFFFF"/>
		</linearGradient>
		<circle id="XMLID_1190_" fill="url(#XMLID_5_)" cx="177.2" cy="-102.5" r="1.8"/>
		
			<linearGradient id="XMLID_6_" gradientUnits="userSpaceOnUse" x1="475.4863" y1="-66.5176" x2="526.9863" y2="41.9824" gradientTransform="matrix(1 0 0 -1 -325.1348 -115.8652)">
			<stop  offset="0" style="stop-color:#31BBAF"/>
			<stop  offset="1" style="stop-color:#FFFFFF"/>
		</linearGradient>
		<circle id="XMLID_1189_" fill="url(#XMLID_6_)" cx="172.4" cy="-95.8" r="1.8"/>
		
			<linearGradient id="XMLID_7_" gradientUnits="userSpaceOnUse" x1="473.4844" y1="-65.5674" x2="524.9844" y2="42.9326" gradientTransform="matrix(1 0 0 -1 -325.1348 -115.8652)">
			<stop  offset="0" style="stop-color:#31BBAF"/>
			<stop  offset="1" style="stop-color:#FFFFFF"/>
		</linearGradient>
		<circle id="XMLID_1188_" fill="url(#XMLID_7_)" cx="167.1" cy="-89.8" r="1.8"/>
		
			<linearGradient id="XMLID_9_" gradientUnits="userSpaceOnUse" x1="470.6445" y1="-64.2197" x2="522.1445" y2="44.2803" gradientTransform="matrix(1 0 0 -1 -325.1348 -115.8652)">
			<stop  offset="0" style="stop-color:#31BBAF"/>
			<stop  offset="1" style="stop-color:#FFFFFF"/>
		</linearGradient>
		<circle id="XMLID_1187_" fill="url(#XMLID_9_)" cx="161.2" cy="-84.7" r="1.8"/>
		
			<linearGradient id="XMLID_17_" gradientUnits="userSpaceOnUse" x1="466.6885" y1="-62.3511" x2="518.2025" y2="46.1784" gradientTransform="matrix(1 0 0 -1 -325.1348 -115.8652)">
			<stop  offset="0" style="stop-color:#31BBAF"/>
			<stop  offset="1" style="stop-color:#FFFFFF"/>
		</linearGradient>
		<circle id="XMLID_1186_" fill="url(#XMLID_17_)" cx="154.6" cy="-81" r="1.8"/>
		
			<linearGradient id="XMLID_18_" gradientUnits="userSpaceOnUse" x1="461.5918" y1="-59.9307" x2="513.1058" y2="48.5988" gradientTransform="matrix(1 0 0 -1 -325.1348 -115.8652)">
			<stop  offset="0" style="stop-color:#31BBAF"/>
			<stop  offset="1" style="stop-color:#FFFFFF"/>
		</linearGradient>
		<circle id="XMLID_1185_" fill="url(#XMLID_18_)" cx="147.5" cy="-79.2" r="1.8"/>
		
			<linearGradient id="XMLID_19_" gradientUnits="userSpaceOnUse" x1="455.2773" y1="-56.9326" x2="506.7913" y2="51.5968" gradientTransform="matrix(1 0 0 -1 -325.1348 -115.8652)">
			<stop  offset="0" style="stop-color:#31BBAF"/>
			<stop  offset="1" style="stop-color:#FFFFFF"/>
		</linearGradient>
		<circle id="XMLID_1184_" fill="url(#XMLID_19_)" cx="140" cy="-79.7" r="1.8"/>
		
			<linearGradient id="XMLID_26_" gradientUnits="userSpaceOnUse" x1="448.3467" y1="-53.6431" x2="499.8607" y2="54.8864" gradientTransform="matrix(1 0 0 -1 -325.1348 -115.8652)">
			<stop  offset="0" style="stop-color:#31BBAF"/>
			<stop  offset="1" style="stop-color:#FFFFFF"/>
		</linearGradient>
		<circle id="XMLID_1183_" fill="url(#XMLID_26_)" cx="132.6" cy="-82" r="1.8"/>
		
			<linearGradient id="XMLID_28_" gradientUnits="userSpaceOnUse" x1="440.9219" y1="-50.1055" x2="492.4079" y2="58.3651" gradientTransform="matrix(1 0 0 -1 -325.1348 -115.8652)">
			<stop  offset="0" style="stop-color:#31BBAF"/>
			<stop  offset="1" style="stop-color:#FFFFFF"/>
		</linearGradient>
		<circle id="XMLID_1182_" fill="url(#XMLID_28_)" cx="125.3" cy="-85.8" r="1.8"/>
		
			<linearGradient id="XMLID_31_" gradientUnits="userSpaceOnUse" x1="412.6709" y1="-36.7031" x2="464.1709" y2="71.7969" gradientTransform="matrix(1 0 0 -1 -325.1348 -115.8652)">
			<stop  offset="0" style="stop-color:#31BBAF"/>
			<stop  offset="1" style="stop-color:#FFFFFF"/>
		</linearGradient>
		<circle id="XMLID_1181_" fill="url(#XMLID_31_)" cx="99.8" cy="-105" r="1.8"/>
		
			<linearGradient id="XMLID_32_" gradientUnits="userSpaceOnUse" x1="406.7871" y1="-33.9199" x2="458.3011" y2="74.6095" gradientTransform="matrix(1 0 0 -1 -325.1348 -115.8652)">
			<stop  offset="0" style="stop-color:#31BBAF"/>
			<stop  offset="1" style="stop-color:#FFFFFF"/>
		</linearGradient>
		<circle id="XMLID_1180_" fill="url(#XMLID_32_)" cx="95.3" cy="-110.7" r="1.8"/>
		
			<linearGradient id="XMLID_33_" gradientUnits="userSpaceOnUse" x1="400.7031" y1="-31.0122" x2="452.1891" y2="77.4584" gradientTransform="matrix(1 0 0 -1 -325.1348 -115.8652)">
			<stop  offset="0" style="stop-color:#31BBAF"/>
			<stop  offset="1" style="stop-color:#FFFFFF"/>
		</linearGradient>
		<circle id="XMLID_1179_" fill="url(#XMLID_33_)" cx="90.4" cy="-116.1" r="1.8"/>
		
			<linearGradient id="XMLID_34_" gradientUnits="userSpaceOnUse" x1="394.5137" y1="-28.0957" x2="446.0276" y2="80.4337" gradientTransform="matrix(1 0 0 -1 -325.1348 -115.8652)">
			<stop  offset="0" style="stop-color:#31BBAF"/>
			<stop  offset="1" style="stop-color:#FFFFFF"/>
		</linearGradient>
		<circle id="XMLID_1178_" fill="url(#XMLID_34_)" cx="85.2" cy="-121.1" r="1.8"/>
		
			<linearGradient id="XMLID_36_" gradientUnits="userSpaceOnUse" x1="387.707" y1="-24.8657" x2="439.221" y2="83.6637" gradientTransform="matrix(1 0 0 -1 -325.1348 -115.8652)">
			<stop  offset="0" style="stop-color:#31BBAF"/>
			<stop  offset="1" style="stop-color:#FFFFFF"/>
		</linearGradient>
		<circle id="XMLID_1177_" fill="url(#XMLID_36_)" cx="78.9" cy="-125.4" r="1.8"/>
		
			<linearGradient id="XMLID_38_" gradientUnits="userSpaceOnUse" x1="381.1113" y1="-21.7222" x2="432.6113" y2="86.7778" gradientTransform="matrix(1 0 0 -1 -325.1348 -115.8652)">
			<stop  offset="0" style="stop-color:#31BBAF"/>
			<stop  offset="1" style="stop-color:#FFFFFF"/>
		</linearGradient>
		<circle id="XMLID_1176_" fill="url(#XMLID_38_)" cx="72" cy="-127.9" r="1.8"/>
		
			<linearGradient id="XMLID_41_" gradientUnits="userSpaceOnUse" x1="375.7441" y1="-19.1733" x2="427.2441" y2="89.3268" gradientTransform="matrix(1 0 0 -1 -325.1348 -115.8652)">
			<stop  offset="0" style="stop-color:#31BBAF"/>
			<stop  offset="1" style="stop-color:#FFFFFF"/>
		</linearGradient>
		<circle id="XMLID_1175_" fill="url(#XMLID_41_)" cx="64.9" cy="-126.8" r="1.8"/>
		
			<linearGradient id="XMLID_42_" gradientUnits="userSpaceOnUse" x1="373.2734" y1="-18.002" x2="424.7734" y2="90.4981" gradientTransform="matrix(1 0 0 -1 -325.1348 -115.8652)">
			<stop  offset="0" style="stop-color:#31BBAF"/>
			<stop  offset="1" style="stop-color:#FFFFFF"/>
		</linearGradient>
		<circle id="XMLID_1174_" fill="url(#XMLID_42_)" cx="59.5" cy="-121.8" r="1.8"/>
		
			<linearGradient id="XMLID_43_" gradientUnits="userSpaceOnUse" x1="372.6572" y1="-17.7041" x2="424.1432" y2="90.7665" gradientTransform="matrix(1 0 0 -1 -325.1348 -115.8652)">
			<stop  offset="0" style="stop-color:#31BBAF"/>
			<stop  offset="1" style="stop-color:#FFFFFF"/>
		</linearGradient>
		<circle id="XMLID_1173_" fill="url(#XMLID_43_)" cx="55.8" cy="-115.6" r="1.8"/>
		
			<linearGradient id="XMLID_50_" gradientUnits="userSpaceOnUse" x1="373.4473" y1="-18.085" x2="424.9473" y2="90.4151" gradientTransform="matrix(1 0 0 -1 -325.1348 -115.8652)">
			<stop  offset="0" style="stop-color:#31BBAF"/>
			<stop  offset="1" style="stop-color:#FFFFFF"/>
		</linearGradient>
		<circle id="XMLID_1172_" fill="url(#XMLID_50_)" cx="53.4" cy="-108.5" r="1.8"/>
	</g>
</g>
</svg>
