<?xml version="1.0" encoding="utf-8"?>
<!-- Generator: Adobe Illustrator 16.0.0, SVG Export Plug-In . SVG Version: 6.00 Build 0)  -->
<!DOCTYPE svg PUBLIC "-//W3C//DTD SVG 1.1//EN" "http://www.w3.org/Graphics/SVG/1.1/DTD/svg11.dtd">
<svg version="1.1" id="Layer_1" xmlns="http://www.w3.org/2000/svg" xmlns:xlink="http://www.w3.org/1999/xlink" x="0px" y="0px"
	 width="220px" height="120.001px" viewBox="-240.7 326.5 220 120.001" enable-background="new -240.7 326.5 220 120.001"
	 xml:space="preserve">
<g id="XMLID_1394_">
	<g id="XMLID_1421_">
		<g id="XMLID_1422_">
			<path id="XMLID_1430_" fill="#231F20" d="M-210.4,392.3c-5.2-0.2-8,2.5-8.4,7.601c-0.1,1.3-0.1,2.6-0.3,4
				c-0.3,1.8-1.6,2.699-3.2,2.3c-1.6-0.4-2.5-1.5-2.6-3.2c-0.4-7.6,4.1-13.7,12-15.9c3.9-1.1,7.8-1.5,11.6-2.199
				c3.6-0.7,7.3-1.4,10.9-2.2c1.7-0.4,2.1-0.2,2.1,1.6c-0.1,3.3-3,6.4-6.6,6.9c-2.5,0.3-5,0.399-7.7,0.6c-0.5,2.2-1,4.5-1.5,6.7
				c-1.5,7.1-2.9,14.3-4.4,21.4c-0.1,0.699-0.4,1.399-0.6,2.199c-1,2.9-2.3,3.801-4.8,3.601c-2.3-0.2-3.2-1.7-2.6-4.4
				c1.9-9,3.8-18,5.7-27C-210.6,393.6-210.6,393-210.4,392.3z"/>
			<g id="XMLID_1423_">
				<path id="XMLID_1425_" fill="#231F20" d="M-64.3,382.9c-1-0.101-2.1,0.199-3.1,3.3c-1,2.2-2.5,4.1-4.7,5.399
					c-3.1,1.801-6.4,1.4-7.7-1.1c0.1-0.1,0.2-0.2,0.3-0.3c5.6-2.4,8.7-7,10.4-12.4c1.5-4.7-0.8-7-5.5-5.7c-2.6,0.7-4.9,2-7,4
					c-4.2,4.2-6.5,9.2-6.7,14.601c-0.1,1.6-0.5,2.899-1.7,4c-1.4,1.399-3,1.1-3.3-0.601c-0.1-0.6-0.2-1.3-0.1-1.899
					c0.7-3.9,1.5-7.8,2.4-11.8c0.9-3.7,0.6-4.2-3-4.101c-0.1,0-0.2,0-0.4,0c-2.6,0.2-3.5,0.8-4.1,3.4c-0.9,3.899-1.7,7.7-2.3,11.6
					c-0.5,2.7-3.3,6.5-5.6,7c0.7-2,1.5-4.1,2.1-6.2c0.9-3.699,1.1-7.3-0.6-10.3c-1.8-3.399-5.5-3.6-9-0.7c-0.6,0.5-1.2,1.2-1.9,1.7
					c-1.3-2-4.2-2.399-6.5-0.8c-0.5,0.4-1,1.2-1.2,1.8c-0.6,2.5-1,5-1.5,7.4c-0.7,2.899-1.3,5.8-2.3,8.6c-1.1,1.5-2.8,2.9-4,3.2
					c0.7-2,1.5-4.1,2.1-6.2c0.9-3.7,1.1-7.3-0.6-10.3c-1.8-3.4-5.5-3.6-9-0.7c-0.6,0.5-1.2,1.2-1.9,1.7c-1.3-2-4.2-2.4-6.5-0.8
					c-0.5,0.399-1,1.2-1.2,1.8c-0.6,2.5-1,5-1.5,7.4c-0.7,2.899-1.3,5.8-2.3,8.6c-0.5,1.5-1.6,3.3-3.6,3.3c-1.3,0-2-1.899-1.5-4.2
					c0.9-4.199,1.9-8.5,2.8-12.699c0.1-0.5,0.1-1.5-0.1-1.601c-1.8-0.2-3.7-0.6-5.6-0.3c-1.6,0.2-2,1.9-2.3,3.3
					c-0.7,2.8-1.1,5.7-1.8,8.5c-0.6,2.3-1.2,4.601-2.1,6.8c-0.3,0.7-1.6,1.7-2.2,1.7s-1.1-1.1-1.5-1.8c-0.2-0.3-0.1-0.8,0-1.2
					c0.7-3.7,1.4-7.399,2.3-11c0.9-3.8,0.8-4.1-3-4.1c-0.2,0-0.5,0-0.7,0c-2.2,0.2-3,0.8-3.6,3c-0.7,2.5-1.2,4.899-1.8,7.399
					c-0.7,3.101-0.4,6.2-2.3,9.101c-0.7,1.1-1.4,2.7-2.7,2.2c-0.6-0.2-0.7-1.9-0.5-2.9c0.5-2.6,1.4-5.2,1.9-7.8
					c0.6-2.8-0.1-4.3-2.6-5c-1.7-0.5-3.6-0.7-5.4-0.9c-1.5-0.1-1.8-0.6-1.6-2.2c0.1-1-0.4-2.6-1.2-2.899c-0.9-0.3-2.6,0.1-3.6,0.8
					c-2.2,1.5-2.7,5-1.2,6.6c0.8,0.801,0.9,1.601,0.6,2.801c-0.8,3.1-3.5,14.6-4.3,17.699c-0.3,1.101-0.3,2.2,0.8,2.2
					c0.8,0,1.8-0.8,2.5-1.5c0.4-0.399,0.5-1.3,0.7-1.899c0.7-2.801,3.4-14,4-16.801c3.5,0.601,3.7,1.101,2.9,4.7
					c-0.6,2.601-1.1,5.2-1.5,7.8c-0.4,2.5-0.2,4.9,2.1,6c2.2,1.2,4.7,0.5,7-1c1.4-0.899,2.5-2.199,3.9-3.5c2.2,3.7,7.9,3.5,13-2.1
					c3,3.4,6.9,2.2,11.2-0.6c-0.5,2.699-1,5-1.5,7.3c-0.7,3.1,0.7,5.6,3.6,6.1c1.6,0.3,2.7-0.399,3.1-2.1c0.4-1.8,0.7-3.601,1.1-5.4
					c0.4-2.399,0.9-4.899,1.3-7.399c3.2,0.699,6.3,0.5,9.2-0.4l0,0c1.6-0.4,6.2-2.3,8-3.5c-0.5,2.7-1,5.6-1.5,8
					c-0.7,3.1,0.7,5.6,3.6,6.1c1.6,0.301,2.7-0.399,3.1-2.1c0.4-1.8,0.7-3.6,1.1-5.4c0.4-2.399,0.9-4.899,1.3-7.399
					c7.3,1.6,13.6-1.3,19.7-6.7c1.2,2.9,3.6,3.8,6.9,3c3.2-0.8,5.5-3.1,7.4-5.9c0.2,0.101,0.3,0.2,0.4,0.2c3.5,3.4,8,3.4,12.9,1
					c5.3-2.6,8.5-7.1,9.9-12.6C-63.4,384.6-63.2,383-64.3,382.9z M-138.6,402.3c-0.7,0.9-2.1,1.9-2.8,1.8
					c-0.7-0.1-1.4-1.399-1.5-2.399c-0.2-3.2,0.9-6.3,3.1-9.101c0.6-0.8,1.9-1.5,2.5-1.5c1.9,0,1.5,2.801,1.5,3.101
					C-135.9,397.1-136.7,399.9-138.6,402.3z M-110.9,389.4c-0.2,2.8-0.9,5.6-2.8,8.1c-0.7,0.9-2.1,1.9-2.8,1.8
					c-0.7-0.1-1.4-1.399-1.5-2.399c-0.2-3.2,0.9-6.301,3.1-9.101c0.6-0.8,1.9-1.5,2.5-1.5C-110.5,386.4-110.9,389.1-110.9,389.4z
					 M-76.6,379.4c0.6-0.5,1.6-1.2,2.2-0.801c0.6,0.301,0.2,1.601-0.1,2.301c-1.2,2.5-3.1,4.3-5.9,5.899
					C-79.9,383.7-78.8,381.3-76.6,379.4z"/>
				<path id="XMLID_1424_" fill="#231F20" d="M-87.1,366.4c0.1,2.699-1.1,4.8-3.1,6.5c-2.6,2.199-5.6,1.3-5.8-1.801
					c-0.2-2.399,0.8-4.6,2.7-6.399c1.3-1.3,2.8-1.9,4.4-1.4C-87.6,363.7-87,365-87.1,366.4z"/>
			</g>
		</g>
	</g>
	<g id="XMLID_1395_">
		<g id="XMLID_1418_">
			<path id="XMLID_1420_" opacity="0.75" fill="#231F20" enable-background="new    " d="M-39.2,343c-0.3-0.1-0.7,0-0.9,0.2
				l-23.6,25.1c-0.3,0.3-0.3,0.7-0.1,1c0.2,0.3,0.6,0.5,0.9,0.4l14.7-3C-48.2,366.7-38.8,343-39.2,343z"/>
			<path id="XMLID_1419_" opacity="0.25" fill="#231F20" enable-background="new    " d="M-39.2,342.9c0.3,0.1,0.5,0.399,0.5,0.8
				l1.1,34.399c0,0.4-0.2,0.7-0.6,0.801c-0.4,0.1-0.8,0-1-0.301l-9.1-12C-48.1,366.7-39.5,342.7-39.2,342.9z"/>
		</g>
		<g id="XMLID_1396_">
			
				<linearGradient id="XMLID_2_" gradientUnits="userSpaceOnUse" x1="293.5371" y1="-463.1514" x2="228.5371" y2="-555.4847" gradientTransform="matrix(1 0 0 -1 -325.1348 -115.8652)">
				<stop  offset="0" style="stop-color:#231F20;stop-opacity:0"/>
				<stop  offset="1" style="stop-color:#231F20"/>
			</linearGradient>
			<circle id="XMLID_1417_" fill="url(#XMLID_2_)" cx="-49.7" cy="373" r="1.8"/>
			
				<linearGradient id="XMLID_3_" gradientUnits="userSpaceOnUse" x1="294.7344" y1="-463.9941" x2="229.7344" y2="-556.3275" gradientTransform="matrix(1 0 0 -1 -325.1348 -115.8652)">
				<stop  offset="0" style="stop-color:#231F20;stop-opacity:0"/>
				<stop  offset="1" style="stop-color:#231F20"/>
			</linearGradient>
			<circle id="XMLID_1416_" fill="url(#XMLID_3_)" cx="-53.4" cy="380.8" r="1.8"/>
			
				<linearGradient id="XMLID_4_" gradientUnits="userSpaceOnUse" x1="295.5898" y1="-464.5947" x2="230.5898" y2="-556.928" gradientTransform="matrix(1 0 0 -1 -325.1348 -115.8652)">
				<stop  offset="0" style="stop-color:#231F20;stop-opacity:0"/>
				<stop  offset="1" style="stop-color:#231F20"/>
			</linearGradient>
			<circle id="XMLID_1415_" fill="url(#XMLID_4_)" cx="-57.4" cy="388.3" r="1.8"/>
			
				<linearGradient id="XMLID_5_" gradientUnits="userSpaceOnUse" x1="296.0381" y1="-464.9102" x2="231.0381" y2="-557.2435" gradientTransform="matrix(1 0 0 -1 -325.1348 -115.8652)">
				<stop  offset="0" style="stop-color:#231F20;stop-opacity:0"/>
				<stop  offset="1" style="stop-color:#231F20"/>
			</linearGradient>
			<circle id="XMLID_1414_" fill="url(#XMLID_5_)" cx="-61.8" cy="395.5" r="1.8"/>
			
				<linearGradient id="XMLID_6_" gradientUnits="userSpaceOnUse" x1="295.9453" y1="-464.8232" x2="230.9277" y2="-557.1816" gradientTransform="matrix(1 0 0 -1 -325.1348 -115.8652)">
				<stop  offset="0" style="stop-color:#231F20;stop-opacity:0"/>
				<stop  offset="1" style="stop-color:#231F20"/>
			</linearGradient>
			<circle id="XMLID_1413_" fill="url(#XMLID_6_)" cx="-66.6" cy="402.1" r="1.8"/>
			
				<linearGradient id="XMLID_7_" gradientUnits="userSpaceOnUse" x1="295.2148" y1="-464.3306" x2="230.2148" y2="-556.6638" gradientTransform="matrix(1 0 0 -1 -325.1348 -115.8652)">
				<stop  offset="0" style="stop-color:#231F20;stop-opacity:0"/>
				<stop  offset="1" style="stop-color:#231F20"/>
			</linearGradient>
			<circle id="XMLID_1412_" fill="url(#XMLID_7_)" cx="-71.9" cy="408.1" r="1.8"/>
			
				<linearGradient id="XMLID_9_" gradientUnits="userSpaceOnUse" x1="293.6592" y1="-463.2627" x2="228.6768" y2="-555.571" gradientTransform="matrix(1 0 0 -1 -325.1348 -115.8652)">
				<stop  offset="0" style="stop-color:#231F20;stop-opacity:0"/>
				<stop  offset="1" style="stop-color:#231F20"/>
			</linearGradient>
			<circle id="XMLID_1411_" fill="url(#XMLID_9_)" cx="-77.8" cy="413.2" r="1.8"/>
			
				<linearGradient id="XMLID_17_" gradientUnits="userSpaceOnUse" x1="290.9531" y1="-461.3301" x2="225.9531" y2="-553.6634" gradientTransform="matrix(1 0 0 -1 -325.1348 -115.8652)">
				<stop  offset="0" style="stop-color:#231F20;stop-opacity:0"/>
				<stop  offset="1" style="stop-color:#231F20"/>
			</linearGradient>
			<circle id="XMLID_1410_" fill="url(#XMLID_17_)" cx="-84.4" cy="416.8" r="1.8"/>
			
				<linearGradient id="XMLID_18_" gradientUnits="userSpaceOnUse" x1="287.0986" y1="-458.6157" x2="222.0986" y2="-550.949" gradientTransform="matrix(1 0 0 -1 -325.1348 -115.8652)">
				<stop  offset="0" style="stop-color:#231F20;stop-opacity:0"/>
				<stop  offset="1" style="stop-color:#231F20"/>
			</linearGradient>
			<circle id="XMLID_1409_" fill="url(#XMLID_18_)" cx="-91.5" cy="418.7" r="1.8"/>
			
				<linearGradient id="XMLID_19_" gradientUnits="userSpaceOnUse" x1="281.915" y1="-454.9697" x2="216.915" y2="-547.3031" gradientTransform="matrix(1 0 0 -1 -325.1348 -115.8652)">
				<stop  offset="0" style="stop-color:#231F20;stop-opacity:0"/>
				<stop  offset="1" style="stop-color:#231F20"/>
			</linearGradient>
			<circle id="XMLID_1408_" fill="url(#XMLID_19_)" cx="-98.9" cy="418.2" r="1.8"/>
			
				<linearGradient id="XMLID_26_" gradientUnits="userSpaceOnUse" x1="275.8857" y1="-450.7217" x2="210.8857" y2="-543.0549" gradientTransform="matrix(1 0 0 -1 -325.1348 -115.8652)">
				<stop  offset="0" style="stop-color:#231F20;stop-opacity:0"/>
				<stop  offset="1" style="stop-color:#231F20"/>
			</linearGradient>
			<circle id="XMLID_1407_" fill="url(#XMLID_26_)" cx="-106.3" cy="415.9" r="1.8"/>
			
				<linearGradient id="XMLID_28_" gradientUnits="userSpaceOnUse" x1="269.2012" y1="-446.0498" x2="204.2188" y2="-538.3581" gradientTransform="matrix(1 0 0 -1 -325.1348 -115.8652)">
				<stop  offset="0" style="stop-color:#231F20;stop-opacity:0"/>
				<stop  offset="1" style="stop-color:#231F20"/>
			</linearGradient>
			<circle id="XMLID_1406_" fill="url(#XMLID_28_)" cx="-113.6" cy="412.1" r="1.8"/>
			
				<linearGradient id="XMLID_31_" gradientUnits="userSpaceOnUse" x1="238.5352" y1="-424.4316" x2="173.5352" y2="-516.765" gradientTransform="matrix(1 0 0 -1 -325.1348 -115.8652)">
				<stop  offset="0" style="stop-color:#231F20;stop-opacity:0"/>
				<stop  offset="1" style="stop-color:#231F20"/>
			</linearGradient>
			<circle id="XMLID_1405_" fill="url(#XMLID_31_)" cx="-142.8" cy="388.4" r="1.8"/>
			
				<linearGradient id="XMLID_32_" gradientUnits="userSpaceOnUse" x1="231.6846" y1="-419.6069" x2="166.6846" y2="-511.9402" gradientTransform="matrix(1 0 0 -1 -325.1348 -115.8652)">
				<stop  offset="0" style="stop-color:#231F20;stop-opacity:0"/>
				<stop  offset="1" style="stop-color:#231F20"/>
			</linearGradient>
			<circle id="XMLID_1404_" fill="url(#XMLID_32_)" cx="-148.4" cy="381.8" r="1.8"/>
			
				<linearGradient id="XMLID_33_" gradientUnits="userSpaceOnUse" x1="225.8857" y1="-415.5576" x2="160.9034" y2="-507.866" gradientTransform="matrix(1 0 0 -1 -325.1348 -115.8652)">
				<stop  offset="0" style="stop-color:#231F20;stop-opacity:0"/>
				<stop  offset="1" style="stop-color:#231F20"/>
			</linearGradient>
			<circle id="XMLID_1403_" fill="url(#XMLID_33_)" cx="-153.6" cy="376.9" r="1.8"/>
			
				<linearGradient id="XMLID_34_" gradientUnits="userSpaceOnUse" x1="219.6641" y1="-411.147" x2="154.6641" y2="-503.4803" gradientTransform="matrix(1 0 0 -1 -325.1348 -115.8652)">
				<stop  offset="0" style="stop-color:#231F20;stop-opacity:0"/>
				<stop  offset="1" style="stop-color:#231F20"/>
			</linearGradient>
			<circle id="XMLID_1402_" fill="url(#XMLID_34_)" cx="-159.9" cy="372.6" r="1.8"/>
			
				<linearGradient id="XMLID_36_" gradientUnits="userSpaceOnUse" x1="213.875" y1="-407.0693" x2="148.875" y2="-499.4026" gradientTransform="matrix(1 0 0 -1 -325.1348 -115.8652)">
				<stop  offset="0" style="stop-color:#231F20;stop-opacity:0"/>
				<stop  offset="1" style="stop-color:#231F20"/>
			</linearGradient>
			<circle id="XMLID_1401_" fill="url(#XMLID_36_)" cx="-166.8" cy="370.1" r="1.8"/>
			
				<linearGradient id="XMLID_38_" gradientUnits="userSpaceOnUse" x1="209.6445" y1="-404.0923" x2="144.6445" y2="-496.4257" gradientTransform="matrix(1 0 0 -1 -325.1348 -115.8652)">
				<stop  offset="0" style="stop-color:#231F20;stop-opacity:0"/>
				<stop  offset="1" style="stop-color:#231F20"/>
			</linearGradient>
			<circle id="XMLID_1400_" fill="url(#XMLID_38_)" cx="-173.9" cy="371.2" r="1.8"/>
			
				<linearGradient id="XMLID_41_" gradientUnits="userSpaceOnUse" x1="208.3408" y1="-403.1753" x2="143.3408" y2="-495.5086" gradientTransform="matrix(1 0 0 -1 -325.1348 -115.8652)">
				<stop  offset="0" style="stop-color:#231F20;stop-opacity:0"/>
				<stop  offset="1" style="stop-color:#231F20"/>
			</linearGradient>
			<circle id="XMLID_1399_" fill="url(#XMLID_41_)" cx="-179.3" cy="376.1" r="1.8"/>
			
				<linearGradient id="XMLID_42_" gradientUnits="userSpaceOnUse" x1="208.7852" y1="-403.4868" x2="143.7852" y2="-495.8201" gradientTransform="matrix(1 0 0 -1 -325.1348 -115.8652)">
				<stop  offset="0" style="stop-color:#231F20;stop-opacity:0"/>
				<stop  offset="1" style="stop-color:#231F20"/>
			</linearGradient>
			<circle id="XMLID_1398_" fill="url(#XMLID_42_)" cx="-183" cy="382.3" r="1.8"/>
			
				<linearGradient id="XMLID_43_" gradientUnits="userSpaceOnUse" x1="210.5225" y1="-404.71" x2="145.5225" y2="-497.0432" gradientTransform="matrix(1 0 0 -1 -325.1348 -115.8652)">
				<stop  offset="0" style="stop-color:#231F20;stop-opacity:0"/>
				<stop  offset="1" style="stop-color:#231F20"/>
			</linearGradient>
			<circle id="XMLID_1397_" fill="url(#XMLID_43_)" cx="-185.4" cy="389.4" r="1.8"/>
		</g>
	</g>
</g>
</svg>
