<?xml version="1.0" encoding="utf-8"?>
<!-- Generator: Adobe Illustrator 16.0.0, SVG Export Plug-In . SVG Version: 6.00 Build 0)  -->
<!DOCTYPE svg PUBLIC "-//W3C//DTD SVG 1.1//EN" "http://www.w3.org/Graphics/SVG/1.1/DTD/svg11.dtd">
<svg version="1.1" id="Layer_1" xmlns="http://www.w3.org/2000/svg" xmlns:xlink="http://www.w3.org/1999/xlink" x="0px" y="0px"
	 width="220px" height="120px" viewBox="0.5 -0.1 220 120" enable-background="new 0.5 -0.1 220 120" xml:space="preserve">
<rect id="XMLID_408_" x="0.5" y="-0.1" fill="#FFFFFF" width="219" height="120.8"/>
<g id="XMLID_5311_">
	<g id="XMLID_5313_">
		<g id="XMLID_5342_">
			<g id="XMLID_70_">
				
					<linearGradient id="XMLID_2_" gradientUnits="userSpaceOnUse" x1="510.6309" y1="-187.541" x2="352.4557" y2="-187.541" gradientTransform="matrix(1 0 0 -1 -325.1348 -115.8652)">
					<stop  offset="0" style="stop-color:#31BBAF"/>
					<stop  offset="1" style="stop-color:#42235F"/>
				</linearGradient>
				<path id="XMLID_364_" fill="url(#XMLID_2_)" d="M32,59.9c-5.2-0.2-8,2.5-8.4,7.6c-0.1,1.3-0.1,2.6-0.3,4
					c-0.3,1.8-1.6,2.7-3.2,2.3c-1.6-0.399-2.5-1.5-2.6-3.2c-0.4-7.6,4.1-13.7,12-15.899c3.8-1.1,7.7-1.5,11.6-2.2
					c3.6-0.7,7.3-1.4,10.9-2.2c1.7-0.4,2.1-0.2,2.1,1.6c-0.1,3.3-3,6.4-6.6,6.9c-2.5,0.3-5,0.4-7.7,0.6c-0.5,2.2-1,4.5-1.5,6.7
					C36.8,73.2,35.4,80.3,33.9,87.4C33.8,88.1,33.5,88.8,33.3,89.6c-1,2.9-2.3,3.801-4.8,3.601c-2.3-0.2-3.2-1.7-2.6-4.4
					c1.9-9,3.8-18,5.7-26.899C31.8,61.2,31.9,60.6,32,59.9z"/>
				<g id="XMLID_72_">
					
						<linearGradient id="XMLID_3_" gradientUnits="userSpaceOnUse" x1="510.6338" y1="-182.418" x2="352.4554" y2="-182.418" gradientTransform="matrix(1 0 0 -1 -325.1348 -115.8652)">
						<stop  offset="0" style="stop-color:#31BBAF"/>
						<stop  offset="1" style="stop-color:#42235F"/>
					</linearGradient>
					<path id="XMLID_359_" fill="url(#XMLID_3_)" d="M177.9,50.6c-1-0.1-2.101,0.2-3,3.3c-1,2.2-2.5,4.1-4.601,5.4
						c-3.1,1.8-6.399,1.4-7.7-1.1c0.101-0.1,0.2-0.2,0.301-0.3c5.6-2.4,8.699-7,10.399-12.4c1.5-4.7-0.8-7-5.5-5.7
						c-2.6,0.7-4.899,2-6.899,4c-4.2,4.2-6.5,9.2-6.601,14.6c-0.1,1.6-0.5,2.9-1.7,4c-1.399,1.399-3,1.1-3.3-0.601
						c-0.1-0.6-0.2-1.3-0.1-1.9c0.7-3.9,1.5-7.8,2.399-11.7c0.9-3.7,0.601-4.2-3-4.1c-0.1,0-0.199,0-0.399,0
						c-2.601,0.2-3.5,0.8-4.101,3.4c-0.899,3.9-1.699,7.7-2.3,11.6c-0.5,2.7-3.3,6.5-5.6,7c0.7-2,1.5-4.1,2.1-6.2
						c0.9-3.7,1.101-7.3-0.6-10.3c-1.8-3.4-5.5-3.6-9-0.7c-0.601,0.5-1.2,1.1-1.9,1.7c-1.3-2-4.2-2.4-6.5-0.8
						c-0.5,0.4-1,1.2-1.2,1.8c-0.6,2.5-1,4.9-1.5,7.4c-0.699,2.9-1.3,5.8-2.3,8.6c-1.1,1.5-2.8,2.9-4,3.2c0.7-2,1.5-4.1,2.101-6.2
						c0.899-3.699,1.1-7.3-0.601-10.3c-1.8-3.4-5.5-3.6-9-0.7c-0.6,0.5-1.2,1.1-1.9,1.7c-1.3-2-4.2-2.4-6.5-0.8
						c-0.5,0.4-1,1.2-1.2,1.8c-0.6,2.5-1,4.9-1.5,7.4c-0.7,2.899-1.3,5.8-2.3,8.6c-0.5,1.5-1.6,3.3-3.6,3.3
						c-1.3,0-2-1.899-1.5-4.199c0.9-4.2,1.9-8.4,2.8-12.7c0.1-0.5,0.1-1.5-0.1-1.6c-1.8-0.2-3.7-0.6-5.6-0.3c-1.6,0.2-2,1.9-2.3,3.3
						c-0.7,2.8-1.1,5.7-1.8,8.5C77.7,70.9,77.1,73.2,76.2,75.4C75.9,76.1,74.6,77.1,74,77.1s-1.1-1.1-1.5-1.8
						c-0.2-0.3-0.1-0.8,0-1.2c0.7-3.699,1.4-7.399,2.3-11c0.9-3.8,0.8-4.1-2.9-4.1c-0.2,0-0.5,0-0.7,0c-2.2,0.2-3,0.8-3.6,3
						c-0.7,2.5-1.2,4.9-1.8,7.4c-0.7,3-0.4,6.199-2.3,9.1c-0.7,1.1-1.4,2.6-2.7,2.2c-0.6-0.2-0.7-1.9-0.5-2.9
						c0.5-2.6,1.4-5.2,1.9-7.8c0.6-2.8-0.1-4.3-2.6-5c-1.7-0.5-3.6-0.7-5.4-0.9c-1.4-0.1-1.8-0.6-1.6-2.199c0.1-1-0.4-2.601-1.2-2.9
						c-0.9-0.3-2.6,0.1-3.6,0.8c-2.2,1.5-2.7,5-1.2,6.601c0.8,0.8,0.9,1.6,0.6,2.8c-0.8,3.1-3.5,14.6-4.3,17.7
						C42.6,88,42.6,89.1,43.7,89.1c0.8,0,1.8-0.8,2.5-1.5c0.4-0.399,0.5-1.3,0.7-1.899c0.7-2.7,3.3-14,4-16.7
						c3.5,0.6,3.7,1.1,2.9,4.6c-0.6,2.601-1.1,5.2-1.5,7.801c-0.4,2.5-0.2,4.899,2.1,6c2.2,1.199,4.7,0.5,7-1
						c1.4-0.9,2.5-2.2,3.9-3.5c2.2,3.699,7.9,3.5,13-2.101c3,3.4,6.8,2.2,11.2-0.6c-0.5,2.7-1,5-1.5,7.3c-0.7,3.1,0.7,5.6,3.5,6.1
						c1.6,0.301,2.7-0.399,3.1-2.1c0.4-1.8,0.7-3.6,1.1-5.4C96.1,83.7,96.6,81.2,97,78.7c3.2,0.7,6.3,0.5,9.2-0.4l0,0
						c1.6-0.399,6.2-2.3,8-3.5c-0.5,2.7-1,5.601-1.5,8c-0.7,3.101,0.7,5.601,3.5,6.101c1.6,0.3,2.7-0.4,3.1-2.101
						c0.4-1.8,0.7-3.6,1.101-5.399c0.399-2.4,0.899-4.9,1.3-7.4c7.3,1.6,13.6-1.3,19.7-6.7c1.199,2.9,3.6,3.8,6.899,3
						c3.2-0.8,5.5-3.1,7.4-5.899c0.2,0.1,0.3,0.199,0.399,0.199c3.5,3.4,8,3.4,12.801,1c5.3-2.6,8.399-7.1,9.899-12.6
						C178.8,52.3,179,50.6,177.9,50.6z M103.7,69.9c-0.7,0.899-2.1,1.899-2.8,1.8c-0.7-0.101-1.4-1.4-1.5-2.4
						c-0.2-3.2,0.9-6.3,3.1-9c0.6-0.8,1.9-1.5,2.5-1.5c1.9,0,1.5,2.8,1.5,3.101C106.4,64.7,105.6,67.5,103.7,69.9z M131.4,57.1
						c-0.2,2.8-0.9,5.6-2.801,8c-0.699,0.9-2.1,1.9-2.8,1.801c-0.7-0.101-1.399-1.4-1.5-2.4c-0.2-3.2,0.9-6.3,3.101-9
						c0.6-0.8,1.899-1.5,2.5-1.5C131.8,54,131.4,56.8,131.4,57.1z M165.6,47.1c0.601-0.5,1.601-1.2,2.2-0.8
						c0.601,0.3,0.2,1.6-0.1,2.3c-1.2,2.5-3.101,4.3-5.9,5.9C162.4,51.4,163.4,49,165.6,47.1z"/>
					
						<linearGradient id="XMLID_4_" gradientUnits="userSpaceOnUse" x1="510.6328" y1="-152.084" x2="352.456" y2="-152.084" gradientTransform="matrix(1 0 0 -1 -325.1348 -115.8652)">
						<stop  offset="0" style="stop-color:#31BBAF"/>
						<stop  offset="1" style="stop-color:#42235F"/>
					</linearGradient>
					<path id="XMLID_144_" fill="url(#XMLID_4_)" d="M155.1,34.1c0.101,2.7-1.1,4.8-3.1,6.4c-2.6,2.2-5.6,1.3-5.8-1.8
						c-0.2-2.4,0.8-4.6,2.7-6.4c1.3-1.3,2.8-1.9,4.3-1.4S155.2,32.6,155.1,34.1z"/>
				</g>
			</g>
		</g>
		
			<linearGradient id="XMLID_5_" gradientUnits="userSpaceOnUse" x1="512.9775" y1="-139.9077" x2="350.5548" y2="-139.9077" gradientTransform="matrix(1 0 0 -1 -325.1348 -115.8652)">
			<stop  offset="0" style="stop-color:#31BBAF"/>
			<stop  offset="1" style="stop-color:#42235F"/>
		</linearGradient>
		<path id="XMLID_5341_" opacity="0.75" fill="url(#XMLID_5_)" enable-background="new    " d="M203,10.7c-0.3-0.1-0.7,0-0.9,0.2
			L178.5,36c-0.3,0.3-0.3,0.7-0.1,1c0.199,0.3,0.6,0.5,0.899,0.4l14.7-3C194,34.4,203.3,10.8,203,10.7z"/>
		
			<linearGradient id="XMLID_6_" gradientUnits="userSpaceOnUse" x1="512.9775" y1="-144.4824" x2="350.5548" y2="-144.4824" gradientTransform="matrix(1 0 0 -1 -325.1348 -115.8652)">
			<stop  offset="0" style="stop-color:#31BBAF"/>
			<stop  offset="1" style="stop-color:#42235F"/>
		</linearGradient>
		<path id="XMLID_5340_" opacity="0.25" fill="url(#XMLID_6_)" enable-background="new    " d="M203,10.6c0.3,0.1,0.5,0.4,0.5,0.8
			l1.1,34.4c0,0.4-0.199,0.7-0.6,0.8s-0.7,0-1-0.3l-9.1-12C194.1,34.3,202.7,10.4,203,10.6z"/>
		<g id="XMLID_228_">
			
				<linearGradient id="XMLID_7_" gradientUnits="userSpaceOnUse" x1="527.4668" y1="-139.5591" x2="482.1458" y2="-213.8723" gradientTransform="matrix(1 0 0 -1 -325.1348 -115.8652)">
				<stop  offset="0" style="stop-color:#31BBAF"/>
				<stop  offset="1" style="stop-color:#42235F"/>
			</linearGradient>
			<circle id="XMLID_1313_" fill="url(#XMLID_7_)" cx="191.9" cy="40.8" r="1.8"/>
			
				<linearGradient id="XMLID_9_" gradientUnits="userSpaceOnUse" x1="528.127" y1="-139.9468" x2="482.7813" y2="-214.3002" gradientTransform="matrix(1 0 0 -1 -325.1348 -115.8652)">
				<stop  offset="0" style="stop-color:#31BBAF"/>
				<stop  offset="1" style="stop-color:#42235F"/>
			</linearGradient>
			<circle id="XMLID_1312_" fill="url(#XMLID_9_)" cx="188.1" cy="48.5" r="1.8"/>
			
				<linearGradient id="XMLID_17_" gradientUnits="userSpaceOnUse" x1="528.585" y1="-140.2368" x2="483.2516" y2="-214.5702" gradientTransform="matrix(1 0 0 -1 -325.1348 -115.8652)">
				<stop  offset="0" style="stop-color:#31BBAF"/>
				<stop  offset="1" style="stop-color:#42235F"/>
			</linearGradient>
			<circle id="XMLID_1311_" fill="url(#XMLID_17_)" cx="184.1" cy="56.1" r="1.8"/>
			
				<linearGradient id="XMLID_18_" gradientUnits="userSpaceOnUse" x1="528.5732" y1="-140.2422" x2="483.2522" y2="-214.5553" gradientTransform="matrix(1 0 0 -1 -325.1348 -115.8652)">
				<stop  offset="0" style="stop-color:#31BBAF"/>
				<stop  offset="1" style="stop-color:#42235F"/>
			</linearGradient>
			<circle id="XMLID_1310_" fill="url(#XMLID_18_)" cx="179.7" cy="63.3" r="1.8"/>
			
				<linearGradient id="XMLID_19_" gradientUnits="userSpaceOnUse" x1="528.0664" y1="-139.9023" x2="482.7208" y2="-214.2558" gradientTransform="matrix(1 0 0 -1 -325.1348 -115.8652)">
				<stop  offset="0" style="stop-color:#31BBAF"/>
				<stop  offset="1" style="stop-color:#42235F"/>
			</linearGradient>
			<circle id="XMLID_1309_" fill="url(#XMLID_19_)" cx="174.9" cy="70" r="1.8"/>
			
				<linearGradient id="XMLID_26_" gradientUnits="userSpaceOnUse" x1="526.8721" y1="-139.1699" x2="481.5264" y2="-213.5234" gradientTransform="matrix(1 0 0 -1 -325.1348 -115.8652)">
				<stop  offset="0" style="stop-color:#31BBAF"/>
				<stop  offset="1" style="stop-color:#42235F"/>
			</linearGradient>
			<circle id="XMLID_1308_" fill="url(#XMLID_26_)" cx="169.6" cy="76" r="1.8"/>
			
				<linearGradient id="XMLID_28_" gradientUnits="userSpaceOnUse" x1="524.7959" y1="-137.8999" x2="479.4503" y2="-212.2534" gradientTransform="matrix(1 0 0 -1 -325.1348 -115.8652)">
				<stop  offset="0" style="stop-color:#31BBAF"/>
				<stop  offset="1" style="stop-color:#42235F"/>
			</linearGradient>
			<circle id="XMLID_1307_" fill="url(#XMLID_28_)" cx="163.7" cy="81" r="1.8"/>
			
				<linearGradient id="XMLID_31_" gradientUnits="userSpaceOnUse" x1="521.6191" y1="-135.9863" x2="476.2857" y2="-210.3196" gradientTransform="matrix(1 0 0 -1 -325.1348 -115.8652)">
				<stop  offset="0" style="stop-color:#31BBAF"/>
				<stop  offset="1" style="stop-color:#42235F"/>
			</linearGradient>
			<circle id="XMLID_1306_" fill="url(#XMLID_31_)" cx="157.1" cy="84.7" r="1.8"/>
			
				<linearGradient id="XMLID_32_" gradientUnits="userSpaceOnUse" x1="517.2559" y1="-133.2979" x2="471.9102" y2="-207.6513" gradientTransform="matrix(1 0 0 -1 -325.1348 -115.8652)">
				<stop  offset="0" style="stop-color:#31BBAF"/>
				<stop  offset="1" style="stop-color:#42235F"/>
			</linearGradient>
			<circle id="XMLID_1305_" fill="url(#XMLID_32_)" cx="150" cy="86.5" r="1.8"/>
			
				<linearGradient id="XMLID_33_" gradientUnits="userSpaceOnUse" x1="511.5439" y1="-129.8687" x2="466.2228" y2="-204.1818" gradientTransform="matrix(1 0 0 -1 -325.1348 -115.8652)">
				<stop  offset="0" style="stop-color:#31BBAF"/>
				<stop  offset="1" style="stop-color:#42235F"/>
			</linearGradient>
			<circle id="XMLID_1304_" fill="url(#XMLID_33_)" cx="142.5" cy="86" r="1.8"/>
			
				<linearGradient id="XMLID_34_" gradientUnits="userSpaceOnUse" x1="505.127" y1="-125.9565" x2="459.8059" y2="-200.2697" gradientTransform="matrix(1 0 0 -1 -325.1348 -115.8652)">
				<stop  offset="0" style="stop-color:#31BBAF"/>
				<stop  offset="1" style="stop-color:#42235F"/>
			</linearGradient>
			<circle id="XMLID_392_" fill="url(#XMLID_34_)" cx="135.1" cy="83.7" r="1.8"/>
			
				<linearGradient id="XMLID_36_" gradientUnits="userSpaceOnUse" x1="498.2012" y1="-121.7051" x2="452.8678" y2="-196.0384" gradientTransform="matrix(1 0 0 -1 -325.1348 -115.8652)">
				<stop  offset="0" style="stop-color:#31BBAF"/>
				<stop  offset="1" style="stop-color:#42235F"/>
			</linearGradient>
			<circle id="XMLID_391_" fill="url(#XMLID_36_)" cx="127.9" cy="79.9" r="1.8"/>
			
				<linearGradient id="XMLID_38_" gradientUnits="userSpaceOnUse" x1="471.0508" y1="-105.147" x2="425.7174" y2="-179.4804" gradientTransform="matrix(1 0 0 -1 -325.1348 -115.8652)">
				<stop  offset="0" style="stop-color:#31BBAF"/>
				<stop  offset="1" style="stop-color:#42235F"/>
			</linearGradient>
			<circle id="XMLID_389_" fill="url(#XMLID_38_)" cx="102.3" cy="60.8" r="1.8"/>
			
				<linearGradient id="XMLID_41_" gradientUnits="userSpaceOnUse" x1="465.1934" y1="-101.5742" x2="419.86" y2="-175.9076" gradientTransform="matrix(1 0 0 -1 -325.1348 -115.8652)">
				<stop  offset="0" style="stop-color:#31BBAF"/>
				<stop  offset="1" style="stop-color:#42235F"/>
			</linearGradient>
			<circle id="XMLID_388_" fill="url(#XMLID_41_)" cx="97.8" cy="55" r="1.8"/>
			
				<linearGradient id="XMLID_42_" gradientUnits="userSpaceOnUse" x1="459.2939" y1="-97.9761" x2="413.9606" y2="-172.3095" gradientTransform="matrix(1 0 0 -1 -325.1348 -115.8652)">
				<stop  offset="0" style="stop-color:#31BBAF"/>
				<stop  offset="1" style="stop-color:#42235F"/>
			</linearGradient>
			<circle id="XMLID_369_" fill="url(#XMLID_42_)" cx="93" cy="49.6" r="1.8"/>
			
				<linearGradient id="XMLID_43_" gradientUnits="userSpaceOnUse" x1="453.2188" y1="-94.248" x2="407.8732" y2="-168.6016" gradientTransform="matrix(1 0 0 -1 -325.1348 -115.8652)">
				<stop  offset="0" style="stop-color:#31BBAF"/>
				<stop  offset="1" style="stop-color:#42235F"/>
			</linearGradient>
			<circle id="XMLID_368_" fill="url(#XMLID_43_)" cx="87.7" cy="44.6" r="1.8"/>
			
				<linearGradient id="XMLID_50_" gradientUnits="userSpaceOnUse" x1="446.749" y1="-90.3262" x2="401.4157" y2="-164.6595" gradientTransform="matrix(1 0 0 -1 -325.1348 -115.8652)">
				<stop  offset="0" style="stop-color:#31BBAF"/>
				<stop  offset="1" style="stop-color:#42235F"/>
			</linearGradient>
			<circle id="XMLID_358_" fill="url(#XMLID_50_)" cx="81.4" cy="40.4" r="1.8"/>
			
				<linearGradient id="XMLID_51_" gradientUnits="userSpaceOnUse" x1="440.6094" y1="-86.5796" x2="395.2761" y2="-160.913" gradientTransform="matrix(1 0 0 -1 -325.1348 -115.8652)">
				<stop  offset="0" style="stop-color:#31BBAF"/>
				<stop  offset="1" style="stop-color:#42235F"/>
			</linearGradient>
			<circle id="XMLID_357_" fill="url(#XMLID_51_)" cx="74.5" cy="37.9" r="1.8"/>
			
				<linearGradient id="XMLID_52_" gradientUnits="userSpaceOnUse" x1="435.8779" y1="-83.6963" x2="390.5446" y2="-158.0296" gradientTransform="matrix(1 0 0 -1 -325.1348 -115.8652)">
				<stop  offset="0" style="stop-color:#31BBAF"/>
				<stop  offset="1" style="stop-color:#42235F"/>
			</linearGradient>
			<circle id="XMLID_356_" fill="url(#XMLID_52_)" cx="67.4" cy="38.9" r="1.8"/>
			
				<linearGradient id="XMLID_53_" gradientUnits="userSpaceOnUse" x1="434.1641" y1="-82.6509" x2="388.8307" y2="-156.9842" gradientTransform="matrix(1 0 0 -1 -325.1348 -115.8652)">
				<stop  offset="0" style="stop-color:#31BBAF"/>
				<stop  offset="1" style="stop-color:#42235F"/>
			</linearGradient>
			<circle id="XMLID_265_" fill="url(#XMLID_53_)" cx="62" cy="43.9" r="1.8"/>
			
				<linearGradient id="XMLID_56_" gradientUnits="userSpaceOnUse" x1="434.2383" y1="-82.6626" x2="388.8927" y2="-157.0161" gradientTransform="matrix(1 0 0 -1 -325.1348 -115.8652)">
				<stop  offset="0" style="stop-color:#31BBAF"/>
				<stop  offset="1" style="stop-color:#42235F"/>
			</linearGradient>
			<circle id="XMLID_230_" fill="url(#XMLID_56_)" cx="58.3" cy="50.1" r="1.8"/>
			
				<linearGradient id="XMLID_57_" gradientUnits="userSpaceOnUse" x1="435.6016" y1="-83.5928" x2="390.2928" y2="-157.8858" gradientTransform="matrix(1 0 0 -1 -325.1348 -115.8652)">
				<stop  offset="0" style="stop-color:#31BBAF"/>
				<stop  offset="1" style="stop-color:#42235F"/>
			</linearGradient>
			<circle id="XMLID_229_" fill="url(#XMLID_57_)" cx="55.9" cy="57.2" r="1.8"/>
		</g>
	</g>
</g>
</svg>
