<?xml version="1.0" encoding="utf-8"?>
<!-- Generator: Adobe Illustrator 16.0.0, SVG Export Plug-In . SVG Version: 6.00 Build 0)  -->
<!DOCTYPE svg PUBLIC "-//W3C//DTD SVG 1.1//EN" "http://www.w3.org/Graphics/SVG/1.1/DTD/svg11.dtd">
<svg version="1.1" id="Layer_1" xmlns="http://www.w3.org/2000/svg" xmlns:xlink="http://www.w3.org/1999/xlink" x="0px" y="0px"
	 width="220px" height="120px" viewBox="-240.7 -0.1 220 120" enable-background="new -240.7 -0.1 220 120" xml:space="preserve">
<rect id="XMLID_407_" x="-240.7" y="-0.1" fill="#FFFFFF" width="219" height="120.8"/>
<g id="XMLID_5207_">
	<g id="XMLID_5236_">
		<g id="XMLID_10_">
			
				<linearGradient id="XMLID_2_" gradientUnits="userSpaceOnUse" x1="286.7441" y1="-187.5415" x2="103.057" y2="-187.5415" gradientTransform="matrix(1 0 0 -1 -325.1348 -115.8652)">
				<stop  offset="0" style="stop-color:#EF555D"/>
				<stop  offset="1" style="stop-color:#7A1B53"/>
			</linearGradient>
			<path id="XMLID_115_" fill="url(#XMLID_2_)" d="M-209.2,59.9c-5.2-0.2-8,2.5-8.4,7.6c-0.1,1.3-0.1,2.6-0.3,4
				c-0.3,1.8-1.6,2.7-3.2,2.3c-1.6-0.399-2.5-1.5-2.6-3.2c-0.4-7.6,4.1-13.7,12-15.899c3.8-1.1,7.7-1.5,11.6-2.2
				c3.6-0.7,7.3-1.4,10.9-2.2c1.7-0.4,2.1-0.2,2.1,1.6c-0.1,3.3-3,6.4-6.6,6.9c-2.5,0.3-5,0.4-7.7,0.6c-0.5,2.2-1,4.5-1.5,6.7
				c-1.5,7.101-2.9,14.2-4.4,21.301c-0.1,0.699-0.4,1.399-0.6,2.199c-1,2.9-2.3,3.801-4.8,3.601c-2.3-0.2-3.2-1.7-2.6-4.4
				c1.9-9,3.8-18,5.7-26.899C-209.4,61.2-209.3,60.6-209.2,59.9z"/>
			<g id="XMLID_20_">
				
					<linearGradient id="XMLID_3_" gradientUnits="userSpaceOnUse" x1="286.7412" y1="-182.4185" x2="103.0564" y2="-182.4185" gradientTransform="matrix(1 0 0 -1 -325.1348 -115.8652)">
					<stop  offset="0" style="stop-color:#EF555D"/>
					<stop  offset="1" style="stop-color:#7A1B53"/>
				</linearGradient>
				<path id="XMLID_55_" fill="url(#XMLID_3_)" d="M-63.3,50.6c-1-0.1-2.1,0.2-3,3.3c-1,2.2-2.5,4.1-4.6,5.4
					c-3.1,1.8-6.4,1.4-7.7-1.1c0.1-0.1,0.2-0.2,0.3-0.3c5.6-2.4,8.7-7,10.4-12.4c1.5-4.7-0.8-7-5.5-5.7c-2.6,0.7-4.9,2-6.9,4
					C-84.8,48-87,53-87.2,58.4c-0.1,1.6-0.5,2.9-1.7,4c-1.4,1.399-3,1.1-3.3-0.601c-0.1-0.6-0.2-1.3-0.1-1.9
					c0.7-3.9,1.5-7.8,2.4-11.7c0.9-3.7,0.6-4.2-3-4.1c-0.1,0-0.2,0-0.4,0c-2.6,0.2-3.5,0.8-4.1,3.4c-0.9,3.9-1.7,7.7-2.3,11.6
					c-0.5,2.7-3.3,6.5-5.6,7c0.7-2,1.5-4.1,2.1-6.2c0.9-3.7,1.1-7.3-0.6-10.3c-1.8-3.4-5.5-3.6-9-0.7c-0.6,0.5-1.2,1.1-1.9,1.7
					c-1.3-2-4.2-2.4-6.5-0.8c-0.5,0.4-1,1.2-1.2,1.8c-0.6,2.5-1,4.9-1.5,7.4c-0.7,2.9-1.3,5.8-2.3,8.6c-1.1,1.5-2.8,2.9-4,3.2
					c0.7-2,1.5-4.1,2.1-6.2c0.9-3.699,1.1-7.3-0.6-10.3c-1.8-3.4-5.5-3.6-9-0.7c-0.6,0.5-1.2,1.1-1.9,1.7c-1.3-2-4.2-2.4-6.5-0.8
					c-0.5,0.4-1,1.2-1.2,1.8c-0.6,2.5-1,4.9-1.5,7.4c-0.7,2.899-1.3,5.8-2.3,8.6c-0.5,1.5-1.6,3.3-3.6,3.3c-1.3,0-2-1.899-1.5-4.199
					c0.9-4.2,1.9-8.4,2.8-12.7c0.1-0.5,0.1-1.5-0.1-1.6c-1.8-0.2-3.7-0.6-5.6-0.3c-1.6,0.2-2,1.9-2.3,3.3c-0.7,2.8-1.1,5.7-1.8,8.5
					c-0.6,2.301-1.2,4.601-2.1,6.801c-0.3,0.699-1.6,1.699-2.2,1.699s-1.1-1.1-1.5-1.8c-0.2-0.3-0.1-0.8,0-1.2
					c0.7-3.699,1.4-7.399,2.3-11c0.9-3.8,0.8-4.1-2.9-4.1c-0.2,0-0.5,0-0.7,0c-2.2,0.2-3,0.8-3.6,3c-0.7,2.5-1.2,4.9-1.8,7.4
					c-0.7,3-0.4,6.199-2.3,9.1c-0.7,1.1-1.4,2.6-2.7,2.2c-0.6-0.2-0.7-1.9-0.5-2.9c0.5-2.6,1.4-5.2,1.9-7.8c0.6-2.8-0.1-4.3-2.6-5
					c-1.7-0.5-3.6-0.7-5.4-0.9c-1.4-0.1-1.8-0.6-1.6-2.199c0.1-1-0.4-2.601-1.2-2.9c-0.9-0.3-2.6,0.1-3.6,0.8
					c-2.2,1.5-2.7,5-1.2,6.601c0.8,0.8,0.9,1.6,0.6,2.8c-0.8,3.1-3.5,14.6-4.3,17.7c-0.3,1.1-0.3,2.199,0.8,2.199
					c0.8,0,1.8-0.8,2.5-1.5c0.4-0.399,0.5-1.3,0.7-1.899c0.7-2.7,3.3-14,4-16.7c3.5,0.6,3.7,1.1,2.9,4.6
					c-0.6,2.601-1.1,5.2-1.5,7.801c-0.4,2.5-0.2,4.899,2.1,6c2.2,1.199,4.7,0.5,7-1c1.4-0.9,2.5-2.2,3.9-3.5
					c2.2,3.699,7.9,3.5,13-2.101c3,3.4,6.8,2.2,11.2-0.6c-0.5,2.7-1,5-1.5,7.3c-0.7,3.1,0.7,5.6,3.5,6.1
					c1.6,0.301,2.7-0.399,3.1-2.1c0.4-1.8,0.7-3.6,1.1-5.4c0.4-2.399,0.9-4.899,1.3-7.399c3.2,0.7,6.3,0.5,9.2-0.4l0,0
					c1.6-0.399,6.2-2.3,8-3.5c-0.5,2.7-1,5.601-1.5,8c-0.7,3.101,0.7,5.601,3.5,6.101c1.6,0.3,2.7-0.4,3.1-2.101
					c0.4-1.8,0.7-3.6,1.1-5.399c0.4-2.4,0.9-4.9,1.3-7.4c7.3,1.6,13.6-1.3,19.7-6.7c1.2,2.9,3.6,3.8,6.9,3
					c3.2-0.8,5.5-3.1,7.4-5.899c0.2,0.1,0.3,0.199,0.4,0.199c3.5,3.4,8,3.4,12.8,1c5.3-2.6,8.4-7.1,9.9-12.6
					C-62.4,52.3-62.2,50.7-63.3,50.6z M-137.5,69.9c-0.7,0.899-2.1,1.899-2.8,1.8c-0.7-0.101-1.4-1.4-1.5-2.4
					c-0.2-3.2,0.9-6.3,3.1-9c0.6-0.8,1.9-1.5,2.5-1.5c1.9,0,1.5,2.8,1.5,3.101C-134.8,64.7-135.6,67.5-137.5,69.9z M-109.8,57.1
					c-0.2,2.8-0.9,5.6-2.8,8c-0.7,0.9-2.1,1.9-2.8,1.801c-0.7-0.101-1.4-1.4-1.5-2.4c-0.2-3.2,0.9-6.3,3.1-9
					c0.6-0.8,1.9-1.5,2.5-1.5C-109.4,54-109.8,56.8-109.8,57.1z M-75.6,47.1c0.6-0.5,1.6-1.2,2.2-0.8c0.6,0.3,0.2,1.6-0.1,2.3
					c-1.2,2.5-3.1,4.3-5.9,5.9C-78.8,51.4-77.8,49-75.6,47.1z"/>
				
					<linearGradient id="XMLID_4_" gradientUnits="userSpaceOnUse" x1="286.7412" y1="-152.0845" x2="103.0563" y2="-152.0845" gradientTransform="matrix(1 0 0 -1 -325.1348 -115.8652)">
					<stop  offset="0" style="stop-color:#EF555D"/>
					<stop  offset="1" style="stop-color:#7A1B53"/>
				</linearGradient>
				<path id="XMLID_30_" fill="url(#XMLID_4_)" d="M-86.1,34.1c0.1,2.7-1.1,4.8-3.1,6.4c-2.6,2.2-5.6,1.3-5.8-1.8
					c-0.2-2.4,0.8-4.6,2.7-6.4c1.3-1.3,2.8-1.9,4.3-1.4S-86,32.6-86.1,34.1z"/>
			</g>
		</g>
	</g>
	
		<linearGradient id="XMLID_5_" gradientUnits="userSpaceOnUse" x1="289.5508" y1="-139.9082" x2="100.9395" y2="-139.9082" gradientTransform="matrix(1 0 0 -1 -325.1348 -115.8652)">
		<stop  offset="0" style="stop-color:#EF555D"/>
		<stop  offset="1" style="stop-color:#7A1B53"/>
	</linearGradient>
	<path id="XMLID_5235_" opacity="0.75" fill="url(#XMLID_5_)" enable-background="new    " d="M-38.2,10.7c-0.3-0.1-0.7,0-0.9,0.2
		L-62.7,36c-0.3,0.3-0.3,0.7-0.1,1c0.2,0.3,0.6,0.5,0.9,0.4l14.7-3C-47.2,34.4-37.9,10.8-38.2,10.7z"/>
	
		<linearGradient id="XMLID_6_" gradientUnits="userSpaceOnUse" x1="289.5518" y1="-144.4829" x2="100.9282" y2="-144.4829" gradientTransform="matrix(1 0 0 -1 -325.1348 -115.8652)">
		<stop  offset="0" style="stop-color:#EF555D"/>
		<stop  offset="1" style="stop-color:#7A1B53"/>
	</linearGradient>
	<path id="XMLID_5234_" opacity="0.25" fill="url(#XMLID_6_)" enable-background="new    " d="M-38.2,10.6c0.3,0.1,0.5,0.4,0.5,0.8
		l1.1,34.4c0,0.4-0.2,0.7-0.6,0.8c-0.4,0.1-0.7,0-1-0.3l-9.1-12C-47.1,34.3-38.5,10.4-38.2,10.6z"/>
	<g id="XMLID_21_">
		
			<linearGradient id="XMLID_7_" gradientUnits="userSpaceOnUse" x1="291.5527" y1="-128.2153" x2="241.5527" y2="-218.7153" gradientTransform="matrix(1 0 0 -1 -325.1348 -115.8652)">
			<stop  offset="0" style="stop-color:#EF555D"/>
			<stop  offset="1" style="stop-color:#7A1B53"/>
		</linearGradient>
		<circle id="XMLID_248_" fill="url(#XMLID_7_)" cx="-49.3" cy="40.8" r="1.8"/>
		
			<linearGradient id="XMLID_9_" gradientUnits="userSpaceOnUse" x1="291.9062" y1="-128.3975" x2="241.8927" y2="-218.922" gradientTransform="matrix(1 0 0 -1 -325.1348 -115.8652)">
			<stop  offset="0" style="stop-color:#EF555D"/>
			<stop  offset="1" style="stop-color:#7A1B53"/>
		</linearGradient>
		<circle id="XMLID_247_" fill="url(#XMLID_9_)" cx="-53.1" cy="48.5" r="1.8"/>
		
			<linearGradient id="XMLID_17_" gradientUnits="userSpaceOnUse" x1="292.0547" y1="-128.4902" x2="242.0547" y2="-218.9902" gradientTransform="matrix(1 0 0 -1 -325.1348 -115.8652)">
			<stop  offset="0" style="stop-color:#EF555D"/>
			<stop  offset="1" style="stop-color:#7A1B53"/>
		</linearGradient>
		<circle id="XMLID_246_" fill="url(#XMLID_17_)" cx="-57.1" cy="56.1" r="1.8"/>
		
			<linearGradient id="XMLID_18_" gradientUnits="userSpaceOnUse" x1="291.7227" y1="-128.3262" x2="241.7362" y2="-218.8016" gradientTransform="matrix(1 0 0 -1 -325.1348 -115.8652)">
			<stop  offset="0" style="stop-color:#EF555D"/>
			<stop  offset="1" style="stop-color:#7A1B53"/>
		</linearGradient>
		<circle id="XMLID_245_" fill="url(#XMLID_18_)" cx="-61.5" cy="63.3" r="1.8"/>
		
			<linearGradient id="XMLID_19_" gradientUnits="userSpaceOnUse" x1="290.8975" y1="-127.832" x2="240.8839" y2="-218.3566" gradientTransform="matrix(1 0 0 -1 -325.1348 -115.8652)">
			<stop  offset="0" style="stop-color:#EF555D"/>
			<stop  offset="1" style="stop-color:#7A1B53"/>
		</linearGradient>
		<circle id="XMLID_174_" fill="url(#XMLID_19_)" cx="-66.3" cy="70" r="1.8"/>
		
			<linearGradient id="XMLID_26_" gradientUnits="userSpaceOnUse" x1="289.3672" y1="-127.0083" x2="239.3672" y2="-217.5083" gradientTransform="matrix(1 0 0 -1 -325.1348 -115.8652)">
			<stop  offset="0" style="stop-color:#EF555D"/>
			<stop  offset="1" style="stop-color:#7A1B53"/>
		</linearGradient>
		<circle id="XMLID_173_" fill="url(#XMLID_26_)" cx="-71.6" cy="76" r="1.8"/>
		
			<linearGradient id="XMLID_28_" gradientUnits="userSpaceOnUse" x1="286.9639" y1="-125.6792" x2="236.9639" y2="-216.1792" gradientTransform="matrix(1 0 0 -1 -325.1348 -115.8652)">
			<stop  offset="0" style="stop-color:#EF555D"/>
			<stop  offset="1" style="stop-color:#7A1B53"/>
		</linearGradient>
		<circle id="XMLID_172_" fill="url(#XMLID_28_)" cx="-77.5" cy="81" r="1.8"/>
		
			<linearGradient id="XMLID_31_" gradientUnits="userSpaceOnUse" x1="283.4736" y1="-123.751" x2="233.4736" y2="-214.251" gradientTransform="matrix(1 0 0 -1 -325.1348 -115.8652)">
			<stop  offset="0" style="stop-color:#EF555D"/>
			<stop  offset="1" style="stop-color:#7A1B53"/>
		</linearGradient>
		<circle id="XMLID_171_" fill="url(#XMLID_31_)" cx="-84.1" cy="84.7" r="1.8"/>
		
			<linearGradient id="XMLID_32_" gradientUnits="userSpaceOnUse" x1="278.8076" y1="-121.145" x2="228.794" y2="-211.6696" gradientTransform="matrix(1 0 0 -1 -325.1348 -115.8652)">
			<stop  offset="0" style="stop-color:#EF555D"/>
			<stop  offset="1" style="stop-color:#7A1B53"/>
		</linearGradient>
		<circle id="XMLID_170_" fill="url(#XMLID_32_)" cx="-91.2" cy="86.5" r="1.8"/>
		
			<linearGradient id="XMLID_33_" gradientUnits="userSpaceOnUse" x1="272.8633" y1="-117.8301" x2="222.8361" y2="-208.3792" gradientTransform="matrix(1 0 0 -1 -325.1348 -115.8652)">
			<stop  offset="0" style="stop-color:#EF555D"/>
			<stop  offset="1" style="stop-color:#7A1B53"/>
		</linearGradient>
		<circle id="XMLID_169_" fill="url(#XMLID_33_)" cx="-98.7" cy="86" r="1.8"/>
		
			<linearGradient id="XMLID_34_" gradientUnits="userSpaceOnUse" x1="266.1699" y1="-114.2515" x2="216.197" y2="-204.7024" gradientTransform="matrix(1 0 0 -1 -325.1348 -115.8652)">
			<stop  offset="0" style="stop-color:#EF555D"/>
			<stop  offset="1" style="stop-color:#7A1B53"/>
		</linearGradient>
		<circle id="XMLID_168_" fill="url(#XMLID_34_)" cx="-106.1" cy="83.7" r="1.8"/>
		
			<linearGradient id="XMLID_36_" gradientUnits="userSpaceOnUse" x1="259.084" y1="-110.2441" x2="209.0704" y2="-200.7687" gradientTransform="matrix(1 0 0 -1 -325.1348 -115.8652)">
			<stop  offset="0" style="stop-color:#EF555D"/>
			<stop  offset="1" style="stop-color:#7A1B53"/>
		</linearGradient>
		<circle id="XMLID_167_" fill="url(#XMLID_36_)" cx="-113.3" cy="79.9" r="1.8"/>
		
			<linearGradient id="XMLID_38_" gradientUnits="userSpaceOnUse" x1="231.373" y1="-94.9648" x2="181.373" y2="-185.4648" gradientTransform="matrix(1 0 0 -1 -325.1348 -115.8652)">
			<stop  offset="0" style="stop-color:#EF555D"/>
			<stop  offset="1" style="stop-color:#7A1B53"/>
		</linearGradient>
		<circle id="XMLID_166_" fill="url(#XMLID_38_)" cx="-138.9" cy="60.8" r="1.8"/>
		
			<linearGradient id="XMLID_41_" gradientUnits="userSpaceOnUse" x1="225.4814" y1="-91.6826" x2="175.4679" y2="-182.2072" gradientTransform="matrix(1 0 0 -1 -325.1348 -115.8652)">
			<stop  offset="0" style="stop-color:#EF555D"/>
			<stop  offset="1" style="stop-color:#7A1B53"/>
		</linearGradient>
		<circle id="XMLID_99_" fill="url(#XMLID_41_)" cx="-143.4" cy="55" r="1.8"/>
		
			<linearGradient id="XMLID_42_" gradientUnits="userSpaceOnUse" x1="219.4424" y1="-88.3472" x2="169.4288" y2="-178.8717" gradientTransform="matrix(1 0 0 -1 -325.1348 -115.8652)">
			<stop  offset="0" style="stop-color:#EF555D"/>
			<stop  offset="1" style="stop-color:#7A1B53"/>
		</linearGradient>
		<circle id="XMLID_98_" fill="url(#XMLID_42_)" cx="-148.3" cy="49.6" r="1.8"/>
		
			<linearGradient id="XMLID_43_" gradientUnits="userSpaceOnUse" x1="213.3184" y1="-85.0176" x2="163.3319" y2="-175.493" gradientTransform="matrix(1 0 0 -1 -325.1348 -115.8652)">
			<stop  offset="0" style="stop-color:#EF555D"/>
			<stop  offset="1" style="stop-color:#7A1B53"/>
		</linearGradient>
		<circle id="XMLID_97_" fill="url(#XMLID_43_)" cx="-153.5" cy="44.6" r="1.8"/>
		
			<linearGradient id="XMLID_50_" gradientUnits="userSpaceOnUse" x1="206.7373" y1="-81.3276" x2="156.7237" y2="-171.8522" gradientTransform="matrix(1 0 0 -1 -325.1348 -115.8652)">
			<stop  offset="0" style="stop-color:#EF555D"/>
			<stop  offset="1" style="stop-color:#7A1B53"/>
		</linearGradient>
		<circle id="XMLID_96_" fill="url(#XMLID_50_)" cx="-159.8" cy="40.4" r="1.8"/>
		
			<linearGradient id="XMLID_51_" gradientUnits="userSpaceOnUse" x1="200.3691" y1="-77.8628" x2="150.3826" y2="-168.3382" gradientTransform="matrix(1 0 0 -1 -325.1348 -115.8652)">
			<stop  offset="0" style="stop-color:#EF555D"/>
			<stop  offset="1" style="stop-color:#7A1B53"/>
		</linearGradient>
		<circle id="XMLID_95_" fill="url(#XMLID_51_)" cx="-166.7" cy="37.9" r="1.8"/>
		
			<linearGradient id="XMLID_52_" gradientUnits="userSpaceOnUse" x1="195.377" y1="-75.0488" x2="145.3634" y2="-165.5734" gradientTransform="matrix(1 0 0 -1 -325.1348 -115.8652)">
			<stop  offset="0" style="stop-color:#EF555D"/>
			<stop  offset="1" style="stop-color:#7A1B53"/>
		</linearGradient>
		<circle id="XMLID_61_" fill="url(#XMLID_52_)" cx="-173.8" cy="38.9" r="1.8"/>
		
			<linearGradient id="XMLID_53_" gradientUnits="userSpaceOnUse" x1="193.3564" y1="-73.9316" x2="143.3429" y2="-164.4562" gradientTransform="matrix(1 0 0 -1 -325.1348 -115.8652)">
			<stop  offset="0" style="stop-color:#EF555D"/>
			<stop  offset="1" style="stop-color:#7A1B53"/>
		</linearGradient>
		<circle id="XMLID_39_" fill="url(#XMLID_53_)" cx="-179.2" cy="43.9" r="1.8"/>
		
			<linearGradient id="XMLID_56_" gradientUnits="userSpaceOnUse" x1="193.1475" y1="-73.8135" x2="143.1339" y2="-164.338" gradientTransform="matrix(1 0 0 -1 -325.1348 -115.8652)">
			<stop  offset="0" style="stop-color:#EF555D"/>
			<stop  offset="1" style="stop-color:#7A1B53"/>
		</linearGradient>
		<circle id="XMLID_37_" fill="url(#XMLID_56_)" cx="-182.9" cy="50.1" r="1.8"/>
		
			<linearGradient id="XMLID_57_" gradientUnits="userSpaceOnUse" x1="194.2998" y1="-74.4844" x2="144.2998" y2="-164.9844" gradientTransform="matrix(1 0 0 -1 -325.1348 -115.8652)">
			<stop  offset="0" style="stop-color:#EF555D"/>
			<stop  offset="1" style="stop-color:#7A1B53"/>
		</linearGradient>
		<circle id="XMLID_23_" fill="url(#XMLID_57_)" cx="-185.3" cy="57.2" r="1.8"/>
	</g>
</g>
</svg>
