<?xml version="1.0" encoding="utf-8"?>
<!-- Generator: Adobe Illustrator 16.0.0, SVG Export Plug-In . SVG Version: 6.00 Build 0)  -->
<!DOCTYPE svg PUBLIC "-//W3C//DTD SVG 1.1//EN" "http://www.w3.org/Graphics/SVG/1.1/DTD/svg11.dtd">
<svg version="1.1" id="Layer_1" xmlns="http://www.w3.org/2000/svg" xmlns:xlink="http://www.w3.org/1999/xlink" x="0px" y="0px"
	 width="220px" height="120px" viewBox="-477 -0.1 220 120" enable-background="new -477 -0.1 220 120" xml:space="preserve">
<rect id="XMLID_409_" x="-477" y="-0.1" fill="#FFFFFF" width="219" height="120.8"/>
<g id="XMLID_182_">
	<g id="XMLID_235_">
		<g id="XMLID_236_">
			
				<linearGradient id="XMLID_2_" gradientUnits="userSpaceOnUse" x1="-127.6597" y1="-187.6924" x2="6.5002" y2="-187.6924" gradientTransform="matrix(1 0 0 -1 -325.1348 -115.8652)">
				<stop  offset="0" style="stop-color:#F05A2A"/>
				<stop  offset="1" style="stop-color:#FAAF41"/>
			</linearGradient>
			<path id="XMLID_244_" fill="url(#XMLID_2_)" d="M-449.2,60.1c-5.2-0.2-8,2.5-8.4,7.6c-0.1,1.3-0.1,2.7-0.3,4
				c-0.3,1.8-1.6,2.7-3.2,2.3s-2.5-1.5-2.6-3.2c-0.4-7.6,4.1-13.8,12.1-16c3.9-1.1,7.8-1.5,11.7-2.2c3.6-0.7,7.3-1.4,10.9-2.2
				c1.8-0.4,2.1-0.2,2.1,1.6c-0.1,3.3-3,6.5-6.6,6.9c-2.5,0.3-5,0.4-7.8,0.6c-0.5,2.2-1,4.5-1.5,6.7c-1.5,7.1-2.9,14.3-4.4,21.399
				c-0.1,0.7-0.4,1.4-0.6,2.2c-1,2.9-2.3,3.8-4.8,3.601c-2.3-0.2-3.2-1.7-2.6-4.4c1.9-9,3.8-18,5.7-27
				C-449.4,61.4-449.3,60.8-449.2,60.1z"/>
			<g id="XMLID_237_">
				
					<linearGradient id="XMLID_3_" gradientUnits="userSpaceOnUse" x1="-127.6597" y1="-182.4917" x2="6.5006" y2="-182.4917" gradientTransform="matrix(1 0 0 -1 -325.1348 -115.8652)">
					<stop  offset="0" style="stop-color:#F05A2A"/>
					<stop  offset="1" style="stop-color:#FAAF41"/>
				</linearGradient>
				<path id="XMLID_239_" fill="url(#XMLID_3_)" d="M-302.9,50.7c-1-0.1-2.1,0.2-3.1,3.4c-1,2.2-2.5,4.2-4.7,5.4
					c-3.1,1.8-6.4,1.4-7.7-1.1c0.1-0.1,0.2-0.2,0.3-0.3c5.6-2.4,8.7-7,10.4-12.4c1.5-4.7-0.9-7-5.5-5.8c-2.6,0.7-4.9,2-7,4
					c-4.2,4.3-6.5,9.2-6.7,14.6c-0.1,1.6-0.5,2.9-1.7,4c-1.4,1.4-3,1.1-3.3-0.6c-0.1-0.601-0.2-1.301-0.1-2
					c0.7-3.9,1.5-7.9,2.4-11.8c0.9-3.7,0.6-4.2-3-4.1c-0.1,0-0.2,0-0.4,0c-2.6,0.2-3.5,0.8-4.1,3.4c-0.9,3.9-1.7,7.7-2.4,11.6
					c-0.5,2.7-3.3,6.5-5.6,7.1c0.7-2.1,1.5-4.1,2.1-6.2c0.9-3.7,1.1-7.3-0.6-10.4c-1.8-3.4-5.5-3.7-9-0.7c-0.6,0.5-1.2,1.2-1.9,1.7
					c-1.3-2-4.2-2.4-6.5-0.8c-0.5,0.4-1,1.2-1.2,1.8c-0.6,2.5-1,5-1.5,7.4c-0.7,2.9-1.3,5.8-2.3,8.7c-1.1,1.5-2.8,2.9-4,3.2
					c0.7-2.1,1.5-4.1,2.1-6.2c0.9-3.699,1.1-7.3-0.6-10.399c-1.8-3.4-5.5-3.7-9-0.7c-0.6,0.5-1.2,1.2-1.9,1.7
					c-1.3-2-4.2-2.4-6.5-0.8c-0.5,0.4-1,1.2-1.2,1.8c-0.6,2.5-1,5-1.5,7.399c-0.7,2.9-1.3,5.801-2.3,8.7c-0.5,1.5-1.6,3.3-3.6,3.3
					c-1.3,0-2-1.899-1.5-4.3c0.9-4.2,1.9-8.5,2.8-12.7c0.1-0.5,0.1-1.5-0.1-1.6c-1.8-0.2-3.7-0.6-5.6-0.3c-1.6,0.2-2,1.9-2.3,3.3
					c-0.7,2.8-1.1,5.7-1.8,8.5c-0.6,2.3-1.2,4.6-2.1,6.8c-0.3,0.7-1.6,1.7-2.2,1.7c-0.6,0-1.1-1.1-1.5-1.8c-0.2-0.3-0.1-0.8,0-1.2
					c0.7-3.7,1.4-7.4,2.3-11.1c0.9-3.8,0.8-4.101-3-4.101c-0.2,0-0.5,0-0.7,0c-2.2,0.2-3,0.8-3.6,3c-0.7,2.5-1.2,5-1.8,7.4
					c-0.7,3.1-0.4,6.2-2.3,9.2c-0.7,1.1-1.4,2.699-2.7,2.199c-0.6-0.199-0.7-1.899-0.5-2.899c0.5-2.601,1.4-5.2,2-7.8
					c0.6-2.9-0.1-4.301-2.6-5c-1.7-0.5-3.6-0.7-5.4-0.9c-1.5-0.1-1.8-0.6-1.6-2.2c0.2-1-0.4-2.6-1.2-2.9c-0.9-0.3-2.6,0.1-3.6,0.8
					c-2.2,1.5-2.7,5-1.2,6.6c0.8,0.8,0.9,1.601,0.6,2.8c-0.8,3.101-3.5,14.7-4.3,17.7c-0.3,1.101-0.3,2.2,0.8,2.2
					c0.8,0,1.8-0.8,2.5-1.5c0.4-0.4,0.5-1.3,0.7-1.9c0.7-2.8,3.4-14,4-16.8c3.5,0.601,3.7,1.101,2.9,4.7c-0.6,2.6-1.1,5.2-1.5,7.8
					c-0.4,2.5-0.2,4.9,2.1,6.101c2.2,1.199,4.7,0.5,7-1.101c1.4-0.899,2.5-2.2,3.9-3.5c2.2,3.7,7.9,3.5,13-2.1
					c3,3.399,6.9,2.2,11.2-0.601c-0.5,2.7-1,5-1.5,7.4c-0.7,3.1,0.7,5.6,3.6,6.1c1.7,0.301,2.7-0.399,3.1-2.1
					c0.4-1.8,0.7-3.6,1.1-5.4c0.4-2.399,0.9-4.899,1.3-7.399c3.2,0.7,6.3,0.5,9.3-0.4l0,0c1.7-0.399,6.2-2.3,8-3.5
					c-0.5,2.7-1,5.601-1.5,8c-0.7,3.101,0.7,5.601,3.6,6.101c1.7,0.3,2.7-0.4,3.1-2.101c0.4-1.8,0.7-3.6,1.1-5.399
					c0.4-2.4,0.9-4.9,1.3-7.4c7.3,1.6,13.7-1.3,19.8-6.7c1.2,2.9,3.6,3.8,6.9,3c3.2-0.8,5.5-3.1,7.4-5.899
					c0.2,0.1,0.3,0.199,0.4,0.199c3.5,3.4,8,3.4,12.9,1c5.3-2.6,8.5-7.1,9.9-12.6C-301.9,52.4-301.7,50.8-302.9,50.7z M-377.2,70.1
					c-0.7,0.9-2.1,1.9-2.8,1.801c-0.7-0.101-1.5-1.4-1.5-2.4c-0.2-3.2,0.9-6.3,3.1-9.1c0.6-0.8,1.9-1.6,2.5-1.5
					c1.9,0,1.5,2.8,1.5,3.1C-374.5,64.9-375.3,67.7-377.2,70.1z M-349.5,57.2c-0.2,2.8-0.9,5.6-2.8,8.1c-0.7,0.9-2.1,1.9-2.8,1.8
					c-0.7-0.1-1.5-1.399-1.5-2.399c-0.2-3.2,0.9-6.3,3.1-9.1c0.6-0.8,1.9-1.6,2.5-1.5C-349.1,54.1-349.5,56.9-349.5,57.2z
					 M-315.2,47.2c0.6-0.5,1.6-1.2,2.2-0.8c0.6,0.3,0.2,1.7-0.1,2.3c-1.2,2.5-3.1,4.3-5.9,5.9C-318.4,51.5-317.4,49.1-315.2,47.2z"
					/>
				
					<linearGradient id="XMLID_4_" gradientUnits="userSpaceOnUse" x1="-127.6597" y1="-152.2852" x2="6.5002" y2="-152.2852" gradientTransform="matrix(1 0 0 -1 -325.1348 -115.8652)">
					<stop  offset="0" style="stop-color:#F05A2A"/>
					<stop  offset="1" style="stop-color:#FAAF41"/>
				</linearGradient>
				<path id="XMLID_238_" fill="url(#XMLID_4_)" d="M-325.7,34.2c0.1,2.7-1.1,4.8-3.1,6.5c-2.6,2.2-5.6,1.3-5.9-1.8
					c-0.2-2.4,0.8-4.6,2.7-6.4c1.3-1.3,2.8-1.9,4.4-1.4C-326.1,31.5-325.6,32.7-325.7,34.2z"/>
			</g>
		</g>
	</g>
	<g id="XMLID_183_">
		<g id="XMLID_232_">
			
				<linearGradient id="XMLID_5_" gradientUnits="userSpaceOnUse" x1="-125.0947" y1="-139.959" x2="42.7987" y2="-139.959" gradientTransform="matrix(1 0 0 -1 -325.1348 -115.8652)">
				<stop  offset="0" style="stop-color:#F05A2A"/>
				<stop  offset="1" style="stop-color:#FAAF41"/>
			</linearGradient>
			<path id="XMLID_234_" opacity="0.75" fill="url(#XMLID_5_)" enable-background="new    " d="M-277.7,10.7c-0.3-0.1-0.7,0-0.9,0.2
				l-23.6,25.2c-0.3,0.3-0.3,0.7-0.1,1c0.2,0.3,0.6,0.5,0.9,0.4l14.8-3C-286.7,34.5-277.3,10.8-277.7,10.7z"/>
			
				<linearGradient id="XMLID_6_" gradientUnits="userSpaceOnUse" x1="-125.0977" y1="-144.5332" x2="42.7991" y2="-144.5332" gradientTransform="matrix(1 0 0 -1 -325.1348 -115.8652)">
				<stop  offset="0" style="stop-color:#F05A2A"/>
				<stop  offset="1" style="stop-color:#FAAF41"/>
			</linearGradient>
			<path id="XMLID_233_" opacity="0.25" fill="url(#XMLID_6_)" enable-background="new    " d="M-277.6,10.6
				c0.3,0.1,0.5,0.4,0.5,0.8l1.1,34.5c0,0.4-0.2,0.7-0.6,0.8c-0.4,0.1-0.8,0-1-0.3l-9.1-12C-286.6,34.4-277.9,10.4-277.6,10.6z"/>
		</g>
		<g id="XMLID_303_">
			
				<linearGradient id="XMLID_7_" gradientUnits="userSpaceOnUse" x1="-53.6982" y1="-156.665" x2="18.6669" y2="-156.665" gradientTransform="matrix(1 0 0 -1 -325.1348 -115.8652)">
				<stop  offset="0" style="stop-color:#F05A2A"/>
				<stop  offset="1" style="stop-color:#FAAF41"/>
			</linearGradient>
			<circle id="XMLID_302_" fill="url(#XMLID_7_)" cx="-288.2" cy="40.8" r="1.8"/>
			
				<linearGradient id="XMLID_9_" gradientUnits="userSpaceOnUse" x1="-53.6982" y1="-164.3652" x2="18.6669" y2="-164.3652" gradientTransform="matrix(1 0 0 -1 -325.1348 -115.8652)">
				<stop  offset="0" style="stop-color:#F05A2A"/>
				<stop  offset="1" style="stop-color:#FAAF41"/>
			</linearGradient>
			<circle id="XMLID_304_" fill="url(#XMLID_9_)" cx="-291.9" cy="48.5" r="1.8"/>
			
				<linearGradient id="XMLID_17_" gradientUnits="userSpaceOnUse" x1="-53.6982" y1="-171.9648" x2="18.6669" y2="-171.9648" gradientTransform="matrix(1 0 0 -1 -325.1348 -115.8652)">
				<stop  offset="0" style="stop-color:#F05A2A"/>
				<stop  offset="1" style="stop-color:#FAAF41"/>
			</linearGradient>
			<circle id="XMLID_305_" fill="url(#XMLID_17_)" cx="-295.9" cy="56.1" r="1.8"/>
			
				<linearGradient id="XMLID_18_" gradientUnits="userSpaceOnUse" x1="-53.6982" y1="-179.165" x2="18.6669" y2="-179.165" gradientTransform="matrix(1 0 0 -1 -325.1348 -115.8652)">
				<stop  offset="0" style="stop-color:#F05A2A"/>
				<stop  offset="1" style="stop-color:#FAAF41"/>
			</linearGradient>
			<circle id="XMLID_306_" fill="url(#XMLID_18_)" cx="-300.3" cy="63.3" r="1.8"/>
			
				<linearGradient id="XMLID_19_" gradientUnits="userSpaceOnUse" x1="-53.6982" y1="-185.8652" x2="18.6669" y2="-185.8652" gradientTransform="matrix(1 0 0 -1 -325.1348 -115.8652)">
				<stop  offset="0" style="stop-color:#F05A2A"/>
				<stop  offset="1" style="stop-color:#FAAF41"/>
			</linearGradient>
			<circle id="XMLID_307_" fill="url(#XMLID_19_)" cx="-305.1" cy="70" r="1.8"/>
			
				<linearGradient id="XMLID_26_" gradientUnits="userSpaceOnUse" x1="-53.6982" y1="-191.8652" x2="18.6669" y2="-191.8652" gradientTransform="matrix(1 0 0 -1 -325.1348 -115.8652)">
				<stop  offset="0" style="stop-color:#F05A2A"/>
				<stop  offset="1" style="stop-color:#FAAF41"/>
			</linearGradient>
			<circle id="XMLID_308_" fill="url(#XMLID_26_)" cx="-310.4" cy="76" r="1.8"/>
			
				<linearGradient id="XMLID_28_" gradientUnits="userSpaceOnUse" x1="-53.6982" y1="-196.8652" x2="18.6669" y2="-196.8652" gradientTransform="matrix(1 0 0 -1 -325.1348 -115.8652)">
				<stop  offset="0" style="stop-color:#F05A2A"/>
				<stop  offset="1" style="stop-color:#FAAF41"/>
			</linearGradient>
			<circle id="XMLID_309_" fill="url(#XMLID_28_)" cx="-316.4" cy="81" r="1.8"/>
			
				<linearGradient id="XMLID_31_" gradientUnits="userSpaceOnUse" x1="-53.6982" y1="-200.5654" x2="18.6669" y2="-200.5654" gradientTransform="matrix(1 0 0 -1 -325.1348 -115.8652)">
				<stop  offset="0" style="stop-color:#F05A2A"/>
				<stop  offset="1" style="stop-color:#FAAF41"/>
			</linearGradient>
			<circle id="XMLID_310_" fill="url(#XMLID_31_)" cx="-322.9" cy="84.7" r="1.8"/>
			
				<linearGradient id="XMLID_32_" gradientUnits="userSpaceOnUse" x1="-53.6982" y1="-202.3652" x2="18.6669" y2="-202.3652" gradientTransform="matrix(1 0 0 -1 -325.1348 -115.8652)">
				<stop  offset="0" style="stop-color:#F05A2A"/>
				<stop  offset="1" style="stop-color:#FAAF41"/>
			</linearGradient>
			<circle id="XMLID_311_" fill="url(#XMLID_32_)" cx="-330" cy="86.5" r="1.8"/>
			
				<linearGradient id="XMLID_33_" gradientUnits="userSpaceOnUse" x1="-53.6982" y1="-201.8652" x2="18.6669" y2="-201.8652" gradientTransform="matrix(1 0 0 -1 -325.1348 -115.8652)">
				<stop  offset="0" style="stop-color:#F05A2A"/>
				<stop  offset="1" style="stop-color:#FAAF41"/>
			</linearGradient>
			<circle id="XMLID_312_" fill="url(#XMLID_33_)" cx="-337.5" cy="86" r="1.8"/>
			
				<linearGradient id="XMLID_34_" gradientUnits="userSpaceOnUse" x1="-53.6982" y1="-199.5654" x2="18.6669" y2="-199.5654" gradientTransform="matrix(1 0 0 -1 -325.1348 -115.8652)">
				<stop  offset="0" style="stop-color:#F05A2A"/>
				<stop  offset="1" style="stop-color:#FAAF41"/>
			</linearGradient>
			<circle id="XMLID_313_" fill="url(#XMLID_34_)" cx="-344.9" cy="83.7" r="1.8"/>
			
				<linearGradient id="XMLID_36_" gradientUnits="userSpaceOnUse" x1="-53.6982" y1="-195.7651" x2="18.6669" y2="-195.7651" gradientTransform="matrix(1 0 0 -1 -325.1348 -115.8652)">
				<stop  offset="0" style="stop-color:#F05A2A"/>
				<stop  offset="1" style="stop-color:#FAAF41"/>
			</linearGradient>
			<circle id="XMLID_314_" fill="url(#XMLID_36_)" cx="-352.2" cy="79.9" r="1.8"/>
			
				<linearGradient id="XMLID_38_" gradientUnits="userSpaceOnUse" x1="-53.6982" y1="-176.665" x2="18.6669" y2="-176.665" gradientTransform="matrix(1 0 0 -1 -325.1348 -115.8652)">
				<stop  offset="0" style="stop-color:#F05A2A"/>
				<stop  offset="1" style="stop-color:#FAAF41"/>
			</linearGradient>
			<circle id="XMLID_315_" fill="url(#XMLID_38_)" cx="-377.7" cy="60.8" r="1.8"/>
			
				<linearGradient id="XMLID_41_" gradientUnits="userSpaceOnUse" x1="-53.6982" y1="-170.8652" x2="18.6669" y2="-170.8652" gradientTransform="matrix(1 0 0 -1 -325.1348 -115.8652)">
				<stop  offset="0" style="stop-color:#F05A2A"/>
				<stop  offset="1" style="stop-color:#FAAF41"/>
			</linearGradient>
			<circle id="XMLID_316_" fill="url(#XMLID_41_)" cx="-382.2" cy="55" r="1.8"/>
			
				<linearGradient id="XMLID_42_" gradientUnits="userSpaceOnUse" x1="-53.6982" y1="-165.4648" x2="18.6669" y2="-165.4648" gradientTransform="matrix(1 0 0 -1 -325.1348 -115.8652)">
				<stop  offset="0" style="stop-color:#F05A2A"/>
				<stop  offset="1" style="stop-color:#FAAF41"/>
			</linearGradient>
			<circle id="XMLID_317_" fill="url(#XMLID_42_)" cx="-387.1" cy="49.6" r="1.8"/>
			
				<linearGradient id="XMLID_43_" gradientUnits="userSpaceOnUse" x1="-53.6982" y1="-160.4648" x2="18.6669" y2="-160.4648" gradientTransform="matrix(1 0 0 -1 -325.1348 -115.8652)">
				<stop  offset="0" style="stop-color:#F05A2A"/>
				<stop  offset="1" style="stop-color:#FAAF41"/>
			</linearGradient>
			<circle id="XMLID_318_" fill="url(#XMLID_43_)" cx="-392.3" cy="44.6" r="1.8"/>
			
				<linearGradient id="XMLID_50_" gradientUnits="userSpaceOnUse" x1="-53.6982" y1="-156.2656" x2="18.6669" y2="-156.2656" gradientTransform="matrix(1 0 0 -1 -325.1348 -115.8652)">
				<stop  offset="0" style="stop-color:#F05A2A"/>
				<stop  offset="1" style="stop-color:#FAAF41"/>
			</linearGradient>
			<circle id="XMLID_319_" fill="url(#XMLID_50_)" cx="-398.6" cy="40.4" r="1.8"/>
			
				<linearGradient id="XMLID_51_" gradientUnits="userSpaceOnUse" x1="-53.6982" y1="-153.7656" x2="18.6669" y2="-153.7656" gradientTransform="matrix(1 0 0 -1 -325.1348 -115.8652)">
				<stop  offset="0" style="stop-color:#F05A2A"/>
				<stop  offset="1" style="stop-color:#FAAF41"/>
			</linearGradient>
			<circle id="XMLID_320_" fill="url(#XMLID_51_)" cx="-405.5" cy="37.9" r="1.8"/>
			
				<linearGradient id="XMLID_52_" gradientUnits="userSpaceOnUse" x1="-53.6982" y1="-154.7656" x2="18.6669" y2="-154.7656" gradientTransform="matrix(1 0 0 -1 -325.1348 -115.8652)">
				<stop  offset="0" style="stop-color:#F05A2A"/>
				<stop  offset="1" style="stop-color:#FAAF41"/>
			</linearGradient>
			<circle id="XMLID_231_" fill="url(#XMLID_52_)" cx="-412.6" cy="38.9" r="1.8"/>
			
				<linearGradient id="XMLID_53_" gradientUnits="userSpaceOnUse" x1="-53.6982" y1="-159.7656" x2="18.6669" y2="-159.7656" gradientTransform="matrix(1 0 0 -1 -325.1348 -115.8652)">
				<stop  offset="0" style="stop-color:#F05A2A"/>
				<stop  offset="1" style="stop-color:#FAAF41"/>
			</linearGradient>
			<circle id="XMLID_322_" fill="url(#XMLID_53_)" cx="-418" cy="43.9" r="1.8"/>
			
				<linearGradient id="XMLID_56_" gradientUnits="userSpaceOnUse" x1="-53.6982" y1="-165.9648" x2="18.6669" y2="-165.9648" gradientTransform="matrix(1 0 0 -1 -325.1348 -115.8652)">
				<stop  offset="0" style="stop-color:#F05A2A"/>
				<stop  offset="1" style="stop-color:#FAAF41"/>
			</linearGradient>
			<circle id="XMLID_323_" fill="url(#XMLID_56_)" cx="-421.7" cy="50.1" r="1.8"/>
			
				<linearGradient id="XMLID_57_" gradientUnits="userSpaceOnUse" x1="-53.6982" y1="-173.0654" x2="18.6669" y2="-173.0654" gradientTransform="matrix(1 0 0 -1 -325.1348 -115.8652)">
				<stop  offset="0" style="stop-color:#F05A2A"/>
				<stop  offset="1" style="stop-color:#FAAF41"/>
			</linearGradient>
			<circle id="XMLID_324_" fill="url(#XMLID_57_)" cx="-424.1" cy="57.2" r="1.8"/>
		</g>
	</g>
</g>
</svg>
