<?xml version="1.0" encoding="utf-8"?>
<!-- Generator: Adobe Illustrator 16.0.0, SVG Export Plug-In . SVG Version: 6.00 Build 0)  -->
<!DOCTYPE svg PUBLIC "-//W3C//DTD SVG 1.1//EN" "http://www.w3.org/Graphics/SVG/1.1/DTD/svg11.dtd">
<svg version="1.1" id="Layer_1" xmlns="http://www.w3.org/2000/svg" xmlns:xlink="http://www.w3.org/1999/xlink" x="0px" y="0px"
	 width="220px" height="120.001px" viewBox="-240.7 164.3 220 120.001" enable-background="new -240.7 164.3 220 120.001"
	 xml:space="preserve">
<linearGradient id="XMLID_2_" gradientUnits="userSpaceOnUse" x1="9883.3633" y1="-4317.8848" x2="10003.3633" y2="-4317.8848" gradientTransform="matrix(4.489700e-11 -1 -1 -4.489700e-11 -4448.585 10167.6641)">
	<stop  offset="0" style="stop-color:#7A1B53"/>
	<stop  offset="1" style="stop-color:#EF555D"/>
</linearGradient>
<rect id="XMLID_5204_" x="-240.7" y="164.3" fill="url(#XMLID_2_)" width="220" height="120"/>
<g id="XMLID_8_">
	<g id="XMLID_69_">
		<g id="XMLID_73_">
			<path id="XMLID_100_" fill="#FFFFFF" d="M-210.4,227.5c-5.2-0.2-8,2.5-8.4,7.6c-0.1,1.301-0.1,2.601-0.3,4
				c-0.3,1.801-1.6,2.7-3.2,2.301c-1.6-0.4-2.5-1.5-2.6-3.2c-0.4-7.601,4.1-13.7,12-15.9c3.9-1.1,7.8-1.5,11.6-2.2
				c3.6-0.699,7.3-1.399,10.9-2.199c1.7-0.4,2.1-0.2,2.1,1.6c-0.1,3.3-3,6.4-6.6,6.9c-2.5,0.3-5,0.399-7.7,0.6
				c-0.5,2.2-1,4.5-1.5,6.7c-1.5,7.1-2.9,14.3-4.4,21.399c-0.1,0.7-0.4,1.4-0.6,2.2c-1,2.9-2.3,3.8-4.8,3.601
				c-2.3-0.2-3.2-1.7-2.6-4.4c1.9-9,3.8-18,5.7-27C-210.6,228.8-210.6,228.2-210.4,227.5z"/>
			<g id="XMLID_74_">
				<path id="XMLID_76_" fill="#FFFFFF" d="M-64.3,218.1c-1-0.1-2.1,0.2-3.1,3.301c-1,2.199-2.5,4.1-4.7,5.399
					c-3.1,1.8-6.4,1.4-7.7-1.1c0.1-0.101,0.2-0.2,0.3-0.3c5.6-2.4,8.7-7,10.4-12.4c1.5-4.7-0.8-7-5.5-5.7c-2.6,0.7-4.9,2-7,4
					c-4.2,4.2-6.5,9.2-6.7,14.601c-0.1,1.6-0.5,2.899-1.7,4c-1.4,1.399-3,1.1-3.3-0.601c-0.1-0.6-0.2-1.3-0.1-1.899
					c0.7-3.9,1.5-7.801,2.4-11.801c0.9-3.699,0.6-4.199-3-4.1c-0.1,0-0.2,0-0.4,0c-2.6,0.2-3.5,0.8-4.1,3.4
					c-0.9,3.899-1.7,7.699-2.3,11.6c-0.5,2.7-3.3,6.5-5.6,7c0.7-2,1.5-4.1,2.1-6.2c0.9-3.7,1.1-7.3-0.6-10.3c-1.8-3.4-5.5-3.6-9-0.7
					c-0.6,0.5-1.2,1.2-1.9,1.7c-1.3-2-4.2-2.4-6.5-0.8c-0.5,0.399-1,1.2-1.2,1.8c-0.6,2.5-1,5-1.5,7.4c-0.7,2.899-1.3,5.8-2.3,8.6
					c-1.1,1.5-2.8,2.9-4,3.2c0.7-2,1.5-4.101,2.1-6.2c0.9-3.7,1.1-7.3-0.6-10.3c-1.8-3.4-5.5-3.601-9-0.7c-0.6,0.5-1.2,1.2-1.9,1.7
					c-1.3-2-4.2-2.4-6.5-0.8c-0.5,0.399-1,1.199-1.2,1.8c-0.6,2.5-1,5-1.5,7.399c-0.7,2.9-1.3,5.801-2.3,8.601
					c-0.5,1.5-1.6,3.3-3.6,3.3c-1.3,0-2-1.9-1.5-4.2c0.9-4.2,1.9-8.5,2.8-12.7c0.1-0.5,0.1-1.5-0.1-1.6c-1.8-0.2-3.7-0.6-5.6-0.3
					c-1.6,0.2-2,1.899-2.3,3.3c-0.7,2.8-1.1,5.7-1.8,8.5c-0.6,2.3-1.2,4.6-2.1,6.8c-0.3,0.7-1.6,1.7-2.2,1.7s-1.1-1.1-1.5-1.8
					c-0.2-0.3-0.1-0.8,0-1.2c0.7-3.7,1.4-7.4,2.3-11c0.9-3.8,0.8-4.1-3-4.1c-0.2,0-0.5,0-0.7,0c-2.2,0.199-3,0.8-3.6,3
					c-0.7,2.5-1.2,4.899-1.8,7.399c-0.7,3.101-0.4,6.2-2.3,9.101c-0.7,1.1-1.4,2.699-2.7,2.199c-0.6-0.199-0.7-1.899-0.5-2.899
					c0.5-2.601,1.4-5.2,1.9-7.8c0.6-2.801-0.1-4.301-2.6-5c-1.7-0.5-3.6-0.7-5.4-0.9c-1.5-0.1-1.8-0.6-1.6-2.2
					c0.1-1-0.4-2.6-1.2-2.899c-0.9-0.301-2.6,0.1-3.6,0.8c-2.2,1.5-2.7,5-1.2,6.6c0.8,0.8,0.9,1.601,0.6,2.8
					c-0.8,3.101-3.5,14.601-4.3,17.7c-0.3,1.101-0.3,2.2,0.8,2.2c0.8,0,1.8-0.8,2.5-1.5c0.4-0.4,0.5-1.3,0.7-1.9
					c0.7-2.8,3.4-14,4-16.8c3.5,0.601,3.7,1.101,2.9,4.7c-0.6,2.6-1.1,5.2-1.5,7.8c-0.4,2.5-0.2,4.9,2.1,6c2.2,1.2,4.7,0.5,7-1
					c1.4-0.899,2.5-2.2,3.9-3.5c2.2,3.7,7.9,3.5,13-2.1c3,3.399,6.9,2.2,11.2-0.601c-0.5,2.7-1,5-1.5,7.301
					c-0.7,3.1,0.7,5.6,3.6,6.1c1.6,0.3,2.7-0.4,3.1-2.1c0.4-1.801,0.7-3.601,1.1-5.4c0.4-2.4,0.9-4.9,1.3-7.4
					c3.2,0.7,6.3,0.5,9.2-0.399l0,0c1.6-0.4,6.2-2.3,8-3.5c-0.5,2.7-1,5.6-1.5,8c-0.7,3.1,0.7,5.6,3.6,6.1
					c1.6,0.3,2.7-0.399,3.1-2.1c0.4-1.8,0.7-3.601,1.1-5.4c0.4-2.399,0.9-4.899,1.3-7.399c7.3,1.6,13.6-1.301,19.7-6.7
					c1.2,2.899,3.6,3.8,6.9,3c3.2-0.8,5.5-3.101,7.4-5.899c0.2,0.1,0.3,0.199,0.4,0.199c3.5,3.4,8,3.4,12.9,1
					c5.3-2.6,8.5-7.1,9.9-12.6C-63.4,219.8-63.2,218.2-64.3,218.1z M-138.6,237.5c-0.7,0.9-2.1,1.9-2.8,1.8
					c-0.7-0.1-1.4-1.399-1.5-2.399c-0.2-3.2,0.9-6.301,3.1-9.101c0.6-0.8,1.9-1.5,2.5-1.5c1.9,0,1.5,2.8,1.5,3.101
					C-135.9,232.3-136.7,235.1-138.6,237.5z M-110.9,224.7c-0.2,2.8-0.9,5.6-2.8,8.1c-0.7,0.9-2.1,1.9-2.8,1.8
					c-0.7-0.1-1.4-1.399-1.5-2.399c-0.2-3.2,0.9-6.3,3.1-9.101c0.6-0.8,1.9-1.5,2.5-1.5C-110.5,221.6-110.9,224.4-110.9,224.7z
					 M-76.6,214.7c0.6-0.5,1.6-1.2,2.2-0.8c0.6,0.3,0.2,1.6-0.1,2.3c-1.2,2.5-3.1,4.3-5.9,5.899C-79.9,219-78.8,216.5-76.6,214.7z"
					/>
				<path id="XMLID_75_" fill="#FFFFFF" d="M-87.1,201.6c0.1,2.7-1.1,4.801-3.1,6.5c-2.6,2.2-5.6,1.301-5.8-1.8
					c-0.2-2.399,0.8-4.6,2.7-6.399c1.3-1.301,2.8-1.9,4.4-1.4C-87.6,198.9-87,200.2-87.1,201.6z"/>
			</g>
		</g>
	</g>
	<g id="XMLID_11_">
		<g id="XMLID_66_">
			<path id="XMLID_68_" opacity="0.75" fill="#FFFFFF" enable-background="new    " d="M-39.2,178.2c-0.3-0.101-0.7,0-0.9,0.2
				l-23.6,25.1c-0.3,0.3-0.3,0.7-0.1,1c0.2,0.3,0.6,0.5,0.9,0.4l14.7-3C-48.2,202-38.8,178.3-39.2,178.2z"/>
			<path id="XMLID_67_" opacity="0.25" fill="#FFFFFF" enable-background="new    " d="M-39.2,178.1c0.3,0.101,0.5,0.4,0.5,0.801
				l1.1,34.399c0,0.4-0.2,0.7-0.6,0.8c-0.4,0.101-0.8,0-1-0.3l-9.1-12C-48.1,201.9-39.5,177.9-39.2,178.1z"/>
		</g>
		<g id="XMLID_12_">
			
				<linearGradient id="XMLID_3_" gradientUnits="userSpaceOnUse" x1="291.041" y1="-295.6807" x2="239.541" y2="-389.6807" gradientTransform="matrix(1 0 0 -1 -325.1348 -115.8652)">
				<stop  offset="0" style="stop-color:#FFFFFF;stop-opacity:0"/>
				<stop  offset="1" style="stop-color:#FFFFFF"/>
			</linearGradient>
			<circle id="XMLID_65_" fill="url(#XMLID_3_)" cx="-49.7" cy="208.3" r="1.8"/>
			
				<linearGradient id="XMLID_4_" gradientUnits="userSpaceOnUse" x1="291.4395" y1="-295.8999" x2="239.9395" y2="-389.8998" gradientTransform="matrix(1 0 0 -1 -325.1348 -115.8652)">
				<stop  offset="0" style="stop-color:#FFFFFF;stop-opacity:0"/>
				<stop  offset="1" style="stop-color:#FFFFFF"/>
			</linearGradient>
			<circle id="XMLID_64_" fill="url(#XMLID_4_)" cx="-53.4" cy="216" r="1.8"/>
			
				<linearGradient id="XMLID_5_" gradientUnits="userSpaceOnUse" x1="291.5156" y1="-295.958" x2="240.0296" y2="-389.9325" gradientTransform="matrix(1 0 0 -1 -325.1348 -115.8652)">
				<stop  offset="0" style="stop-color:#FFFFFF;stop-opacity:0"/>
				<stop  offset="1" style="stop-color:#FFFFFF"/>
			</linearGradient>
			<circle id="XMLID_62_" fill="url(#XMLID_5_)" cx="-57.4" cy="223.5" r="1.8"/>
			
				<linearGradient id="XMLID_6_" gradientUnits="userSpaceOnUse" x1="291.1729" y1="-295.7549" x2="239.6728" y2="-389.7549" gradientTransform="matrix(1 0 0 -1 -325.1348 -115.8652)">
				<stop  offset="0" style="stop-color:#FFFFFF;stop-opacity:0"/>
				<stop  offset="1" style="stop-color:#FFFFFF"/>
			</linearGradient>
			<circle id="XMLID_54_" fill="url(#XMLID_6_)" cx="-61.8" cy="230.7" r="1.8"/>
			
				<linearGradient id="XMLID_7_" gradientUnits="userSpaceOnUse" x1="290.3047" y1="-295.2793" x2="238.8047" y2="-389.2793" gradientTransform="matrix(1 0 0 -1 -325.1348 -115.8652)">
				<stop  offset="0" style="stop-color:#FFFFFF;stop-opacity:0"/>
				<stop  offset="1" style="stop-color:#FFFFFF"/>
			</linearGradient>
			<circle id="XMLID_49_" fill="url(#XMLID_7_)" cx="-66.6" cy="237.4" r="1.8"/>
			
				<linearGradient id="XMLID_9_" gradientUnits="userSpaceOnUse" x1="288.7656" y1="-294.4121" x2="237.2516" y2="-388.4376" gradientTransform="matrix(1 0 0 -1 -325.1348 -115.8652)">
				<stop  offset="0" style="stop-color:#FFFFFF;stop-opacity:0"/>
				<stop  offset="1" style="stop-color:#FFFFFF"/>
			</linearGradient>
			<circle id="XMLID_48_" fill="url(#XMLID_9_)" cx="-71.9" cy="243.4" r="1.8"/>
			
				<linearGradient id="XMLID_17_" gradientUnits="userSpaceOnUse" x1="286.3262" y1="-293.0977" x2="234.8262" y2="-387.0977" gradientTransform="matrix(1 0 0 -1 -325.1348 -115.8652)">
				<stop  offset="0" style="stop-color:#FFFFFF;stop-opacity:0"/>
				<stop  offset="1" style="stop-color:#FFFFFF"/>
			</linearGradient>
			<circle id="XMLID_47_" fill="url(#XMLID_17_)" cx="-77.8" cy="248.4" r="1.8"/>
			
				<linearGradient id="XMLID_18_" gradientUnits="userSpaceOnUse" x1="282.8076" y1="-291.1724" x2="231.3076" y2="-385.1723" gradientTransform="matrix(1 0 0 -1 -325.1348 -115.8652)">
				<stop  offset="0" style="stop-color:#FFFFFF;stop-opacity:0"/>
				<stop  offset="1" style="stop-color:#FFFFFF"/>
			</linearGradient>
			<circle id="XMLID_46_" fill="url(#XMLID_18_)" cx="-84.4" cy="252.1" r="1.8"/>
			
				<linearGradient id="XMLID_19_" gradientUnits="userSpaceOnUse" x1="278.1309" y1="-288.5503" x2="226.6029" y2="-382.6013" gradientTransform="matrix(1 0 0 -1 -325.1348 -115.8652)">
				<stop  offset="0" style="stop-color:#FFFFFF;stop-opacity:0"/>
				<stop  offset="1" style="stop-color:#FFFFFF"/>
			</linearGradient>
			<circle id="XMLID_45_" fill="url(#XMLID_19_)" cx="-91.5" cy="253.9" r="1.8"/>
			
				<linearGradient id="XMLID_26_" gradientUnits="userSpaceOnUse" x1="272.2031" y1="-285.3618" x2="220.7031" y2="-379.3618" gradientTransform="matrix(1 0 0 -1 -325.1348 -115.8652)">
				<stop  offset="0" style="stop-color:#FFFFFF;stop-opacity:0"/>
				<stop  offset="1" style="stop-color:#FFFFFF"/>
			</linearGradient>
			<circle id="XMLID_44_" fill="url(#XMLID_26_)" cx="-98.9" cy="253.4" r="1.8"/>
			
				<linearGradient id="XMLID_28_" gradientUnits="userSpaceOnUse" x1="265.5547" y1="-281.689" x2="214.0407" y2="-375.7144" gradientTransform="matrix(1 0 0 -1 -325.1348 -115.8652)">
				<stop  offset="0" style="stop-color:#FFFFFF;stop-opacity:0"/>
				<stop  offset="1" style="stop-color:#FFFFFF"/>
			</linearGradient>
			<circle id="XMLID_40_" fill="url(#XMLID_28_)" cx="-106.3" cy="251.1" r="1.8"/>
			
				<linearGradient id="XMLID_31_" gradientUnits="userSpaceOnUse" x1="258.3135" y1="-277.7827" x2="206.8274" y2="-371.7572" gradientTransform="matrix(1 0 0 -1 -325.1348 -115.8652)">
				<stop  offset="0" style="stop-color:#FFFFFF;stop-opacity:0"/>
				<stop  offset="1" style="stop-color:#FFFFFF"/>
			</linearGradient>
			<circle id="XMLID_35_" fill="url(#XMLID_31_)" cx="-113.6" cy="247.3" r="1.8"/>
			
				<linearGradient id="XMLID_32_" gradientUnits="userSpaceOnUse" x1="225.8926" y1="-259.9614" x2="174.3786" y2="-353.9869" gradientTransform="matrix(1 0 0 -1 -325.1348 -115.8652)">
				<stop  offset="0" style="stop-color:#FFFFFF;stop-opacity:0"/>
				<stop  offset="1" style="stop-color:#FFFFFF"/>
			</linearGradient>
			<circle id="XMLID_29_" fill="url(#XMLID_32_)" cx="-142.8" cy="223.6" r="1.8"/>
			
				<linearGradient id="XMLID_33_" gradientUnits="userSpaceOnUse" x1="218.8457" y1="-256.1011" x2="167.3317" y2="-350.1266" gradientTransform="matrix(1 0 0 -1 -325.1348 -115.8652)">
				<stop  offset="0" style="stop-color:#FFFFFF;stop-opacity:0"/>
				<stop  offset="1" style="stop-color:#FFFFFF"/>
			</linearGradient>
			<circle id="XMLID_27_" fill="url(#XMLID_33_)" cx="-148.4" cy="217.1" r="1.8"/>
			
				<linearGradient id="XMLID_34_" gradientUnits="userSpaceOnUse" x1="212.7285" y1="-252.7773" x2="161.2285" y2="-346.7773" gradientTransform="matrix(1 0 0 -1 -325.1348 -115.8652)">
				<stop  offset="0" style="stop-color:#FFFFFF;stop-opacity:0"/>
				<stop  offset="1" style="stop-color:#FFFFFF"/>
			</linearGradient>
			<circle id="XMLID_25_" fill="url(#XMLID_34_)" cx="-153.6" cy="212.1" r="1.8"/>
			
				<linearGradient id="XMLID_36_" gradientUnits="userSpaceOnUse" x1="206.0703" y1="-249.1299" x2="154.5703" y2="-343.1299" gradientTransform="matrix(1 0 0 -1 -325.1348 -115.8652)">
				<stop  offset="0" style="stop-color:#FFFFFF;stop-opacity:0"/>
				<stop  offset="1" style="stop-color:#FFFFFF"/>
			</linearGradient>
			<circle id="XMLID_24_" fill="url(#XMLID_36_)" cx="-159.9" cy="207.8" r="1.8"/>
			
				<linearGradient id="XMLID_38_" gradientUnits="userSpaceOnUse" x1="199.6992" y1="-245.6646" x2="148.2132" y2="-339.639" gradientTransform="matrix(1 0 0 -1 -325.1348 -115.8652)">
				<stop  offset="0" style="stop-color:#FFFFFF;stop-opacity:0"/>
				<stop  offset="1" style="stop-color:#FFFFFF"/>
			</linearGradient>
			<circle id="XMLID_22_" fill="url(#XMLID_38_)" cx="-166.8" cy="205.3" r="1.8"/>
			
				<linearGradient id="XMLID_41_" gradientUnits="userSpaceOnUse" x1="194.7256" y1="-242.8848" x2="143.2116" y2="-336.9102" gradientTransform="matrix(1 0 0 -1 -325.1348 -115.8652)">
				<stop  offset="0" style="stop-color:#FFFFFF;stop-opacity:0"/>
				<stop  offset="1" style="stop-color:#FFFFFF"/>
			</linearGradient>
			<circle id="XMLID_16_" fill="url(#XMLID_41_)" cx="-173.9" cy="206.4" r="1.8"/>
			
				<linearGradient id="XMLID_42_" gradientUnits="userSpaceOnUse" x1="192.625" y1="-241.7627" x2="141.125" y2="-335.7627" gradientTransform="matrix(1 0 0 -1 -325.1348 -115.8652)">
				<stop  offset="0" style="stop-color:#FFFFFF;stop-opacity:0"/>
				<stop  offset="1" style="stop-color:#FFFFFF"/>
			</linearGradient>
			<circle id="XMLID_15_" fill="url(#XMLID_42_)" cx="-179.3" cy="211.3" r="1.8"/>
			
				<linearGradient id="XMLID_43_" gradientUnits="userSpaceOnUse" x1="192.4053" y1="-241.6094" x2="140.8913" y2="-335.6349" gradientTransform="matrix(1 0 0 -1 -325.1348 -115.8652)">
				<stop  offset="0" style="stop-color:#FFFFFF;stop-opacity:0"/>
				<stop  offset="1" style="stop-color:#FFFFFF"/>
			</linearGradient>
			<circle id="XMLID_14_" fill="url(#XMLID_43_)" cx="-183" cy="217.5" r="1.8"/>
			
				<linearGradient id="XMLID_50_" gradientUnits="userSpaceOnUse" x1="193.5518" y1="-242.2354" x2="142.0378" y2="-336.2608" gradientTransform="matrix(1 0 0 -1 -325.1348 -115.8652)">
				<stop  offset="0" style="stop-color:#FFFFFF;stop-opacity:0"/>
				<stop  offset="1" style="stop-color:#FFFFFF"/>
			</linearGradient>
			<circle id="XMLID_13_" fill="url(#XMLID_50_)" cx="-185.4" cy="224.6" r="1.8"/>
		</g>
	</g>
</g>
</svg>
