<?xml version="1.0" encoding="utf-8"?>
<!-- Generator: Adobe Illustrator 16.0.0, SVG Export Plug-In . SVG Version: 6.00 Build 0)  -->
<!DOCTYPE svg PUBLIC "-//W3C//DTD SVG 1.1//EN" "http://www.w3.org/Graphics/SVG/1.1/DTD/svg11.dtd">
<svg version="1.1" id="Layer_1" xmlns="http://www.w3.org/2000/svg" xmlns:xlink="http://www.w3.org/1999/xlink" x="0px" y="0px"
	 width="220px" height="120.001px" viewBox="0.5 164.3 220 120.001" enable-background="new 0.5 164.3 220 120.001"
	 xml:space="preserve">
<linearGradient id="XMLID_2_" gradientUnits="userSpaceOnUse" x1="9883.3633" y1="-4559.085" x2="10003.3633" y2="-4559.085" gradientTransform="matrix(4.489700e-11 -1 -1 -4.489700e-11 -4448.585 10167.6641)">
	<stop  offset="0" style="stop-color:#42235F"/>
	<stop  offset="1" style="stop-color:#31BBAF"/>
</linearGradient>
<rect id="XMLID_5418_" x="0.5" y="164.3" fill="url(#XMLID_2_)" width="220" height="120"/>
<g id="XMLID_101_">
	<g id="XMLID_393_">
		<g id="XMLID_394_">
			<path id="XMLID_406_" fill="#FFFFFF" d="M30.8,227.5c-5.2-0.2-8,2.5-8.4,7.6c-0.1,1.301-0.1,2.601-0.3,4
				c-0.3,1.801-1.6,2.7-3.2,2.301c-1.6-0.4-2.5-1.5-2.6-3.2c-0.4-7.601,4.1-13.7,12-15.9c3.9-1.1,7.8-1.5,11.6-2.2
				c3.6-0.699,7.3-1.399,10.9-2.199c1.7-0.4,2.1-0.2,2.1,1.6c-0.1,3.3-3,6.4-6.6,6.9c-2.5,0.3-5,0.399-7.7,0.6
				c-0.5,2.2-1,4.5-1.5,6.7c-1.5,7.1-2.9,14.3-4.4,21.399c-0.1,0.7-0.4,1.4-0.6,2.2c-1,2.9-2.3,3.8-4.8,3.601
				c-2.3-0.2-3.2-1.7-2.6-4.4c1.9-9,3.8-18,5.7-27C30.6,228.8,30.7,228.2,30.8,227.5z"/>
			<g id="XMLID_395_">
				<path id="XMLID_397_" fill="#FFFFFF" d="M176.9,218.1c-1-0.1-2.101,0.2-3.101,3.301c-1,2.199-2.5,4.1-4.7,5.399
					c-3.1,1.8-6.399,1.4-7.699-1.1c0.1-0.101,0.199-0.2,0.3-0.3c5.6-2.4,8.7-7,10.399-12.4c1.5-4.7-0.8-7-5.5-5.7
					c-2.6,0.7-4.899,2-7,4c-4.199,4.2-6.5,9.2-6.699,14.601c-0.101,1.6-0.5,2.899-1.7,4c-1.4,1.399-3,1.1-3.3-0.601
					c-0.101-0.6-0.2-1.3-0.101-1.899c0.7-3.9,1.5-7.801,2.4-11.801c0.899-3.699,0.6-4.199-3-4.1c-0.101,0-0.2,0-0.4,0
					c-2.6,0.2-3.5,0.8-4.1,3.4c-0.9,3.899-1.7,7.699-2.3,11.6c-0.5,2.7-3.301,6.5-5.601,7c0.7-2,1.5-4.1,2.101-6.2
					c0.899-3.7,1.1-7.3-0.601-10.3c-1.8-3.4-5.5-3.6-9-0.7c-0.6,0.5-1.2,1.2-1.899,1.7c-1.301-2-4.2-2.4-6.5-0.8
					c-0.5,0.399-1,1.2-1.2,1.8c-0.601,2.5-1,5-1.5,7.4c-0.7,2.899-1.3,5.8-2.3,8.6c-1.101,1.5-2.801,2.9-4,3.2
					c0.7-2,1.5-4.101,2.1-6.2c0.9-3.7,1.1-7.3-0.6-10.3c-1.8-3.4-5.5-3.601-9-0.7c-0.6,0.5-1.2,1.2-1.9,1.7c-1.3-2-4.2-2.4-6.5-0.8
					c-0.5,0.399-1,1.199-1.2,1.8c-0.6,2.5-1,5-1.5,7.399C90.6,234,90,236.9,89,239.7c-0.5,1.5-1.6,3.3-3.6,3.3c-1.3,0-2-1.9-1.5-4.2
					c0.9-4.2,1.9-8.5,2.8-12.7c0.1-0.5,0.1-1.5-0.1-1.6c-1.8-0.2-3.7-0.6-5.6-0.3c-1.6,0.2-2,1.899-2.3,3.3
					c-0.7,2.8-1.1,5.7-1.8,8.5c-0.6,2.3-1.2,4.6-2.1,6.8c-0.3,0.7-1.6,1.7-2.2,1.7s-1.1-1.1-1.5-1.8c-0.2-0.3-0.1-0.8,0-1.2
					c0.7-3.7,1.4-7.4,2.3-11c0.9-3.8,0.8-4.1-3-4.1c-0.2,0-0.5,0-0.7,0c-2.2,0.199-3,0.8-3.6,3c-0.7,2.5-1.2,4.899-1.8,7.399
					c-0.7,3.101-0.4,6.2-2.3,9.101c-0.7,1.1-1.4,2.699-2.7,2.199c-0.6-0.199-0.7-1.899-0.5-2.899c0.5-2.601,1.4-5.2,1.9-7.8
					c0.6-2.801-0.1-4.301-2.6-5c-1.7-0.5-3.6-0.7-5.4-0.9c-1.5-0.1-1.8-0.6-1.6-2.2c0.1-1-0.4-2.6-1.2-2.899
					c-0.9-0.301-2.6,0.1-3.6,0.8c-2.2,1.5-2.7,5-1.2,6.6c0.8,0.8,0.9,1.601,0.6,2.8c-0.8,3.101-3.5,14.601-4.3,17.7
					c-0.3,1.101-0.3,2.2,0.8,2.2c0.8,0,1.8-0.8,2.5-1.5c0.4-0.4,0.5-1.3,0.7-1.9c0.7-2.8,3.4-14,4-16.8c3.5,0.601,3.7,1.101,2.9,4.7
					c-0.6,2.6-1.1,5.2-1.5,7.8c-0.4,2.5-0.2,4.9,2.1,6c2.2,1.2,4.7,0.5,7-1c1.4-0.899,2.5-2.2,3.9-3.5c2.2,3.7,7.9,3.5,13-2.1
					c3,3.399,6.9,2.2,11.2-0.601c-0.5,2.7-1,5-1.5,7.301c-0.7,3.1,0.7,5.6,3.6,6.1c1.6,0.3,2.7-0.4,3.1-2.1
					c0.4-1.801,0.7-3.601,1.1-5.4c0.4-2.4,0.9-4.9,1.3-7.4c3.2,0.7,6.3,0.5,9.2-0.399l0,0c1.6-0.4,6.2-2.3,8-3.5
					c-0.5,2.7-1,5.6-1.5,8c-0.7,3.1,0.7,5.6,3.601,6.1c1.6,0.3,2.699-0.399,3.1-2.1c0.4-1.8,0.7-3.601,1.1-5.4
					c0.4-2.399,0.9-4.899,1.301-7.399c7.3,1.6,13.6-1.301,19.699-6.7c1.2,2.899,3.601,3.8,6.9,3c3.2-0.8,5.5-3.101,7.4-5.899
					c0.199,0.1,0.3,0.199,0.399,0.199c3.5,3.4,8,3.4,12.9,1c5.3-2.6,8.5-7.1,9.899-12.6C177.9,219.8,178,218.2,176.9,218.1z
					 M102.7,237.5c-0.7,0.9-2.1,1.9-2.8,1.8c-0.7-0.1-1.4-1.399-1.5-2.399c-0.2-3.2,0.9-6.301,3.1-9.101c0.6-0.8,1.9-1.5,2.5-1.5
					c1.9,0,1.5,2.8,1.5,3.101C105.3,232.3,104.6,235.1,102.7,237.5z M130.3,224.7c-0.2,2.8-0.899,5.6-2.8,8.1
					c-0.7,0.9-2.1,1.9-2.8,1.8c-0.7-0.1-1.4-1.399-1.5-2.399c-0.2-3.2,0.899-6.3,3.1-9.101c0.601-0.8,1.9-1.5,2.5-1.5
					C130.7,221.6,130.3,224.4,130.3,224.7z M164.6,214.7c0.601-0.5,1.601-1.2,2.2-0.8c0.601,0.3,0.2,1.6-0.1,2.3
					c-1.2,2.5-3.101,4.3-5.9,5.899C161.4,219,162.4,216.5,164.6,214.7z"/>
				<path id="XMLID_396_" fill="#FFFFFF" d="M154.1,201.6c0.101,2.7-1.1,4.801-3.1,6.5c-2.6,2.2-5.6,1.301-5.8-1.8
					c-0.2-2.399,0.8-4.6,2.7-6.399c1.3-1.301,2.8-1.9,4.399-1.4C153.7,198.9,154.2,200.2,154.1,201.6z"/>
			</g>
		</g>
	</g>
	<g id="XMLID_136_">
		<g id="XMLID_198_">
			<path id="XMLID_200_" opacity="0.75" fill="#FFFFFF" enable-background="new    " d="M202,178.2c-0.3-0.101-0.7,0-0.9,0.2
				l-23.6,25.1c-0.3,0.3-0.3,0.7-0.1,1c0.199,0.3,0.6,0.5,0.899,0.4l14.7-3C193,202,202.4,178.3,202,178.2z"/>
			<path id="XMLID_199_" opacity="0.25" fill="#FFFFFF" enable-background="new    " d="M202.1,178.1c0.301,0.101,0.5,0.4,0.5,0.801
				L203.7,213.3c0,0.4-0.2,0.7-0.601,0.8c-0.399,0.101-0.8,0-1-0.3l-9.1-12C193.1,201.9,201.8,177.9,202.1,178.1z"/>
		</g>
		<g id="XMLID_137_">
			
				<linearGradient id="XMLID_3_" gradientUnits="userSpaceOnUse" x1="532.2422" y1="-295.6787" x2="480.7422" y2="-389.6787" gradientTransform="matrix(1 0 0 -1 -325.1348 -115.8652)">
				<stop  offset="0" style="stop-color:#FFFFFF;stop-opacity:0"/>
				<stop  offset="1" style="stop-color:#FFFFFF"/>
			</linearGradient>
			<circle id="XMLID_197_" fill="url(#XMLID_3_)" cx="191.5" cy="208.3" r="1.8"/>
			
				<linearGradient id="XMLID_4_" gradientUnits="userSpaceOnUse" x1="532.6455" y1="-295.8882" x2="481.1315" y2="-389.9136" gradientTransform="matrix(1 0 0 -1 -325.1348 -115.8652)">
				<stop  offset="0" style="stop-color:#FFFFFF;stop-opacity:0"/>
				<stop  offset="1" style="stop-color:#FFFFFF"/>
			</linearGradient>
			<circle id="XMLID_196_" fill="url(#XMLID_4_)" cx="187.8" cy="216" r="1.8"/>
			
				<linearGradient id="XMLID_5_" gradientUnits="userSpaceOnUse" x1="532.7305" y1="-295.9316" x2="481.2165" y2="-389.9571" gradientTransform="matrix(1 0 0 -1 -325.1348 -115.8652)">
				<stop  offset="0" style="stop-color:#FFFFFF;stop-opacity:0"/>
				<stop  offset="1" style="stop-color:#FFFFFF"/>
			</linearGradient>
			<circle id="XMLID_195_" fill="url(#XMLID_5_)" cx="183.8" cy="223.5" r="1.8"/>
			
				<linearGradient id="XMLID_6_" gradientUnits="userSpaceOnUse" x1="532.3672" y1="-295.7666" x2="480.8811" y2="-389.7411" gradientTransform="matrix(1 0 0 -1 -325.1348 -115.8652)">
				<stop  offset="0" style="stop-color:#FFFFFF;stop-opacity:0"/>
				<stop  offset="1" style="stop-color:#FFFFFF"/>
			</linearGradient>
			<circle id="XMLID_194_" fill="url(#XMLID_6_)" cx="179.4" cy="230.7" r="1.8"/>
			
				<linearGradient id="XMLID_7_" gradientUnits="userSpaceOnUse" x1="531.5234" y1="-295.2437" x2="479.9955" y2="-389.2946" gradientTransform="matrix(1 0 0 -1 -325.1348 -115.8652)">
				<stop  offset="0" style="stop-color:#FFFFFF;stop-opacity:0"/>
				<stop  offset="1" style="stop-color:#FFFFFF"/>
			</linearGradient>
			<circle id="XMLID_193_" fill="url(#XMLID_7_)" cx="174.6" cy="237.4" r="1.8"/>
			
				<linearGradient id="XMLID_9_" gradientUnits="userSpaceOnUse" x1="529.958" y1="-294.4277" x2="478.458" y2="-388.4277" gradientTransform="matrix(1 0 0 -1 -325.1348 -115.8652)">
				<stop  offset="0" style="stop-color:#FFFFFF;stop-opacity:0"/>
				<stop  offset="1" style="stop-color:#FFFFFF"/>
			</linearGradient>
			<circle id="XMLID_155_" fill="url(#XMLID_9_)" cx="169.3" cy="243.4" r="1.8"/>
			
				<linearGradient id="XMLID_17_" gradientUnits="userSpaceOnUse" x1="527.5371" y1="-293.0767" x2="476.0231" y2="-387.1022" gradientTransform="matrix(1 0 0 -1 -325.1348 -115.8652)">
				<stop  offset="0" style="stop-color:#FFFFFF;stop-opacity:0"/>
				<stop  offset="1" style="stop-color:#FFFFFF"/>
			</linearGradient>
			<circle id="XMLID_154_" fill="url(#XMLID_17_)" cx="163.4" cy="248.4" r="1.8"/>
			
				<linearGradient id="XMLID_18_" gradientUnits="userSpaceOnUse" x1="524.0977" y1="-291.1904" x2="472.5837" y2="-385.2159" gradientTransform="matrix(1 0 0 -1 -325.1348 -115.8652)">
				<stop  offset="0" style="stop-color:#FFFFFF;stop-opacity:0"/>
				<stop  offset="1" style="stop-color:#FFFFFF"/>
			</linearGradient>
			<circle id="XMLID_153_" fill="url(#XMLID_18_)" cx="156.9" cy="252.1" r="1.8"/>
			
				<linearGradient id="XMLID_19_" gradientUnits="userSpaceOnUse" x1="519.3086" y1="-288.5913" x2="467.8086" y2="-382.5913" gradientTransform="matrix(1 0 0 -1 -325.1348 -115.8652)">
				<stop  offset="0" style="stop-color:#FFFFFF;stop-opacity:0"/>
				<stop  offset="1" style="stop-color:#FFFFFF"/>
			</linearGradient>
			<circle id="XMLID_152_" fill="url(#XMLID_19_)" cx="149.7" cy="253.9" r="1.8"/>
			
				<linearGradient id="XMLID_26_" gradientUnits="userSpaceOnUse" x1="513.4043" y1="-285.3589" x2="461.9043" y2="-379.3589" gradientTransform="matrix(1 0 0 -1 -325.1348 -115.8652)">
				<stop  offset="0" style="stop-color:#FFFFFF;stop-opacity:0"/>
				<stop  offset="1" style="stop-color:#FFFFFF"/>
			</linearGradient>
			<circle id="XMLID_151_" fill="url(#XMLID_26_)" cx="142.3" cy="253.4" r="1.8"/>
			
				<linearGradient id="XMLID_28_" gradientUnits="userSpaceOnUse" x1="506.7441" y1="-281.7095" x2="455.2441" y2="-375.7094" gradientTransform="matrix(1 0 0 -1 -325.1348 -115.8652)">
				<stop  offset="0" style="stop-color:#FFFFFF;stop-opacity:0"/>
				<stop  offset="1" style="stop-color:#FFFFFF"/>
			</linearGradient>
			<circle id="XMLID_150_" fill="url(#XMLID_28_)" cx="134.9" cy="251.1" r="1.8"/>
			
				<linearGradient id="XMLID_31_" gradientUnits="userSpaceOnUse" x1="499.5283" y1="-277.7563" x2="448.0283" y2="-371.7563" gradientTransform="matrix(1 0 0 -1 -325.1348 -115.8652)">
				<stop  offset="0" style="stop-color:#FFFFFF;stop-opacity:0"/>
				<stop  offset="1" style="stop-color:#FFFFFF"/>
			</linearGradient>
			<circle id="XMLID_149_" fill="url(#XMLID_31_)" cx="127.6" cy="247.3" r="1.8"/>
			
				<linearGradient id="XMLID_32_" gradientUnits="userSpaceOnUse" x1="467.082" y1="-259.98" x2="415.582" y2="-353.98" gradientTransform="matrix(1 0 0 -1 -325.1348 -115.8652)">
				<stop  offset="0" style="stop-color:#FFFFFF;stop-opacity:0"/>
				<stop  offset="1" style="stop-color:#FFFFFF"/>
			</linearGradient>
			<circle id="XMLID_148_" fill="url(#XMLID_32_)" cx="98.4" cy="223.6" r="1.8"/>
			
				<linearGradient id="XMLID_33_" gradientUnits="userSpaceOnUse" x1="460.0361" y1="-256.1201" x2="408.5361" y2="-350.1201" gradientTransform="matrix(1 0 0 -1 -325.1348 -115.8652)">
				<stop  offset="0" style="stop-color:#FFFFFF;stop-opacity:0"/>
				<stop  offset="1" style="stop-color:#FFFFFF"/>
			</linearGradient>
			<circle id="XMLID_147_" fill="url(#XMLID_33_)" cx="92.8" cy="217.1" r="1.8"/>
			
				<linearGradient id="XMLID_34_" gradientUnits="userSpaceOnUse" x1="453.9414" y1="-252.7539" x2="402.4274" y2="-346.7794" gradientTransform="matrix(1 0 0 -1 -325.1348 -115.8652)">
				<stop  offset="0" style="stop-color:#FFFFFF;stop-opacity:0"/>
				<stop  offset="1" style="stop-color:#FFFFFF"/>
			</linearGradient>
			<circle id="XMLID_146_" fill="url(#XMLID_34_)" cx="87.6" cy="212.1" r="1.8"/>
			
				<linearGradient id="XMLID_36_" gradientUnits="userSpaceOnUse" x1="447.2725" y1="-249.127" x2="395.7724" y2="-343.127" gradientTransform="matrix(1 0 0 -1 -325.1348 -115.8652)">
				<stop  offset="0" style="stop-color:#FFFFFF;stop-opacity:0"/>
				<stop  offset="1" style="stop-color:#FFFFFF"/>
			</linearGradient>
			<circle id="XMLID_145_" fill="url(#XMLID_36_)" cx="81.3" cy="207.8" r="1.8"/>
			
				<linearGradient id="XMLID_38_" gradientUnits="userSpaceOnUse" x1="440.9121" y1="-245.6411" x2="389.4121" y2="-339.6411" gradientTransform="matrix(1 0 0 -1 -325.1348 -115.8652)">
				<stop  offset="0" style="stop-color:#FFFFFF;stop-opacity:0"/>
				<stop  offset="1" style="stop-color:#FFFFFF"/>
			</linearGradient>
			<circle id="XMLID_143_" fill="url(#XMLID_38_)" cx="74.4" cy="205.3" r="1.8"/>
			
				<linearGradient id="XMLID_41_" gradientUnits="userSpaceOnUse" x1="435.915" y1="-242.9028" x2="384.4151" y2="-336.9028" gradientTransform="matrix(1 0 0 -1 -325.1348 -115.8652)">
				<stop  offset="0" style="stop-color:#FFFFFF;stop-opacity:0"/>
				<stop  offset="1" style="stop-color:#FFFFFF"/>
			</linearGradient>
			<circle id="XMLID_142_" fill="url(#XMLID_41_)" cx="67.3" cy="206.4" r="1.8"/>
			
				<linearGradient id="XMLID_42_" gradientUnits="userSpaceOnUse" x1="433.8262" y1="-241.7598" x2="382.3261" y2="-335.7598" gradientTransform="matrix(1 0 0 -1 -325.1348 -115.8652)">
				<stop  offset="0" style="stop-color:#FFFFFF;stop-opacity:0"/>
				<stop  offset="1" style="stop-color:#FFFFFF"/>
			</linearGradient>
			<circle id="XMLID_141_" fill="url(#XMLID_42_)" cx="61.9" cy="211.3" r="1.8"/>
			
				<linearGradient id="XMLID_43_" gradientUnits="userSpaceOnUse" x1="433.5938" y1="-241.6318" x2="382.0938" y2="-335.6318" gradientTransform="matrix(1 0 0 -1 -325.1348 -115.8652)">
				<stop  offset="0" style="stop-color:#FFFFFF;stop-opacity:0"/>
				<stop  offset="1" style="stop-color:#FFFFFF"/>
			</linearGradient>
			<circle id="XMLID_140_" fill="url(#XMLID_43_)" cx="58.2" cy="217.5" r="1.8"/>
			
				<linearGradient id="XMLID_50_" gradientUnits="userSpaceOnUse" x1="434.8008" y1="-242.3291" x2="383.3147" y2="-336.3036" gradientTransform="matrix(1 0 0 -1 -325.1348 -115.8652)">
				<stop  offset="0" style="stop-color:#FFFFFF;stop-opacity:0"/>
				<stop  offset="1" style="stop-color:#FFFFFF"/>
			</linearGradient>
			<circle id="XMLID_138_" fill="url(#XMLID_50_)" cx="55.9" cy="224.6" r="1.8"/>
		</g>
	</g>
</g>
</svg>
