<?xml version="1.0" encoding="utf-8"?>
<!-- Generator: Adobe Illustrator 16.0.0, SVG Export Plug-In . SVG Version: 6.00 Build 0)  -->
<!DOCTYPE svg PUBLIC "-//W3C//DTD SVG 1.1//EN" "http://www.w3.org/Graphics/SVG/1.1/DTD/svg11.dtd">
<svg version="1.1" id="Layer_1" xmlns="http://www.w3.org/2000/svg" xmlns:xlink="http://www.w3.org/1999/xlink" x="0px" y="0px"
	 width="220px" height="120.001px" viewBox="-477 164.3 220 120.001" enable-background="new -477 164.3 220 120.001"
	 xml:space="preserve">
<linearGradient id="XMLID_2_" gradientUnits="userSpaceOnUse" x1="9883.3633" y1="-4081.585" x2="10003.3633" y2="-4081.585" gradientTransform="matrix(4.489700e-11 -1 -1 -4.489700e-11 -4448.585 10167.6641)">
	<stop  offset="0" style="stop-color:#F05A2A"/>
	<stop  offset="1" style="stop-color:#FAAF41"/>
</linearGradient>
<rect id="XMLID_5473_" x="-477" y="164.3" fill="url(#XMLID_2_)" width="220" height="120"/>
<g id="XMLID_293_">
	<g id="XMLID_343_">
		<g id="XMLID_344_">
			<path id="XMLID_352_" fill="#FFFFFF" d="M-446.8,227.5c-5.2-0.2-8,2.5-8.4,7.6c-0.1,1.301-0.1,2.601-0.3,4
				c-0.3,1.801-1.6,2.7-3.2,2.301c-1.6-0.4-2.5-1.5-2.6-3.2c-0.4-7.601,4.1-13.7,12-15.9c3.9-1.1,7.8-1.5,11.6-2.2
				c3.6-0.699,7.3-1.399,10.9-2.199c1.7-0.4,2.1-0.2,2.1,1.6c-0.1,3.3-3,6.4-6.6,6.9c-2.5,0.3-5,0.399-7.7,0.6
				c-0.5,2.2-1,4.5-1.5,6.7c-1.5,7.1-2.9,14.3-4.4,21.399c-0.1,0.7-0.4,1.4-0.6,2.2c-1,2.9-2.3,3.8-4.8,3.601
				c-2.3-0.2-3.2-1.7-2.6-4.4c1.9-9,3.8-18,5.7-27C-446.9,228.8-446.9,228.2-446.8,227.5z"/>
			<g id="XMLID_345_">
				<path id="XMLID_347_" fill="#FFFFFF" d="M-300.6,218.1c-1-0.1-2.1,0.2-3.1,3.301c-1,2.199-2.5,4.1-4.7,5.399
					c-3.1,1.8-6.4,1.4-7.7-1.1c0.1-0.101,0.2-0.2,0.3-0.3c5.6-2.4,8.7-7,10.4-12.4c1.5-4.7-0.8-7-5.5-5.7c-2.6,0.7-4.9,2-7,4
					c-4.2,4.2-6.5,9.2-6.7,14.601c-0.1,1.6-0.5,2.899-1.7,4c-1.4,1.399-3,1.1-3.3-0.601c-0.1-0.6-0.2-1.3-0.1-1.899
					c0.7-3.9,1.5-7.801,2.4-11.801c0.9-3.699,0.6-4.199-3-4.1c-0.1,0-0.2,0-0.4,0c-2.6,0.2-3.5,0.8-4.1,3.4
					c-0.9,3.899-1.7,7.699-2.3,11.6c-0.5,2.7-3.3,6.5-5.6,7c0.7-2,1.5-4.1,2.1-6.2c0.9-3.7,1.1-7.3-0.6-10.3c-1.8-3.4-5.5-3.6-9-0.7
					c-0.6,0.5-1.2,1.2-1.9,1.7c-1.3-2-4.2-2.4-6.5-0.8c-0.5,0.399-1,1.2-1.2,1.8c-0.6,2.5-1,5-1.5,7.4c-0.7,2.899-1.3,5.8-2.3,8.6
					c-1.1,1.5-2.8,2.9-4,3.2c0.7-2,1.5-4.101,2.1-6.2c0.9-3.7,1.1-7.3-0.6-10.3c-1.8-3.4-5.5-3.601-9-0.7c-0.6,0.5-1.2,1.2-1.9,1.7
					c-1.3-2-4.2-2.4-6.5-0.8c-0.5,0.399-1,1.199-1.2,1.8c-0.6,2.5-1,5-1.5,7.399c-0.7,2.9-1.3,5.801-2.3,8.601
					c-0.5,1.5-1.6,3.3-3.6,3.3c-1.3,0-2-1.9-1.5-4.2c0.9-4.2,1.9-8.5,2.8-12.7c0.1-0.5,0.1-1.5-0.1-1.6c-1.8-0.2-3.7-0.6-5.6-0.3
					c-1.6,0.2-2,1.899-2.3,3.3c-0.7,2.8-1.1,5.7-1.8,8.5c-0.6,2.3-1.2,4.6-2.1,6.8c-0.3,0.7-1.6,1.7-2.2,1.7s-1.1-1.1-1.5-1.8
					c-0.2-0.3-0.1-0.8,0-1.2c0.7-3.7,1.4-7.4,2.3-11c0.9-3.8,0.8-4.1-3-4.1c-0.2,0-0.5,0-0.7,0c-2.2,0.199-3,0.8-3.6,3
					c-0.7,2.5-1.2,4.899-1.8,7.399c-0.7,3.101-0.4,6.2-2.3,9.101c-0.7,1.1-1.4,2.699-2.7,2.199c-0.6-0.199-0.7-1.899-0.5-2.899
					c0.5-2.601,1.4-5.2,1.9-7.8c0.6-2.801-0.1-4.301-2.6-5c-1.7-0.5-3.6-0.7-5.4-0.9c-1.5-0.1-1.8-0.6-1.6-2.2
					c0.1-1-0.4-2.6-1.2-2.899c-0.9-0.301-2.6,0.1-3.6,0.8c-2.2,1.5-2.7,5-1.2,6.6c0.8,0.8,0.9,1.601,0.6,2.8
					c-0.8,3.101-3.5,14.601-4.3,17.7c-0.3,1.101-0.3,2.2,0.8,2.2c0.8,0,1.8-0.8,2.5-1.5c0.4-0.4,0.5-1.3,0.7-1.9
					c0.7-2.8,3.4-14,4-16.8c3.5,0.601,3.7,1.101,2.9,4.7c-0.6,2.6-1.1,5.2-1.5,7.8c-0.4,2.5-0.2,4.9,2.1,6c2.2,1.2,4.7,0.5,7-1
					c1.4-0.899,2.5-2.2,3.9-3.5c2.2,3.7,7.9,3.5,13-2.1c3,3.399,6.9,2.2,11.2-0.601c-0.5,2.7-1,5-1.5,7.301
					c-0.7,3.1,0.7,5.6,3.6,6.1c1.6,0.3,2.7-0.4,3.1-2.1c0.4-1.801,0.7-3.601,1.1-5.4c0.4-2.4,0.9-4.9,1.3-7.4
					c3.2,0.7,6.3,0.5,9.2-0.399l0,0c1.6-0.4,6.2-2.3,8-3.5c-0.5,2.7-1,5.6-1.5,8c-0.7,3.1,0.7,5.6,3.6,6.1
					c1.6,0.3,2.7-0.399,3.1-2.1c0.4-1.8,0.7-3.601,1.1-5.4c0.4-2.399,0.9-4.899,1.3-7.399c7.3,1.6,13.6-1.301,19.7-6.7
					c1.2,2.899,3.6,3.8,6.9,3c3.2-0.8,5.5-3.101,7.4-5.899c0.2,0.1,0.3,0.199,0.4,0.199c3.5,3.4,8,3.4,12.9,1
					c5.3-2.6,8.5-7.1,9.9-12.6C-299.7,219.8-299.5,218.2-300.6,218.1z M-374.9,237.5c-0.7,0.9-2.1,1.9-2.8,1.8
					c-0.7-0.1-1.4-1.399-1.5-2.399c-0.2-3.2,0.9-6.301,3.1-9.101c0.6-0.8,1.9-1.5,2.5-1.5c1.9,0,1.5,2.8,1.5,3.101
					C-372.2,232.3-373,235.1-374.9,237.5z M-347.2,224.7c-0.2,2.8-0.9,5.6-2.8,8.1c-0.7,0.9-2.1,1.9-2.8,1.8
					c-0.7-0.1-1.4-1.399-1.5-2.399c-0.2-3.2,0.9-6.3,3.1-9.101c0.6-0.8,1.9-1.5,2.5-1.5C-346.8,221.6-347.2,224.4-347.2,224.7z
					 M-313,214.7c0.6-0.5,1.6-1.2,2.2-0.8c0.6,0.3,0.2,1.6-0.1,2.3c-1.2,2.5-3.1,4.3-5.9,5.899C-316.2,219-315.2,216.5-313,214.7z"
					/>
				<path id="XMLID_346_" fill="#FFFFFF" d="M-323.4,201.6c0.1,2.7-1.1,4.801-3.1,6.5c-2.6,2.2-5.6,1.301-5.8-1.8
					c-0.2-2.399,0.8-4.6,2.7-6.399c1.3-1.301,2.8-1.9,4.4-1.4C-323.9,198.9-323.3,200.2-323.4,201.6z"/>
			</g>
		</g>
	</g>
	<g id="XMLID_294_">
		<g id="XMLID_340_">
			<path id="XMLID_342_" opacity="0.75" fill="#FFFFFF" enable-background="new    " d="M-275.5,178.2c-0.3-0.101-0.7,0-0.9,0.2
				l-23.6,25.1c-0.3,0.3-0.3,0.7-0.1,1c0.2,0.3,0.6,0.5,0.9,0.4l14.7-3C-284.5,202-275.2,178.3-275.5,178.2z"/>
			<path id="XMLID_341_" opacity="0.25" fill="#FFFFFF" enable-background="new    " d="M-275.5,178.1c0.3,0.101,0.5,0.4,0.5,0.801
				l1.1,34.399c0,0.4-0.2,0.7-0.6,0.8c-0.4,0.101-0.8,0-1-0.3l-9.1-12C-284.4,201.9-275.8,177.9-275.5,178.1z"/>
		</g>
		<g id="XMLID_295_">
			
				<linearGradient id="XMLID_3_" gradientUnits="userSpaceOnUse" x1="54.7388" y1="-295.6836" x2="3.2388" y2="-389.6836" gradientTransform="matrix(1 0 0 -1 -325.1348 -115.8652)">
				<stop  offset="0" style="stop-color:#FFFFFF;stop-opacity:0"/>
				<stop  offset="1" style="stop-color:#FFFFFF"/>
			</linearGradient>
			<circle id="XMLID_339_" fill="url(#XMLID_3_)" cx="-286" cy="208.3" r="1.8"/>
			
				<linearGradient id="XMLID_4_" gradientUnits="userSpaceOnUse" x1="55.1377" y1="-295.9023" x2="3.6377" y2="-389.9023" gradientTransform="matrix(1 0 0 -1 -325.1348 -115.8652)">
				<stop  offset="0" style="stop-color:#FFFFFF;stop-opacity:0"/>
				<stop  offset="1" style="stop-color:#FFFFFF"/>
			</linearGradient>
			<circle id="XMLID_338_" fill="url(#XMLID_4_)" cx="-289.7" cy="216" r="1.8"/>
			
				<linearGradient id="XMLID_5_" gradientUnits="userSpaceOnUse" x1="55.2217" y1="-295.9487" x2="3.7217" y2="-389.9487" gradientTransform="matrix(1 0 0 -1 -325.1348 -115.8652)">
				<stop  offset="0" style="stop-color:#FFFFFF;stop-opacity:0"/>
				<stop  offset="1" style="stop-color:#FFFFFF"/>
			</linearGradient>
			<circle id="XMLID_337_" fill="url(#XMLID_5_)" cx="-293.7" cy="223.5" r="1.8"/>
			
				<linearGradient id="XMLID_6_" gradientUnits="userSpaceOnUse" x1="54.8711" y1="-295.7568" x2="3.3711" y2="-389.7568" gradientTransform="matrix(1 0 0 -1 -325.1348 -115.8652)">
				<stop  offset="0" style="stop-color:#FFFFFF;stop-opacity:0"/>
				<stop  offset="1" style="stop-color:#FFFFFF"/>
			</linearGradient>
			<circle id="XMLID_336_" fill="url(#XMLID_6_)" cx="-298.1" cy="230.7" r="1.8"/>
			
				<linearGradient id="XMLID_7_" gradientUnits="userSpaceOnUse" x1="54.0127" y1="-295.2637" x2="2.4987" y2="-389.2892" gradientTransform="matrix(1 0 0 -1 -325.1348 -115.8652)">
				<stop  offset="0" style="stop-color:#FFFFFF;stop-opacity:0"/>
				<stop  offset="1" style="stop-color:#FFFFFF"/>
			</linearGradient>
			<circle id="XMLID_335_" fill="url(#XMLID_7_)" cx="-302.9" cy="237.4" r="1.8"/>
			
				<linearGradient id="XMLID_9_" gradientUnits="userSpaceOnUse" x1="52.4644" y1="-294.4155" x2="0.9504" y2="-388.441" gradientTransform="matrix(1 0 0 -1 -325.1348 -115.8652)">
				<stop  offset="0" style="stop-color:#FFFFFF;stop-opacity:0"/>
				<stop  offset="1" style="stop-color:#FFFFFF"/>
			</linearGradient>
			<circle id="XMLID_334_" fill="url(#XMLID_9_)" cx="-308.2" cy="243.4" r="1.8"/>
			
				<linearGradient id="XMLID_17_" gradientUnits="userSpaceOnUse" x1="50.0352" y1="-293.0815" x2="-1.4788" y2="-387.1071" gradientTransform="matrix(1 0 0 -1 -325.1348 -115.8652)">
				<stop  offset="0" style="stop-color:#FFFFFF;stop-opacity:0"/>
				<stop  offset="1" style="stop-color:#FFFFFF"/>
			</linearGradient>
			<circle id="XMLID_333_" fill="url(#XMLID_17_)" cx="-314.1" cy="248.4" r="1.8"/>
			
				<linearGradient id="XMLID_18_" gradientUnits="userSpaceOnUse" x1="46.5068" y1="-291.1729" x2="-4.9932" y2="-385.1729" gradientTransform="matrix(1 0 0 -1 -325.1348 -115.8652)">
				<stop  offset="0" style="stop-color:#FFFFFF;stop-opacity:0"/>
				<stop  offset="1" style="stop-color:#FFFFFF"/>
			</linearGradient>
			<circle id="XMLID_332_" fill="url(#XMLID_18_)" cx="-320.7" cy="252.1" r="1.8"/>
			
				<linearGradient id="XMLID_19_" gradientUnits="userSpaceOnUse" x1="41.8047" y1="-288.5977" x2="-9.6953" y2="-382.5977" gradientTransform="matrix(1 0 0 -1 -325.1348 -115.8652)">
				<stop  offset="0" style="stop-color:#FFFFFF;stop-opacity:0"/>
				<stop  offset="1" style="stop-color:#FFFFFF"/>
			</linearGradient>
			<circle id="XMLID_331_" fill="url(#XMLID_19_)" cx="-327.8" cy="253.9" r="1.8"/>
			
				<linearGradient id="XMLID_26_" gradientUnits="userSpaceOnUse" x1="35.9023" y1="-285.3643" x2="-15.5977" y2="-379.3643" gradientTransform="matrix(1 0 0 -1 -325.1348 -115.8652)">
				<stop  offset="0" style="stop-color:#FFFFFF;stop-opacity:0"/>
				<stop  offset="1" style="stop-color:#FFFFFF"/>
			</linearGradient>
			<circle id="XMLID_330_" fill="url(#XMLID_26_)" cx="-335.2" cy="253.4" r="1.8"/>
			
				<linearGradient id="XMLID_28_" gradientUnits="userSpaceOnUse" x1="29.1768" y1="-281.6494" x2="-22.3372" y2="-375.6749" gradientTransform="matrix(1 0 0 -1 -325.1348 -115.8652)">
				<stop  offset="0" style="stop-color:#FFFFFF;stop-opacity:0"/>
				<stop  offset="1" style="stop-color:#FFFFFF"/>
			</linearGradient>
			<circle id="XMLID_329_" fill="url(#XMLID_28_)" cx="-342.7" cy="251.1" r="1.8"/>
			
				<linearGradient id="XMLID_31_" gradientUnits="userSpaceOnUse" x1="22.0259" y1="-277.7607" x2="-29.4741" y2="-371.7607" gradientTransform="matrix(1 0 0 -1 -325.1348 -115.8652)">
				<stop  offset="0" style="stop-color:#FFFFFF;stop-opacity:0"/>
				<stop  offset="1" style="stop-color:#FFFFFF"/>
			</linearGradient>
			<circle id="XMLID_328_" fill="url(#XMLID_31_)" cx="-349.9" cy="247.3" r="1.8"/>
			
				<linearGradient id="XMLID_32_" gradientUnits="userSpaceOnUse" x1="-10.4082" y1="-259.9639" x2="-61.9222" y2="-353.9893" gradientTransform="matrix(1 0 0 -1 -325.1348 -115.8652)">
				<stop  offset="0" style="stop-color:#FFFFFF;stop-opacity:0"/>
				<stop  offset="1" style="stop-color:#FFFFFF"/>
			</linearGradient>
			<circle id="XMLID_327_" fill="url(#XMLID_32_)" cx="-379.1" cy="223.6" r="1.8"/>
			
				<linearGradient id="XMLID_33_" gradientUnits="userSpaceOnUse" x1="-17.4658" y1="-256.124" x2="-68.9659" y2="-350.124" gradientTransform="matrix(1 0 0 -1 -325.1348 -115.8652)">
				<stop  offset="0" style="stop-color:#FFFFFF;stop-opacity:0"/>
				<stop  offset="1" style="stop-color:#FFFFFF"/>
			</linearGradient>
			<circle id="XMLID_326_" fill="url(#XMLID_33_)" cx="-384.7" cy="217.1" r="1.8"/>
			
				<linearGradient id="XMLID_34_" gradientUnits="userSpaceOnUse" x1="-23.6387" y1="-252.7178" x2="-75.1527" y2="-346.7433" gradientTransform="matrix(1 0 0 -1 -325.1348 -115.8652)">
				<stop  offset="0" style="stop-color:#FFFFFF;stop-opacity:0"/>
				<stop  offset="1" style="stop-color:#FFFFFF"/>
			</linearGradient>
			<circle id="XMLID_325_" fill="url(#XMLID_34_)" cx="-390" cy="212.1" r="1.8"/>
			
				<linearGradient id="XMLID_36_" gradientUnits="userSpaceOnUse" x1="-30.252" y1="-249.1714" x2="-81.724" y2="-343.1204" gradientTransform="matrix(1 0 0 -1 -325.1348 -115.8652)">
				<stop  offset="0" style="stop-color:#FFFFFF;stop-opacity:0"/>
				<stop  offset="1" style="stop-color:#FFFFFF"/>
			</linearGradient>
			<circle id="XMLID_301_" fill="url(#XMLID_36_)" cx="-396.2" cy="207.8" r="1.8"/>
			
				<linearGradient id="XMLID_38_" gradientUnits="userSpaceOnUse" x1="-36.5898" y1="-245.6465" x2="-88.0899" y2="-339.6465" gradientTransform="matrix(1 0 0 -1 -325.1348 -115.8652)">
				<stop  offset="0" style="stop-color:#FFFFFF;stop-opacity:0"/>
				<stop  offset="1" style="stop-color:#FFFFFF"/>
			</linearGradient>
			<circle id="XMLID_300_" fill="url(#XMLID_38_)" cx="-403.1" cy="205.3" r="1.8"/>
			
				<linearGradient id="XMLID_41_" gradientUnits="userSpaceOnUse" x1="-41.5879" y1="-242.9087" x2="-93.0879" y2="-336.9087" gradientTransform="matrix(1 0 0 -1 -325.1348 -115.8652)">
				<stop  offset="0" style="stop-color:#FFFFFF;stop-opacity:0"/>
				<stop  offset="1" style="stop-color:#FFFFFF"/>
			</linearGradient>
			<circle id="XMLID_299_" fill="url(#XMLID_41_)" cx="-410.2" cy="206.4" r="1.8"/>
			
				<linearGradient id="XMLID_42_" gradientUnits="userSpaceOnUse" x1="-43.6895" y1="-241.7886" x2="-95.1755" y2="-335.7631" gradientTransform="matrix(1 0 0 -1 -325.1348 -115.8652)">
				<stop  offset="0" style="stop-color:#FFFFFF;stop-opacity:0"/>
				<stop  offset="1" style="stop-color:#FFFFFF"/>
			</linearGradient>
			<circle id="XMLID_298_" fill="url(#XMLID_42_)" cx="-415.6" cy="211.3" r="1.8"/>
			
				<linearGradient id="XMLID_43_" gradientUnits="userSpaceOnUse" x1="-43.9102" y1="-241.6377" x2="-95.4102" y2="-335.6377" gradientTransform="matrix(1 0 0 -1 -325.1348 -115.8652)">
				<stop  offset="0" style="stop-color:#FFFFFF;stop-opacity:0"/>
				<stop  offset="1" style="stop-color:#FFFFFF"/>
			</linearGradient>
			<circle id="XMLID_297_" fill="url(#XMLID_43_)" cx="-419.3" cy="217.5" r="1.8"/>
			
				<linearGradient id="XMLID_50_" gradientUnits="userSpaceOnUse" x1="-42.749" y1="-242.2388" x2="-94.263" y2="-336.2643" gradientTransform="matrix(1 0 0 -1 -325.1348 -115.8652)">
				<stop  offset="0" style="stop-color:#FFFFFF;stop-opacity:0"/>
				<stop  offset="1" style="stop-color:#FFFFFF"/>
			</linearGradient>
			<circle id="XMLID_296_" fill="url(#XMLID_50_)" cx="-421.7" cy="224.6" r="1.8"/>
		</g>
	</g>
</g>
</svg>
