<?xml version="1.0" encoding="utf-8"?>
<!-- Generator: Adobe Illustrator 16.0.0, SVG Export Plug-In . SVG Version: 6.00 Build 0)  -->
<!DOCTYPE svg PUBLIC "-//W3C//DTD SVG 1.1//EN" "http://www.w3.org/Graphics/SVG/1.1/DTD/svg11.dtd">
<svg version="1.1" id="Layer_1" xmlns="http://www.w3.org/2000/svg" xmlns:xlink="http://www.w3.org/1999/xlink" x="0px" y="0px"
	 width="85px" height="130px" viewBox="0 0 85 130" enable-background="new 0 0 85 130" xml:space="preserve">
<g>
	<g>
		<path fill="#F05A2A" d="M22.733,103.74h3.282v0.726h-2.447v1.957h2.084v0.727h-2.084v2.548h-0.835V103.74z"/>
		<path fill="#F05A2A" d="M31.695,107.984H29.45l-0.591,1.713h-0.86l2.144-5.957h0.877l2.144,5.957h-0.869L31.695,107.984z
			 M30.573,104.559c0,0-0.136,0.54-0.236,0.844l-0.667,1.89h1.806l-0.658-1.89c-0.102-0.304-0.228-0.844-0.228-0.844H30.573z"/>
		<path fill="#F05A2A" d="M36.177,103.74h0.878l1.366,3.223c0.136,0.329,0.296,0.802,0.296,0.802h0.017c0,0,0.16-0.473,0.295-0.802
			l1.367-3.223h0.878l0.48,5.957h-0.826l-0.296-3.755c-0.025-0.363-0.008-0.878-0.008-0.878h-0.018c0,0-0.177,0.549-0.32,0.878
			l-1.189,2.684h-0.743l-1.181-2.684c-0.136-0.32-0.321-0.895-0.321-0.895h-0.017c0,0,0.009,0.531-0.017,0.895l-0.287,3.755h-0.836
			L36.177,103.74z"/>
		<path fill="#F05A2A" d="M45.03,103.74h0.835v5.957H45.03V103.74z M45.705,102.255h0.877l-0.81,1.071h-0.684L45.705,102.255z"/>
		<path fill="#F05A2A" d="M49.325,103.74h0.836v5.231h2.666v0.726h-3.502V103.74z"/>
		<path fill="#F05A2A" d="M55.63,103.74h0.835v5.957H55.63V103.74z"/>
		<path fill="#F05A2A" d="M62.879,107.984h-2.245l-0.591,1.713h-0.86l2.144-5.957h0.877l2.144,5.957h-0.869L62.879,107.984z
			 M61.757,104.559c0,0-0.136,0.54-0.236,0.844l-0.667,1.89h1.806l-0.658-1.89c-0.102-0.304-0.228-0.844-0.228-0.844H61.757z"/>
	</g>
</g>
<g id="XMLID_3271_">
	<linearGradient id="XMLID_2_" gradientUnits="userSpaceOnUse" x1="18.999" y1="51.2969" x2="71.7427" y2="51.2969">
		<stop  offset="0" style="stop-color:#F05A2A"/>
		<stop  offset="1" style="stop-color:#FBB041"/>
	</linearGradient>
	<path id="XMLID_3279_" fill="url(#XMLID_2_)" d="M46.197,47.126c0.282,1.3-0.468,2.362-1.667,2.362h-2.175l-0.198,2.413
		L41.09,65.344c-0.106,1.326-1.103,2.412-2.218,2.412H34.82c-1.114,0-2.111-1.087-2.217-2.412l-1.068-13.442l-0.202-2.413h-2.077
		c-1.148,0-1.858-1.062-1.575-2.362l2.152-9.922c0.282-1.301,1.602-2.365,2.933-2.365h1.754h4.838h1.754
		c1.331,0,2.649,1.064,2.931,2.365L46.197,47.126"/>
	<linearGradient id="XMLID_3_" gradientUnits="userSpaceOnUse" x1="19" y1="28.043" x2="71.7392" y2="28.043">
		<stop  offset="0" style="stop-color:#F05A2A"/>
		<stop  offset="1" style="stop-color:#FBB041"/>
	</linearGradient>
	<path id="XMLID_3278_" fill="url(#XMLID_3_)" d="M41.764,28.042c0-2.664-2.16-4.823-4.826-4.823c-2.663,0-4.824,2.159-4.824,4.823
		c0,2.667,2.161,4.826,4.824,4.826C39.604,32.867,41.764,30.708,41.764,28.042"/>
	<linearGradient id="XMLID_4_" gradientUnits="userSpaceOnUse" x1="18.998" y1="51.2979" x2="71.7429" y2="51.2979">
		<stop  offset="0" style="stop-color:#F05A2A"/>
		<stop  offset="1" style="stop-color:#FBB041"/>
	</linearGradient>
	<path id="XMLID_3277_" fill="url(#XMLID_4_)" d="M63.564,55.945l-5.513-18.74c-0.277-1.302-1.568-2.366-2.863-2.366h-3.183
		c-1.33,0-2.643,1.066-2.917,2.368l-5.411,18.735c-0.271,1.303,0.592,2.369,1.923,2.369h0.714h2.432l0.179,2.411l0.366,4.623
		c0.107,1.326,1.104,2.411,2.218,2.411h4.051c1.117,0,2.114-1.086,2.22-2.411l0.366-4.623l0.189-2.411h2.422h0.897
		C62.985,58.311,63.844,57.245,63.564,55.945"/>
	<linearGradient id="XMLID_5_" gradientUnits="userSpaceOnUse" x1="18.998" y1="28.043" x2="71.7426" y2="28.043">
		<stop  offset="0" style="stop-color:#F05A2A"/>
		<stop  offset="1" style="stop-color:#FBB041"/>
	</linearGradient>
	<path id="XMLID_3276_" fill="url(#XMLID_5_)" d="M58.448,28.042c0-2.664-2.161-4.823-4.826-4.823s-4.825,2.159-4.825,4.823
		c0,2.667,2.16,4.826,4.825,4.826C56.287,32.867,58.448,30.708,58.448,28.042"/>
	<linearGradient id="XMLID_6_" gradientUnits="userSpaceOnUse" x1="18.998" y1="55.5928" x2="71.7431" y2="55.5928">
		<stop  offset="0" style="stop-color:#F05A2A"/>
		<stop  offset="1" style="stop-color:#FBB041"/>
	</linearGradient>
	<path id="XMLID_3275_" fill="url(#XMLID_6_)" d="M72.177,52.51l-1.592-7.332c-0.209-0.961-1.183-1.748-2.165-1.748h-1.298h-3.575
		h-1.298c-0.982,0-1.958,0.786-2.164,1.748l-1.592,7.332c-0.206,0.962,0.315,1.747,1.164,1.747h1.535l0.149,1.784l0.789,9.933
		c0.079,0.98,0.816,1.782,1.64,1.782h2.993c0.825,0,1.56-0.803,1.639-1.782l0.789-9.933l0.146-1.784h1.605
		C71.831,54.257,72.384,53.472,72.177,52.51"/>
	<linearGradient id="XMLID_9_" gradientUnits="userSpaceOnUse" x1="18.9971" y1="38.4053" x2="71.7428" y2="38.4053">
		<stop  offset="0" style="stop-color:#F05A2A"/>
		<stop  offset="1" style="stop-color:#FBB041"/>
	</linearGradient>
	<path id="XMLID_3274_" fill="url(#XMLID_9_)" d="M68.899,38.406c0-1.97-1.595-3.567-3.567-3.567c-1.968,0-3.563,1.598-3.563,3.567
		c0,1.969,1.596,3.565,3.563,3.565C67.305,41.973,68.899,40.375,68.899,38.406"/>
	<linearGradient id="XMLID_11_" gradientUnits="userSpaceOnUse" x1="18.999" y1="55.6777" x2="71.7438" y2="55.6777">
		<stop  offset="0" style="stop-color:#F05A2A"/>
		<stop  offset="1" style="stop-color:#FBB041"/>
	</linearGradient>
	<path id="XMLID_3273_" fill="url(#XMLID_11_)" d="M30.689,59.113l-4.07-13.85c-0.209-0.961-1.161-1.748-2.119-1.748h-2.352
		c-0.983,0-1.952,0.787-2.156,1.751l-3.997,13.846c-0.203,0.96,0.438,1.748,1.42,1.748h0.527h1.798l0.133,1.782l0.268,3.416
		c0.078,0.98,0.817,1.781,1.642,1.781h2.993c0.823,0,1.562-0.802,1.638-1.781l0.274-3.416l0.138-1.782h1.789h0.665
		C30.262,60.86,30.898,60.075,30.689,59.113"/>
	<linearGradient id="XMLID_12_" gradientUnits="userSpaceOnUse" x1="18.998" y1="38.4932" x2="71.7411" y2="38.4932">
		<stop  offset="0" style="stop-color:#F05A2A"/>
		<stop  offset="1" style="stop-color:#FBB041"/>
	</linearGradient>
	<path id="XMLID_3272_" fill="url(#XMLID_12_)" d="M28.256,37.063l-1.502,0.441c-0.431-1.486-1.786-2.577-3.411-2.577
		c-1.624,0-2.978,1.091-3.409,2.577l-1.502-0.441c-0.188-0.041-0.342,0.083-0.342,0.272v0.129v0.351v1.377v0.351v0.101
		c0,0.194,0.153,0.316,0.341,0.278l1.505-0.435c0.432,1.481,1.786,2.571,3.407,2.571c1.622,0,2.976-1.09,3.407-2.571l1.506,0.435
		c0.187,0.038,0.34-0.084,0.34-0.278v-0.101v-0.351v-1.377v-0.351v-0.129C28.596,37.146,28.442,37.022,28.256,37.063"/>
</g>
<g id="XMLID_95_">
	<g id="XMLID_96_">
		<linearGradient id="XMLID_13_" gradientUnits="userSpaceOnUse" x1="9.8604" y1="88.4023" x2="80.9885" y2="88.4023">
			<stop  offset="0" style="stop-color:#F05A2A"/>
			<stop  offset="1" style="stop-color:#FBB041"/>
		</linearGradient>
		<path id="XMLID_330_" fill="url(#XMLID_13_)" d="M11.979,83.031c-2.377-0.081-3.691,1.16-3.852,3.509
			c-0.042,0.609-0.055,1.219-0.152,1.83c-0.131,0.815-0.723,1.249-1.461,1.07c-0.735-0.178-1.156-0.674-1.197-1.491
			c-0.176-3.501,1.896-6.328,5.545-7.342c1.773-0.492,3.572-0.681,5.359-1.028c1.675-0.325,3.351-0.652,5.024-1.031
			c0.805-0.182,0.984-0.102,0.954,0.721c-0.057,1.538-1.374,2.966-3.024,3.185c-1.151,0.153-2.295,0.186-3.567,0.28
			c-0.223,1.015-0.462,2.056-0.677,3.097c-0.676,3.281-1.34,6.562-2.017,9.845c-0.068,0.332-0.177,0.666-0.293,0.994
			c-0.468,1.318-1.055,1.754-2.204,1.657c-1.044-0.089-1.466-0.775-1.205-2.013c0.875-4.143,1.758-8.284,2.634-12.427
			C11.903,83.617,11.932,83.347,11.979,83.031z"/>
		<g id="XMLID_97_">
			<linearGradient id="XMLID_15_" gradientUnits="userSpaceOnUse" x1="9.8604" y1="86.1045" x2="80.9882" y2="86.1045">
				<stop  offset="0" style="stop-color:#F05A2A"/>
				<stop  offset="1" style="stop-color:#FBB041"/>
			</linearGradient>
			<path id="XMLID_187_" fill="url(#XMLID_15_)" d="M79.271,78.71c-0.461-0.032-0.98,0.109-1.407,1.54
				c-0.469,1.033-1.134,1.908-2.143,2.49c-1.439,0.832-2.955,0.623-3.532-0.485c0.037-0.041,0.071-0.104,0.116-0.124
				c2.579-1.124,3.997-3.215,4.779-5.722c0.678-2.174-0.392-3.224-2.537-2.647c-1.184,0.318-2.274,0.9-3.202,1.828
				c-1.953,1.955-2.975,4.224-3.065,6.727c-0.026,0.737-0.248,1.322-0.802,1.859c-0.663,0.643-1.387,0.511-1.536-0.287
				c-0.053-0.284-0.082-0.598-0.025-0.897c0.342-1.807,0.669-3.615,1.085-5.419c0.395-1.712,0.282-1.926-1.396-1.896
				c-0.054,0.001-0.108,0.005-0.163,0.008c-1.18,0.072-1.596,0.349-1.884,1.551c-0.426,1.775-0.779,3.559-1.081,5.337
				c-0.214,1.257-1.538,2.988-2.568,3.245c0.317-0.943,0.708-1.9,0.952-2.868c0.43-1.705,0.488-3.354-0.265-4.766
				c-0.832-1.56-2.537-1.679-4.14-0.321c-0.297,0.252-0.574,0.53-0.862,0.798c-0.58-0.918-1.928-1.096-2.987-0.348
				c-0.248,0.175-0.474,0.554-0.542,0.848c-0.269,1.139-0.439,2.281-0.704,3.421c-0.309,1.329-0.599,2.669-1.051,3.979
				c-0.507,0.691-1.275,1.335-1.832,1.474c0.318-0.943,0.708-1.9,0.952-2.868c0.43-1.705,0.488-3.354-0.265-4.766
				c-0.831-1.56-2.536-1.679-4.14-0.321c-0.297,0.252-0.574,0.529-0.862,0.798c-0.58-0.918-1.928-1.096-2.986-0.348
				c-0.248,0.175-0.474,0.554-0.543,0.847c-0.269,1.139-0.438,2.282-0.703,3.422c-0.309,1.329-0.6,2.669-1.052,3.979
				c-0.245,0.709-0.719,1.522-1.653,1.516c-0.598-0.004-0.908-0.894-0.685-1.954c0.41-1.947,0.872-3.894,1.289-5.841
				c0.054-0.25,0.036-0.71-0.056-0.722c-0.844-0.108-1.702-0.268-2.573-0.153c-0.723,0.094-0.903,0.888-1.045,1.501
				c-0.302,1.307-0.528,2.616-0.849,3.921c-0.258,1.053-0.548,2.112-0.952,3.141c-0.127,0.323-0.715,0.771-1.009,0.765
				c-0.288-0.007-0.498-0.497-0.687-0.816c-0.08-0.135-0.051-0.374-0.013-0.565c0.338-1.695,0.645-3.394,1.051-5.085
				c0.424-1.768,0.376-1.893-1.36-1.891c-0.107,0-0.216,0-0.325,0.009c-0.999,0.088-1.375,0.356-1.663,1.375
				c-0.321,1.134-0.555,2.276-0.821,3.415c-0.329,1.406-0.197,2.847-1.076,4.209c-0.318,0.492-0.655,1.222-1.262,0.997
				c-0.258-0.096-0.303-0.869-0.212-1.333c0.233-1.194,0.634-2.387,0.897-3.583c0.29-1.31-0.046-1.985-1.207-2.314
				c-0.789-0.223-1.638-0.334-2.485-0.394c-0.668-0.048-0.843-0.266-0.736-1.007c0.069-0.482-0.189-1.206-0.551-1.343
				c-0.422-0.161-1.204,0.039-1.673,0.365c-1.006,0.7-1.26,2.283-0.547,3.044c0.348,0.371,0.435,0.725,0.284,1.288
				c-0.376,1.412-1.617,6.741-1.988,8.154c-0.134,0.512-0.139,1.012,0.348,1.018c0.351,0.005,0.838-0.36,1.168-0.671
				c0.199-0.188,0.236-0.583,0.309-0.888c0.304-1.269,1.544-6.446,1.84-7.719c1.613,0.292,1.72,0.488,1.353,2.143
				c-0.266,1.196-0.524,2.395-0.71,3.59c-0.181,1.161-0.075,2.246,0.952,2.784c1.019,0.533,2.149,0.252,3.22-0.483
				c0.626-0.431,1.159-1.03,1.785-1.601c0.993,1.723,3.635,1.603,5.991-0.97c1.401,1.579,3.157,1.024,5.146-0.287
				c-0.246,1.227-0.454,2.304-0.682,3.38c-0.305,1.445,0.344,2.567,1.637,2.803c0.759,0.138,1.24-0.17,1.435-0.988
				c0.199-0.832,0.335-1.669,0.488-2.503c0.207-1.126,0.403-2.252,0.606-3.393c1.492,0.318,2.901,0.227,4.254-0.187
				c0,0.001-0.004,0.003-0.004,0.003c0.759-0.173,2.841-1.058,3.696-1.621c-0.247,1.227-0.455,2.594-0.683,3.671
				c-0.305,1.444,0.344,2.566,1.638,2.802c0.758,0.138,1.24-0.17,1.435-0.987c0.198-0.833,0.335-1.67,0.488-2.504
				c0.206-1.126,0.402-2.252,0.606-3.393c3.347,0.715,6.284-0.617,9.088-3.068c0.57,1.335,1.672,1.748,3.178,1.37
				c1.479-0.37,2.532-1.44,3.408-2.7c0.105,0.057,0.158,0.072,0.193,0.105c1.604,1.566,3.676,1.576,5.924,0.473
				c2.438-1.195,3.894-3.269,4.545-5.803C79.719,79.485,79.798,78.747,79.271,78.71z M45.088,87.644
				c-0.307,0.397-0.949,0.888-1.284,0.842c-0.341-0.046-0.667-0.657-0.689-1.097c-0.074-1.454,0.402-2.892,1.41-4.173
				c0.275-0.35,0.884-0.714,1.171-0.712c0.889,0.007,0.701,1.294,0.701,1.431C46.312,85.235,45.963,86.512,45.088,87.644z
				 M57.826,81.72c-0.083,1.3-0.433,2.577-1.308,3.708c-0.308,0.397-0.95,0.888-1.285,0.842c-0.34-0.046-0.667-0.657-0.689-1.097
				c-0.073-1.454,0.403-2.891,1.411-4.173c0.274-0.35,0.884-0.714,1.17-0.712C58.015,80.295,57.826,81.582,57.826,81.72z
				 M73.597,77.11c0.26-0.225,0.721-0.55,1-0.39c0.279,0.161,0.09,0.76-0.06,1.078c-0.536,1.142-1.424,1.976-2.7,2.708
				C72.12,79.097,72.585,77.981,73.597,77.11z"/>
			<linearGradient id="XMLID_17_" gradientUnits="userSpaceOnUse" x1="9.8584" y1="72.1074" x2="80.989" y2="72.1074">
				<stop  offset="0" style="stop-color:#F05A2A"/>
				<stop  offset="1" style="stop-color:#FBB041"/>
			</linearGradient>
			<path id="XMLID_98_" fill="url(#XMLID_17_)" d="M68.771,71.107c0.033,1.234-0.511,2.191-1.445,2.974
				c-1.214,1.015-2.591,0.604-2.693-0.812c-0.079-1.095,0.366-2.105,1.253-2.958c0.604-0.581,1.292-0.896,2.006-0.661
				C68.573,69.873,68.818,70.444,68.771,71.107z"/>
		</g>
	</g>
</g>
</svg>
