<?xml version="1.0" encoding="utf-8"?>
<!-- Generator: Adobe Illustrator 16.0.0, SVG Export Plug-In . SVG Version: 6.00 Build 0)  -->
<!DOCTYPE svg PUBLIC "-//W3C//DTD SVG 1.1//EN" "http://www.w3.org/Graphics/SVG/1.1/DTD/svg11.dtd">
<svg version="1.1" id="Layer_1" xmlns="http://www.w3.org/2000/svg" xmlns:xlink="http://www.w3.org/1999/xlink" x="0px" y="0px"
	 width="85px" height="130px" viewBox="0 0 85 130" enable-background="new 0 0 85 130" xml:space="preserve">
<g>
	<g>
		<path fill="#F05A2A" d="M22.407,103.74h0.836v3.848c0,0.911,0.59,1.442,1.502,1.442c0.919,0,1.519-0.531,1.519-1.459v-3.831h0.835
			v3.848c0,1.324-0.953,2.211-2.346,2.211s-2.346-0.887-2.346-2.211V103.74z"/>
		<path fill="#F05A2A" d="M30.476,103.74h1.822c0.624,0,0.886,0.051,1.113,0.135c0.608,0.228,1.005,0.827,1.005,1.611
			c0,0.76-0.422,1.401-1.072,1.612v0.017c0,0,0.067,0.076,0.178,0.27l1.266,2.312h-0.945l-1.257-2.371h-1.274v2.371h-0.835V103.74z
			 M32.509,106.601c0.649,0,1.055-0.413,1.055-1.08c0-0.438-0.169-0.751-0.473-0.92c-0.16-0.084-0.354-0.135-0.818-0.135h-0.962
			v2.135H32.509z"/>
		<path fill="#F05A2A" d="M37.726,103.74h2.084c1.004,0,1.729,0.557,1.729,1.519c0,0.582-0.287,1.046-0.742,1.282v0.018
			c0.624,0.186,0.979,0.776,0.979,1.442c0,1.122-0.869,1.696-1.915,1.696h-2.135V103.74z M39.81,106.246
			c0.54,0,0.877-0.38,0.877-0.903c0-0.522-0.32-0.877-0.895-0.877h-1.231v1.78H39.81z M39.902,108.972
			c0.641,0,1.021-0.405,1.021-1.013s-0.404-1.021-1.029-1.021h-1.333v2.033H39.902z"/>
		<path fill="#F05A2A" d="M47.869,107.984h-2.245l-0.591,1.713h-0.86l2.144-5.957h0.877l2.144,5.957h-0.869L47.869,107.984z
			 M46.747,104.559c0,0-0.136,0.54-0.236,0.844l-0.667,1.89h1.806l-0.658-1.89c-0.102-0.304-0.228-0.844-0.228-0.844H46.747z"/>
		<path fill="#F05A2A" d="M52.056,103.74h0.826l2.649,3.873c0.22,0.32,0.498,0.86,0.498,0.86h0.018c0,0-0.06-0.531-0.06-0.86v-3.873
			h0.835v5.957h-0.818l-2.657-3.864c-0.22-0.329-0.498-0.869-0.498-0.869h-0.018c0,0,0.06,0.531,0.06,0.869v3.864h-0.835V103.74z"/>
		<path fill="#F05A2A" d="M62.94,103.639c1.722,0,3.055,1.325,3.055,3.038c0,1.755-1.333,3.122-3.055,3.122
			c-1.721,0-3.062-1.367-3.062-3.122C59.878,104.964,61.22,103.639,62.94,103.639z M62.94,109.03c1.216,0,2.194-1.012,2.194-2.354
			c0-1.3-0.979-2.278-2.194-2.278c-1.215,0-2.202,0.979-2.202,2.278C60.738,108.019,61.726,109.03,62.94,109.03z"/>
	</g>
</g>
<g id="XMLID_3246_">
	<g id="XMLID_3259_">
		<linearGradient id="XMLID_2_" gradientUnits="userSpaceOnUse" x1="15.2031" y1="57.7969" x2="75.5705" y2="57.7969">
			<stop  offset="0" style="stop-color:#F05A2A"/>
			<stop  offset="1" style="stop-color:#FBB041"/>
		</linearGradient>
		<rect id="XMLID_3265_" x="65.565" y="48.379" fill="url(#XMLID_2_)" width="7.528" height="18.837"/>
		<linearGradient id="XMLID_3_" gradientUnits="userSpaceOnUse" x1="18.0264" y1="44.084" x2="78.3883" y2="44.084">
			<stop  offset="0" style="stop-color:#F05A2A"/>
			<stop  offset="1" style="stop-color:#FBB041"/>
		</linearGradient>
		<path id="XMLID_3264_" fill="url(#XMLID_3_)" d="M33.552,29.6c0-4.769,3.878-8.646,8.646-8.646s8.647,3.879,8.647,8.646v37.616
			h-9.553V55.323c0-0.732-0.596-1.329-1.329-1.329h-1.456V36.783c0-0.733-0.594-1.33-1.329-1.33h-3.627V29.6z"/>
		<linearGradient id="XMLID_4_" gradientUnits="userSpaceOnUse" x1="19.8828" y1="57.7979" x2="80.2486" y2="57.7979">
			<stop  offset="0" style="stop-color:#F05A2A"/>
			<stop  offset="1" style="stop-color:#FBB041"/>
		</linearGradient>
		<path id="XMLID_3263_" fill="url(#XMLID_4_)" d="M16.83,48.379h10.965v5.615h-1.456c-0.734,0-1.329,0.597-1.329,1.329v11.894
			h-8.179L16.83,48.379L16.83,48.379z"/>
		<linearGradient id="XMLID_5_" gradientUnits="userSpaceOnUse" x1="18.9551" y1="52.6631" x2="79.3141" y2="52.6631">
			<stop  offset="0" style="stop-color:#F05A2A"/>
			<stop  offset="1" style="stop-color:#FBB041"/>
		</linearGradient>
		<polygon id="XMLID_3261_" fill="url(#XMLID_5_)" points="26.737,67.216 26.737,56.651 29.522,56.651 29.522,38.11 36.779,38.11 
			36.778,56.651 39.563,56.651 39.563,67.216 		"/>
		<linearGradient id="XMLID_6_" gradientUnits="userSpaceOnUse" x1="16.5996" y1="47.9023" x2="76.9634" y2="47.9023">
			<stop  offset="0" style="stop-color:#F05A2A"/>
			<stop  offset="1" style="stop-color:#FBB041"/>
		</linearGradient>
		<polygon id="XMLID_3260_" fill="url(#XMLID_6_)" points="52.078,67.216 52.078,33.517 64.302,28.59 64.302,67.216 		"/>
	</g>
	<g id="XMLID_3247_">
		<rect id="XMLID_3258_" x="59.639" y="33.273" fill="#FFFFFF" width="3.045" height="3.045"/>
		<rect id="XMLID_3257_" x="53.697" y="39.305" fill="#FFFFFF" width="3.045" height="3.045"/>
		<rect id="XMLID_3256_" x="53.697" y="45.337" fill="#FFFFFF" width="3.045" height="3.045"/>
		<rect id="XMLID_3255_" x="53.697" y="51.368" fill="#FFFFFF" width="3.045" height="3.045"/>
		<rect id="XMLID_3254_" x="53.697" y="57.4" fill="#FFFFFF" width="3.045" height="3.045"/>
		<rect id="XMLID_3253_" x="53.697" y="63.432" fill="#FFFFFF" width="3.045" height="3.045"/>
		<rect id="XMLID_3252_" x="59.639" y="39.305" fill="#FFFFFF" width="3.045" height="3.045"/>
		<rect id="XMLID_3251_" x="59.639" y="45.337" fill="#FFFFFF" width="3.045" height="3.045"/>
		<rect id="XMLID_3250_" x="59.639" y="51.368" fill="#FFFFFF" width="3.045" height="3.045"/>
		<rect id="XMLID_3249_" x="59.639" y="57.4" fill="#FFFFFF" width="3.045" height="3.045"/>
		<rect id="XMLID_3248_" x="59.639" y="63.432" fill="#FFFFFF" width="3.045" height="3.045"/>
	</g>
</g>
<g id="XMLID_1909_">
	<g id="XMLID_1910_">
		<linearGradient id="XMLID_9_" gradientUnits="userSpaceOnUse" x1="9.8604" y1="88.4023" x2="80.9885" y2="88.4023">
			<stop  offset="0" style="stop-color:#F05A2A"/>
			<stop  offset="1" style="stop-color:#FBB041"/>
		</linearGradient>
		<path id="XMLID_1918_" fill="url(#XMLID_9_)" d="M11.979,83.031c-2.377-0.081-3.691,1.16-3.852,3.509
			c-0.042,0.609-0.055,1.219-0.152,1.83c-0.131,0.815-0.723,1.249-1.461,1.07c-0.735-0.178-1.156-0.674-1.197-1.491
			c-0.176-3.501,1.896-6.328,5.545-7.342c1.773-0.492,3.572-0.681,5.359-1.028c1.675-0.325,3.351-0.652,5.024-1.031
			c0.805-0.182,0.984-0.102,0.954,0.721c-0.057,1.538-1.374,2.966-3.024,3.185c-1.151,0.153-2.295,0.186-3.567,0.28
			c-0.223,1.015-0.462,2.056-0.677,3.097c-0.676,3.281-1.34,6.562-2.017,9.845c-0.068,0.332-0.177,0.666-0.293,0.994
			c-0.468,1.318-1.055,1.754-2.204,1.657c-1.044-0.089-1.466-0.775-1.205-2.013c0.875-4.143,1.758-8.284,2.634-12.427
			C11.903,83.617,11.932,83.347,11.979,83.031z"/>
		<g id="XMLID_1911_">
			<linearGradient id="XMLID_11_" gradientUnits="userSpaceOnUse" x1="9.8604" y1="86.1045" x2="80.9882" y2="86.1045">
				<stop  offset="0" style="stop-color:#F05A2A"/>
				<stop  offset="1" style="stop-color:#FBB041"/>
			</linearGradient>
			<path id="XMLID_1913_" fill="url(#XMLID_11_)" d="M79.271,78.71c-0.461-0.032-0.98,0.109-1.407,1.54
				c-0.469,1.033-1.134,1.908-2.143,2.49c-1.439,0.832-2.955,0.623-3.532-0.485c0.037-0.041,0.071-0.104,0.116-0.124
				c2.579-1.124,3.997-3.215,4.779-5.722c0.678-2.174-0.392-3.224-2.537-2.647c-1.184,0.318-2.274,0.9-3.202,1.828
				c-1.953,1.955-2.975,4.224-3.065,6.727c-0.026,0.737-0.248,1.322-0.802,1.859c-0.663,0.643-1.387,0.511-1.536-0.287
				c-0.053-0.284-0.082-0.598-0.025-0.897c0.342-1.807,0.669-3.615,1.085-5.419c0.395-1.712,0.282-1.926-1.396-1.896
				c-0.054,0.001-0.108,0.005-0.163,0.008c-1.18,0.072-1.596,0.349-1.884,1.551c-0.426,1.775-0.779,3.559-1.081,5.337
				c-0.214,1.257-1.538,2.988-2.568,3.245c0.317-0.943,0.708-1.9,0.952-2.868c0.43-1.705,0.488-3.354-0.265-4.766
				c-0.832-1.56-2.537-1.679-4.14-0.321c-0.297,0.252-0.574,0.53-0.862,0.798c-0.58-0.918-1.928-1.096-2.987-0.348
				c-0.248,0.175-0.474,0.554-0.542,0.848c-0.269,1.139-0.439,2.281-0.704,3.421c-0.309,1.329-0.599,2.669-1.051,3.979
				c-0.507,0.691-1.275,1.335-1.832,1.474c0.318-0.943,0.708-1.9,0.952-2.868c0.43-1.705,0.488-3.354-0.265-4.766
				c-0.831-1.56-2.536-1.679-4.14-0.321c-0.297,0.252-0.574,0.529-0.862,0.798c-0.58-0.918-1.928-1.096-2.986-0.348
				c-0.248,0.175-0.474,0.554-0.543,0.847c-0.269,1.139-0.438,2.282-0.703,3.422c-0.309,1.329-0.6,2.669-1.052,3.979
				c-0.245,0.709-0.719,1.522-1.653,1.516c-0.598-0.004-0.908-0.894-0.685-1.954c0.41-1.947,0.872-3.894,1.289-5.841
				c0.054-0.25,0.036-0.71-0.056-0.722c-0.844-0.108-1.702-0.268-2.573-0.153c-0.723,0.094-0.903,0.888-1.045,1.501
				c-0.302,1.307-0.528,2.616-0.849,3.921c-0.258,1.053-0.548,2.112-0.952,3.141c-0.127,0.323-0.715,0.771-1.009,0.765
				c-0.288-0.007-0.498-0.497-0.687-0.816c-0.08-0.135-0.051-0.374-0.013-0.565c0.338-1.695,0.645-3.394,1.051-5.085
				c0.424-1.768,0.376-1.893-1.36-1.891c-0.107,0-0.216,0-0.325,0.009c-0.999,0.088-1.375,0.356-1.663,1.375
				c-0.321,1.134-0.555,2.276-0.821,3.415c-0.329,1.406-0.197,2.847-1.076,4.209c-0.318,0.492-0.655,1.222-1.262,0.997
				c-0.258-0.096-0.303-0.869-0.212-1.333c0.233-1.194,0.634-2.387,0.897-3.583c0.29-1.31-0.046-1.985-1.207-2.314
				c-0.789-0.223-1.638-0.334-2.485-0.394c-0.668-0.048-0.843-0.266-0.736-1.007c0.069-0.482-0.189-1.206-0.551-1.343
				c-0.422-0.161-1.204,0.039-1.673,0.365c-1.006,0.7-1.26,2.283-0.547,3.044c0.348,0.371,0.435,0.725,0.284,1.288
				c-0.376,1.412-1.617,6.741-1.988,8.154c-0.134,0.512-0.139,1.012,0.348,1.018c0.351,0.005,0.838-0.36,1.168-0.671
				c0.199-0.188,0.236-0.583,0.309-0.888c0.304-1.269,1.544-6.446,1.84-7.719c1.613,0.292,1.72,0.488,1.353,2.143
				c-0.266,1.196-0.524,2.395-0.71,3.59c-0.181,1.161-0.075,2.246,0.952,2.784c1.019,0.533,2.149,0.252,3.22-0.483
				c0.626-0.431,1.159-1.03,1.785-1.601c0.993,1.723,3.635,1.603,5.991-0.97c1.401,1.579,3.157,1.024,5.146-0.287
				c-0.246,1.227-0.454,2.304-0.682,3.38c-0.305,1.445,0.344,2.567,1.637,2.803c0.759,0.138,1.24-0.17,1.435-0.988
				c0.199-0.832,0.335-1.669,0.488-2.503c0.207-1.126,0.403-2.252,0.606-3.393c1.492,0.318,2.901,0.227,4.254-0.187
				c0,0.001-0.004,0.003-0.004,0.003c0.759-0.173,2.841-1.058,3.696-1.621c-0.247,1.227-0.455,2.594-0.683,3.671
				c-0.305,1.444,0.344,2.566,1.638,2.802c0.758,0.138,1.24-0.17,1.435-0.987c0.198-0.833,0.335-1.67,0.488-2.504
				c0.206-1.126,0.402-2.252,0.606-3.393c3.347,0.715,6.284-0.617,9.088-3.068c0.57,1.335,1.672,1.748,3.178,1.37
				c1.479-0.37,2.532-1.44,3.408-2.7c0.105,0.057,0.158,0.072,0.193,0.105c1.604,1.566,3.676,1.576,5.924,0.473
				c2.438-1.195,3.894-3.269,4.545-5.803C79.719,79.485,79.798,78.747,79.271,78.71z M45.088,87.644
				c-0.307,0.397-0.949,0.888-1.284,0.842c-0.341-0.046-0.667-0.657-0.689-1.097c-0.074-1.454,0.402-2.892,1.41-4.173
				c0.275-0.35,0.884-0.714,1.171-0.712c0.889,0.007,0.701,1.294,0.701,1.431C46.312,85.235,45.963,86.512,45.088,87.644z
				 M57.826,81.72c-0.083,1.3-0.433,2.577-1.308,3.708c-0.308,0.397-0.95,0.888-1.285,0.842c-0.34-0.046-0.667-0.657-0.689-1.097
				c-0.073-1.454,0.403-2.891,1.411-4.173c0.274-0.35,0.884-0.714,1.17-0.712C58.015,80.295,57.826,81.582,57.826,81.72z
				 M73.597,77.11c0.26-0.225,0.721-0.55,1-0.39c0.279,0.161,0.09,0.76-0.06,1.078c-0.536,1.142-1.424,1.976-2.7,2.708
				C72.12,79.097,72.585,77.981,73.597,77.11z"/>
			<linearGradient id="XMLID_12_" gradientUnits="userSpaceOnUse" x1="9.8584" y1="72.1074" x2="80.989" y2="72.1074">
				<stop  offset="0" style="stop-color:#F05A2A"/>
				<stop  offset="1" style="stop-color:#FBB041"/>
			</linearGradient>
			<path id="XMLID_1912_" fill="url(#XMLID_12_)" d="M68.771,71.107c0.033,1.234-0.511,2.191-1.445,2.974
				c-1.214,1.015-2.591,0.604-2.693-0.812c-0.079-1.095,0.366-2.105,1.253-2.958c0.604-0.581,1.292-0.896,2.006-0.661
				C68.573,69.873,68.818,70.444,68.771,71.107z"/>
		</g>
	</g>
</g>
</svg>
