<?xml version="1.0" encoding="utf-8"?>
<!-- Generator: Adobe Illustrator 16.0.0, SVG Export Plug-In . SVG Version: 6.00 Build 0)  -->
<!DOCTYPE svg PUBLIC "-//W3C//DTD SVG 1.1//EN" "http://www.w3.org/Graphics/SVG/1.1/DTD/svg11.dtd">
<svg version="1.1" id="Layer_1" xmlns="http://www.w3.org/2000/svg" xmlns:xlink="http://www.w3.org/1999/xlink" x="0px" y="0px"
	 width="85px" height="130px" viewBox="0 0 85 130" enable-background="new 0 0 85 130" xml:space="preserve">
<g id="XMLID_3333_">
	<g id="XMLID_3339_">
		<linearGradient id="SVGID_1_" gradientUnits="userSpaceOnUse" x1="5.2197" y1="31.2715" x2="76.5421" y2="31.2715">
			<stop  offset="0" style="stop-color:#F05A2A"/>
			<stop  offset="1" style="stop-color:#FBB041"/>
		</linearGradient>
		<path fill="url(#SVGID_1_)" d="M49.904,37.688c-0.995-2.731-1.917-5.272-2.85-7.81c-0.114-0.311-0.214-0.604-0.088-0.934
			c0.304-0.796,0.562-1.611,0.906-2.389c0.628-1.411,2.144-2.03,3.618-1.527c1.277,0.436,2.202,2.018,1.751,3.366
			C52.217,31.451,51.069,34.467,49.904,37.688z"/>
	</g>
	<linearGradient id="XMLID_2_" gradientUnits="userSpaceOnUse" x1="5.2354" y1="13.5732" x2="76.5292" y2="13.5732">
		<stop  offset="0" style="stop-color:#F05A2A"/>
		<stop  offset="1" style="stop-color:#FBB041"/>
	</linearGradient>
	<path id="XMLID_3338_" fill="url(#XMLID_2_)" d="M40.794,13.57c-0.001-1.177-0.011-2.354,0.003-3.531
		c0.011-0.909,0.515-1.492,1.262-1.506c0.743-0.015,1.282,0.562,1.289,1.472c0.019,2.383,0.019,4.767,0,7.15
		c-0.007,0.918-0.541,1.479-1.299,1.458c-0.755-0.02-1.243-0.595-1.252-1.512C40.785,15.925,40.794,14.748,40.794,13.57z"/>
	<linearGradient id="XMLID_3_" gradientUnits="userSpaceOnUse" x1="5.2227" y1="15.7744" x2="76.5397" y2="15.7744">
		<stop  offset="0" style="stop-color:#F05A2A"/>
		<stop  offset="1" style="stop-color:#FBB041"/>
	</linearGradient>
	<path id="XMLID_3337_" fill="url(#XMLID_3_)" d="M54.418,12.702c-0.059,0.154-0.123,0.415-0.25,0.642
		c-1.135,2.029-2.271,4.06-3.429,6.075c-0.467,0.814-1.188,1.044-1.835,0.609c-0.622-0.418-0.827-1.02-0.461-1.688
		c1.174-2.142,2.377-4.269,3.582-6.394c0.339-0.597,0.904-0.757,1.525-0.564C54.114,11.557,54.379,12.01,54.418,12.702z"/>
	<linearGradient id="XMLID_4_" gradientUnits="userSpaceOnUse" x1="5.2236" y1="15.7334" x2="76.5382" y2="15.7334">
		<stop  offset="0" style="stop-color:#F05A2A"/>
		<stop  offset="1" style="stop-color:#FBB041"/>
	</linearGradient>
	<path id="XMLID_3336_" fill="url(#XMLID_4_)" d="M36.013,18.867c-0.046,0.645-0.349,1.034-0.905,1.234
		c-0.591,0.212-1.102-0.001-1.381-0.479c-1.26-2.157-2.49-4.331-3.68-6.526c-0.331-0.611-0.137-1.222,0.495-1.592
		c0.618-0.361,1.283-0.295,1.638,0.305c1.286,2.174,2.5,4.391,3.73,6.597C35.991,18.551,35.987,18.744,36.013,18.867z"/>
	<g id="XMLID_3335_">
		<linearGradient id="SVGID_2_" gradientUnits="userSpaceOnUse" x1="5.2227" y1="45.9932" x2="76.541" y2="45.9932">
			<stop  offset="0" style="stop-color:#F05A2A"/>
			<stop  offset="1" style="stop-color:#FBB041"/>
		</linearGradient>
		<path fill="url(#SVGID_2_)" d="M52.993,53.659c-0.161-1.323-0.198-2.931-0.773-4.477c-1.623-4.359-3.195-8.738-4.787-13.109
			c-0.875-2.407-1.726-4.823-2.632-7.218c-0.462-1.221-1.524-1.902-2.726-1.882c-1.17,0.02-2.211,0.766-2.643,1.884
			c-0.331,0.86-0.126,1.67,0.176,2.49c1.188,3.234,2.361,6.474,3.537,9.713c0.106,0.293,0.352,0.693-0.067,0.843
			c-0.442,0.157-0.454-0.346-0.555-0.617c-0.597-1.599-1.176-3.205-1.761-4.809c-1.181-3.237-2.354-6.478-3.549-9.71
			c-0.429-1.162-1.287-1.819-2.53-1.89c-1.159-0.064-2.052,0.429-2.647,1.435c-0.585,0.988-0.381,1.964-0.009,2.971
			c1.449,3.921,2.872,7.853,4.3,11.781c0.103,0.284,0.368,0.664-0.116,0.807c-0.399,0.117-0.437-0.32-0.527-0.569
			c-0.854-2.322-1.689-4.65-2.534-6.976c-0.926-2.546-1.827-5.102-2.795-7.632c-0.573-1.499-1.979-2.135-3.53-1.712
			c-1.293,0.354-2.185,1.767-1.956,3.169c0.069,0.43,0.244,0.846,0.394,1.26c1.809,4.986,3.624,9.97,5.427,14.957
			c0.1,0.274,0.404,0.67-0.045,0.838c-0.454,0.169-0.463-0.325-0.564-0.601c-0.93-2.523-1.854-5.05-2.773-7.577
			c-0.675-1.854-1.333-3.715-2.017-5.566c-0.619-1.678-2.167-2.442-3.741-1.87c-1.525,0.554-2.221,2.113-1.675,3.762
			c0.094,0.28,0.198,0.556,0.299,0.833c2.368,6.502,4.739,13.003,7.097,19.509c0.094,0.258,0.373,0.576,0.155,0.809
			c-0.218,0.231-0.552-0.013-0.83-0.081c-2.833-0.696-5.666-1.389-8.496-2.092c-1.653-0.41-3.04,0.268-3.559,1.758
			c-0.514,1.475,0.157,2.906,1.688,3.615c5.873,2.723,11.746,5.446,17.619,8.169C42.518,69.894,52.67,63.884,52.993,53.659z"/>
	</g>
	<g id="XMLID_3334_">
		<linearGradient id="SVGID_3_" gradientUnits="userSpaceOnUse" x1="5.2256" y1="46.001" x2="76.5389" y2="46.001">
			<stop  offset="0" style="stop-color:#F05A2A"/>
			<stop  offset="1" style="stop-color:#FBB041"/>
		</linearGradient>
		<path fill="url(#SVGID_3_)" d="M70.465,54.077c-0.493-1.408-1.926-2.164-3.402-1.796c-0.857,0.214-1.715,0.431-2.572,0.644
			c-2.309,0.574-4.618,1.146-7.094,1.76c0.116-0.348,0.176-0.543,0.246-0.734c2.492-6.862,4.994-13.722,7.473-20.589
			c0.599-1.658-0.163-3.259-1.734-3.796c-1.533-0.522-3.067,0.258-3.669,1.882c-0.48,1.297-0.942,2.601-1.416,3.901
			c-1.106,3.044-2.212,6.089-3.327,9.13c-0.077,0.21-0.053,0.611-0.477,0.438c-0.36-0.148-0.296-0.341-0.161-0.703
			c1.915-5.161,3.79-10.337,5.666-15.513c0.183-0.502,0.247-1.023,0.119-1.565c-0.312-1.319-1.351-2.211-2.689-2.279
			c-1.363-0.07-2.479,0.78-3.009,2.259c-1.298,3.631-2.599,7.261-3.919,10.883c-0.173,0.472-0.18,0.881-0.007,1.351
			c1.152,3.119,2.342,6.227,3.383,9.383c0.119,0.363,0.5,1.606,0.542,1.777c0.267,1.112,0.341,2.271,0.309,3.379
			c-0.168,5.748-2.875,9.989-7.89,12.779c-0.151,0.085-0.451,0.034-0.414,0.423c0.604,0.193,1.172-0.132,1.738-0.235
			c2.35-0.43,4.396-1.648,6.532-2.624c4.761-2.177,9.503-4.393,14.248-6.604C70.329,56.979,70.957,55.479,70.465,54.077z"/>
	</g>
</g>
<g id="XMLID_2256_">
	<g id="XMLID_2257_">
		<linearGradient id="XMLID_5_" gradientUnits="userSpaceOnUse" x1="9.8604" y1="89.4033" x2="80.9885" y2="89.4033">
			<stop  offset="0" style="stop-color:#F05A2A"/>
			<stop  offset="1" style="stop-color:#FBB041"/>
		</linearGradient>
		<path id="XMLID_2265_" fill="url(#XMLID_5_)" d="M11.979,84.031c-2.377-0.081-3.691,1.161-3.852,3.509
			c-0.042,0.609-0.055,1.219-0.152,1.83c-0.131,0.815-0.723,1.249-1.461,1.07c-0.735-0.178-1.156-0.674-1.197-1.491
			c-0.176-3.501,1.896-6.328,5.545-7.342c1.773-0.492,3.572-0.681,5.359-1.028c1.675-0.325,3.351-0.652,5.024-1.03
			c0.805-0.183,0.984-0.103,0.954,0.72c-0.057,1.538-1.374,2.966-3.024,3.186c-1.151,0.152-2.295,0.185-3.567,0.279
			c-0.223,1.015-0.462,2.056-0.677,3.097c-0.676,3.281-1.34,6.563-2.017,9.845c-0.068,0.332-0.177,0.666-0.293,0.995
			c-0.468,1.317-1.055,1.753-2.204,1.656c-1.044-0.089-1.466-0.775-1.205-2.013c0.875-4.143,1.758-8.284,2.634-12.426
			C11.903,84.617,11.932,84.347,11.979,84.031z"/>
		<g id="XMLID_2258_">
			<linearGradient id="XMLID_6_" gradientUnits="userSpaceOnUse" x1="9.8604" y1="87.1045" x2="80.9882" y2="87.1045">
				<stop  offset="0" style="stop-color:#F05A2A"/>
				<stop  offset="1" style="stop-color:#FBB041"/>
			</linearGradient>
			<path id="XMLID_2260_" fill="url(#XMLID_6_)" d="M79.271,79.71c-0.461-0.032-0.98,0.109-1.407,1.54
				c-0.469,1.033-1.134,1.908-2.143,2.491c-1.439,0.831-2.955,0.622-3.532-0.486c0.037-0.041,0.071-0.104,0.116-0.124
				c2.579-1.124,3.997-3.214,4.779-5.722c0.678-2.174-0.392-3.224-2.537-2.647c-1.184,0.318-2.274,0.9-3.202,1.828
				c-1.953,1.956-2.975,4.224-3.065,6.727c-0.026,0.737-0.248,1.323-0.802,1.859c-0.663,0.643-1.387,0.511-1.536-0.287
				c-0.053-0.284-0.082-0.598-0.025-0.897c0.342-1.807,0.669-3.615,1.085-5.419c0.395-1.712,0.282-1.926-1.396-1.896
				c-0.054,0.001-0.108,0.005-0.163,0.008c-1.18,0.072-1.596,0.349-1.884,1.551c-0.426,1.775-0.779,3.559-1.081,5.337
				c-0.214,1.257-1.538,2.988-2.568,3.245c0.317-0.943,0.708-1.9,0.952-2.867c0.43-1.705,0.488-3.354-0.265-4.767
				c-0.832-1.56-2.537-1.678-4.14-0.321c-0.297,0.252-0.574,0.53-0.862,0.798c-0.58-0.918-1.928-1.096-2.987-0.348
				c-0.248,0.175-0.474,0.554-0.542,0.848c-0.269,1.139-0.439,2.282-0.704,3.421c-0.309,1.329-0.599,2.669-1.051,3.979
				c-0.507,0.691-1.275,1.335-1.832,1.474c0.318-0.943,0.708-1.9,0.952-2.868c0.43-1.705,0.488-3.354-0.265-4.766
				c-0.831-1.56-2.536-1.679-4.14-0.321c-0.297,0.252-0.574,0.529-0.862,0.798c-0.58-0.918-1.928-1.096-2.986-0.348
				c-0.248,0.175-0.474,0.554-0.543,0.847c-0.269,1.14-0.438,2.282-0.703,3.422c-0.309,1.329-0.6,2.669-1.052,3.979
				c-0.245,0.709-0.719,1.522-1.653,1.516c-0.598-0.004-0.908-0.894-0.685-1.954c0.41-1.947,0.872-3.894,1.289-5.841
				c0.054-0.249,0.036-0.71-0.056-0.722c-0.844-0.108-1.702-0.268-2.573-0.153c-0.723,0.094-0.903,0.888-1.045,1.501
				c-0.302,1.307-0.528,2.616-0.849,3.921c-0.258,1.053-0.548,2.112-0.952,3.141c-0.127,0.323-0.715,0.771-1.009,0.765
				c-0.288-0.007-0.498-0.497-0.687-0.816c-0.08-0.135-0.051-0.374-0.013-0.565c0.338-1.695,0.645-3.394,1.051-5.085
				c0.424-1.768,0.376-1.893-1.36-1.891c-0.107,0-0.216,0-0.325,0.01c-0.999,0.087-1.375,0.355-1.663,1.374
				c-0.321,1.134-0.555,2.276-0.821,3.415c-0.329,1.406-0.197,2.848-1.076,4.209c-0.318,0.492-0.655,1.222-1.262,0.997
				c-0.258-0.096-0.303-0.869-0.212-1.333c0.233-1.194,0.634-2.387,0.897-3.582c0.29-1.311-0.046-1.986-1.207-2.315
				c-0.789-0.223-1.638-0.334-2.485-0.394c-0.668-0.047-0.843-0.266-0.736-1.007c0.069-0.482-0.189-1.206-0.551-1.343
				c-0.422-0.161-1.204,0.039-1.673,0.365c-1.006,0.7-1.26,2.283-0.547,3.044c0.348,0.371,0.435,0.725,0.284,1.288
				c-0.376,1.412-1.617,6.741-1.988,8.154c-0.134,0.512-0.139,1.012,0.348,1.018c0.351,0.005,0.838-0.36,1.168-0.67
				c0.199-0.188,0.236-0.584,0.309-0.889c0.304-1.269,1.544-6.446,1.84-7.719c1.613,0.292,1.72,0.488,1.353,2.143
				c-0.266,1.196-0.524,2.395-0.71,3.59c-0.181,1.162-0.075,2.246,0.952,2.784c1.019,0.533,2.149,0.252,3.22-0.483
				c0.626-0.431,1.159-1.03,1.785-1.601c0.993,1.723,3.635,1.603,5.991-0.97c1.401,1.579,3.157,1.024,5.146-0.287
				c-0.246,1.227-0.454,2.304-0.682,3.381c-0.305,1.444,0.344,2.566,1.637,2.802c0.759,0.138,1.24-0.17,1.435-0.988
				c0.199-0.832,0.335-1.669,0.488-2.503c0.207-1.126,0.403-2.252,0.606-3.393c1.492,0.318,2.901,0.227,4.254-0.187
				c0,0.001-0.004,0.004-0.004,0.004c0.759-0.174,2.841-1.059,3.696-1.622c-0.247,1.227-0.455,2.594-0.683,3.671
				c-0.305,1.444,0.344,2.566,1.638,2.802c0.758,0.138,1.24-0.169,1.435-0.987c0.198-0.833,0.335-1.669,0.488-2.504
				c0.206-1.126,0.402-2.252,0.606-3.393c3.347,0.715,6.284-0.617,9.088-3.067c0.57,1.334,1.672,1.747,3.178,1.369
				c1.479-0.37,2.532-1.44,3.408-2.699c0.105,0.056,0.158,0.071,0.193,0.104c1.604,1.566,3.676,1.576,5.924,0.474
				c2.438-1.196,3.894-3.27,4.545-5.803C79.719,80.485,79.798,79.747,79.271,79.71z M45.088,88.644
				c-0.307,0.397-0.949,0.888-1.284,0.842c-0.341-0.046-0.667-0.657-0.689-1.097c-0.074-1.454,0.402-2.891,1.41-4.173
				c0.275-0.35,0.884-0.714,1.171-0.712c0.889,0.007,0.701,1.294,0.701,1.431C46.312,86.235,45.963,87.513,45.088,88.644z
				 M57.826,82.72c-0.083,1.3-0.433,2.577-1.308,3.708c-0.308,0.397-0.95,0.888-1.285,0.842c-0.34-0.046-0.667-0.657-0.689-1.097
				c-0.073-1.453,0.403-2.891,1.411-4.173c0.274-0.35,0.884-0.714,1.17-0.712C58.015,81.295,57.826,82.583,57.826,82.72z
				 M73.597,78.11c0.26-0.225,0.721-0.55,1-0.389c0.279,0.16,0.09,0.76-0.06,1.077c-0.536,1.142-1.424,1.976-2.7,2.708
				C72.12,80.097,72.585,78.981,73.597,78.11z"/>
			<linearGradient id="XMLID_9_" gradientUnits="userSpaceOnUse" x1="9.8584" y1="73.1084" x2="80.989" y2="73.1084">
				<stop  offset="0" style="stop-color:#F05A2A"/>
				<stop  offset="1" style="stop-color:#FBB041"/>
			</linearGradient>
			<path id="XMLID_2259_" fill="url(#XMLID_9_)" d="M68.771,72.107c0.033,1.234-0.511,2.191-1.445,2.974
				c-1.214,1.016-2.591,0.604-2.693-0.812c-0.079-1.095,0.366-2.105,1.253-2.958c0.604-0.581,1.292-0.896,2.006-0.661
				C68.573,70.873,68.818,71.444,68.771,72.107z"/>
		</g>
	</g>
</g>
<g>
	<g>
		<path fill="#F05A2A" d="M24.237,110.515h-2.245l-0.591,1.713h-0.86l2.144-5.957h0.877l2.144,5.957h-0.869L24.237,110.515z
			 M23.115,107.089c0,0-0.136,0.54-0.236,0.844l-0.667,1.89h1.806l-0.658-1.89c-0.102-0.304-0.228-0.844-0.228-0.844H23.115z"/>
		<path fill="#F05A2A" d="M28.719,106.271h0.878l1.366,3.223c0.136,0.329,0.296,0.802,0.296,0.802h0.017c0,0,0.16-0.473,0.295-0.802
			l1.367-3.223h0.878l0.48,5.957H33.47l-0.296-3.755c-0.025-0.363-0.008-0.878-0.008-0.878h-0.018c0,0-0.177,0.549-0.32,0.878
			l-1.189,2.684h-0.743l-1.181-2.684c-0.136-0.32-0.321-0.895-0.321-0.895h-0.017c0,0,0.009,0.531-0.017,0.895l-0.287,3.755h-0.836
			L28.719,106.271z"/>
		<path fill="#F05A2A" d="M37.571,106.271h0.836v5.957h-0.836V106.271z"/>
		<path fill="#F05A2A" d="M44.509,106.169c1.426,0,2.169,0.717,2.169,0.717l-0.422,0.625c0,0-0.667-0.582-1.68-0.582
			c-1.4,0-2.244,1.021-2.244,2.295c0,1.384,0.944,2.337,2.193,2.337c1.029,0,1.688-0.742,1.688-0.742v-0.86h-0.97v-0.726h1.729
			v2.995h-0.734v-0.371c0-0.127,0.009-0.253,0.009-0.253H46.23c0,0-0.65,0.726-1.831,0.726c-1.604,0-2.929-1.266-2.929-3.089
			C41.471,107.52,42.771,106.169,44.509,106.169z"/>
		<path fill="#F05A2A" d="M52.778,106.169c1.722,0,3.055,1.325,3.055,3.038c0,1.755-1.333,3.122-3.055,3.122
			c-1.721,0-3.062-1.367-3.062-3.122C49.716,107.494,51.058,106.169,52.778,106.169z M52.778,111.561
			c1.216,0,2.194-1.012,2.194-2.354c0-1.3-0.979-2.278-2.194-2.278c-1.215,0-2.202,0.979-2.202,2.278
			C50.576,110.549,51.563,111.561,52.778,111.561z"/>
		<path fill="#F05A2A" d="M58.906,110.911c0,0,0.633,0.642,1.519,0.642c0.557,0,1.029-0.312,1.029-0.878
			c0-1.291-2.886-1.013-2.886-2.844c0-0.928,0.802-1.662,1.924-1.662c1.105,0,1.688,0.6,1.688,0.6l-0.379,0.691
			c0,0-0.549-0.515-1.309-0.515c-0.633,0-1.08,0.396-1.08,0.869c0,1.231,2.886,0.902,2.886,2.835c0,0.92-0.709,1.68-1.89,1.68
			c-1.266,0-1.975-0.785-1.975-0.785L58.906,110.911z"/>
	</g>
</g>
</svg>
