<?xml version="1.0" encoding="utf-8"?>
<!-- Generator: Adobe Illustrator 16.0.0, SVG Export Plug-In . SVG Version: 6.00 Build 0)  -->
<!DOCTYPE svg PUBLIC "-//W3C//DTD SVG 1.1//EN" "http://www.w3.org/Graphics/SVG/1.1/DTD/svg11.dtd">
<svg version="1.1" id="Layer_1" xmlns="http://www.w3.org/2000/svg" xmlns:xlink="http://www.w3.org/1999/xlink" x="0px" y="0px"
	 width="85px" height="130px" viewBox="0 0 85 130" enable-background="new 0 0 85 130" xml:space="preserve">
<g id="XMLID_3342_">
	<linearGradient id="XMLID_2_" gradientUnits="userSpaceOnUse" x1="11.0312" y1="46.0674" x2="85.0914" y2="46.0674">
		<stop  offset="0" style="stop-color:#F05A2A"/>
		<stop  offset="1" style="stop-color:#FBB041"/>
	</linearGradient>
	<path id="XMLID_3346_" fill="url(#XMLID_2_)" d="M44.604,43.327c0-3.81-0.012-7.618,0-11.417c0.011-2.871,0.529-5.598,2.385-7.916
		c5.079-6.316,16.628-4.163,20.007,3.709c1.976,4.604,1.369,9.242,0.275,13.891c-1.767,7.562-3.644,15.093-5.333,22.679
		c-1.203,5.388-4.681,8.115-9.937,7.464c-4.858-0.597-7.397-4.141-7.266-9.562c0.155-6.283,0.033-12.565,0.033-18.837
		C44.714,43.327,44.658,43.327,44.604,43.327z"/>
	<linearGradient id="XMLID_3_" gradientUnits="userSpaceOnUse" x1="11.0293" y1="46.0479" x2="85.0914" y2="46.0479">
		<stop  offset="0" style="stop-color:#F05A2A"/>
		<stop  offset="1" style="stop-color:#FBB041"/>
	</linearGradient>
	<path id="XMLID_3345_" fill="url(#XMLID_3_)" d="M29.466,20.251c5.862-0.541,10.754,4.218,10.92,10.621
		c0.275,10.666-1.579,21.299-0.188,32.009c0.553,4.218-1.777,7.221-4.946,8.336c-5.874,2.076-10.787-0.795-12.146-6.9
		c-1.7-7.585-3.588-15.115-5.321-22.689c-0.553-2.407-0.851-4.881-1.071-6.205C16.702,26.213,21.449,20.99,29.466,20.251z"/>
	<path id="XMLID_3344_" fill="#FFFFFF" d="M34.467,51.895c0.541,0.729,1.8,0.574,1.977,0.398c0.674-0.641,6.048-12.865-4.438-23.762
		c-2.672-3.157-3.997-3.168-6.249,0.199c-4.284,6.393-7.818,20.754,1.38,25.24c0.928-0.784-0.31-2.175-0.806-2.716
		c-5.765-4.67-3.591-18.623,2.233-23.88C33.703,31.454,39.683,41.692,34.467,51.895z"/>
	<path id="XMLID_3343_" fill="#FFFFFF" d="M51.442,53.098c-0.541,0.729-1.8,0.574-1.977,0.397
		c-0.674-0.64-6.048-12.864,4.438-23.761c2.672-3.157,3.997-3.168,6.25,0.199c4.283,6.393,7.817,20.754-1.381,25.24
		c-0.928-0.784,0.31-2.175,0.807-2.716c5.765-4.67,3.59-18.623-2.234-23.88C52.207,32.657,46.227,42.896,51.442,53.098z"/>
</g>
<g id="XMLID_2210_">
	<g id="XMLID_2211_">
		<linearGradient id="XMLID_4_" gradientUnits="userSpaceOnUse" x1="9.8604" y1="89.4033" x2="80.9885" y2="89.4033">
			<stop  offset="0" style="stop-color:#F05A2A"/>
			<stop  offset="1" style="stop-color:#FBB041"/>
		</linearGradient>
		<path id="XMLID_2219_" fill="url(#XMLID_4_)" d="M11.979,84.031c-2.377-0.081-3.691,1.16-3.852,3.509
			c-0.042,0.609-0.055,1.219-0.152,1.83c-0.131,0.815-0.723,1.249-1.461,1.07c-0.735-0.178-1.156-0.674-1.197-1.491
			c-0.176-3.5,1.896-6.328,5.545-7.342c1.773-0.492,3.572-0.681,5.359-1.028c1.675-0.325,3.351-0.652,5.024-1.03
			c0.805-0.183,0.984-0.103,0.954,0.72c-0.057,1.538-1.374,2.966-3.024,3.186c-1.151,0.152-2.295,0.185-3.567,0.279
			c-0.223,1.015-0.462,2.056-0.677,3.097c-0.676,3.281-1.34,6.563-2.017,9.845c-0.068,0.332-0.177,0.666-0.293,0.995
			c-0.468,1.317-1.055,1.753-2.204,1.656c-1.044-0.089-1.466-0.775-1.205-2.013c0.875-4.143,1.758-8.284,2.634-12.426
			C11.903,84.617,11.932,84.347,11.979,84.031z"/>
		<g id="XMLID_2212_">
			<linearGradient id="XMLID_5_" gradientUnits="userSpaceOnUse" x1="9.8604" y1="87.1055" x2="80.9882" y2="87.1055">
				<stop  offset="0" style="stop-color:#F05A2A"/>
				<stop  offset="1" style="stop-color:#FBB041"/>
			</linearGradient>
			<path id="XMLID_2214_" fill="url(#XMLID_5_)" d="M79.271,79.71c-0.461-0.032-0.98,0.109-1.407,1.54
				c-0.469,1.033-1.134,1.908-2.143,2.49c-1.439,0.832-2.955,0.623-3.532-0.485c0.037-0.04,0.071-0.104,0.116-0.124
				c2.579-1.124,3.997-3.214,4.779-5.722c0.678-2.174-0.392-3.224-2.537-2.647c-1.184,0.318-2.274,0.9-3.202,1.828
				c-1.953,1.955-2.975,4.224-3.065,6.727c-0.026,0.737-0.248,1.322-0.802,1.859c-0.663,0.643-1.387,0.511-1.536-0.287
				c-0.053-0.283-0.082-0.598-0.025-0.897c0.342-1.807,0.669-3.615,1.085-5.419c0.395-1.712,0.282-1.926-1.396-1.896
				c-0.054,0.001-0.108,0.005-0.163,0.008c-1.18,0.072-1.596,0.349-1.884,1.551c-0.426,1.775-0.779,3.559-1.081,5.337
				c-0.214,1.257-1.538,2.988-2.568,3.245c0.317-0.943,0.708-1.9,0.952-2.867c0.43-1.705,0.488-3.354-0.265-4.767
				c-0.832-1.56-2.537-1.678-4.14-0.321c-0.297,0.252-0.574,0.53-0.862,0.798c-0.58-0.918-1.928-1.096-2.987-0.348
				c-0.248,0.175-0.474,0.554-0.542,0.848c-0.269,1.139-0.439,2.282-0.704,3.421c-0.309,1.329-0.599,2.669-1.051,3.979
				c-0.507,0.691-1.275,1.335-1.832,1.474c0.318-0.943,0.708-1.9,0.952-2.867c0.43-1.706,0.488-3.354-0.265-4.767
				c-0.831-1.56-2.536-1.679-4.14-0.321c-0.297,0.252-0.574,0.529-0.862,0.798c-0.58-0.918-1.928-1.096-2.986-0.348
				c-0.248,0.175-0.474,0.554-0.543,0.847c-0.269,1.139-0.438,2.282-0.703,3.422c-0.309,1.329-0.6,2.669-1.052,3.979
				c-0.245,0.709-0.719,1.522-1.653,1.516c-0.598-0.004-0.908-0.894-0.685-1.954c0.41-1.947,0.872-3.894,1.289-5.841
				c0.054-0.25,0.036-0.71-0.056-0.722c-0.844-0.108-1.702-0.267-2.573-0.153c-0.723,0.094-0.903,0.888-1.045,1.501
				c-0.302,1.307-0.528,2.616-0.849,3.921c-0.258,1.053-0.548,2.112-0.952,3.141c-0.127,0.323-0.715,0.771-1.009,0.765
				c-0.288-0.007-0.498-0.497-0.687-0.815c-0.08-0.136-0.051-0.375-0.013-0.566c0.338-1.695,0.645-3.394,1.051-5.085
				c0.424-1.768,0.376-1.893-1.36-1.891c-0.107,0-0.216,0-0.325,0.009c-0.999,0.088-1.375,0.356-1.663,1.375
				c-0.321,1.134-0.555,2.276-0.821,3.415c-0.329,1.406-0.197,2.848-1.076,4.209c-0.318,0.492-0.655,1.222-1.262,0.997
				c-0.258-0.096-0.303-0.869-0.212-1.333c0.233-1.194,0.634-2.387,0.897-3.583c0.29-1.31-0.046-1.985-1.207-2.314
				c-0.789-0.223-1.638-0.334-2.485-0.394c-0.668-0.047-0.843-0.266-0.736-1.007c0.069-0.482-0.189-1.205-0.551-1.343
				c-0.422-0.161-1.204,0.039-1.673,0.365c-1.006,0.7-1.26,2.283-0.547,3.044c0.348,0.371,0.435,0.725,0.284,1.288
				c-0.376,1.412-1.617,6.741-1.988,8.154c-0.134,0.513-0.139,1.012,0.348,1.018c0.351,0.005,0.838-0.36,1.168-0.67
				c0.199-0.188,0.236-0.584,0.309-0.889c0.304-1.269,1.544-6.446,1.84-7.719c1.613,0.292,1.72,0.488,1.353,2.143
				c-0.266,1.196-0.524,2.396-0.71,3.59c-0.181,1.162-0.075,2.246,0.952,2.784c1.019,0.533,2.149,0.252,3.22-0.483
				c0.626-0.431,1.159-1.03,1.785-1.601c0.993,1.723,3.635,1.603,5.991-0.97c1.401,1.579,3.157,1.024,5.146-0.287
				c-0.246,1.227-0.454,2.304-0.682,3.381c-0.305,1.444,0.344,2.566,1.637,2.802c0.759,0.138,1.24-0.17,1.435-0.988
				c0.199-0.832,0.335-1.669,0.488-2.503c0.207-1.126,0.403-2.252,0.606-3.393c1.492,0.318,2.901,0.227,4.254-0.187
				c0,0.001-0.004,0.004-0.004,0.004c0.759-0.174,2.841-1.059,3.696-1.622c-0.247,1.227-0.455,2.594-0.683,3.671
				c-0.305,1.444,0.344,2.566,1.638,2.802c0.758,0.138,1.24-0.17,1.435-0.987c0.198-0.833,0.335-1.67,0.488-2.504
				c0.206-1.126,0.402-2.252,0.606-3.393c3.347,0.715,6.284-0.617,9.088-3.067c0.57,1.334,1.672,1.747,3.178,1.369
				c1.479-0.37,2.532-1.439,3.408-2.699c0.105,0.056,0.158,0.071,0.193,0.104c1.604,1.566,3.676,1.576,5.924,0.474
				c2.438-1.196,3.894-3.27,4.545-5.804C79.719,80.485,79.798,79.747,79.271,79.71z M45.088,88.644
				c-0.307,0.397-0.949,0.888-1.284,0.842c-0.341-0.046-0.667-0.657-0.689-1.097c-0.074-1.454,0.402-2.891,1.41-4.173
				c0.275-0.35,0.884-0.714,1.171-0.712c0.889,0.007,0.701,1.294,0.701,1.432C46.312,86.235,45.963,87.513,45.088,88.644z
				 M57.826,82.72c-0.083,1.3-0.433,2.577-1.308,3.708c-0.308,0.397-0.95,0.888-1.285,0.842c-0.34-0.046-0.667-0.657-0.689-1.097
				c-0.073-1.454,0.403-2.891,1.411-4.173c0.274-0.35,0.884-0.714,1.17-0.712C58.015,81.295,57.826,82.583,57.826,82.72z
				 M73.597,78.11c0.26-0.225,0.721-0.55,1-0.389c0.279,0.16,0.09,0.759-0.06,1.077c-0.536,1.142-1.424,1.976-2.7,2.708
				C72.12,80.097,72.585,78.981,73.597,78.11z"/>
			<linearGradient id="XMLID_6_" gradientUnits="userSpaceOnUse" x1="9.8584" y1="73.1084" x2="80.989" y2="73.1084">
				<stop  offset="0" style="stop-color:#F05A2A"/>
				<stop  offset="1" style="stop-color:#FBB041"/>
			</linearGradient>
			<path id="XMLID_2213_" fill="url(#XMLID_6_)" d="M68.771,72.107c0.033,1.234-0.511,2.191-1.445,2.974
				c-1.214,1.016-2.591,0.604-2.693-0.812c-0.079-1.095,0.366-2.105,1.253-2.958c0.604-0.581,1.292-0.896,2.006-0.661
				C68.573,70.873,68.818,71.444,68.771,72.107z"/>
		</g>
	</g>
</g>
<g>
	<g>
		<path fill="#F05A2A" d="M26.082,105.711h1.822c0.624,0,0.886,0.051,1.113,0.135c0.608,0.228,1.005,0.827,1.005,1.611
			c0,0.76-0.422,1.401-1.072,1.612v0.017c0,0,0.067,0.076,0.178,0.27l1.266,2.312h-0.945l-1.257-2.371h-1.274v2.371h-0.835V105.711z
			 M28.115,108.571c0.649,0,1.055-0.413,1.055-1.08c0-0.438-0.169-0.751-0.473-0.92c-0.16-0.084-0.354-0.135-0.818-0.135h-0.962
			v2.135H28.115z"/>
		<path fill="#F05A2A" d="M33.33,105.711h3.46v0.726h-2.624v1.864h2.135v0.726h-2.135v1.916h2.768v0.726H33.33V105.711z"/>
		<path fill="#F05A2A" d="M40.006,105.711h0.836v5.231h2.666v0.726h-3.502V105.711z"/>
		<path fill="#F05A2A" d="M49.349,109.955h-2.245l-0.591,1.713h-0.86l2.144-5.957h0.877l2.144,5.957h-0.869L49.349,109.955z
			 M48.227,106.529c0,0-0.136,0.54-0.236,0.844l-0.667,1.89h1.806l-0.658-1.89c-0.102-0.304-0.228-0.844-0.228-0.844H48.227z"/>
		<path fill="#F05A2A" d="M54.792,108.597l-1.764-2.886h0.962l0.937,1.611c0.186,0.32,0.38,0.709,0.38,0.709h0.017
			c0,0,0.169-0.38,0.363-0.709l0.937-1.611h0.962l-1.764,2.886l1.882,3.071h-0.945l-1.08-1.831c-0.194-0.338-0.38-0.684-0.38-0.684
			h-0.017c0,0-0.16,0.354-0.354,0.684l-1.08,1.831H52.91L54.792,108.597z"/>
	</g>
</g>
</svg>
