<?xml version="1.0" encoding="utf-8"?>
<!-- Generator: Adobe Illustrator 16.0.0, SVG Export Plug-In . SVG Version: 6.00 Build 0)  -->
<!DOCTYPE svg PUBLIC "-//W3C//DTD SVG 1.1//EN" "http://www.w3.org/Graphics/SVG/1.1/DTD/svg11.dtd">
<svg version="1.1" id="Layer_1" xmlns="http://www.w3.org/2000/svg" xmlns:xlink="http://www.w3.org/1999/xlink" x="0px" y="0px"
	 width="85px" height="130px" viewBox="0 0 85 130" enable-background="new 0 0 85 130" xml:space="preserve">
<g>
	<g>
		<path fill="#F05A2A" d="M15.274,104.955h3.46v0.726H16.11v1.864h2.135v0.726H16.11v1.916h2.768v0.726h-3.604V104.955z"/>
		<path fill="#F05A2A" d="M21.968,109.595c0,0,0.633,0.642,1.519,0.642c0.557,0,1.029-0.312,1.029-0.878
			c0-1.291-2.886-1.013-2.886-2.844c0-0.928,0.802-1.662,1.924-1.662c1.105,0,1.688,0.6,1.688,0.6l-0.379,0.691
			c0,0-0.549-0.515-1.309-0.515c-0.633,0-1.08,0.396-1.08,0.869c0,1.231,2.886,0.903,2.886,2.835c0,0.92-0.708,1.68-1.89,1.68
			c-1.266,0-1.975-0.785-1.975-0.785L21.968,109.595z"/>
		<path fill="#F05A2A" d="M28.397,104.955h2.178c1.088,0,1.873,0.733,1.873,1.864s-0.785,1.891-1.873,1.891h-1.342v2.202h-0.836
			V104.955z M30.44,107.984c0.717,0,1.155-0.447,1.155-1.165c0-0.717-0.438-1.139-1.147-1.139h-1.215v2.304H30.44z"/>
		<path fill="#F05A2A" d="M38.019,104.853c1.722,0,3.055,1.325,3.055,3.038c0,1.755-1.333,3.122-3.055,3.122
			c-1.721,0-3.062-1.367-3.062-3.122C34.956,106.178,36.298,104.853,38.019,104.853z M38.019,110.245
			c1.216,0,2.194-1.012,2.194-2.354c0-1.3-0.979-2.278-2.194-2.278c-1.215,0-2.202,0.979-2.202,2.278
			C35.816,109.233,36.804,110.245,38.019,110.245z"/>
		<path fill="#F05A2A" d="M44.13,104.955h1.822c0.624,0,0.886,0.051,1.113,0.135c0.608,0.228,1.005,0.827,1.005,1.611
			c0,0.76-0.422,1.401-1.072,1.612v0.017c0,0,0.067,0.076,0.178,0.27l1.266,2.312h-0.945l-1.257-2.371h-1.274v2.371H44.13V104.955z
			 M46.163,107.815c0.649,0,1.055-0.413,1.055-1.08c0-0.438-0.169-0.751-0.473-0.92c-0.16-0.084-0.354-0.135-0.818-0.135h-0.962
			v2.135H46.163z"/>
		<path fill="#F05A2A" d="M52.652,105.68H50.61v-0.726h4.92v0.726h-2.042v5.231h-0.836V105.68z"/>
		<path fill="#F05A2A" d="M58.224,104.955h3.459v0.726h-2.624v1.864h2.135v0.726h-2.135v1.916h2.768v0.726h-3.603V104.955z"/>
		<path fill="#F05A2A" d="M64.915,109.595c0,0,0.633,0.642,1.519,0.642c0.557,0,1.029-0.312,1.029-0.878
			c0-1.291-2.886-1.013-2.886-2.844c0-0.928,0.802-1.662,1.924-1.662c1.105,0,1.688,0.6,1.688,0.6l-0.379,0.691
			c0,0-0.549-0.515-1.309-0.515c-0.633,0-1.08,0.396-1.08,0.869c0,1.231,2.886,0.903,2.886,2.835c0,0.92-0.708,1.68-1.89,1.68
			c-1.266,0-1.975-0.785-1.975-0.785L64.915,109.595z"/>
		<path fill="#F05A2A" d="M8.878,115.082h3.459v0.726H9.713v1.864h2.135v0.726H9.713v1.916h2.768v0.726H8.878V115.082z"/>
		<path fill="#F05A2A" d="M22.516,119.326h-2.245l-0.591,1.713h-0.86l2.144-5.957h0.877l2.144,5.957h-0.869L22.516,119.326z
			 M21.394,115.9c0,0-0.136,0.54-0.236,0.844l-0.667,1.89h1.806l-0.658-1.89c-0.102-0.304-0.228-0.844-0.228-0.844H21.394z"/>
		<path fill="#F05A2A" d="M25.688,115.082h0.902l1.477,4.21c0.11,0.321,0.229,0.819,0.229,0.819h0.017c0,0,0.118-0.498,0.228-0.819
			l1.494-4.21h0.886l-2.194,5.957h-0.835L25.688,115.082z"/>
		<path fill="#F05A2A" d="M33.622,115.082h3.459v0.726h-2.624v1.864h2.135v0.726h-2.135v1.916h2.768v0.726h-3.603V115.082z"/>
		<path fill="#F05A2A" d="M40.298,115.082h0.826l2.649,3.873c0.22,0.32,0.498,0.86,0.498,0.86h0.018c0,0-0.06-0.531-0.06-0.86
			v-3.873h0.835v5.957h-0.818l-2.657-3.864c-0.22-0.329-0.498-0.869-0.498-0.869h-0.018c0,0,0.06,0.531,0.06,0.869v3.864h-0.835
			V115.082z"/>
		<path fill="#F05A2A" d="M49.8,115.807h-2.042v-0.726h4.92v0.726h-2.042v5.231H49.8V115.807z"/>
		<path fill="#F05A2A" d="M55.285,115.082h0.836v3.848c0,0.911,0.59,1.442,1.502,1.442c0.919,0,1.519-0.531,1.519-1.459v-3.831
			h0.835v3.848c0,1.324-0.953,2.211-2.346,2.211s-2.346-0.887-2.346-2.211V115.082z"/>
		<path fill="#F05A2A" d="M63.353,115.082h1.823c0.624,0,0.886,0.051,1.113,0.135c0.608,0.228,1.005,0.827,1.005,1.611
			c0,0.76-0.422,1.401-1.072,1.612v0.017c0,0,0.067,0.076,0.178,0.27l1.266,2.312H66.72l-1.257-2.371h-1.274v2.371h-0.836V115.082z
			 M65.387,117.942c0.649,0,1.055-0.413,1.055-1.08c0-0.438-0.169-0.751-0.473-0.92c-0.16-0.084-0.354-0.135-0.818-0.135h-0.962
			v2.135H65.387z"/>
		<path fill="#F05A2A" d="M73.557,119.326h-2.245l-0.591,1.713h-0.86l2.144-5.957h0.877l2.144,5.957h-0.869L73.557,119.326z
			 M72.435,115.9c0,0-0.136,0.54-0.236,0.844l-0.667,1.89h1.806l-0.658-1.89c-0.102-0.304-0.228-0.844-0.228-0.844H72.435z"/>
	</g>
</g>
<g id="XMLID_1455_">
	<linearGradient id="XMLID_2_" gradientUnits="userSpaceOnUse" x1="26.208" y1="31.7397" x2="71.62" y2="31.7397">
		<stop  offset="0" style="stop-color:#F05A2A"/>
		<stop  offset="1" style="stop-color:#FBB041"/>
	</linearGradient>
	<path id="XMLID_1466_" fill="url(#XMLID_2_)" d="M67.215,57.994c0.914-0.737-0.614-8.119-3.663-10.405
		c-1.612-1.208-2.052-0.97-2.052-0.97c-3.661-8.374-8.781-19.84-13.053-29.514c-0.291-0.66-0.581-1.564-0.361-2.168
		c1.646-4.507-0.735-8.014-2.817-11.544c-0.939-1.594-6.546,1.487-6.147,2.743c0.31,0.976,1.549,7.09,5.448,9.623
		c0.759,0.492,1.384,0.482,1.973,2.151c-0.727,0.459-2.14,1.346-2.503,1.611c-4.979,3.644-8.865,7.895-8.389,14.687
		c0.037,0.523-7.942,4.704-10.108,15.162c0,0,3.25-0.43,8.833,2.875C52.797,63.15,61.004,61.257,67.215,57.994z"/>
	<linearGradient id="XMLID_3_" gradientUnits="userSpaceOnUse" x1="26.209" y1="32.1206" x2="71.6205" y2="32.1206">
		<stop  offset="0" style="stop-color:#F05A2A"/>
		<stop  offset="1" style="stop-color:#FBB041"/>
	</linearGradient>
	<path id="XMLID_1463_" fill="url(#XMLID_3_)" d="M40.859,28.034c1.697-2.738,4.073-4.762,7.091-6.411
		c2.99,6.694,6.3,13.835,9.312,20.58c-5.341,1.59-13.463-1.609-16.529-5.882C38.71,33.501,39.178,30.747,40.859,28.034z"/>
	<path id="XMLID_1459_" fill="#FFFFFF" d="M57.263,42.203c-3.013-6.745-6.322-13.885-9.312-20.58
		c-3.018,1.649-5.394,3.672-7.091,6.411c-1.682,2.713-2.651,6.085,0.224,9.742C44.335,41.91,51.922,43.793,57.263,42.203z
		 M46.214,29.148c2.378,0.05,4.209,1.961,4.191,4.375c-0.018,2.41-1.883,4.256-4.297,4.251c-2.404-0.005-4.27-1.859-4.288-4.263
		C41.802,31.041,43.759,29.097,46.214,29.148z"/>
	<path id="XMLID_1458_" fill="#FFFFFF" d="M59.968,55.63c0,0-1.968-5.124-0.652-8.182l-0.852-2.204
		c-7.583,2.667-15.339-1.167-15.339-1.167c-2.041-1.431-5.333,4.759-5.333,4.759c-1.64,2.431,5.277,6.748,11.916,7.657
		C55.221,57.249,59.968,55.63,59.968,55.63z"/>
	<linearGradient id="XMLID_4_" gradientUnits="userSpaceOnUse" x1="26.208" y1="33.4614" x2="71.6202" y2="33.4614">
		<stop  offset="0" style="stop-color:#F05A2A"/>
		<stop  offset="1" style="stop-color:#FBB041"/>
	</linearGradient>
	<path id="XMLID_1457_" fill="url(#XMLID_4_)" d="M46.108,37.775c2.414,0.004,4.279-1.841,4.297-4.251
		c0.018-2.414-1.813-4.326-4.191-4.375c-2.455-0.051-4.412,1.893-4.394,4.364C41.839,35.916,43.704,37.771,46.108,37.775z"/>
	<linearGradient id="XMLID_5_" gradientUnits="userSpaceOnUse" x1="26.208" y1="59.397" x2="71.62" y2="59.397">
		<stop  offset="0" style="stop-color:#F05A2A"/>
		<stop  offset="1" style="stop-color:#FBB041"/>
	</linearGradient>
	<path id="XMLID_1456_" fill="url(#XMLID_5_)" d="M10.458,58.67c1.188-1.139,2.256-2.446,3.583-3.39
		c6.58-4.68,13.486-4.472,20.462-0.996c3.803,1.895,7.604,3.829,11.234,6.028c8.775,5.315,21.812,3.35,27.865-5.063
		c0.098-0.135,0.302-0.193,0.87-0.54c0,1.074,0.173,1.92-0.028,2.665c-1.107,4.093-4.289,6.088-7.92,7.563
		c-9.631,3.912-18.498,2.3-26.887-3.548c-2.416-1.684-5.106-3.002-7.756-4.317c-6.472-3.212-12.746-2.209-18.857,1.117
		c-0.663,0.361-1.315,0.741-1.973,1.112C10.854,59.091,10.656,58.88,10.458,58.67z"/>
</g>
<g id="XMLID_165_">
	<g id="XMLID_1431_">
		<linearGradient id="XMLID_6_" gradientUnits="userSpaceOnUse" x1="9.8604" y1="88.4038" x2="80.9885" y2="88.4038">
			<stop  offset="0" style="stop-color:#F05A2A"/>
			<stop  offset="1" style="stop-color:#FBB041"/>
		</linearGradient>
		<path id="XMLID_1509_" fill="url(#XMLID_6_)" d="M11.979,83.031c-2.377-0.08-3.691,1.161-3.852,3.509
			c-0.042,0.609-0.055,1.219-0.152,1.831c-0.131,0.815-0.723,1.249-1.461,1.07c-0.735-0.177-1.156-0.674-1.197-1.491
			c-0.176-3.5,1.896-6.328,5.545-7.341c1.773-0.493,3.572-0.681,5.359-1.029c1.675-0.325,3.351-0.652,5.024-1.031
			c0.805-0.182,0.984-0.102,0.954,0.72c-0.057,1.538-1.374,2.966-3.024,3.185c-1.151,0.153-2.295,0.185-3.567,0.28
			c-0.223,1.015-0.462,2.055-0.677,3.096c-0.676,3.282-1.34,6.563-2.017,9.845c-0.068,0.332-0.177,0.667-0.293,0.995
			c-0.468,1.317-1.055,1.754-2.204,1.657c-1.044-0.088-1.466-0.775-1.205-2.013c0.875-4.142,1.758-8.284,2.634-12.426
			C11.903,83.618,11.932,83.347,11.979,83.031z"/>
		<g id="XMLID_1434_">
			<linearGradient id="XMLID_9_" gradientUnits="userSpaceOnUse" x1="9.8604" y1="86.105" x2="80.9882" y2="86.105">
				<stop  offset="0" style="stop-color:#F05A2A"/>
				<stop  offset="1" style="stop-color:#FBB041"/>
			</linearGradient>
			<path id="XMLID_1478_" fill="url(#XMLID_9_)" d="M79.271,78.71c-0.461-0.032-0.98,0.11-1.407,1.541
				c-0.469,1.033-1.134,1.908-2.143,2.49c-1.439,0.831-2.955,0.623-3.532-0.486c0.037-0.041,0.071-0.104,0.116-0.124
				c2.579-1.124,3.997-3.214,4.779-5.722c0.678-2.174-0.392-3.224-2.537-2.647c-1.184,0.318-2.274,0.9-3.202,1.829
				c-1.953,1.955-2.975,4.223-3.065,6.726c-0.026,0.737-0.248,1.323-0.802,1.86c-0.663,0.643-1.387,0.51-1.536-0.288
				c-0.053-0.284-0.082-0.598-0.025-0.897c0.342-1.807,0.669-3.615,1.085-5.419c0.395-1.711,0.282-1.925-1.396-1.895
				c-0.054,0.001-0.108,0.004-0.163,0.007c-1.18,0.072-1.596,0.349-1.884,1.551c-0.426,1.776-0.779,3.559-1.081,5.337
				c-0.214,1.257-1.538,2.988-2.568,3.245c0.317-0.943,0.708-1.9,0.952-2.868c0.43-1.705,0.488-3.354-0.265-4.766
				c-0.832-1.559-2.537-1.678-4.14-0.321c-0.297,0.252-0.574,0.53-0.862,0.798c-0.58-0.917-1.928-1.095-2.987-0.348
				c-0.248,0.175-0.474,0.554-0.542,0.847c-0.269,1.139-0.439,2.282-0.704,3.421c-0.309,1.33-0.599,2.669-1.051,3.978
				c-0.507,0.691-1.275,1.335-1.832,1.474c0.318-0.943,0.708-1.9,0.952-2.868c0.43-1.705,0.488-3.354-0.265-4.766
				c-0.831-1.56-2.536-1.678-4.14-0.321c-0.297,0.251-0.574,0.53-0.862,0.797c-0.58-0.917-1.928-1.095-2.986-0.347
				c-0.248,0.175-0.474,0.554-0.543,0.847c-0.269,1.139-0.438,2.282-0.703,3.421c-0.309,1.329-0.6,2.669-1.052,3.978
				c-0.245,0.709-0.719,1.523-1.653,1.517c-0.598-0.004-0.908-0.894-0.685-1.954c0.41-1.948,0.872-3.894,1.289-5.841
				c0.054-0.25,0.036-0.709-0.056-0.722c-0.844-0.108-1.702-0.267-2.573-0.153c-0.723,0.094-0.903,0.888-1.045,1.501
				c-0.302,1.306-0.528,2.616-0.849,3.921c-0.258,1.052-0.548,2.112-0.952,3.14c-0.127,0.324-0.715,0.771-1.009,0.765
				c-0.288-0.006-0.498-0.497-0.687-0.816c-0.08-0.135-0.051-0.375-0.013-0.566c0.338-1.695,0.645-3.393,1.051-5.085
				c0.424-1.768,0.376-1.893-1.36-1.891c-0.107,0-0.216,0-0.325,0.009c-0.999,0.087-1.375,0.355-1.663,1.375
				c-0.321,1.134-0.555,2.276-0.821,3.416c-0.329,1.406-0.197,2.847-1.076,4.208c-0.318,0.492-0.655,1.222-1.262,0.998
				c-0.258-0.096-0.303-0.87-0.212-1.333c0.233-1.194,0.634-2.387,0.897-3.583c0.29-1.31-0.046-1.986-1.207-2.314
				c-0.789-0.224-1.638-0.334-2.485-0.394c-0.668-0.047-0.843-0.266-0.736-1.006c0.069-0.482-0.189-1.206-0.551-1.343
				c-0.422-0.161-1.204,0.04-1.673,0.365c-1.006,0.7-1.26,2.283-0.547,3.044c0.348,0.371,0.435,0.725,0.284,1.288
				c-0.376,1.413-1.617,6.741-1.988,8.154c-0.134,0.512-0.139,1.012,0.348,1.018c0.351,0.005,0.838-0.36,1.168-0.671
				c0.199-0.188,0.236-0.583,0.309-0.888c0.304-1.268,1.544-6.446,1.84-7.719c1.613,0.292,1.72,0.489,1.353,2.143
				c-0.266,1.196-0.524,2.395-0.71,3.59c-0.181,1.162-0.075,2.246,0.952,2.784c1.019,0.534,2.149,0.252,3.22-0.483
				c0.626-0.431,1.159-1.03,1.785-1.6c0.993,1.722,3.635,1.602,5.991-0.97c1.401,1.579,3.157,1.025,5.146-0.287
				c-0.246,1.227-0.454,2.304-0.682,3.38c-0.305,1.444,0.344,2.567,1.637,2.802c0.759,0.138,1.24-0.169,1.435-0.988
				c0.199-0.833,0.335-1.669,0.488-2.503c0.207-1.126,0.403-2.252,0.606-3.393c1.492,0.319,2.901,0.227,4.254-0.186
				c0,0.001-0.004,0.003-0.004,0.003c0.759-0.173,2.841-1.058,3.696-1.622c-0.247,1.227-0.455,2.594-0.683,3.671
				c-0.305,1.444,0.344,2.567,1.638,2.802c0.758,0.138,1.24-0.169,1.435-0.988c0.198-0.833,0.335-1.669,0.488-2.503
				c0.206-1.126,0.402-2.251,0.606-3.393c3.347,0.715,6.284-0.618,9.088-3.068c0.57,1.334,1.672,1.748,3.178,1.37
				c1.479-0.371,2.532-1.44,3.408-2.7c0.105,0.057,0.158,0.071,0.193,0.105c1.604,1.566,3.676,1.576,5.924,0.473
				c2.438-1.196,3.894-3.269,4.545-5.803C79.719,79.485,79.798,78.747,79.271,78.71z M45.088,87.644
				c-0.307,0.397-0.949,0.887-1.284,0.841c-0.341-0.046-0.667-0.657-0.689-1.097c-0.074-1.453,0.402-2.891,1.41-4.173
				c0.275-0.349,0.884-0.713,1.171-0.711c0.889,0.006,0.701,1.294,0.701,1.431C46.312,85.235,45.963,86.512,45.088,87.644z
				 M57.826,81.719c-0.083,1.301-0.433,2.577-1.308,3.709c-0.308,0.397-0.95,0.887-1.285,0.841c-0.34-0.046-0.667-0.657-0.689-1.097
				c-0.073-1.454,0.403-2.891,1.411-4.173c0.274-0.35,0.884-0.713,1.17-0.711C58.015,80.295,57.826,81.583,57.826,81.719z
				 M73.597,77.11c0.26-0.224,0.721-0.549,1-0.389c0.279,0.161,0.09,0.76-0.06,1.078c-0.536,1.142-1.424,1.976-2.7,2.708
				C72.12,79.097,72.585,77.981,73.597,77.11z"/>
			<linearGradient id="XMLID_11_" gradientUnits="userSpaceOnUse" x1="9.8584" y1="72.1079" x2="80.989" y2="72.1079">
				<stop  offset="0" style="stop-color:#F05A2A"/>
				<stop  offset="1" style="stop-color:#FBB041"/>
			</linearGradient>
			<path id="XMLID_1443_" fill="url(#XMLID_11_)" d="M68.771,71.107c0.033,1.235-0.511,2.191-1.445,2.974
				c-1.214,1.015-2.591,0.604-2.693-0.812c-0.079-1.095,0.366-2.105,1.253-2.958c0.604-0.581,1.292-0.895,2.006-0.662
				C68.573,69.874,68.818,70.445,68.771,71.107z"/>
		</g>
	</g>
</g>
</svg>
