<?xml version="1.0" encoding="utf-8"?>
<!-- Generator: Adobe Illustrator 16.0.0, SVG Export Plug-In . SVG Version: 6.00 Build 0)  -->
<!DOCTYPE svg PUBLIC "-//W3C//DTD SVG 1.1//EN" "http://www.w3.org/Graphics/SVG/1.1/DTD/svg11.dtd">
<svg version="1.1" id="Layer_1" xmlns="http://www.w3.org/2000/svg" xmlns:xlink="http://www.w3.org/1999/xlink" x="0px" y="0px"
	 width="85px" height="130px" viewBox="0 0 85 130" enable-background="new 0 0 85 130" xml:space="preserve">
<g>
	<g>
		<path fill="#F05A2A" d="M31.6,105.609c1.426,0,2.169,0.717,2.169,0.717l-0.422,0.625c0,0-0.667-0.582-1.68-0.582
			c-1.4,0-2.244,1.021-2.244,2.295c0,1.384,0.944,2.337,2.193,2.337c1.029,0,1.688-0.742,1.688-0.742v-0.86h-0.97v-0.726h1.729
			v2.995h-0.734v-0.371c0-0.127,0.009-0.253,0.009-0.253h-0.017c0,0-0.65,0.726-1.831,0.726c-1.604,0-2.929-1.266-2.929-3.089
			C28.562,106.96,29.861,105.609,31.6,105.609z"/>
		<path fill="#F05A2A" d="M37.213,105.711h3.459v0.726h-2.624v1.864h2.135v0.726h-2.135v1.916h2.768v0.726h-3.603V105.711z"/>
		<path fill="#F05A2A" d="M43.889,105.711h3.459v0.726h-2.624v1.864h2.135v0.726h-2.135v1.916h2.768v0.726h-3.603V105.711z"/>
		<path fill="#F05A2A" d="M50.562,105.711h0.836v2.506h0.886l1.502-2.506h0.92l-1.729,2.826v0.018l1.839,3.113h-0.944l-1.587-2.734
			h-0.886v2.734h-0.836V105.711z"/>
	</g>
</g>
<g id="XMLID_1529_">
	<linearGradient id="XMLID_2_" gradientUnits="userSpaceOnUse" x1="-3.4385" y1="48.5693" x2="102.2808" y2="52.3227">
		<stop  offset="0" style="stop-color:#F05A2A"/>
		<stop  offset="1" style="stop-color:#FBB041"/>
	</linearGradient>
	<path id="XMLID_1841_" fill="url(#XMLID_2_)" d="M40.102,47.493l0.934,5.277c0.112,0.001,1.348,0.009,1.465,0.016l-0.398-5.115
		C41.964,47.666,40.238,47.5,40.102,47.493z"/>
	<g id="XMLID_1533_">
		<path id="XMLID_1840_" fill="none" d="M59.17,47.664c-1.491-0.168-2.689-0.25-3.768-0.257h-0.146c-1.308,0-2.466,0.111-3.543,0.34
			c-3.19,0.677-4.991,1.633-5.666,3.006c-0.728,1.481-0.297,3.597,1.484,7.3c2.143,4.45,5.988,5.384,8.84,5.384
			c1.103,0,2.259-0.143,3.432-0.424c2.131-0.507,3.714-2.011,4.461-4.232c0.977-2.91,1.378-5.247,1.264-7.354
			C65.372,48.598,62.432,48.034,59.17,47.664z"/>
		<linearGradient id="XMLID_3_" gradientUnits="userSpaceOnUse" x1="15.7422" y1="53.8887" x2="75.5643" y2="56.0125">
			<stop  offset="0" style="stop-color:#F05A2A"/>
			<stop  offset="1" style="stop-color:#FBB041"/>
		</linearGradient>
		<path id="XMLID_1628_" fill="url(#XMLID_3_)" d="M69.796,48.965c0.076-0.618,0.206-1.649-1.178-1.84
			c-0.846-0.118-1.675-0.354-2.552-0.602c-0.88-0.251-1.79-0.508-2.728-0.639c-0.398-0.056-0.792-0.117-1.186-0.177
			c-1.27-0.196-2.581-0.4-3.925-0.4l-0.09,0.001c-2.835,0.02-5.628,0.583-8.331,1.129c-1.422,0.288-2.884,0.579-4.338,0.789
			l-2.027,4.121l1.005-3.94c-0.132,0.012-1.068,0.056-1.199,0.063l-0.277,5.439c0.414,0.239,0.914,1.05,1.166,1.959
			c1.257,4.503,3.154,7.421,5.799,8.919c1.862,1.057,4.167,1.637,6.485,1.637c3.905,0,7.276-1.637,9.019-4.381
			c0.931-1.463,1.346-3.149,1.748-4.779c0.124-0.503,0.251-1.022,0.394-1.521c0.028-0.105,0.06-0.213,0.088-0.321
			c0.315-1.153,0.644-2.344,1.645-2.896c0.604-0.331,0.537-1.113,0.485-1.745c-0.02-0.246-0.04-0.497-0.021-0.668L69.796,48.965z
			 M64.264,58.78c-0.747,2.222-2.33,3.726-4.461,4.232c-1.173,0.281-2.329,0.424-3.432,0.424c-2.852,0-6.697-0.934-8.84-5.384
			c-1.781-3.703-2.212-5.818-1.484-7.3c0.675-1.373,2.476-2.329,5.666-3.006c1.077-0.229,2.235-0.34,3.543-0.34h0.146
			c1.078,0.007,2.276,0.089,3.768,0.257c3.262,0.37,6.202,0.934,6.357,3.763C65.642,53.533,65.24,55.87,64.264,58.78z"/>
		<linearGradient id="XMLID_4_" gradientUnits="userSpaceOnUse" x1="15.5791" y1="24" x2="68.3854" y2="24">
			<stop  offset="0" style="stop-color:#F05A2A"/>
			<stop  offset="1" style="stop-color:#FBB041"/>
		</linearGradient>
		<path id="XMLID_1534_" fill="url(#XMLID_4_)" d="M70.023,31.174c0-3.525,0-6.848,0-10.388c-2.118,0.894-3.528,2.582-5.686,1.462
			c0.996-4.646,3.455-6.922,9.322-8.475c-8.537-4.735-17.395-7.343-27.083-7.051C36.77,7.019,28.479,10.838,21.31,17.078
			c-0.134-0.146,0.706-2.918,1.26-4.156c-0.24-0.17-0.479-0.338-0.72-0.508c-1.726,1.773-3.793,3.355-5.079,5.374
			c-1.304,2.043-1.835,4.518-2.727,6.864c-0.808-0.341-1.613-0.68-2.646-1.116c-0.272,6.197,0.378,11.989,2.895,17.708
			c2.549-1.508,5.009-2.964,7.624-4.511c-0.647-0.524-1.18-0.955-1.838-1.489c0.968-0.606,1.717-1.075,2.704-1.692
			c-1.211-0.325-2.136-0.573-3.603-0.967c1.517-1.105,15.848-6.238,15.848-6.238c2.13,3.73,6.69,4.849,10.088,5.144
			c-2.194-1.189-2.14-3.52-2.14-3.52c1.909,1.025,3.174,1.704,4.502,2.417c-1.142-2.25-0.171-3.742-0.171-3.742
			c2.755,0.452,15.288,4.813,17.383,5.977c0,0-1.854,0.266-3.114,0.571c1.595,1.166,2.712,1.983,4.128,3.02
			c-1.009,0.188-1.493,0.279-2.122,0.397c1.904,1.644,3.624,3.128,5.434,4.689c2.599-3.298,4.117-6.671,3.541-10.744
			C71.527,30.807,70.767,30.993,70.023,31.174z"/>
	</g>
	<linearGradient id="XMLID_5_" gradientUnits="userSpaceOnUse" x1="15.7021" y1="55.0215" x2="75.525" y2="57.1454">
		<stop  offset="0" style="stop-color:#F05A2A"/>
		<stop  offset="1" style="stop-color:#FBB041"/>
	</linearGradient>
	<path id="XMLID_1530_" fill="url(#XMLID_5_)" d="M35.564,46.666c-1.125-0.255-2.289-0.519-3.46-0.685l-0.202-0.029
		c-2.116-0.299-4.304-0.608-6.472-0.621l-0.11-0.001c-2.668,0-5.295,0.578-7.836,1.137c-1.142,0.251-2.323,0.512-3.485,0.713
		l-0.379,0.065v0.384c0,0.23-0.011,0.478-0.021,0.738c-0.041,0.985-0.086,2.104,0.448,2.842c0.192,0.265,0.423,0.521,0.646,0.769
		c0.465,0.518,0.947,1.055,1.099,1.695c0.61,2.616,1.48,5.184,2.587,7.632c0.521,1.151,1.486,2.091,2.874,2.788
		c1.823,0.922,3.96,1.388,6.348,1.388c0.909,0,1.851-0.069,2.798-0.206c2.063-0.298,3.803-1.186,5.322-2.712
		c1.188-1.195,2.234-2.777,3.298-4.99c0.29-0.655,0.47-1.348,0.645-2.017c0.231-0.888,0.451-1.729,0.905-2.447l-1.523-5.765
		C37.878,47.184,36.703,46.924,35.564,46.666z M36.297,58.053c-2.141,4.45-5.988,5.384-8.838,5.384
		c-1.104,0-2.258-0.143-3.433-0.424c-2.131-0.507-3.712-2.011-4.461-4.232c-0.976-2.91-1.378-5.247-1.264-7.354
		c0.155-2.829,3.096-3.394,6.356-3.763c1.493-0.168,2.69-0.25,3.769-0.257h0.146c1.308,0,2.466,0.111,3.542,0.34
		c3.192,0.678,4.992,1.633,5.667,3.006C38.509,52.234,38.079,54.35,36.297,58.053z"/>
</g>
<g id="XMLID_2233_">
	<g id="XMLID_2234_">
		<linearGradient id="XMLID_6_" gradientUnits="userSpaceOnUse" x1="9.8604" y1="89.4033" x2="80.9885" y2="89.4033">
			<stop  offset="0" style="stop-color:#F05A2A"/>
			<stop  offset="1" style="stop-color:#FBB041"/>
		</linearGradient>
		<path id="XMLID_2242_" fill="url(#XMLID_6_)" d="M11.979,84.031c-2.377-0.081-3.691,1.16-3.852,3.509
			c-0.042,0.609-0.055,1.219-0.152,1.83c-0.131,0.815-0.723,1.249-1.461,1.07c-0.735-0.178-1.156-0.674-1.197-1.491
			c-0.176-3.5,1.896-6.328,5.545-7.342c1.773-0.492,3.572-0.681,5.359-1.028c1.675-0.325,3.351-0.652,5.024-1.03
			c0.805-0.183,0.984-0.103,0.954,0.72c-0.057,1.538-1.374,2.966-3.024,3.186c-1.151,0.152-2.295,0.185-3.567,0.279
			c-0.223,1.015-0.462,2.056-0.677,3.097c-0.676,3.281-1.34,6.563-2.017,9.845c-0.068,0.332-0.177,0.666-0.293,0.995
			c-0.468,1.317-1.055,1.753-2.204,1.656c-1.044-0.089-1.466-0.775-1.205-2.013c0.875-4.143,1.758-8.284,2.634-12.426
			C11.903,84.617,11.932,84.347,11.979,84.031z"/>
		<g id="XMLID_2235_">
			<linearGradient id="XMLID_9_" gradientUnits="userSpaceOnUse" x1="9.8604" y1="87.1055" x2="80.9882" y2="87.1055">
				<stop  offset="0" style="stop-color:#F05A2A"/>
				<stop  offset="1" style="stop-color:#FBB041"/>
			</linearGradient>
			<path id="XMLID_2237_" fill="url(#XMLID_9_)" d="M79.271,79.71c-0.461-0.032-0.98,0.109-1.407,1.54
				c-0.469,1.033-1.134,1.908-2.143,2.49c-1.439,0.832-2.955,0.623-3.532-0.485c0.037-0.04,0.071-0.104,0.116-0.124
				c2.579-1.124,3.997-3.214,4.779-5.722c0.678-2.174-0.392-3.224-2.537-2.647c-1.184,0.318-2.274,0.9-3.202,1.828
				c-1.953,1.955-2.975,4.224-3.065,6.727c-0.026,0.737-0.248,1.322-0.802,1.859c-0.663,0.643-1.387,0.511-1.536-0.287
				c-0.053-0.283-0.082-0.598-0.025-0.897c0.342-1.807,0.669-3.615,1.085-5.419c0.395-1.712,0.282-1.926-1.396-1.896
				c-0.054,0.001-0.108,0.005-0.163,0.008c-1.18,0.072-1.596,0.349-1.884,1.551c-0.426,1.775-0.779,3.559-1.081,5.337
				c-0.214,1.257-1.538,2.988-2.568,3.245c0.317-0.943,0.708-1.9,0.952-2.867c0.43-1.705,0.488-3.354-0.265-4.767
				c-0.832-1.56-2.537-1.678-4.14-0.321c-0.297,0.252-0.574,0.53-0.862,0.798c-0.58-0.918-1.928-1.096-2.987-0.348
				c-0.248,0.175-0.474,0.554-0.542,0.848c-0.269,1.139-0.439,2.282-0.704,3.421c-0.309,1.329-0.599,2.669-1.051,3.979
				c-0.507,0.691-1.275,1.335-1.832,1.474c0.318-0.943,0.708-1.9,0.952-2.867c0.43-1.706,0.488-3.354-0.265-4.767
				c-0.831-1.56-2.536-1.679-4.14-0.321c-0.297,0.252-0.574,0.529-0.862,0.798c-0.58-0.918-1.928-1.096-2.986-0.348
				c-0.248,0.175-0.474,0.554-0.543,0.847c-0.269,1.139-0.438,2.282-0.703,3.422c-0.309,1.329-0.6,2.669-1.052,3.979
				c-0.245,0.709-0.719,1.522-1.653,1.516c-0.598-0.004-0.908-0.894-0.685-1.954c0.41-1.947,0.872-3.894,1.289-5.841
				c0.054-0.25,0.036-0.71-0.056-0.722c-0.844-0.108-1.702-0.267-2.573-0.153c-0.723,0.094-0.903,0.888-1.045,1.501
				c-0.302,1.307-0.528,2.616-0.849,3.921c-0.258,1.053-0.548,2.112-0.952,3.141c-0.127,0.323-0.715,0.771-1.009,0.765
				c-0.288-0.007-0.498-0.497-0.687-0.815c-0.08-0.136-0.051-0.375-0.013-0.566c0.338-1.695,0.645-3.394,1.051-5.085
				c0.424-1.768,0.376-1.893-1.36-1.891c-0.107,0-0.216,0-0.325,0.009c-0.999,0.088-1.375,0.356-1.663,1.375
				c-0.321,1.134-0.555,2.276-0.821,3.415c-0.329,1.406-0.197,2.848-1.076,4.209c-0.318,0.492-0.655,1.222-1.262,0.997
				c-0.258-0.096-0.303-0.869-0.212-1.333c0.233-1.194,0.634-2.387,0.897-3.583c0.29-1.31-0.046-1.985-1.207-2.314
				c-0.789-0.223-1.638-0.334-2.485-0.394c-0.668-0.047-0.843-0.266-0.736-1.007c0.069-0.482-0.189-1.205-0.551-1.343
				c-0.422-0.161-1.204,0.039-1.673,0.365c-1.006,0.7-1.26,2.283-0.547,3.044c0.348,0.371,0.435,0.725,0.284,1.288
				c-0.376,1.412-1.617,6.741-1.988,8.154c-0.134,0.513-0.139,1.012,0.348,1.018c0.351,0.005,0.838-0.36,1.168-0.67
				c0.199-0.188,0.236-0.584,0.309-0.889c0.304-1.269,1.544-6.446,1.84-7.719c1.613,0.292,1.72,0.488,1.353,2.143
				c-0.266,1.196-0.524,2.396-0.71,3.59c-0.181,1.162-0.075,2.246,0.952,2.784c1.019,0.533,2.149,0.252,3.22-0.483
				c0.626-0.431,1.159-1.03,1.785-1.601c0.993,1.723,3.635,1.603,5.991-0.97c1.401,1.579,3.157,1.024,5.146-0.287
				c-0.246,1.227-0.454,2.304-0.682,3.381c-0.305,1.444,0.344,2.566,1.637,2.802c0.759,0.138,1.24-0.17,1.435-0.988
				c0.199-0.832,0.335-1.669,0.488-2.503c0.207-1.126,0.403-2.252,0.606-3.393c1.492,0.318,2.901,0.227,4.254-0.187
				c0,0.001-0.004,0.004-0.004,0.004c0.759-0.174,2.841-1.059,3.696-1.622c-0.247,1.227-0.455,2.594-0.683,3.671
				c-0.305,1.444,0.344,2.566,1.638,2.802c0.758,0.138,1.24-0.17,1.435-0.987c0.198-0.833,0.335-1.67,0.488-2.504
				c0.206-1.126,0.402-2.252,0.606-3.393c3.347,0.715,6.284-0.617,9.088-3.067c0.57,1.334,1.672,1.747,3.178,1.369
				c1.479-0.37,2.532-1.439,3.408-2.699c0.105,0.056,0.158,0.071,0.193,0.104c1.604,1.566,3.676,1.576,5.924,0.474
				c2.438-1.196,3.894-3.27,4.545-5.804C79.719,80.485,79.798,79.747,79.271,79.71z M45.088,88.644
				c-0.307,0.397-0.949,0.888-1.284,0.842c-0.341-0.046-0.667-0.657-0.689-1.097c-0.074-1.454,0.402-2.891,1.41-4.173
				c0.275-0.35,0.884-0.714,1.171-0.712c0.889,0.007,0.701,1.294,0.701,1.432C46.312,86.235,45.963,87.513,45.088,88.644z
				 M57.826,82.72c-0.083,1.3-0.433,2.577-1.308,3.708c-0.308,0.397-0.95,0.888-1.285,0.842c-0.34-0.046-0.667-0.657-0.689-1.097
				c-0.073-1.454,0.403-2.891,1.411-4.173c0.274-0.35,0.884-0.714,1.17-0.712C58.015,81.295,57.826,82.583,57.826,82.72z
				 M73.597,78.11c0.26-0.225,0.721-0.55,1-0.389c0.279,0.16,0.09,0.759-0.06,1.077c-0.536,1.142-1.424,1.976-2.7,2.708
				C72.12,80.097,72.585,78.981,73.597,78.11z"/>
			<linearGradient id="XMLID_11_" gradientUnits="userSpaceOnUse" x1="9.8584" y1="73.1084" x2="80.989" y2="73.1084">
				<stop  offset="0" style="stop-color:#F05A2A"/>
				<stop  offset="1" style="stop-color:#FBB041"/>
			</linearGradient>
			<path id="XMLID_2236_" fill="url(#XMLID_11_)" d="M68.771,72.107c0.033,1.234-0.511,2.191-1.445,2.974
				c-1.214,1.016-2.591,0.604-2.693-0.812c-0.079-1.095,0.366-2.105,1.253-2.958c0.604-0.581,1.292-0.896,2.006-0.661
				C68.573,70.873,68.818,71.444,68.771,72.107z"/>
		</g>
	</g>
</g>
</svg>
