<?xml version="1.0" encoding="utf-8"?>
<!-- Generator: Adobe Illustrator 16.0.0, SVG Export Plug-In . SVG Version: 6.00 Build 0)  -->
<!DOCTYPE svg PUBLIC "-//W3C//DTD SVG 1.1//EN" "http://www.w3.org/Graphics/SVG/1.1/DTD/svg11.dtd">
<svg version="1.1" id="Layer_1" xmlns="http://www.w3.org/2000/svg" xmlns:xlink="http://www.w3.org/1999/xlink" x="0px" y="0px"
	 width="85px" height="130px" viewBox="0 0 85 130" enable-background="new 0 0 85 130" xml:space="preserve">
<g>
	<g>
		<path fill="#F05A2A" d="M20.473,104.853c1.435,0,2.168,0.785,2.168,0.785l-0.413,0.624c0,0-0.692-0.649-1.722-0.649
			c-1.333,0-2.202,1.013-2.202,2.278c0,1.273,0.886,2.354,2.211,2.354c1.122,0,1.84-0.776,1.84-0.776l0.447,0.6
			c0,0-0.819,0.945-2.312,0.945c-1.789,0-3.046-1.367-3.046-3.114C17.443,106.169,18.742,104.853,20.473,104.853z"/>
		<path fill="#F05A2A" d="M25.696,104.955h0.836v3.848c0,0.911,0.59,1.442,1.502,1.442c0.919,0,1.519-0.531,1.519-1.459v-3.831
			h0.835v3.848c0,1.324-0.953,2.211-2.346,2.211s-2.346-0.887-2.346-2.211V104.955z"/>
		<path fill="#F05A2A" d="M33.766,104.955h0.835v5.231h2.666v0.726h-3.501V104.955z"/>
		<path fill="#F05A2A" d="M40.828,105.68h-2.042v-0.726h4.92v0.726h-2.042v5.231h-0.836V105.68z"/>
		<path fill="#F05A2A" d="M46.314,104.955h0.836v3.848c0,0.911,0.59,1.442,1.502,1.442c0.919,0,1.519-0.531,1.519-1.459v-3.831
			h0.835v3.848c0,1.324-0.953,2.211-2.346,2.211s-2.346-0.887-2.346-2.211V104.955z"/>
		<path fill="#F05A2A" d="M54.383,104.955h1.822c0.624,0,0.886,0.051,1.113,0.135c0.608,0.228,1.005,0.827,1.005,1.611
			c0,0.76-0.422,1.401-1.072,1.612v0.017c0,0,0.067,0.076,0.178,0.27l1.266,2.312h-0.945l-1.257-2.371h-1.274v2.371h-0.835V104.955z
			 M56.416,107.815c0.649,0,1.055-0.413,1.055-1.08c0-0.438-0.169-0.751-0.473-0.92c-0.16-0.084-0.354-0.135-0.818-0.135h-0.962
			v2.135H56.416z"/>
		<path fill="#F05A2A" d="M64.585,109.199H62.34l-0.591,1.713h-0.86l2.144-5.957h0.877l2.144,5.957h-0.869L64.585,109.199z
			 M63.463,105.773c0,0-0.136,0.54-0.236,0.844l-0.667,1.89h1.806l-0.658-1.89c-0.102-0.304-0.228-0.844-0.228-0.844H63.463z"/>
	</g>
</g>
<g id="XMLID_3224_">
	<linearGradient id="XMLID_2_" gradientUnits="userSpaceOnUse" x1="12.1748" y1="40.312" x2="77.593" y2="40.312">
		<stop  offset="0" style="stop-color:#F05A2A"/>
		<stop  offset="1" style="stop-color:#FBB041"/>
	</linearGradient>
	<path id="XMLID_3235_" fill="url(#XMLID_2_)" d="M68.299,25.516c-2.334,0-4.67,2.276-9.34,2.276c-4.671,0-7.006-2.276-9.342-2.276
		c-1.101,0-2.335,1.138-2.335,2.276v15.935c0,5.045,2.335,11.382,11.677,11.382c9.34,0,11.675-6.337,11.675-11.382V27.792
		C70.634,26.654,69.4,25.516,68.299,25.516z M50.786,36.329c0-1.572,1.306-2.846,2.919-2.846c1.611,0,2.919,1.274,2.919,2.846
		c0,1.572-1.307,2.846-2.919,2.846C52.092,39.174,50.786,37.9,50.786,36.329z M58.959,50.557c-5.839,0-7.006-4.552-7.006-4.552
		h14.011C65.964,46.004,64.797,50.557,58.959,50.557z M64.213,39.174c-1.612,0-2.919-1.274-2.919-2.846s1.307-2.846,2.919-2.846
		c1.611,0,2.919,1.274,2.919,2.846C67.132,37.9,65.824,39.174,64.213,39.174z"/>
	<linearGradient id="XMLID_3_" gradientUnits="userSpaceOnUse" x1="12.1748" y1="28.9302" x2="77.5947" y2="28.9302">
		<stop  offset="0" style="stop-color:#F05A2A"/>
		<stop  offset="1" style="stop-color:#FBB041"/>
	</linearGradient>
	<path id="XMLID_3232_" fill="url(#XMLID_3_)" d="M40.784,43.637c0.576,0.058,1.185,0.089,1.827,0.089
		c0.838,0,1.604-0.038,2.337-0.141v-6.687h-9.342c0,0,1.167-4.553,7.005-4.553c1.169,0,1.627,0.168,2.337,0.427v-4.979
		c0-2.087,0.853-3.831,2.334-4.553c2.335-1.138,3.277-0.679,4.671,0c2.335,1.138,2.335,1.138,2.335,1.138v-7.968
		c0-1.138-1.234-2.276-2.335-2.276c-2.336,0-4.671,2.276-9.342,2.276c-4.67,0-7.005-2.276-9.34-2.276v-0.001
		c-1.102,0-2.335,1.138-2.335,2.276v15.935c0,2.024,0.39,4.251,1.444,6.198c0.413,0.169,0.825,0.348,1.231,0.549
		C36.438,40.497,38.828,42.019,40.784,43.637z M37.357,22.101c1.612,0,2.92,1.274,2.92,2.846c0,1.572-1.308,2.846-2.92,2.846
		c-1.611,0-2.918-1.274-2.918-2.846C34.439,23.375,35.746,22.101,37.357,22.101z"/>
	<linearGradient id="XMLID_4_" gradientUnits="userSpaceOnUse" x1="12.1758" y1="53.2173" x2="77.593" y2="53.2173">
		<stop  offset="0" style="stop-color:#F05A2A"/>
		<stop  offset="1" style="stop-color:#FBB041"/>
	</linearGradient>
	<path id="XMLID_3225_" fill="url(#XMLID_4_)" d="M25.77,38.875c-5.129,0-9.338,2.505-10.463,4.657
		c-1.616,3.094-1.241,6.203,1.932,7.777c3.174,1.575,4.357,3.135,3.145,5.458c-1.615,3.092-0.447,6.594,2.726,8.169
		c3.705,1.838,7.058,2.624,9.964,2.624c5.187,0,8.953-2.498,10.766-5.967c4.848-9.282-1.47-16.313-10.989-21.04
		C30.434,39.355,28.014,38.875,25.77,38.875z M22.245,47.463c-0.393,0.753-1.175,1.187-1.985,1.187c-0.34,0-0.685-0.076-1.008-0.237
		c-1.096-0.544-1.532-1.849-0.974-2.917c0.393-0.753,1.173-1.185,1.983-1.185c0.34,0,0.686,0.076,1.009,0.237
		C22.366,45.091,22.804,46.396,22.245,47.463z M28.317,60.704c-0.472,0.903-1.411,1.423-2.384,1.423
		c-0.408,0-0.821-0.091-1.209-0.284c-1.314-0.651-1.836-2.22-1.168-3.502c0.472-0.903,1.41-1.422,2.382-1.422
		c0.408,0,0.822,0.09,1.21,0.283C28.463,57.855,28.986,59.424,28.317,60.704z M30.223,45.579c-0.394,0.753-1.175,1.187-1.985,1.187
		c-0.341,0-0.686-0.076-1.009-0.237c-1.095-0.544-1.531-1.849-0.973-2.918c0.393-0.751,1.174-1.184,1.984-1.184
		c0.34,0,0.686,0.076,1.009,0.237C30.345,43.206,30.78,44.513,30.223,45.579z M37.333,53.006c0.394-0.754,1.174-1.186,1.985-1.187
		c0.34,0,0.686,0.077,1.009,0.237c1.095,0.544,1.53,1.851,0.974,2.918c-0.394,0.752-1.175,1.186-1.985,1.186
		c-0.34,0-0.685-0.076-1.009-0.237C37.211,55.379,36.774,54.075,37.333,53.006z M34.587,45.577c0.34,0,0.686,0.076,1.009,0.237
		c1.095,0.542,1.531,1.849,0.973,2.916c-0.393,0.753-1.174,1.187-1.984,1.187c-0.34,0-0.685-0.078-1.008-0.237
		c-1.096-0.544-1.531-1.851-0.974-2.918C32.996,46.009,33.776,45.577,34.587,45.577z"/>
</g>
<g id="XMLID_4739_">
	<g id="XMLID_10_">
		<linearGradient id="XMLID_5_" gradientUnits="userSpaceOnUse" x1="9.8633" y1="88.4038" x2="80.9914" y2="88.4038">
			<stop  offset="0" style="stop-color:#F05A2A"/>
			<stop  offset="1" style="stop-color:#FBB041"/>
		</linearGradient>
		<path id="XMLID_309_" fill="url(#XMLID_5_)" d="M11.981,83.031c-2.376-0.08-3.691,1.161-3.852,3.509
			c-0.041,0.609-0.054,1.219-0.152,1.831c-0.131,0.815-0.722,1.249-1.46,1.07c-0.736-0.177-1.156-0.674-1.197-1.491
			c-0.176-3.5,1.896-6.328,5.544-7.341c1.774-0.493,3.573-0.681,5.36-1.029c1.675-0.325,3.35-0.652,5.023-1.031
			c0.805-0.182,0.985-0.102,0.955,0.72c-0.057,1.538-1.375,2.966-3.025,3.185c-1.15,0.153-2.294,0.185-3.566,0.28
			c-0.223,1.015-0.462,2.055-0.677,3.096c-0.676,3.282-1.34,6.563-2.017,9.845c-0.068,0.332-0.177,0.667-0.294,0.995
			c-0.468,1.317-1.054,1.754-2.204,1.657c-1.044-0.088-1.465-0.775-1.204-2.013c0.874-4.142,1.757-8.284,2.633-12.426
			C11.906,83.618,11.934,83.347,11.981,83.031z"/>
		<g id="XMLID_20_">
			<linearGradient id="XMLID_6_" gradientUnits="userSpaceOnUse" x1="9.8633" y1="86.105" x2="80.99" y2="86.105">
				<stop  offset="0" style="stop-color:#F05A2A"/>
				<stop  offset="1" style="stop-color:#FBB041"/>
			</linearGradient>
			<path id="XMLID_54_" fill="url(#XMLID_6_)" d="M79.272,78.71c-0.46-0.032-0.979,0.11-1.406,1.541
				c-0.47,1.033-1.135,1.908-2.144,2.49c-1.439,0.831-2.955,0.623-3.531-0.486c0.036-0.041,0.07-0.104,0.115-0.124
				c2.579-1.124,3.998-3.214,4.78-5.722c0.678-2.174-0.392-3.224-2.537-2.647c-1.185,0.318-2.275,0.9-3.202,1.829
				c-1.954,1.955-2.976,4.223-3.066,6.726c-0.026,0.737-0.247,1.323-0.801,1.86c-0.663,0.643-1.387,0.51-1.536-0.288
				c-0.054-0.284-0.082-0.598-0.025-0.897c0.342-1.807,0.669-3.615,1.085-5.419c0.394-1.711,0.281-1.925-1.396-1.895
				c-0.055,0.001-0.109,0.004-0.164,0.007c-1.18,0.072-1.596,0.349-1.884,1.551c-0.426,1.776-0.778,3.559-1.081,5.337
				c-0.214,1.257-1.537,2.988-2.568,3.245c0.318-0.943,0.708-1.9,0.952-2.868c0.431-1.705,0.488-3.354-0.265-4.766
				c-0.831-1.559-2.537-1.678-4.14-0.321c-0.297,0.252-0.574,0.53-0.862,0.798c-0.58-0.917-1.928-1.095-2.986-0.348
				c-0.248,0.175-0.474,0.554-0.543,0.847c-0.269,1.139-0.438,2.282-0.703,3.421c-0.309,1.33-0.6,2.669-1.052,3.978
				c-0.506,0.691-1.274,1.335-1.831,1.474c0.317-0.943,0.708-1.9,0.952-2.868c0.43-1.705,0.488-3.354-0.265-4.766
				c-0.832-1.56-2.537-1.678-4.14-0.321c-0.297,0.251-0.574,0.53-0.862,0.797c-0.58-0.917-1.928-1.095-2.987-0.347
				c-0.248,0.175-0.474,0.554-0.542,0.847c-0.269,1.139-0.439,2.282-0.703,3.421c-0.309,1.329-0.6,2.669-1.052,3.978
				c-0.245,0.709-0.719,1.523-1.653,1.517c-0.598-0.004-0.908-0.894-0.686-1.954c0.411-1.948,0.872-3.894,1.29-5.841
				c0.054-0.25,0.036-0.709-0.057-0.722c-0.843-0.108-1.702-0.267-2.573-0.153c-0.723,0.094-0.902,0.888-1.044,1.501
				c-0.302,1.306-0.529,2.616-0.849,3.921c-0.259,1.052-0.549,2.112-0.952,3.14c-0.128,0.324-0.716,0.771-1.009,0.765
				c-0.289-0.006-0.499-0.497-0.688-0.816c-0.08-0.135-0.051-0.375-0.013-0.566c0.339-1.695,0.646-3.393,1.051-5.085
				c0.425-1.768,0.377-1.893-1.359-1.891c-0.108,0-0.217,0-0.326,0.009c-0.999,0.087-1.374,0.355-1.663,1.375
				c-0.32,1.134-0.555,2.276-0.82,3.416c-0.33,1.406-0.197,2.847-1.077,4.208c-0.318,0.492-0.654,1.222-1.261,0.998
				c-0.259-0.096-0.303-0.87-0.212-1.333c0.233-1.194,0.634-2.387,0.897-3.583c0.289-1.31-0.046-1.986-1.207-2.314
				c-0.789-0.224-1.638-0.334-2.486-0.394c-0.668-0.047-0.842-0.266-0.736-1.006c0.069-0.482-0.189-1.206-0.55-1.343
				c-0.422-0.161-1.205,0.04-1.673,0.365c-1.006,0.7-1.261,2.283-0.548,3.044c0.349,0.371,0.435,0.725,0.284,1.288
				c-0.376,1.413-1.616,6.741-1.987,8.154c-0.135,0.512-0.14,1.012,0.347,1.018c0.352,0.005,0.839-0.36,1.168-0.671
				c0.2-0.188,0.236-0.583,0.31-0.888c0.304-1.268,1.544-6.446,1.839-7.719c1.613,0.292,1.72,0.489,1.353,2.143
				c-0.265,1.196-0.524,2.395-0.71,3.59c-0.18,1.162-0.074,2.246,0.952,2.784c1.02,0.534,2.15,0.252,3.22-0.483
				c0.626-0.431,1.159-1.03,1.786-1.6c0.992,1.722,3.634,1.602,5.991-0.97c1.4,1.579,3.156,1.025,5.146-0.287
				c-0.247,1.227-0.455,2.304-0.683,3.38c-0.305,1.444,0.345,2.567,1.638,2.802c0.758,0.138,1.24-0.169,1.435-0.988
				c0.198-0.833,0.335-1.669,0.488-2.503c0.206-1.126,0.403-2.252,0.606-3.393c1.491,0.319,2.9,0.227,4.254-0.186
				c-0.001,0.001-0.004,0.003-0.004,0.003c0.758-0.173,2.841-1.058,3.695-1.622c-0.246,1.227-0.454,2.594-0.682,3.671
				c-0.305,1.444,0.344,2.567,1.637,2.802c0.759,0.138,1.24-0.169,1.436-0.988c0.197-0.833,0.334-1.669,0.487-2.503
				c0.207-1.126,0.403-2.251,0.606-3.393c3.348,0.715,6.285-0.618,9.089-3.068c0.569,1.334,1.671,1.748,3.178,1.37
				c1.479-0.371,2.531-1.44,3.407-2.7c0.106,0.057,0.159,0.071,0.193,0.105c1.604,1.566,3.676,1.576,5.924,0.473
				c2.438-1.196,3.894-3.269,4.545-5.803C79.721,79.485,79.8,78.747,79.272,78.71z M45.091,87.644
				c-0.308,0.397-0.95,0.887-1.285,0.841c-0.34-0.046-0.667-0.657-0.689-1.097c-0.073-1.453,0.403-2.891,1.411-4.173
				c0.274-0.349,0.884-0.713,1.171-0.711c0.889,0.006,0.701,1.294,0.701,1.431C46.315,85.235,45.966,86.512,45.091,87.644z
				 M57.829,81.719c-0.084,1.301-0.434,2.577-1.309,3.709c-0.307,0.397-0.95,0.887-1.284,0.841c-0.34-0.046-0.667-0.657-0.689-1.097
				c-0.074-1.454,0.402-2.891,1.41-4.173c0.274-0.35,0.884-0.713,1.171-0.711C58.017,80.295,57.829,81.583,57.829,81.719z
				 M73.599,77.11c0.261-0.224,0.722-0.549,1-0.389c0.279,0.161,0.09,0.76-0.06,1.078c-0.535,1.142-1.424,1.976-2.7,2.708
				C72.123,79.097,72.587,77.981,73.599,77.11z"/>
			<linearGradient id="XMLID_9_" gradientUnits="userSpaceOnUse" x1="9.8604" y1="72.1079" x2="80.9909" y2="72.1079">
				<stop  offset="0" style="stop-color:#F05A2A"/>
				<stop  offset="1" style="stop-color:#FBB041"/>
			</linearGradient>
			<path id="XMLID_30_" fill="url(#XMLID_9_)" d="M68.773,71.107c0.033,1.235-0.511,2.191-1.445,2.974
				c-1.214,1.015-2.591,0.604-2.693-0.812c-0.079-1.095,0.367-2.105,1.254-2.958c0.604-0.581,1.292-0.895,2.005-0.662
				C68.575,69.874,68.82,70.445,68.773,71.107z"/>
		</g>
	</g>
</g>
</svg>
