<?xml version="1.0" encoding="utf-8"?>
<!-- Generator: Adobe Illustrator 16.0.0, SVG Export Plug-In . SVG Version: 6.00 Build 0)  -->
<!DOCTYPE svg PUBLIC "-//W3C//DTD SVG 1.1//EN" "http://www.w3.org/Graphics/SVG/1.1/DTD/svg11.dtd">
<svg version="1.1" id="Layer_1" xmlns="http://www.w3.org/2000/svg" xmlns:xlink="http://www.w3.org/1999/xlink" x="0px" y="0px"
	 width="85px" height="130px" viewBox="0 0 85 130" enable-background="new 0 0 85 130" xml:space="preserve">
<g>
	<g>
		<path fill="#F05A2A" d="M21.337,104.465h-2.042v-0.726h4.92v0.726h-2.042v5.231h-0.836V104.465z"/>
		<path fill="#F05A2A" d="M26.908,103.739h1.822c0.624,0,0.886,0.051,1.113,0.135c0.608,0.228,1.005,0.827,1.005,1.611
			c0,0.76-0.422,1.401-1.072,1.612v0.017c0,0,0.067,0.076,0.178,0.27l1.266,2.312h-0.945l-1.257-2.371h-1.274v2.371h-0.835V103.739z
			 M28.941,106.6c0.649,0,1.055-0.413,1.055-1.08c0-0.438-0.169-0.751-0.473-0.92c-0.16-0.084-0.354-0.135-0.818-0.135h-0.962v2.135
			H28.941z"/>
		<path fill="#F05A2A" d="M34.156,103.739h0.836v5.957h-0.836V103.739z"/>
		<path fill="#F05A2A" d="M38.453,103.739h0.835v5.231h2.666v0.726h-3.501V103.739z"/>
		<path fill="#F05A2A" d="M44.756,103.739h0.836v2.615h3.088v-2.615h0.836v5.957H48.68v-2.616h-3.088v2.616h-0.836V103.739z"/>
		<path fill="#F05A2A" d="M55.93,107.983h-2.245l-0.591,1.713h-0.86l2.144-5.957h0.877l2.144,5.957h-0.869L55.93,107.983z
			 M54.808,104.558c0,0-0.136,0.54-0.236,0.844l-0.667,1.89h1.806l-0.658-1.89c-0.102-0.304-0.228-0.844-0.228-0.844H54.808z"/>
		<path fill="#F05A2A" d="M60.133,108.38c0,0,0.633,0.642,1.519,0.642c0.557,0,1.029-0.312,1.029-0.878
			c0-1.291-2.886-1.013-2.886-2.844c0-0.928,0.802-1.662,1.924-1.662c1.105,0,1.688,0.6,1.688,0.6l-0.379,0.691
			c0,0-0.549-0.515-1.309-0.515c-0.633,0-1.08,0.396-1.08,0.869c0,1.231,2.886,0.903,2.886,2.835c0,0.92-0.708,1.68-1.89,1.68
			c-1.266,0-1.975-0.785-1.975-0.785L60.133,108.38z"/>
		<path fill="#F05A2A" d="M5.168,113.866h3.459v0.726H6.003v1.864h2.135v0.726H6.003v1.916h2.768v0.726H5.168V113.866z"/>
		<path fill="#F05A2A" d="M17.126,114.592h-2.042v-0.726h4.92v0.726h-2.042v5.231h-0.836V114.592z"/>
		<path fill="#F05A2A" d="M22.695,113.866h1.823c0.624,0,0.886,0.051,1.113,0.135c0.608,0.228,1.005,0.827,1.005,1.611
			c0,0.76-0.422,1.401-1.072,1.612v0.017c0,0,0.067,0.076,0.178,0.27l1.266,2.312h-0.945l-1.257-2.371h-1.274v2.371h-0.836V113.866z
			 M24.729,116.727c0.649,0,1.055-0.413,1.055-1.08c0-0.438-0.169-0.751-0.473-0.92c-0.16-0.084-0.354-0.135-0.818-0.135h-0.962
			v2.135H24.729z"/>
		<path fill="#F05A2A" d="M32.899,118.11h-2.245l-0.591,1.713h-0.86l2.144-5.957h0.877l2.144,5.957h-0.869L32.899,118.11z
			 M31.777,114.685c0,0-0.136,0.54-0.236,0.844l-0.667,1.89h1.806l-0.658-1.89c-0.102-0.304-0.228-0.844-0.228-0.844H31.777z"/>
		<path fill="#F05A2A" d="M36.072,113.866h0.902l1.477,4.21c0.11,0.321,0.229,0.819,0.229,0.819h0.017c0,0,0.118-0.498,0.228-0.819
			l1.494-4.21h0.886l-2.194,5.957h-0.835L36.072,113.866z"/>
		<path fill="#F05A2A" d="M44.006,113.866h3.459v0.726h-2.624v1.864h2.135v0.726h-2.135v1.916h2.768v0.726h-3.603V113.866z"/>
		<path fill="#F05A2A" d="M50.698,118.507c0,0,0.633,0.642,1.519,0.642c0.557,0,1.029-0.312,1.029-0.878
			c0-1.291-2.886-1.013-2.886-2.844c0-0.928,0.802-1.662,1.924-1.662c1.105,0,1.688,0.6,1.688,0.6l-0.379,0.691
			c0,0-0.549-0.515-1.309-0.515c-0.633,0-1.08,0.396-1.08,0.869c0,1.231,2.886,0.903,2.886,2.835c0,0.92-0.709,1.68-1.89,1.68
			c-1.266,0-1.975-0.785-1.975-0.785L50.698,118.507z"/>
		<path fill="#F05A2A" d="M57.146,118.507c0,0,0.633,0.642,1.519,0.642c0.557,0,1.029-0.312,1.029-0.878
			c0-1.291-2.886-1.013-2.886-2.844c0-0.928,0.802-1.662,1.924-1.662c1.105,0,1.688,0.6,1.688,0.6l-0.379,0.691
			c0,0-0.549-0.515-1.309-0.515c-0.633,0-1.08,0.396-1.08,0.869c0,1.231,2.886,0.903,2.886,2.835c0,0.92-0.709,1.68-1.89,1.68
			c-1.266,0-1.975-0.785-1.975-0.785L57.146,118.507z"/>
		<path fill="#F05A2A" d="M63.576,113.866h0.835v5.957h-0.835V113.866z"/>
		<path fill="#F05A2A" d="M70.825,118.11H68.58l-0.591,1.713h-0.86l2.144-5.957h0.877l2.144,5.957h-0.869L70.825,118.11z
			 M69.703,114.685c0,0-0.136,0.54-0.236,0.844l-0.667,1.89h1.806l-0.658-1.89c-0.102-0.304-0.228-0.844-0.228-0.844H69.703z"/>
		<path fill="#F05A2A" d="M75.028,118.507c0,0,0.633,0.642,1.519,0.642c0.557,0,1.029-0.312,1.029-0.878
			c0-1.291-2.886-1.013-2.886-2.844c0-0.928,0.802-1.662,1.924-1.662c1.105,0,1.688,0.6,1.688,0.6l-0.379,0.691
			c0,0-0.549-0.515-1.309-0.515c-0.633,0-1.08,0.396-1.08,0.869c0,1.231,2.886,0.903,2.886,2.835c0,0.92-0.709,1.68-1.89,1.68
			c-1.266,0-1.975-0.785-1.975-0.785L75.028,118.507z"/>
	</g>
</g>
<g id="XMLID_3297_">
	<linearGradient id="XMLID_2_" gradientUnits="userSpaceOnUse" x1="16.8242" y1="43.8223" x2="70.3026" y2="43.8223">
		<stop  offset="0" style="stop-color:#F05A2A"/>
		<stop  offset="1" style="stop-color:#FBB041"/>
	</linearGradient>
	<path id="XMLID_3326_" fill="url(#XMLID_2_)" d="M31.889,64.914l-17.518-6.476V24.814c0,0,0-2.736,2.448-1.938
		c1.056,0.344,15.069,5.587,15.069,5.587V64.914z"/>
	<linearGradient id="XMLID_3_" gradientUnits="userSpaceOnUse" x1="16.8252" y1="42.668" x2="70.3034" y2="42.668">
		<stop  offset="0" style="stop-color:#F05A2A"/>
		<stop  offset="1" style="stop-color:#FBB041"/>
	</linearGradient>
	<polygon id="XMLID_3325_" fill="url(#XMLID_3_)" points="33.872,27.641 51.463,21.19 51.463,57.646 33.872,64.146 	"/>
	<linearGradient id="XMLID_4_" gradientUnits="userSpaceOnUse" x1="16.8252" y1="42.6357" x2="70.3037" y2="42.6357">
		<stop  offset="0" style="stop-color:#F05A2A"/>
		<stop  offset="1" style="stop-color:#FBB041"/>
	</linearGradient>
	<path id="XMLID_3324_" fill="url(#XMLID_4_)" d="M70.634,64.077l-17.4-6.436V21.194l15.237,5.632c0,0,2.182,0.666,2.163,3.363
		C70.626,31.333,70.634,64.077,70.634,64.077z"/>
	<path id="XMLID_3300_" fill="#FFFFFF" d="M15.962,51.909l-0.019-1.466c0.462-0.003,0.912-0.051,1.326-0.139l0.301,1.437
		C17.061,51.848,16.519,51.902,15.962,51.909z M19.143,51.21l-0.645-1.316c0.385-0.19,0.729-0.429,1.029-0.711l1.008,1.063
		C20.129,50.627,19.659,50.953,19.143,51.21z M21.572,48.915l-1.275-0.729c0.205-0.355,0.374-0.763,0.506-1.202l1.407,0.417
		C22.045,47.951,21.833,48.461,21.572,48.915z M65.411,48.509c-0.176-0.433-0.359-0.909-0.538-1.415l1.381-0.491
		c0.173,0.484,0.345,0.938,0.514,1.356L65.411,48.509z M22.617,46.006l-1.39-0.466c0.169-0.51,0.359-0.989,0.564-1.444l1.338,0.602
		C22.943,45.107,22.771,45.548,22.617,46.006z M64.385,45.683c-0.153-0.473-0.308-0.949-0.458-1.425l1.4-0.433
		c0.146,0.462,0.297,0.931,0.451,1.396L64.385,45.683z M46.142,45.093l-0.495-1.382c0.37-0.132,0.803-0.326,1.279-0.561l0.648,1.312
		C47.039,44.727,46.556,44.942,46.142,45.093z M44.137,45.06c-0.282-0.153-0.776-0.322-1.257-0.479l0.466-1.393
		c0.663,0.224,1.128,0.385,1.498,0.586L44.137,45.06z M41.458,44.085c-0.443-0.165-0.92-0.359-1.415-0.586l0.616-1.331
		c0.462,0.213,0.901,0.393,1.312,0.547L41.458,44.085z M48.916,43.767l-0.7-1.287c0.414-0.227,0.847-0.465,1.283-0.714l0.722,1.275
		C49.777,43.29,49.337,43.539,48.916,43.767z M23.768,43.451L22.5,42.715c0.274-0.47,0.561-0.905,0.854-1.305l1.18,0.868
		C24.27,42.638,24.014,43.026,23.768,43.451z M63.491,42.835l-0.418-1.425l1.407-0.411l0.418,1.419L63.491,42.835z M38.669,42.784
		c-0.422-0.249-0.857-0.527-1.298-0.843l0.854-1.191c0.399,0.29,0.795,0.543,1.18,0.766L38.669,42.784z M51.511,42.304l-0.729-1.271
		l1.294-0.733l0.722,1.275L51.511,42.304z M25.421,41.201l-1.074-0.997c0.362-0.389,0.748-0.755,1.144-1.085l0.935,1.129
		C26.099,40.522,25.758,40.838,25.421,41.201z M36.158,40.978c-0.139-0.121-0.278-0.246-0.414-0.374
		c-0.227-0.209-0.45-0.399-0.671-0.575l0.905-1.151c0.25,0.198,0.506,0.414,0.767,0.656c0.124,0.117,0.249,0.231,0.374,0.341
		L36.158,40.978z M54.08,40.863l-0.697-1.29c0.503-0.271,0.961-0.505,1.371-0.688l0.604,1.334
		C54.978,40.391,54.545,40.614,54.08,40.863z M62.681,40.131c-0.143-0.282-0.377-0.491-0.718-0.646l0.601-1.337
		c0.646,0.293,1.125,0.732,1.422,1.312L62.681,40.131z M56.642,39.765l-0.385-1.415c0.462-0.125,0.967-0.245,1.491-0.348
		l0.278,1.437C57.539,39.537,57.07,39.647,56.642,39.765z M27.531,39.475l-0.726-1.275c0.411-0.23,1.012-0.521,1.554-0.571
		l0.297,1.44l-0.165,0.021C28.33,39.104,27.989,39.215,27.531,39.475z M33.948,39.284c-0.399-0.216-0.81-0.378-1.213-0.487
		l0.382-1.415c0.513,0.14,1.025,0.345,1.524,0.612L33.948,39.284z M59.416,39.236l-0.133-1.458c0.33-0.029,0.668-0.037,0.976-0.044
		c0.212,0,0.425,0.007,0.627,0.021l-0.11,1.462c-0.176-0.015-0.359-0.011-0.535-0.018C59.969,39.196,59.694,39.211,59.416,39.236z
		 M30.137,38.753l-0.281-1.44c0.561-0.106,1.048-0.157,1.539-0.157l0.073,0.732l-0.022,0.733
		C30.998,38.617,30.599,38.661,30.137,38.753z"/>
	<path id="XMLID_3299_" d="M66.632,50.726c-0.176-0.172-0.352-0.421-0.539-0.755l1.279-0.718c0.161,0.289,0.26,0.399,0.297,0.436
		L66.632,50.726z"/>
	<path id="XMLID_3298_" fill="#FFFFFF" d="M68.934,49.406l-1.037-1.037l-1.8,1.804l-1.803-1.804l-1.041,1.037l1.807,1.804
		l-1.807,1.803l1.041,1.037l1.803-1.803l1.8,1.803l1.037-1.037L67.13,51.21L68.934,49.406z"/>
</g>
<g id="XMLID_345_">
	<g id="XMLID_346_">
		<linearGradient id="XMLID_5_" gradientUnits="userSpaceOnUse" x1="9.8604" y1="88.4023" x2="80.9885" y2="88.4023">
			<stop  offset="0" style="stop-color:#F05A2A"/>
			<stop  offset="1" style="stop-color:#FBB041"/>
		</linearGradient>
		<path id="XMLID_354_" fill="url(#XMLID_5_)" d="M11.979,83.031c-2.377-0.081-3.691,1.16-3.852,3.509
			c-0.042,0.609-0.055,1.219-0.152,1.83c-0.131,0.815-0.723,1.249-1.461,1.07c-0.735-0.178-1.156-0.674-1.197-1.491
			c-0.176-3.501,1.896-6.328,5.545-7.342c1.773-0.492,3.572-0.681,5.359-1.028c1.675-0.325,3.351-0.652,5.024-1.031
			c0.805-0.182,0.984-0.102,0.954,0.721c-0.057,1.538-1.374,2.966-3.024,3.185c-1.151,0.153-2.295,0.186-3.567,0.28
			c-0.223,1.015-0.462,2.056-0.677,3.097c-0.676,3.281-1.34,6.562-2.017,9.845c-0.068,0.332-0.177,0.666-0.293,0.994
			c-0.468,1.318-1.055,1.754-2.204,1.657c-1.044-0.089-1.466-0.775-1.205-2.013c0.875-4.143,1.758-8.284,2.634-12.427
			C11.903,83.617,11.932,83.347,11.979,83.031z"/>
		<g id="XMLID_347_">
			<linearGradient id="XMLID_6_" gradientUnits="userSpaceOnUse" x1="9.8604" y1="86.1045" x2="80.9882" y2="86.1045">
				<stop  offset="0" style="stop-color:#F05A2A"/>
				<stop  offset="1" style="stop-color:#FBB041"/>
			</linearGradient>
			<path id="XMLID_349_" fill="url(#XMLID_6_)" d="M79.271,78.71c-0.461-0.032-0.98,0.109-1.407,1.54
				c-0.469,1.033-1.134,1.908-2.143,2.49c-1.439,0.832-2.955,0.623-3.532-0.485c0.037-0.041,0.071-0.104,0.116-0.124
				c2.579-1.124,3.997-3.215,4.779-5.722c0.678-2.174-0.392-3.224-2.537-2.647c-1.184,0.318-2.274,0.9-3.202,1.828
				c-1.953,1.955-2.975,4.224-3.065,6.727c-0.026,0.737-0.248,1.322-0.802,1.859c-0.663,0.643-1.387,0.511-1.536-0.287
				c-0.053-0.284-0.082-0.598-0.025-0.897c0.342-1.807,0.669-3.615,1.085-5.419c0.395-1.712,0.282-1.926-1.396-1.896
				c-0.054,0.001-0.108,0.005-0.163,0.008c-1.18,0.072-1.596,0.349-1.884,1.551c-0.426,1.775-0.779,3.559-1.081,5.337
				c-0.214,1.257-1.538,2.988-2.568,3.245c0.317-0.943,0.708-1.9,0.952-2.868c0.43-1.705,0.488-3.354-0.265-4.766
				c-0.832-1.56-2.537-1.679-4.14-0.321c-0.297,0.252-0.574,0.53-0.862,0.798c-0.58-0.918-1.928-1.096-2.987-0.348
				c-0.248,0.175-0.474,0.554-0.542,0.848c-0.269,1.139-0.439,2.281-0.704,3.421c-0.309,1.329-0.599,2.669-1.051,3.979
				c-0.507,0.691-1.275,1.335-1.832,1.474c0.318-0.943,0.708-1.9,0.952-2.868c0.43-1.705,0.488-3.354-0.265-4.766
				c-0.831-1.56-2.536-1.679-4.14-0.321c-0.297,0.252-0.574,0.529-0.862,0.798c-0.58-0.918-1.928-1.096-2.986-0.348
				c-0.248,0.175-0.474,0.554-0.543,0.847c-0.269,1.139-0.438,2.282-0.703,3.422c-0.309,1.329-0.6,2.669-1.052,3.979
				c-0.245,0.709-0.719,1.522-1.653,1.516c-0.598-0.004-0.908-0.894-0.685-1.954c0.41-1.947,0.872-3.894,1.289-5.841
				c0.054-0.25,0.036-0.71-0.056-0.722c-0.844-0.108-1.702-0.268-2.573-0.153c-0.723,0.094-0.903,0.888-1.045,1.501
				c-0.302,1.307-0.528,2.616-0.849,3.921c-0.258,1.053-0.548,2.112-0.952,3.141c-0.127,0.323-0.715,0.771-1.009,0.765
				c-0.288-0.007-0.498-0.497-0.687-0.816c-0.08-0.135-0.051-0.374-0.013-0.565c0.338-1.695,0.645-3.394,1.051-5.085
				c0.424-1.768,0.376-1.893-1.36-1.891c-0.107,0-0.216,0-0.325,0.009c-0.999,0.088-1.375,0.356-1.663,1.375
				c-0.321,1.134-0.555,2.276-0.821,3.415c-0.329,1.406-0.197,2.847-1.076,4.209c-0.318,0.492-0.655,1.222-1.262,0.997
				c-0.258-0.096-0.303-0.869-0.212-1.333c0.233-1.194,0.634-2.387,0.897-3.583c0.29-1.31-0.046-1.985-1.207-2.314
				c-0.789-0.223-1.638-0.334-2.485-0.394c-0.668-0.048-0.843-0.266-0.736-1.007c0.069-0.482-0.189-1.206-0.551-1.343
				c-0.422-0.161-1.204,0.039-1.673,0.365c-1.006,0.7-1.26,2.283-0.547,3.044c0.348,0.371,0.435,0.725,0.284,1.288
				c-0.376,1.412-1.617,6.741-1.988,8.154c-0.134,0.512-0.139,1.012,0.348,1.018c0.351,0.005,0.838-0.36,1.168-0.671
				c0.199-0.188,0.236-0.583,0.309-0.888c0.304-1.269,1.544-6.446,1.84-7.719c1.613,0.292,1.72,0.488,1.353,2.143
				c-0.266,1.196-0.524,2.395-0.71,3.59c-0.181,1.161-0.075,2.246,0.952,2.784c1.019,0.533,2.149,0.252,3.22-0.483
				c0.626-0.431,1.159-1.03,1.785-1.601c0.993,1.723,3.635,1.603,5.991-0.97c1.401,1.579,3.157,1.024,5.146-0.287
				c-0.246,1.227-0.454,2.304-0.682,3.38c-0.305,1.445,0.344,2.567,1.637,2.803c0.759,0.138,1.24-0.17,1.435-0.988
				c0.199-0.832,0.335-1.669,0.488-2.503c0.207-1.126,0.403-2.252,0.606-3.393c1.492,0.318,2.901,0.227,4.254-0.187
				c0,0.001-0.004,0.003-0.004,0.003c0.759-0.173,2.841-1.058,3.696-1.621c-0.247,1.227-0.455,2.594-0.683,3.671
				c-0.305,1.444,0.344,2.566,1.638,2.802c0.758,0.138,1.24-0.17,1.435-0.987c0.198-0.833,0.335-1.67,0.488-2.504
				c0.206-1.126,0.402-2.252,0.606-3.393c3.347,0.715,6.284-0.617,9.088-3.068c0.57,1.335,1.672,1.748,3.178,1.37
				c1.479-0.37,2.532-1.44,3.408-2.7c0.105,0.057,0.158,0.072,0.193,0.105c1.604,1.566,3.676,1.576,5.924,0.473
				c2.438-1.195,3.894-3.269,4.545-5.803C79.719,79.485,79.798,78.747,79.271,78.71z M45.088,87.644
				c-0.307,0.397-0.949,0.888-1.284,0.842c-0.341-0.046-0.667-0.657-0.689-1.097c-0.074-1.454,0.402-2.892,1.41-4.173
				c0.275-0.35,0.884-0.714,1.171-0.712c0.889,0.007,0.701,1.294,0.701,1.431C46.312,85.235,45.963,86.512,45.088,87.644z
				 M57.826,81.72c-0.083,1.3-0.433,2.577-1.308,3.708c-0.308,0.397-0.95,0.888-1.285,0.842c-0.34-0.046-0.667-0.657-0.689-1.097
				c-0.073-1.454,0.403-2.891,1.411-4.173c0.274-0.35,0.884-0.714,1.17-0.712C58.015,80.295,57.826,81.582,57.826,81.72z
				 M73.597,77.11c0.26-0.225,0.721-0.55,1-0.39c0.279,0.161,0.09,0.76-0.06,1.078c-0.536,1.142-1.424,1.976-2.7,2.708
				C72.12,79.097,72.585,77.981,73.597,77.11z"/>
			<linearGradient id="XMLID_9_" gradientUnits="userSpaceOnUse" x1="9.8584" y1="72.1074" x2="80.989" y2="72.1074">
				<stop  offset="0" style="stop-color:#F05A2A"/>
				<stop  offset="1" style="stop-color:#FBB041"/>
			</linearGradient>
			<path id="XMLID_348_" fill="url(#XMLID_9_)" d="M68.771,71.107c0.033,1.234-0.511,2.191-1.445,2.974
				c-1.214,1.015-2.591,0.604-2.693-0.812c-0.079-1.095,0.366-2.105,1.253-2.958c0.604-0.581,1.292-0.896,2.006-0.661
				C68.573,69.873,68.818,70.444,68.771,71.107z"/>
		</g>
	</g>
</g>
</svg>
