<?xml version="1.0" encoding="utf-8"?>
<!-- Generator: Adobe Illustrator 16.0.0, SVG Export Plug-In . SVG Version: 6.00 Build 0)  -->
<!DOCTYPE svg PUBLIC "-//W3C//DTD SVG 1.1//EN" "http://www.w3.org/Graphics/SVG/1.1/DTD/svg11.dtd">
<svg version="1.1" id="Layer_1" xmlns="http://www.w3.org/2000/svg" xmlns:xlink="http://www.w3.org/1999/xlink" x="0px" y="0px"
	 width="85px" height="130px" viewBox="0 0 85 130" enable-background="new 0 0 85 130" xml:space="preserve">
<g>
	<g>
		<path fill="#F05A2A" d="M4.81,105.577c1.426,0,2.169,0.717,2.169,0.717l-0.422,0.625c0,0-0.667-0.582-1.68-0.582
			c-1.4,0-2.244,1.021-2.244,2.295c0,1.384,0.944,2.337,2.193,2.337c1.029,0,1.688-0.742,1.688-0.742v-0.86h-0.97v-0.726h1.729
			v2.995H6.539v-0.371c0-0.127,0.009-0.253,0.009-0.253H6.531c0,0-0.65,0.726-1.831,0.726c-1.604,0-2.929-1.266-2.929-3.089
			C1.771,106.927,3.071,105.577,4.81,105.577z"/>
		<path fill="#F05A2A" d="M13.376,109.922h-2.245l-0.591,1.713H9.68l2.144-5.957H12.7l2.144,5.957h-0.869L13.376,109.922z
			 M12.254,106.497c0,0-0.136,0.54-0.236,0.844l-0.667,1.89h1.806l-0.658-1.89c-0.102-0.304-0.228-0.844-0.228-0.844H12.254z"/>
		<path fill="#F05A2A" d="M17.579,110.319c0,0,0.633,0.642,1.519,0.642c0.557,0,1.029-0.312,1.029-0.878
			c0-1.291-2.886-1.013-2.886-2.844c0-0.928,0.802-1.662,1.924-1.662c1.105,0,1.688,0.6,1.688,0.6l-0.379,0.691
			c0,0-0.549-0.515-1.309-0.515c-0.633,0-1.08,0.396-1.08,0.869c0,1.231,2.886,0.903,2.886,2.835c0,0.92-0.709,1.68-1.89,1.68
			c-1.266,0-1.975-0.785-1.975-0.785L17.579,110.319z"/>
		<path fill="#F05A2A" d="M25.283,106.404h-2.042v-0.726h4.92v0.726h-2.042v5.231h-0.836V106.404z"/>
		<path fill="#F05A2A" d="M30.854,105.678h1.823c0.624,0,0.886,0.051,1.113,0.135c0.608,0.228,1.005,0.827,1.005,1.611
			c0,0.76-0.422,1.401-1.072,1.612v0.017c0,0,0.067,0.076,0.178,0.27l1.266,2.312h-0.945l-1.257-2.371h-1.274v2.371h-0.836V105.678z
			 M32.888,108.539c0.649,0,1.055-0.413,1.055-1.08c0-0.438-0.169-0.751-0.473-0.92c-0.16-0.084-0.354-0.135-0.818-0.135h-0.962
			v2.135H32.888z"/>
		<path fill="#F05A2A" d="M40.761,105.577c1.722,0,3.055,1.325,3.055,3.038c0,1.755-1.333,3.122-3.055,3.122
			c-1.721,0-3.062-1.367-3.062-3.122C37.698,106.902,39.04,105.577,40.761,105.577z M40.761,110.968
			c1.216,0,2.194-1.012,2.194-2.354c0-1.3-0.979-2.278-2.194-2.278c-1.215,0-2.202,0.979-2.202,2.278
			C38.559,109.957,39.546,110.968,40.761,110.968z"/>
		<path fill="#F05A2A" d="M46.871,105.678h0.827l2.649,3.873c0.22,0.32,0.498,0.86,0.498,0.86h0.018c0,0-0.06-0.531-0.06-0.86
			v-3.873h0.835v5.957H50.82l-2.657-3.864c-0.22-0.329-0.498-0.869-0.498-0.869h-0.018c0,0,0.06,0.531,0.06,0.869v3.864h-0.836
			V105.678z"/>
		<path fill="#F05A2A" d="M57.758,105.577c1.722,0,3.055,1.325,3.055,3.038c0,1.755-1.333,3.122-3.055,3.122
			c-1.721,0-3.062-1.367-3.062-3.122C54.695,106.902,56.037,105.577,57.758,105.577z M57.758,110.968
			c1.216,0,2.194-1.012,2.194-2.354c0-1.3-0.979-2.278-2.194-2.278c-1.215,0-2.202,0.979-2.202,2.278
			C55.556,109.957,56.543,110.968,57.758,110.968z"/>
		<path fill="#F05A2A" d="M64.164,105.678h0.878l1.366,3.223c0.136,0.329,0.296,0.802,0.296,0.802h0.017c0,0,0.16-0.473,0.295-0.802
			l1.367-3.223h0.878l0.48,5.957h-0.826l-0.296-3.755c-0.025-0.363-0.008-0.878-0.008-0.878h-0.018c0,0-0.177,0.549-0.32,0.878
			l-1.189,2.684h-0.743l-1.181-2.684c-0.136-0.32-0.321-0.895-0.321-0.895h-0.017c0,0,0.009,0.531-0.017,0.895l-0.287,3.755h-0.836
			L64.164,105.678z"/>
		<path fill="#F05A2A" d="M73.018,105.678h0.835v5.957h-0.835V105.678z"/>
		<path fill="#F05A2A" d="M80.266,109.922h-2.245l-0.591,1.713h-0.86l2.144-5.957h0.877l2.144,5.957h-0.869L80.266,109.922z
			 M79.144,106.497c0,0-0.136,0.54-0.236,0.844l-0.667,1.89h1.806l-0.658-1.89c-0.102-0.304-0.228-0.844-0.228-0.844H79.144z"/>
	</g>
</g>
<linearGradient id="XMLID_2_" gradientUnits="userSpaceOnUse" x1="14.3682" y1="34.1519" x2="70.6318" y2="34.1519">
	<stop  offset="0" style="stop-color:#F05A2A"/>
	<stop  offset="1" style="stop-color:#FBB041"/>
</linearGradient>
<path id="XMLID_3329_" fill="url(#XMLID_2_)" d="M69.533,55.881L45.846,34.097c0.609-0.442,1.317-0.687,2.038-0.716
	c0.95-0.039,1.9-0.373,2.627-1.099l10.908-10.908c0,0,10.563-10.083,6.787-13.86c-0.974-0.973-2.552-0.972-3.525,0.002
	l-22.872,22.87l-1.598-1.469c-0.807-0.806-1.345-1.779-1.623-2.805l-1.043-4.532l-0.002-0.001c-0.258-1.126-0.823-2.197-1.7-3.074
	c-0.199-0.201-0.411-0.382-0.624-0.551L21.067,6.144c-0.217-0.176-0.538-0.165-0.741,0.038c-0.217,0.217-0.216,0.567,0.001,0.785
	l12.229,12.035c0.299,0.298,0.298,0.782,0,1.081c-0.298,0.298-0.781,0.298-1.08,0L19.147,8.146
	c-0.218-0.217-0.569-0.216-0.786,0.001c-0.217,0.217-0.217,0.567,0,0.785l12.133,12.131c0.298,0.299,0.298,0.782,0,1.081
	c-0.299,0.298-0.782,0.298-1.081,0L17.281,10.012c-0.218-0.217-0.568-0.217-0.786,0.001c-0.217,0.216-0.217,0.567,0,0.784
	l11.937,12.329c0.298,0.298,0.298,0.781,0,1.08c-0.299,0.298-0.782,0.298-1.081,0L15.316,11.978c-0.218-0.217-0.569-0.216-0.786,0
	c-0.202,0.202-0.215,0.523-0.038,0.741l11.81,14.149c0.167,0.217,0.351,0.427,0.55,0.626c0.877,0.876,1.947,1.442,3.074,1.699
	l0.002,0.002l4.531,1.044c1.027,0.276,1.996,0.82,2.803,1.626l1.47,1.598L17.077,55.116c-1.464,1.464-1.466,3.839,0,5.304
	c1.465,1.465,3.84,1.464,5.304,0l20.196-22.776l21.652,23.541c1.465,1.465,3.84,1.465,5.305,0
	C70.997,59.721,70.998,57.346,69.533,55.881z"/>
<g id="XMLID_7_">
	<g id="XMLID_8_">
		<linearGradient id="XMLID_3_" gradientUnits="userSpaceOnUse" x1="9.8604" y1="88.4028" x2="80.9885" y2="88.4028">
			<stop  offset="0" style="stop-color:#F05A2A"/>
			<stop  offset="1" style="stop-color:#FBB041"/>
		</linearGradient>
		<path id="XMLID_48_" fill="url(#XMLID_3_)" d="M11.979,83.031c-2.377-0.081-3.691,1.161-3.852,3.509
			c-0.042,0.609-0.055,1.219-0.152,1.83c-0.131,0.815-0.723,1.249-1.461,1.07c-0.735-0.178-1.156-0.674-1.197-1.492
			c-0.176-3.5,1.896-6.328,5.545-7.341c1.773-0.492,3.572-0.681,5.359-1.028c1.675-0.326,3.351-0.652,5.024-1.031
			c0.805-0.183,0.984-0.103,0.954,0.72c-0.057,1.539-1.374,2.966-3.024,3.186c-1.151,0.152-2.295,0.185-3.567,0.28
			c-0.223,1.015-0.462,2.055-0.677,3.096c-0.676,3.282-1.34,6.563-2.017,9.845c-0.068,0.333-0.177,0.667-0.293,0.995
			c-0.468,1.317-1.055,1.754-2.204,1.656c-1.044-0.088-1.466-0.775-1.205-2.013c0.875-4.142,1.758-8.284,2.634-12.426
			C11.903,83.617,11.932,83.347,11.979,83.031z"/>
		<g id="XMLID_14_">
			<linearGradient id="XMLID_4_" gradientUnits="userSpaceOnUse" x1="9.8604" y1="86.104" x2="80.9882" y2="86.104">
				<stop  offset="0" style="stop-color:#F05A2A"/>
				<stop  offset="1" style="stop-color:#FBB041"/>
			</linearGradient>
			<path id="XMLID_25_" fill="url(#XMLID_4_)" d="M79.271,78.709c-0.461-0.032-0.98,0.11-1.407,1.541
				c-0.469,1.033-1.134,1.908-2.143,2.491c-1.439,0.831-2.955,0.623-3.532-0.486c0.037-0.041,0.071-0.105,0.116-0.125
				c2.579-1.124,3.997-3.214,4.779-5.722c0.678-2.174-0.392-3.224-2.537-2.647c-1.184,0.318-2.274,0.901-3.202,1.829
				c-1.953,1.956-2.975,4.224-3.065,6.726c-0.026,0.737-0.248,1.323-0.802,1.86c-0.663,0.643-1.387,0.51-1.536-0.288
				c-0.053-0.284-0.082-0.597-0.025-0.897c0.342-1.807,0.669-3.615,1.085-5.419c0.395-1.711,0.282-1.925-1.396-1.895
				c-0.054,0.001-0.108,0.004-0.163,0.008c-1.18,0.072-1.596,0.348-1.884,1.55c-0.426,1.776-0.779,3.559-1.081,5.337
				c-0.214,1.256-1.538,2.988-2.568,3.245c0.317-0.943,0.708-1.9,0.952-2.867c0.43-1.705,0.488-3.354-0.265-4.766
				c-0.832-1.56-2.537-1.678-4.14-0.321c-0.297,0.251-0.574,0.53-0.862,0.797c-0.58-0.917-1.928-1.095-2.987-0.348
				c-0.248,0.175-0.474,0.554-0.542,0.848c-0.269,1.139-0.439,2.282-0.704,3.421c-0.309,1.33-0.599,2.669-1.051,3.979
				c-0.507,0.691-1.275,1.335-1.832,1.474c0.318-0.943,0.708-1.9,0.952-2.868c0.43-1.705,0.488-3.354-0.265-4.766
				c-0.831-1.559-2.536-1.678-4.14-0.321c-0.297,0.252-0.574,0.53-0.862,0.798c-0.58-0.917-1.928-1.095-2.986-0.348
				c-0.248,0.175-0.474,0.554-0.543,0.847c-0.269,1.139-0.438,2.282-0.703,3.421c-0.309,1.33-0.6,2.669-1.052,3.979
				c-0.245,0.709-0.719,1.522-1.653,1.516c-0.598-0.004-0.908-0.894-0.685-1.954c0.41-1.947,0.872-3.894,1.289-5.841
				c0.054-0.25,0.036-0.71-0.056-0.722c-0.844-0.108-1.702-0.267-2.573-0.153c-0.723,0.094-0.903,0.888-1.045,1.501
				c-0.302,1.306-0.528,2.616-0.849,3.921c-0.258,1.052-0.548,2.112-0.952,3.14c-0.127,0.324-0.715,0.771-1.009,0.765
				c-0.288-0.006-0.498-0.497-0.687-0.815c-0.08-0.136-0.051-0.375-0.013-0.566c0.338-1.695,0.645-3.393,1.051-5.085
				c0.424-1.767,0.376-1.893-1.36-1.89c-0.107,0-0.216,0-0.325,0.009c-0.999,0.087-1.375,0.355-1.663,1.374
				c-0.321,1.134-0.555,2.277-0.821,3.416c-0.329,1.406-0.197,2.847-1.076,4.208c-0.318,0.493-0.655,1.222-1.262,0.998
				c-0.258-0.096-0.303-0.869-0.212-1.333c0.233-1.194,0.634-2.387,0.897-3.582c0.29-1.311-0.046-1.986-1.207-2.315
				c-0.789-0.223-1.638-0.334-2.485-0.394c-0.668-0.047-0.843-0.266-0.736-1.006c0.069-0.482-0.189-1.206-0.551-1.343
				c-0.422-0.161-1.204,0.04-1.673,0.366c-1.006,0.7-1.26,2.283-0.547,3.043c0.348,0.371,0.435,0.725,0.284,1.288
				c-0.376,1.413-1.617,6.741-1.988,8.154c-0.134,0.512-0.139,1.012,0.348,1.018c0.351,0.005,0.838-0.36,1.168-0.67
				c0.199-0.188,0.236-0.584,0.309-0.889c0.304-1.268,1.544-6.446,1.84-7.719c1.613,0.292,1.72,0.489,1.353,2.143
				c-0.266,1.196-0.524,2.396-0.71,3.59c-0.181,1.162-0.075,2.246,0.952,2.784c1.019,0.534,2.149,0.252,3.22-0.483
				c0.626-0.43,1.159-1.03,1.785-1.6c0.993,1.722,3.635,1.602,5.991-0.97c1.401,1.579,3.157,1.025,5.146-0.287
				c-0.246,1.227-0.454,2.304-0.682,3.381c-0.305,1.444,0.344,2.567,1.637,2.802c0.759,0.138,1.24-0.169,1.435-0.988
				c0.199-0.833,0.335-1.669,0.488-2.503c0.207-1.126,0.403-2.252,0.606-3.393c1.492,0.318,2.901,0.227,4.254-0.186
				c0,0.001-0.004,0.003-0.004,0.003c0.759-0.173,2.841-1.058,3.696-1.622c-0.247,1.227-0.455,2.593-0.683,3.67
				c-0.305,1.444,0.344,2.567,1.638,2.802c0.758,0.138,1.24-0.169,1.435-0.988c0.198-0.833,0.335-1.669,0.488-2.504
				c0.206-1.126,0.402-2.251,0.606-3.393c3.347,0.715,6.284-0.617,9.088-3.067c0.57,1.334,1.672,1.747,3.178,1.37
				c1.479-0.371,2.532-1.44,3.408-2.7c0.105,0.056,0.158,0.071,0.193,0.105c1.604,1.566,3.676,1.576,5.924,0.473
				c2.438-1.196,3.894-3.269,4.545-5.803C79.719,79.485,79.798,78.747,79.271,78.709z M45.088,87.644
				c-0.307,0.397-0.949,0.887-1.284,0.841c-0.341-0.046-0.667-0.657-0.689-1.097c-0.074-1.454,0.402-2.891,1.41-4.173
				c0.275-0.35,0.884-0.713,1.171-0.711c0.889,0.007,0.701,1.294,0.701,1.431C46.312,85.235,45.963,86.512,45.088,87.644z
				 M57.826,81.719c-0.083,1.3-0.433,2.577-1.308,3.708c-0.308,0.397-0.95,0.887-1.285,0.842c-0.34-0.046-0.667-0.657-0.689-1.097
				c-0.073-1.454,0.403-2.891,1.411-4.173c0.274-0.35,0.884-0.713,1.17-0.711C58.015,80.295,57.826,81.583,57.826,81.719z
				 M73.597,77.11c0.26-0.224,0.721-0.549,1-0.389c0.279,0.16,0.09,0.759-0.06,1.078c-0.536,1.142-1.424,1.976-2.7,2.708
				C72.12,79.097,72.585,77.981,73.597,77.11z"/>
			<linearGradient id="XMLID_5_" gradientUnits="userSpaceOnUse" x1="9.8584" y1="72.1079" x2="80.989" y2="72.1079">
				<stop  offset="0" style="stop-color:#F05A2A"/>
				<stop  offset="1" style="stop-color:#FBB041"/>
			</linearGradient>
			<path id="XMLID_16_" fill="url(#XMLID_5_)" d="M68.771,71.107c0.033,1.234-0.511,2.191-1.445,2.973
				c-1.214,1.016-2.591,0.605-2.693-0.811c-0.079-1.095,0.366-2.106,1.253-2.958c0.604-0.581,1.292-0.895,2.006-0.661
				C68.573,69.873,68.818,70.444,68.771,71.107z"/>
		</g>
	</g>
</g>
</svg>
