<?xml version="1.0" ?><svg id="Layer_1" style="enable-background:new 0 0 128 128;" version="1.1" viewBox="0 0 128 128" xml:space="preserve" xmlns="http://www.w3.org/2000/svg" xmlns:xlink="http://www.w3.org/1999/xlink"><style type="text/css">
	.st0{fill:#F3F3F3;}
	.st1{fill:#DAD9D8;}
	.st2{fill:#DB674C;}
	.st3{fill:#474F59;}
	.st4{fill:#FDDA7F;}
	.st5{fill:#F6BB53;}
	.st6{fill:#25313B;}
	.st7{fill:#F37C5A;}
</style><g><g><g><path class="st0" d="M125.5,64c0,34.6-28,62.7-62.7,62.7S0,98.6,0,64S28.1,1.3,62.7,1.3C97.4,1.3,125.5,29.4,125.5,64z"/></g><g><path class="st1" d="M103.9,25.4c-0.1,0-0.3,0-0.4,0c-0.3-0.7-0.9-1.2-1.6-1.3c-0.5-1.5-1.8-2.5-3.4-2.5c-2,0-3.5,1.6-3.5,3.5     c0,0.1,0,0.3,0,0.4h-0.1c-1.1,0-2,0.9-2,2c0,1.1,0.9,2,2,2h9.1c1.2,0,2.2-1,2.2-2.2S105.1,25.4,103.9,25.4z"/></g><g><circle class="st2" cx="88.3" cy="20.5" r="10.3"/></g><g><g><path class="st3" d="M43.4,35.9c0,0.2-0.1,0.4-0.2,0.6v37h-1.1V36.4c-0.2-0.2-0.2-0.4-0.2-0.6c0-0.4,0.4-0.8,0.8-0.8      C43.1,35,43.4,35.4,43.4,35.9z"/></g><g><polygon class="st4" points="116.4,112.5 42,112.5 42,58.5 83.4,58.5     "/></g><g><polygon class="st5" points="42,58.5 9,112.5 75.2,112.5     "/></g><g><polygon class="st6" points="25.2,112.5 36,112.5 42,78.1     "/></g><g><polygon class="st3" points="42,78.1 36,112.5 58.9,112.5     "/></g><g><g><rect class="st3" height="7.4" width="2.3" x="75.2" y="105.2"/></g><g><g><rect class="st5" height="1.8" width="4.4" x="74.1" y="110.8"/></g><g><polygon class="st5" points="82.9,112.5 78.5,112.5 78.5,110.8 82.9,108.9       "/></g></g></g><g><g><rect class="st3" height="7.4" width="2.3" x="6.7" y="105.2"/></g><g><g><rect class="st5" height="1.8" width="4.4" x="5.8" y="110.7"/></g><g><polygon class="st5" points="1.3,112.5 5.7,112.5 5.7,110.8 1.3,108.9       "/></g></g></g><g><rect class="st3" height="7.4" width="2.3" x="116.4" y="105.2"/></g><g><g><rect class="st4" height="1.8" width="4.4" x="115.4" y="110.8"/></g><g><polygon class="st4" points="124.2,112.5 119.8,112.5 119.8,110.8 124.2,108.9      "/></g></g><g><polygon class="st7" points="51.8,41.7 56.4,46.2 43.2,46.2 43.2,37.1 56.4,37.1     "/></g></g><g><path class="st1" d="M57.1,8.5c-0.3,0-0.6,0-0.9,0.1c-0.5-1.4-1.7-2.4-3.1-2.5c-0.9-2.8-3.5-4.8-6.6-4.8c-3.8,0-7,3.1-7,7     c0,0.3,0,0.6,0.1,0.8c-0.1,0-0.1,0-0.2,0c-2.2,0-3.9,1.8-3.9,3.9s1.8,3.9,3.9,3.9h17.6c2.3,0,4.1-1.9,4.1-4.1S59.4,8.5,57.1,8.5z     "/></g><g><path class="st1" d="M122.6,50.3c-0.4,0-0.7,0-1.1,0.1c-0.6-1.8-2.2-3-4.1-3.2c-1.2-3.6-4.6-6.2-8.5-6.2c-5,0-9,4-9,9     c0,0.4,0,0.7,0.1,1.1c-0.1,0-0.2,0-0.3,0c-2.7,0-5,2.3-5,5c0,2.7,2.3,5,5,5h22.9c2.9,0,5.4-2.5,5.4-5.4     C128,52.7,125.5,50.3,122.6,50.3z"/></g><g><path class="st1" d="M28,38.3c-0.3,0-0.5,0-0.8,0.1c-0.5-1.3-1.6-2.3-2.9-2.4c-0.9-2.6-3.3-4.5-6.3-4.5c-3.6,0-6.6,2.9-6.6,6.6     c0,0.3,0,0.5,0.1,0.8c-0.1,0-0.1,0-0.2,0c-2.1,0-3.7,1.7-3.7,3.7c0,2.1,1.7,3.6,3.7,3.6h16.8c2.2,0,3.9-1.8,3.9-3.9     C32,40.2,30.2,38.3,28,38.3z"/></g><g><path class="st1" d="M80.1,15.8c-0.2,0-0.3,0-0.5,0c-0.3-0.8-1-1.4-1.8-1.5c-0.5-1.6-2-2.7-3.7-2.7c-2.2,0-3.9,1.8-3.9,3.9     c0,0.2,0,0.3,0,0.5h-0.1c-1.2,0-2.2,1-2.2,2.2s1,2.2,2.2,2.2h10.1c1.3,0,2.4-1.1,2.4-2.4C82.5,16.7,81.4,15.8,80.1,15.8z"/></g></g></g></svg>